# Blender 4.5.2 LTS
# www.blender.org
mtllib brazoIzq.mtl
o brazoizq
v 0.485800 1.943100 0.019100
v 0.475600 1.465100 -0.307400
v 0.433000 1.367300 -0.213400
v 1.039900 1.916300 -0.023200
v 0.985600 1.943000 -0.113100
v 0.618700 2.013900 0.079700
v 0.520400 1.850800 0.121500
v 0.485800 1.351400 0.108700
v 0.595800 1.463000 0.211900
v 0.607300 2.014900 0.044100
v 0.601300 1.534900 -0.367400
v 0.516800 1.963100 0.002300
v 0.930000 1.830200 -0.253100
v 1.416200 1.413600 -0.274800
v 1.042600 1.903500 0.085200
v 1.469800 1.470600 -0.087200
v 1.036100 1.811900 0.142500
v 0.988600 1.728500 0.229200
v 1.450100 1.437300 0.005400
v 0.917600 1.701100 0.266500
v 0.736900 1.706900 0.315300
v 1.140500 1.222700 0.216400
v 0.991800 1.106200 0.170200
v 0.443500 1.315800 0.001900
v 0.394800 1.316100 -0.107800
v 0.788000 0.956000 -0.081900
v 0.867500 1.053600 -0.279700
v 0.745300 1.747100 -0.327300
v 1.027600 1.123500 -0.338900
v 1.442600 0.700600 -0.270800
v 1.567400 0.731900 -0.210700
v 1.567700 0.541500 -0.181900
v 1.605900 0.766400 -0.139600
v 1.623800 0.796400 -0.069200
v 1.613900 0.616400 -0.053600
v 1.609800 0.794400 0.005800
v 1.579600 0.788800 0.080200
v 1.603000 0.621300 0.019300
v 1.432200 0.775500 0.134400
v 1.287100 0.753000 0.158900
v 1.336500 0.594300 0.167500
v 1.160200 0.716700 0.129800
v 1.036400 0.668300 0.062100
v 1.228600 0.550900 0.131700
v 1.005200 0.659500 -0.016500
v 0.974000 0.650800 -0.095100
v 1.078800 0.474900 -0.064400
v 1.013500 0.671600 -0.174400
v 1.069300 0.696100 -0.253200
v 1.158700 0.490800 -0.214000
v 1.193400 0.683400 -0.289900
v 1.315500 0.678400 -0.302100
v 1.264800 0.475900 -0.246200
v 1.589900 0.400600 -0.094200
v 1.600900 0.433100 -0.032800
v 1.498800 0.424400 0.072700
v 0.477900 1.857000 0.087300
v 0.636800 1.971100 0.171100
v 0.617900 1.924000 0.174500
v 0.548800 1.846500 0.146100
v 0.599900 1.887800 0.176100
v 1.294200 1.318000 -0.366700
v 1.452700 1.448700 -0.183300
v 1.434700 1.406500 0.091800
v 1.315500 1.306600 0.143500
v 0.869400 1.004700 0.108400
v 0.831700 0.983300 0.016500
v 0.810500 0.993400 -0.177300
v 1.161400 1.183200 -0.361200
v 1.460400 0.507400 -0.232000
v 1.567000 0.364400 -0.155800
v 1.491400 0.334200 -0.205200
v 1.603800 0.581800 -0.118900
v 1.577500 0.621200 0.089400
v 1.574100 0.438200 0.103900
v 1.596500 0.438500 0.035700
v 1.460600 0.615300 0.143400
v 1.396800 0.415700 0.178200
v 1.493200 0.433700 0.151500
v 1.130100 0.504300 0.083500
v 1.245200 0.334700 0.097300
v 1.320100 0.381500 0.153200
v 1.105500 0.490500 0.010900
v 1.207500 0.307800 -0.044300
v 1.226400 0.321200 0.026500
v 1.112500 0.473800 -0.135400
v 1.267400 0.306800 -0.182200
v 1.232800 0.305800 -0.113300
v 1.360200 0.483100 -0.263900
v 1.414600 0.312300 -0.234600
v 1.341400 0.306300 -0.216400
v 1.481900 0.390000 0.011200
v 1.405700 0.364000 -0.028200
v 1.329900 0.323500 -0.068700
v 0.474500 1.922000 0.041100
v 0.608300 2.018100 0.115000
v 0.545800 1.981000 -0.008600
v 0.462500 1.890800 0.063800
v 0.623700 2.003700 0.149800
v 0.588200 2.010400 0.010900
v 1.256300 0.320700 -0.042500
v 1.297100 -0.288300 0.053500
v 1.224300 -0.341300 0.072200
v 1.293600 -0.323900 0.165200
v 1.287400 -0.320200 0.252600
v 1.325600 -0.312500 0.292500
v 1.358200 -0.308700 0.285900
v 1.379700 -0.313500 0.234200
v 1.412100 -0.313900 0.141500
v 1.372300 -0.330600 0.042700
v 1.372400 -0.331900 -0.065000
v 1.308000 -0.346000 -0.137900
v 1.268800 -0.349200 -0.178100
v 1.236200 -0.353000 -0.171400
v 1.215700 -0.352700 -0.119500
v 1.253800 -0.341900 -0.041300
v 1.716300 -0.276000 0.106000
v 1.636600 -0.468700 0.136500
v 1.619300 -0.513600 0.011100
v 1.718900 -0.290300 -0.027600
v 1.705700 -0.270300 0.215300
v 1.594400 -0.432400 0.247900
v 1.642400 -0.265600 0.286900
v 1.574000 -0.399700 0.308000
v 1.560000 -0.266000 0.302800
v 1.539200 -0.368900 0.312000
v 1.474700 -0.271300 0.259900
v 1.499100 -0.332300 0.257500
v 1.514900 -0.277000 0.144900
v 1.490300 -0.325300 0.152200
v 1.456200 -0.291500 0.023200
v 1.439700 -0.338700 0.030500
v 1.465300 -0.299400 -0.112300
v 1.441400 -0.347500 -0.101700
v 1.385300 -0.311800 -0.203500
v 1.410900 -0.372300 -0.200100
v 1.448600 -0.316500 -0.275100
v 1.429300 -0.418800 -0.258600
v 1.531100 -0.316100 -0.291000
v 1.464000 -0.449600 -0.262600
v 1.616400 -0.310800 -0.248100
v 1.506200 -0.472400 -0.209700
v 1.666700 -0.298500 -0.151200
v 1.587700 -0.490900 -0.117400
v 1.720900 -0.103900 0.100600
v 1.716500 -0.111300 -0.042800
v 1.670800 -0.107300 0.263800
v 1.623900 -0.114900 0.320400
v 1.524200 -0.136100 0.328400
v 1.463800 -0.152100 0.265000
v 1.468800 -0.156100 0.153700
v 1.419700 -0.172800 0.019800
v 1.415400 -0.180300 -0.123500
v 1.356100 -0.197800 -0.226700
v 1.412200 -0.189200 -0.302700
v 1.512600 -0.168400 -0.323900
v 1.615000 -0.144200 -0.281300
v 1.667500 -0.128100 -0.176700
v 1.680300 0.083300 0.092000
v 1.676000 0.075900 -0.051300
v 1.643900 0.082900 0.255200
v 1.207700 -0.144100 0.362500
v 1.244600 -0.193300 0.369800
v 1.246600 -0.149700 0.409900
v 1.222000 -0.138300 0.420700
v 1.220500 -0.143100 0.323400
v 1.257400 -0.192400 0.330800
v 1.262000 -0.135400 0.294100
v 1.263300 -0.151000 0.301300
v 1.399000 0.025100 0.151300
v 1.421400 0.034700 0.256400
v 1.356900 0.009800 0.016000
v 1.345500 0.000900 -0.125900
v 1.313700 -0.011000 -0.234800
v 1.371600 -0.001900 -0.311200
v 1.472000 0.018800 -0.332400
v 1.574400 0.043000 -0.289800
v 1.626900 0.059100 -0.185200
v 1.631800 0.248700 0.069400
v 1.626200 0.241800 -0.056200
v 1.628000 0.230600 0.217200
v 1.212600 -0.072100 0.359100
v 1.250300 -0.077800 0.385000
v 1.222900 -0.071400 0.327800
v 1.261700 -0.079000 0.305400
v 1.305700 0.181200 0.138100
v 1.400900 0.181400 0.218500
v 1.274000 0.161900 0.018700
v 1.258800 0.159900 -0.105500
v 1.290100 0.161800 -0.213800
v 1.352200 0.172100 -0.283300
v 1.432800 0.188700 -0.300300
v 1.515800 0.208500 -0.261400
v 1.584800 0.227400 -0.174300
v 1.563800 0.391700 0.044900
v 1.555100 0.382500 -0.044800
v 1.543900 0.394800 0.120900
v 1.499200 0.391200 0.168300
v 1.543000 0.238800 0.272700
v 1.438800 0.381600 0.177600
v 1.462000 0.221200 0.273100
v 1.374500 0.367900 0.147100
v 1.319000 0.352800 0.082700
v 1.283400 0.339300 -0.002700
v 1.274700 0.330100 -0.092400
v 1.294600 0.327000 -0.168400
v 1.339200 0.330600 -0.215800
v 1.399700 0.340200 -0.225100
v 1.464000 0.353900 -0.194600
v 1.519500 0.369000 -0.130200
v 1.407800 0.402300 -0.024200
v 1.441100 -0.075200 0.430400
v 1.395700 -0.144400 0.407000
v 1.373400 -0.151000 0.369800
v 1.407700 -0.101500 0.296500
v 1.421700 -0.007800 0.448700
v 1.378800 -0.024600 0.284400
v 1.420500 0.084000 0.423800
v 1.392500 0.104200 0.406900
v 1.340400 0.100900 0.358600
v 1.379700 0.094700 0.291000
v 1.408700 -0.496200 0.174300
v 1.356400 -0.546300 0.064700
v 1.404000 -0.489400 0.282800
v 1.415300 -0.461900 0.325200
v 1.419400 -0.427400 0.321400
v 1.420900 -0.374500 0.276300
v 1.430800 -0.337900 0.164800
v 1.383000 -0.349200 0.042300
v 1.381800 -0.360000 -0.089200
v 1.332700 -0.414500 -0.181300
v 1.316400 -0.474100 -0.213200
v 1.312300 -0.508600 -0.209400
v 1.318300 -0.528200 -0.161900
v 1.362900 -0.517000 -0.063300
vn -0.7966 0.3487 -0.4938
vn -0.7005 -0.0125 -0.7136
vn -0.8170 -0.2509 -0.5193
vn 0.5414 0.8407 -0.0080
vn 0.3218 0.8773 -0.3560
vn 0.2018 0.9789 -0.0320
vn -0.6429 0.0342 0.7652
vn -0.7059 -0.3159 0.6340
vn -0.4598 -0.1958 0.8662
vn 0.1843 0.9622 -0.2007
vn -0.2954 0.1386 -0.9453
vn -0.5876 0.4653 -0.6620
vn 0.1854 0.6242 -0.7589
vn 0.6489 0.3481 -0.6766
vn 0.4998 0.7320 0.4630
vn 0.8686 0.4946 0.0289
vn 0.4809 0.4764 0.7361
vn 0.3977 0.3987 0.8264
vn 0.8252 0.4511 0.3399
vn 0.2720 0.3109 0.9107
vn -0.1333 0.2344 0.9630
vn 0.1454 -0.0817 0.9860
vn -0.2002 -0.2340 0.9514
vn -0.8170 -0.4040 0.4115
vn -0.9278 -0.3663 -0.0706
vn -0.7629 -0.6454 0.0368
vn -0.4131 -0.3872 -0.8243
vn -0.1447 0.4648 -0.8735
vn -0.1584 -0.1529 -0.9755
vn 0.3507 -0.0983 -0.9313
vn 0.7047 -0.0250 -0.7090
vn 0.7138 -0.1200 -0.6900
vn 0.9266 0.0501 -0.3726
vn 0.9940 0.0984 -0.0473
vn 0.9988 -0.0483 0.0068
vn 0.9561 0.1020 0.2747
vn 0.7148 0.0939 0.6930
vn 0.9694 -0.0188 0.2449
vn 0.2530 0.0721 0.9648
vn -0.0058 -0.0204 0.9998
vn -0.0574 0.0239 0.9981
vn -0.2976 -0.1718 0.9391
vn -0.6590 -0.3644 0.6580
vn -0.3479 -0.0958 0.9326
vn -0.8136 -0.4439 0.3755
vn -0.8606 -0.5034 -0.0779
vn -0.8340 -0.5512 0.0251
vn -0.7137 -0.4417 -0.5436
vn -0.4914 -0.3407 -0.8015
vn -0.5350 -0.4124 -0.7374
vn -0.2025 -0.2269 -0.9526
vn 0.0802 -0.1464 -0.9860
vn -0.2430 -0.2818 -0.9282
vn 0.8420 -0.5382 0.0376
vn 0.8572 -0.4977 0.1325
vn 0.3167 -0.9176 0.2401
vn -0.7877 -0.0078 0.6160
vn 0.1672 0.4520 0.8762
vn -0.1193 0.1502 0.9814
vn -0.6332 0.0825 0.7695
vn -0.3467 0.2295 0.9095
vn 0.2725 0.1171 -0.9550
vn 0.8156 0.4485 -0.3657
vn 0.6901 0.3442 0.6366
vn 0.3498 0.0567 0.9351
vn -0.5017 -0.4267 0.7525
vn -0.6904 -0.5760 0.4377
vn -0.6467 -0.5547 -0.5236
vn -0.0310 -0.0803 -0.9963
vn 0.3917 -0.1136 -0.9131
vn 0.7072 -0.6379 -0.3049
vn 0.4822 -0.7222 -0.4959
vn 0.9537 -0.0769 -0.2908
vn 0.7427 0.0391 0.6685
vn 0.6247 -0.5963 0.5042
vn 0.7686 -0.6115 0.1881
vn 0.2915 0.0962 0.9517
vn 0.1442 -0.5036 0.8518
vn 0.3834 -0.5572 0.7366
vn -0.6567 -0.3269 0.6796
vn -0.2775 -0.7938 0.5412
vn -0.0458 -0.6270 0.7777
vn -0.7976 -0.4780 0.3680
vn -0.4119 -0.9074 0.0833
vn -0.3283 -0.9068 0.2643
vn -0.7353 -0.5203 -0.4342
vn -0.3443 -0.8307 -0.4374
vn -0.3103 -0.9406 -0.1380
vn 0.0776 -0.1702 -0.9824
vn 0.2084 -0.7510 -0.6265
vn -0.1329 -0.8256 -0.5484
vn 0.3139 -0.9002 0.3019
vn 0.2706 -0.9299 0.2492
vn 0.2217 -0.9576 0.1843
vn -0.9417 0.1963 -0.2734
vn 0.2453 0.9618 0.1217
vn -0.3891 0.6134 -0.6873
vn -0.9915 0.1292 -0.0176
vn 0.2834 0.8336 0.4742
vn 0.0528 0.8707 -0.4890
vn 0.1645 -0.9798 0.1135
vn -0.1558 0.9862 -0.0560
vn -0.9730 0.1437 0.1805
vn -0.9599 -0.2263 0.1656
vn -0.9176 0.2396 0.3171
vn -0.4285 0.5152 0.7422
vn 0.2980 0.8011 0.5191
vn 0.4981 0.8537 0.1517
vn 0.6351 0.7614 -0.1301
vn 0.6703 0.7170 -0.1911
vn 0.6148 0.7505 -0.2426
vn 0.3798 0.7995 -0.4653
vn 0.0592 0.6925 -0.7190
vn -0.6891 0.3972 -0.6061
vn -0.9771 0.2124 0.0089
vn -0.9485 -0.2127 0.2347
vn 0.9795 -0.1909 0.0648
vn 0.6365 -0.7201 0.2763
vn 0.5638 -0.8252 -0.0339
vn 0.9638 -0.2072 -0.1677
vn 0.9000 -0.1839 0.3952
vn 0.5450 -0.6971 0.4658
vn 0.5547 -0.1623 0.8161
vn 0.4611 -0.3722 0.8055
vn -0.1674 -0.0803 0.9826
vn -0.1025 0.2200 0.9701
vn -0.8740 -0.2015 0.4421
vn -0.6837 0.4055 0.6067
vn -0.9967 0.0408 0.0703
vn -0.6931 0.7192 0.0489
vn -0.9841 0.0436 0.1724
vn -0.6041 0.7955 0.0471
vn -0.9484 0.0740 0.3082
vn -0.6849 0.7230 0.0907
vn -0.9576 -0.2871 -0.0255
vn -0.8721 0.3193 -0.3709
vn -0.4898 -0.2109 -0.8460
vn -0.4601 0.0573 -0.8860
vn 0.2047 -0.2782 -0.9385
vn 0.1430 -0.5167 -0.8442
vn 0.6896 -0.2955 -0.6611
vn 0.3567 -0.7824 -0.5104
vn 0.8921 -0.2306 -0.3887
vn 0.5141 -0.7741 -0.3695
vn 0.9887 0.1086 0.1031
vn 0.9766 0.0884 -0.1959
vn 0.8338 0.1180 0.5393
vn 0.5435 0.2530 0.8004
vn -0.0824 -0.8135 0.5757
vn -0.8644 -0.4105 0.2903
vn -0.9407 -0.3102 0.1373
vn -0.9267 -0.3213 0.1950
vn -0.8944 -0.3139 0.3186
vn -0.9557 -0.2775 -0.0981
vn -0.4939 -0.2321 -0.8380
vn 0.1250 -0.1169 -0.9853
vn 0.6878 -0.0084 -0.7258
vn 0.9130 0.0555 -0.4041
vn 0.9701 0.2322 0.0703
vn 0.9500 0.2356 -0.2050
vn 0.8101 0.1927 0.5537
vn -0.9669 -0.2394 0.0883
vn -0.3606 -0.8943 0.2648
vn -0.1390 -0.6593 0.7389
vn -0.6548 -0.2406 0.7165
vn -0.7756 -0.2476 -0.5806
vn -0.1134 -0.8787 -0.4637
vn -0.2856 -0.1584 -0.9452
vn -0.0788 -0.5539 -0.8288
vn -0.8997 -0.3036 0.3136
vn -0.9204 -0.1415 -0.3645
vn -0.8936 -0.3983 0.2072
vn -0.9279 -0.3335 0.1669
vn -0.9668 -0.1558 -0.2025
vn -0.5303 -0.0408 -0.8468
vn 0.0730 0.0841 -0.9938
vn 0.6353 0.2181 -0.7409
vn 0.8720 0.2327 -0.4307
vn 0.9245 0.3809 0.0124
vn 0.9073 0.3637 -0.2111
vn 0.7934 0.4067 0.4529
vn -0.9082 0.3060 0.2855
vn -0.5696 0.3945 0.7211
vn -0.7430 0.3087 -0.5938
vn -0.4065 0.2334 -0.8833
vn -0.8442 -0.0964 0.5274
vn -0.8072 0.1540 0.5699
vn -0.9568 -0.2012 0.2099
vn -0.9787 -0.1911 -0.0745
vn -0.8986 -0.0302 -0.4377
vn -0.5179 0.1813 -0.8360
vn 0.0310 0.3205 -0.9467
vn 0.5205 0.3921 -0.7585
vn 0.7837 0.3631 -0.5040
vn 0.6010 0.7992 -0.0086
vn 0.5714 0.7902 -0.2215
vn 0.4800 0.8461 0.2317
vn 0.1617 0.8518 0.4982
vn 0.2983 0.5332 0.7917
vn -0.2746 0.7503 0.6014
vn -0.4565 0.6176 0.6405
vn -0.5384 0.6522 0.5335
vn -0.7374 0.5950 0.3197
vn -0.8338 0.5342 0.1393
vn -0.8387 0.5359 -0.0974
vn -0.7310 0.5642 -0.3838
vn -0.4420 0.6328 -0.6357
vn -0.0418 0.7239 -0.6887
vn 0.2700 0.7726 -0.5747
vn 0.4510 0.7864 -0.4221
vn -0.1787 0.9807 -0.0795
vn 0.3501 -0.2406 0.9053
vn 0.1794 -0.7559 0.6296
vn 0.2327 -0.9469 -0.2217
vn -0.2373 -0.5899 -0.7718
vn 0.1499 0.0922 0.9844
vn -0.2331 -0.0781 -0.9693
vn 0.1064 0.3722 0.9220
vn -0.3345 0.5760 0.7459
vn -0.7604 0.6391 0.1159
vn -0.8000 0.2279 -0.5551
vn -0.2926 -0.9013 0.3195
vn -0.4295 -0.8875 0.1669
vn -0.3303 -0.8829 0.3337
vn -0.1900 -0.5141 0.8364
vn -0.0272 0.2701 0.9624
vn 0.2339 0.7683 0.5958
vn 0.2461 0.9646 0.0950
vn 0.4631 0.8709 -0.1649
vn 0.1637 0.9261 -0.3398
vn -0.0262 0.6499 -0.7596
vn -0.3888 0.1064 -0.9152
vn -0.4683 -0.6405 -0.6086
vn -0.4018 -0.9150 -0.0358
vn -0.3605 -0.9318 -0.0419
vt 0.151400 0.406200
vt 0.167500 0.437600
vt 0.142500 0.439100
vt 0.397200 0.736700
vt 0.319200 0.741800
vt 0.438000 0.974100
vt 0.124500 0.416100
vt 0.079500 0.453600
vt 0.068300 0.465300
vt 0.415900 0.970400
vt 0.187300 0.452900
vt 0.157900 0.410500
vt 0.260600 0.713200
vt 0.322800 0.371800
vt 0.471600 0.758300
vt 0.461700 0.382000
vt 0.554000 0.744700
vt 0.641800 0.754100
vt 0.540500 0.381100
vt 0.725200 0.740700
vt 0.763800 0.831600
vt 0.724500 0.417200
vt 0.083900 0.560600
vt 0.097200 0.447700
vt 0.117600 0.437900
vt 0.125600 0.530400
vt 0.170400 0.531800
vt 0.200300 0.467600
vt 0.189500 0.552500
vt 0.720900 0.131800
vt 0.651900 0.136900
vt 0.663600 0.079100
vt 0.573900 0.145000
vt 0.497700 0.152300
vt 0.516700 0.094400
vt 0.421600 0.149800
vt 0.347100 0.146600
vt 0.442600 0.091900
vt 0.757500 0.153800
vt 0.605100 0.165300
vt 0.620700 0.101800
vt 0.415100 0.175500
vt 0.250400 0.178700
vt 0.388300 0.109800
vt 0.151700 0.178200
vt 0.053100 0.177700
vt 0.075300 0.109500
vt 0.660500 0.170300
vt 0.552800 0.174800
vt 0.544900 0.097500
vt 0.429900 0.154100
vt 0.323600 0.134800
vt 0.438700 0.079600
vt 0.159900 0.705100
vt 0.147200 0.707100
vt 0.122100 0.694300
vt 0.128900 0.409300
vt 0.515900 0.974900
vt 0.542800 0.967900
vt 0.121200 0.420600
vt 0.073500 0.467700
vt 0.124500 0.425600
vt 0.777700 0.314200
vt 0.602600 0.361500
vt 0.316600 0.362500
vt 0.767700 0.352700
vt 0.264700 0.310800
vt 0.144400 0.304800
vt 0.716900 0.306400
vt 0.242700 0.323200
vt 0.724500 0.073900
vt 0.676200 0.020900
vt 0.734700 0.016100
vt 0.590300 0.087400
vt 0.536400 0.034800
vt 0.605600 0.028300
vt 0.372900 0.088500
vt 0.398500 0.029100
vt 0.466400 0.032600
vt 0.752200 0.093100
vt 0.646200 0.036700
vt 0.752000 0.030400
vt 0.257700 0.111400
vt 0.281000 0.042200
vt 0.402600 0.044600
vt 0.168800 0.110600
vt 0.114700 0.038900
vt 0.197900 0.040500
vt 0.643400 0.091700
vt 0.519600 0.018300
vt 0.598000 0.016900
vt 0.346900 0.069200
vt 0.360900 0.002800
vt 0.434800 0.010100
vt 0.132900 0.708600
vt 0.118200 0.707400
vt 0.105700 0.695700
vt 0.134800 0.691400
vt 0.097100 0.681500
vt 0.140600 0.678600
vt 0.123800 0.653000
vt 0.137900 0.648000
vt 0.152900 0.649800
vt 0.177800 0.664400
vt 0.184100 0.675800
vt 0.146900 0.666900
vt 0.100200 0.669800
vt 0.144800 0.405200
vt 0.458700 0.988700
vt 0.163100 0.414400
vt 0.692600 0.346400
vt 0.268700 0.379400
vt 0.251400 0.755600
vt 0.506700 0.373000
vt 0.389000 0.375400
vt 0.408400 0.367500
vt 0.556200 0.342100
vt 0.674400 0.390800
vt 0.432400 0.324500
vt 0.541500 0.166800
vt 0.606700 0.337400
vt 0.751300 0.764800
vt 0.081700 0.578600
vt 0.012300 0.297600
vt 0.107500 0.538400
vt 0.580700 0.321300
vt 0.146500 0.529100
vt 0.386700 0.322600
vt 0.759300 0.128700
vt 0.922400 0.137500
vt 0.491900 0.042600
vt 0.512800 0.105700
vt 0.754300 0.164500
vt 0.172400 0.701300
vt 0.136600 0.404900
vt 0.486900 0.986000
vt 0.563100 0.963800
vt 0.165900 0.419000
vt 0.398400 0.968700
vt 0.236300 0.121200
vt 0.199800 0.570400
vt 0.201500 0.587500
vt 0.121400 0.330500
vt 0.613900 0.379100
vt 0.927700 0.361700
vt 0.263800 0.399200
vt 0.123800 0.839600
vt 0.128800 0.407000
vt 0.090400 0.545600
vt 0.812500 0.294200
vt 0.315300 -0.004300
vt 0.764800 0.070600
vt 0.849900 0.021200
vt 0.887200 0.079900
vt 0.668400 0.015100
vt 0.722100 0.090700
vt 0.180400 0.688500
vt 0.168200 0.653100
vt 0.139000 0.655600
vt 0.109800 0.658000
vt 0.509900 0.403700
vt 0.520600 0.385700
vt 0.534600 0.406700
vt 0.554500 0.412800
vt 0.559600 0.423300
vt 0.555100 0.428800
vt 0.541500 0.427800
vt 0.517900 0.426200
vt 0.499800 0.409800
vt 0.476000 0.401400
vt 0.466100 0.383200
vt 0.461000 0.373100
vt 0.465600 0.367600
vt 0.479000 0.368200
vt 0.492700 0.381900
vt 0.493600 0.442400
vt 0.467200 0.423900
vt 0.451100 0.468000
vt 0.480900 0.479700
vt 0.506100 0.487000
vt 0.522600 0.448700
vt 0.528100 0.482400
vt 0.538200 0.454300
vt 0.539600 0.469800
vt 0.542700 0.453000
vt 0.534900 0.447100
vt 0.538400 0.451500
vt 0.512600 0.438600
vt 0.509100 0.448700
vt 0.487700 0.427700
vt 0.490500 0.419000
vt 0.461100 0.408100
vt 0.456900 0.417800
vt 0.444400 0.395800
vt 0.442100 0.392100
vt 0.422400 0.400400
vt 0.427000 0.384400
vt 0.422500 0.385800
vt 0.410900 0.413000
vt 0.429800 0.393800
vt 0.412200 0.431300
vt 0.442100 0.411900
vt 0.428800 0.448800
vt 0.449600 0.490900
vt 0.480900 0.503500
vt 0.521700 0.507000
vt 0.538700 0.502400
vt 0.549900 0.483400
vt 0.541600 0.466200
vt 0.516600 0.458100
vt 0.491600 0.437400
vt 0.460400 0.424800
vt 0.443200 0.404700
vt 0.421100 0.409500
vt 0.406900 0.427600
vt 0.406600 0.451200
vt 0.424700 0.470200
vt 0.453400 0.508900
vt 0.484700 0.521500
vt 0.524200 0.527700
vt 0.588100 0.431800
vt 0.585700 0.431800
vt 0.594700 0.441100
vt 0.599600 0.439400
vt 0.578200 0.431100
vt 0.575800 0.431100
vt 0.569100 0.435500
vt 0.567800 0.436900
vt 0.524500 0.470900
vt 0.545600 0.483900
vt 0.498600 0.451500
vt 0.468300 0.437600
vt 0.447300 0.422300
vt 0.424900 0.427500
vt 0.410600 0.445600
vt 0.410300 0.469300
vt 0.428500 0.488200
vt 0.485900 0.534200
vt 0.458700 0.522700
vt 0.518800 0.542300
vt 0.589500 0.449600
vt 0.587500 0.442100
vt 0.579600 0.441600
vt 0.570900 0.445300
vt 0.540600 0.497600
vt 0.532100 0.475500
vt 0.508600 0.458400
vt 0.482700 0.446200
vt 0.455800 0.443500
vt 0.434500 0.450100
vt 0.423100 0.464600
vt 0.423800 0.484100
vt 0.436500 0.504900
vt 0.469400 0.530800
vt 0.488500 0.540300
vt 0.507200 0.543200
vt 0.521900 0.538800
vt 0.539300 0.533300
vt 0.529800 0.528100
vt 0.547100 0.517400
vt 0.529200 0.513100
vt 0.520200 0.496800
vt 0.504700 0.482500
vt 0.485600 0.473000
vt 0.466900 0.470200
vt 0.452200 0.474600
vt 0.444300 0.485300
vt 0.445000 0.500300
vt 0.453900 0.516500
vt 0.488400 0.510400
vt 0.581100 0.485400
vt 0.579700 0.466600
vt 0.573600 0.459200
vt 0.554500 0.466100
vt 0.587600 0.492800
vt 0.555400 0.470800
vt 0.583100 0.503200
vt 0.582300 0.499900
vt 0.576600 0.487100
vt 0.557900 0.487700
vt 0.523800 0.403300
vt 0.504200 0.379400
vt 0.548200 0.411700
vt 0.556800 0.420500
vt 0.555800 0.425600
vt 0.546200 0.429600
vt 0.521000 0.427800
vt 0.498500 0.409000
vt 0.469500 0.397300
vt 0.453500 0.374700
vt 0.447500 0.361400
vt 0.448400 0.356300
vt 0.458100 0.358300
vt 0.475600 0.374800
s 1
usemtl Orange
f 1/1/1 2/2/2 3/3/3
f 4/4/4 5/5/5 6/6/6
f 7/7/7 8/8/8 9/9/9
f 6/6/6 5/5/5 10/10/10
f 11/11/11 2/2/2 12/12/12
f 13/13/13 5/5/5 14/14/14
f 4/4/4 15/15/15 16/16/16
f 17/17/17 18/18/18 19/19/19
f 20/20/20 21/21/21 22/22/22
f 9/9/9 8/8/8 23/23/23
f 24/24/24 25/25/25 26/26/26
f 3/3/3 2/2/2 27/27/27
f 11/11/11 28/28/28 29/29/29
f 30/30/30 31/31/31 32/32/32
f 33/33/33 34/34/34 35/35/35
f 36/36/36 37/37/37 38/38/38
f 39/39/39 40/40/40 41/41/41
f 42/42/42 43/43/43 44/44/44
f 45/45/45 46/46/46 47/47/47
f 48/48/48 49/49/49 50/50/50
f 51/51/51 52/52/52 53/53/53
f 54/54/54 55/55/55 56/56/56
f 24/24/24 8/8/8 57/57/57
f 58/58/58 18/18/18 17/17/17
f 59/59/59 18/18/18 58/58/58
f 60/60/60 21/61/21 61/62/61
f 20/20/20 18/18/18 59/59/59
f 10/10/10 5/5/5 13/13/13
f 62/63/62 31/31/31 30/30/30
f 63/64/63 34/34/34 33/33/33
f 64/65/64 37/37/37 36/36/36
f 65/66/65 40/40/40 39/39/39
f 66/67/66 43/43/43 42/42/42
f 67/68/67 46/46/46 45/45/45
f 68/69/68 49/49/49 48/48/48
f 69/70/69 52/52/52 51/51/51
f 70/71/70 71/72/71 72/73/72
f 73/74/73 55/75/55 54/76/54
f 74/77/74 75/78/75 76/79/76
f 77/80/77 78/81/78 79/82/79
f 80/83/80 81/84/81 82/85/82
f 83/86/83 84/87/84 85/88/85
f 86/89/86 87/90/87 88/91/88
f 89/92/89 90/93/90 91/94/91
f 76/95/76 75/96/75 79/97/79
f 92/98/92 78/99/78 93/100/93
f 85/101/85 84/102/84 88/103/88
f 91/104/91 90/105/90 94/106/94
f 93/100/93 78/99/78 82/107/82
f 3/3/3 25/25/25 95/108/95
f 1/1/1 3/3/3 95/108/95
f 96/109/96 15/15/15 4/4/4
f 4/4/4 6/6/6 96/109/96
f 9/9/9 21/61/21 60/60/60
f 7/7/7 9/9/9 60/60/60
f 12/12/12 2/2/2 1/1/1
f 97/110/97 28/28/28 11/11/11
f 11/11/11 12/12/12 97/110/97
f 14/111/14 31/31/31 62/63/62
f 62/112/62 28/113/28 13/13/13
f 13/13/13 14/14/14 62/112/62
f 16/114/16 34/34/34 63/64/63
f 63/115/63 5/5/5 4/4/4
f 4/4/4 16/16/16 63/115/63
f 19/116/19 34/34/34 16/114/16
f 16/16/16 15/15/15 17/17/17
f 17/17/17 19/19/19 16/16/16
f 22/117/22 40/40/40 65/66/65
f 65/118/65 18/18/18 20/20/20
f 20/20/20 22/22/22 65/118/65
f 23/119/23 40/120/40 22/121/22
f 22/22/22 21/21/21 9/122/9
f 9/9/9 23/23/23 22/123/22
f 26/124/26 46/46/46 67/68/67
f 67/125/67 8/8/8 24/24/24
f 24/24/24 26/26/26 67/125/67
f 27/126/27 49/49/49 68/69/68
f 68/127/68 25/25/25 3/3/3
f 3/3/3 27/27/27 68/127/68
f 29/128/29 49/49/49 27/126/27
f 27/27/27 2/2/2 11/11/11
f 11/11/11 29/29/29 27/27/27
f 32/32/32 71/72/71 70/71/70
f 70/71/70 52/129/52 30/30/30
f 30/30/30 32/32/32 70/71/70
f 35/35/35 55/75/55 73/74/73
f 73/74/73 31/31/31 33/33/33
f 33/33/33 35/35/35 73/74/73
f 38/38/38 55/75/55 35/35/35
f 35/35/35 34/34/34 36/36/36
f 36/36/36 38/38/38 35/35/35
f 41/41/41 78/81/78 77/80/77
f 77/80/77 37/130/37 39/39/39
f 39/39/39 41/41/41 77/80/77
f 44/44/44 78/131/78 41/132/41
f 41/132/41 40/120/40 42/42/42
f 42/42/42 44/44/44 41/132/41
f 47/47/47 84/87/84 83/86/83
f 83/86/83 43/43/43 45/45/45
f 45/45/45 47/47/47 83/86/83
f 50/50/50 87/90/87 86/89/86
f 86/89/86 46/133/46 48/48/48
f 48/48/48 50/50/50 86/89/86
f 53/53/53 87/90/87 50/50/50
f 50/50/50 49/49/49 51/51/51
f 51/51/51 53/53/53 50/50/50
f 56/56/56 78/99/78 92/98/92
f 92/98/92 71/134/71 54/54/54
f 54/54/54 56/56/56 92/98/92
f 98/135/98 25/25/25 24/24/24
f 24/24/24 57/57/57 98/135/98
f 95/108/95 25/25/25 98/135/98
f 99/136/99 15/15/15 96/109/96
f 17/17/17 15/15/15 99/136/99
f 58/58/58 17/17/17 99/136/99
f 57/57/57 8/8/8 7/7/7
f 61/137/61 21/21/21 20/20/20
f 20/20/20 59/59/59 61/137/61
f 100/138/100 28/28/28 97/110/97
f 13/13/13 28/113/28 100/139/100
f 10/10/10 13/13/13 100/139/100
f 30/140/30 52/52/52 69/70/69
f 69/141/69 28/28/28 62/142/62
f 62/143/62 30/140/30 69/70/69
f 33/33/33 31/31/31 14/111/14
f 14/14/14 5/5/5 63/115/63
f 63/64/63 33/33/33 14/111/14
f 36/36/36 34/34/34 19/116/19
f 19/19/19 18/18/18 64/144/64
f 64/65/64 36/36/36 19/116/19
f 39/39/39 37/130/37 64/145/64
f 64/144/64 18/18/18 65/118/65
f 65/66/65 39/39/39 64/145/64
f 42/42/42 40/120/40 23/119/23
f 23/146/23 8/147/8 66/148/66
f 66/67/66 42/42/42 23/119/23
f 45/45/45 43/43/43 66/67/66
f 66/149/66 8/8/8 67/125/67
f 67/68/67 45/45/45 66/67/66
f 48/48/48 46/133/46 26/150/26
f 26/26/26 25/25/25 68/127/68
f 68/69/68 48/48/48 26/150/26
f 51/51/51 49/49/49 29/128/29
f 29/29/29 28/28/28 69/141/69
f 69/70/69 51/51/51 29/128/29
f 72/151/72 90/93/90 89/92/89
f 89/152/89 52/129/52 70/71/70
f 70/71/70 72/73/72 89/152/89
f 54/76/54 71/72/71 32/32/32
f 32/32/32 31/31/31 73/74/73
f 73/74/73 54/76/54 32/32/32
f 76/79/76 55/75/55 38/38/38
f 38/38/38 37/37/37 74/77/74
f 74/77/74 76/79/76 38/38/38
f 79/82/79 75/153/75 74/154/74
f 74/154/74 37/130/37 77/80/77
f 77/80/77 79/82/79 74/154/74
f 82/85/82 78/131/78 44/44/44
f 44/44/44 43/43/43 80/83/80
f 80/83/80 82/85/82 44/44/44
f 85/88/85 81/84/81 80/83/80
f 80/83/80 43/43/43 83/86/83
f 83/86/83 85/88/85 80/83/80
f 88/91/88 84/155/84 47/156/47
f 47/156/47 46/133/46 86/89/86
f 86/89/86 88/91/88 47/156/47
f 91/94/91 87/90/87 53/53/53
f 53/53/53 52/52/52 89/92/89
f 89/92/89 91/94/91 53/53/53
f 79/97/79 78/99/78 56/56/56
f 56/56/56 55/55/55 76/95/76
f 76/95/76 79/97/79 56/56/56
f 93/100/93 90/105/90 72/157/72
f 72/157/72 71/134/71 92/98/92
f 92/98/92 93/100/93 72/157/72
f 88/103/88 87/158/87 101/159/101
f 101/159/101 81/160/81 85/101/85
f 85/101/85 88/103/88 101/159/101
f 94/106/94 81/160/81 101/159/101
f 101/159/101 87/158/87 91/104/91
f 91/104/91 94/106/94 101/159/101
f 82/107/82 81/160/81 94/106/94
f 94/106/94 90/105/90 93/100/93
f 93/100/93 82/107/82 94/106/94
f 102/161/102 103/162/103 104/163/104
f 102/161/102 104/163/104 105/164/105
f 102/161/102 105/164/105 106/165/106
f 102/161/102 106/165/106 107/166/107
f 102/161/102 107/166/107 108/167/108
f 102/161/102 108/167/108 109/168/109
f 102/161/102 109/168/109 110/169/110
f 102/161/102 110/169/110 111/170/111
f 102/161/102 111/170/111 112/171/112
f 102/161/102 112/171/112 113/172/113
f 102/161/102 113/172/113 114/173/114
f 102/161/102 114/173/114 115/174/115
f 102/161/102 115/174/115 116/175/116
f 102/161/102 116/175/116 103/162/103
f 118/176/118 119/177/119 120/178/120
f 120/178/120 117/179/117 118/176/118
f 121/180/121 122/181/122 118/176/118
f 118/176/118 117/179/117 121/180/121
f 123/182/123 124/183/124 122/181/122
f 122/181/122 121/180/121 123/182/123
f 125/184/125 126/185/126 124/183/124
f 124/183/124 123/182/123 125/184/125
f 128/186/128 126/185/126 125/184/125
f 125/184/125 127/187/127 128/186/128
f 130/188/130 128/186/128 127/187/127
f 127/187/127 129/189/129 130/188/130
f 131/190/131 132/191/132 130/188/130
f 130/188/130 129/189/129 131/190/131
f 134/192/134 132/191/132 131/190/131
f 131/190/131 133/193/133 134/192/134
f 135/194/135 136/195/136 134/192/134
f 134/192/134 133/193/133 135/194/135
f 137/196/137 138/197/138 136/195/136
f 136/195/136 135/194/135 137/196/137
f 140/198/140 138/197/138 137/196/137
f 137/196/137 139/199/139 140/198/140
f 142/200/142 140/198/140 139/199/139
f 139/199/139 141/201/141 142/200/142
f 144/202/144 142/200/142 141/201/141
f 141/201/141 143/203/143 144/202/144
f 144/202/144 143/203/143 120/178/120
f 144/202/144 120/178/120 119/177/119
f 117/179/117 120/178/120 146/204/146
f 146/204/146 145/205/145 117/179/117
f 121/180/121 117/179/117 145/205/145
f 145/205/145 147/206/147 121/180/121
f 123/182/123 121/180/121 147/206/147
f 147/206/147 148/207/148 123/182/123
f 125/184/125 123/182/123 148/207/148
f 148/207/148 149/208/149 125/184/125
f 150/209/150 127/187/127 125/184/125
f 125/184/125 149/208/149 150/209/150
f 151/210/151 129/189/129 127/187/127
f 127/187/127 150/209/150 151/210/151
f 131/190/131 129/189/129 151/210/151
f 151/210/151 152/211/152 131/190/131
f 133/193/133 131/190/131 152/211/152
f 152/211/152 153/212/153 133/193/133
f 135/194/135 133/193/133 153/212/153
f 153/212/153 154/213/154 135/194/135
f 137/196/137 135/194/135 154/213/154
f 154/213/154 155/214/155 137/196/137
f 156/215/156 139/199/139 137/196/137
f 137/196/137 155/214/155 156/215/156
f 141/201/141 139/199/139 156/215/156
f 156/215/156 157/216/157 141/201/141
f 158/217/158 143/203/143 141/201/141
f 141/201/141 157/216/157 158/217/158
f 143/203/143 158/217/158 146/204/146
f 143/203/143 146/204/146 120/178/120
f 145/205/145 146/204/146 160/218/160
f 160/218/160 159/219/159 145/205/145
f 161/220/161 147/206/147 145/205/145
f 145/205/145 159/219/159 161/220/161
f 162/221/162 163/222/163 164/223/164
f 164/223/164 165/224/165 162/221/162
f 166/225/166 167/226/167 163/222/163
f 163/222/163 162/221/162 166/225/166
f 169/227/169 167/226/167 166/225/166
f 166/225/166 168/228/168 169/227/169
f 170/229/170 151/210/151 150/209/150
f 150/209/150 171/230/171 170/229/170
f 152/211/152 151/210/151 170/229/170
f 170/229/170 172/231/172 152/211/152
f 173/232/173 153/212/153 152/211/152
f 152/211/152 172/231/172 173/232/173
f 154/213/154 153/212/153 173/232/173
f 173/232/173 174/233/174 154/213/154
f 155/214/155 154/213/154 174/233/174
f 174/233/174 175/234/175 155/214/155
f 156/215/156 155/214/155 175/234/175
f 175/234/175 176/235/176 156/215/156
f 157/216/157 156/215/156 176/235/176
f 176/235/176 177/236/177 157/216/157
f 158/217/158 157/216/157 177/236/177
f 177/236/177 178/237/178 158/217/158
f 158/217/158 178/237/178 160/218/160
f 158/217/158 160/218/160 146/204/146
f 179/238/179 159/219/159 160/218/160
f 160/218/160 180/239/180 179/238/179
f 181/240/181 161/220/161 159/219/159
f 159/219/159 179/238/179 181/240/181
f 162/221/162 165/224/165 183/241/183
f 183/241/183 182/242/182 162/221/162
f 166/225/166 162/221/162 182/242/182
f 182/242/182 184/243/184 166/225/166
f 185/244/185 168/228/168 166/225/166
f 166/225/166 184/243/184 185/244/185
f 170/229/170 171/230/171 187/245/187
f 187/245/187 186/246/186 170/229/170
f 172/231/172 170/229/170 186/246/186
f 186/246/186 188/247/188 172/231/172
f 189/248/189 173/232/173 172/231/172
f 172/231/172 188/247/188 189/248/189
f 190/249/190 174/233/174 173/232/173
f 173/232/173 189/248/189 190/249/190
f 191/250/191 175/234/175 174/233/174
f 174/233/174 190/249/190 191/250/191
f 176/235/176 175/234/175 191/250/191
f 191/250/191 192/251/192 176/235/176
f 177/236/177 176/235/176 192/251/192
f 192/251/192 193/252/193 177/236/177
f 178/237/178 177/236/177 193/252/193
f 193/252/193 194/253/194 178/237/178
f 178/237/178 194/253/194 180/239/180
f 178/237/178 180/239/180 160/218/160
f 179/238/179 180/239/180 196/254/196
f 196/254/196 195/255/195 179/238/179
f 197/256/197 181/240/181 179/238/179
f 179/238/179 195/255/195 197/256/197
f 198/257/198 199/258/199 181/240/181
f 181/240/181 197/256/197 198/257/198
f 200/259/200 201/260/201 199/258/199
f 199/258/199 198/257/198 200/259/200
f 187/245/187 201/260/201 200/259/200
f 200/259/200 202/261/202 187/245/187
f 186/246/186 187/245/187 202/261/202
f 202/261/202 203/262/203 186/246/186
f 188/247/188 186/246/186 203/262/203
f 203/262/203 204/263/204 188/247/188
f 205/264/205 189/248/189 188/247/188
f 188/247/188 204/263/204 205/264/205
f 206/265/206 190/249/190 189/248/189
f 189/248/189 205/264/205 206/265/206
f 207/266/207 191/250/191 190/249/190
f 190/249/190 206/265/206 207/266/207
f 208/267/208 192/251/192 191/250/191
f 191/250/191 207/266/207 208/267/208
f 193/252/193 192/251/192 208/267/208
f 208/267/208 209/268/209 193/252/193
f 194/253/194 193/252/193 209/268/209
f 209/268/209 210/269/210 194/253/194
f 194/253/194 210/269/210 196/254/196
f 194/253/194 196/254/196 180/239/180
f 211/270/211 195/255/195 196/254/196
f 211/270/211 197/256/197 195/255/195
f 211/270/211 198/257/198 197/256/197
f 211/270/211 200/259/200 198/257/198
f 211/270/211 202/261/202 200/259/200
f 211/270/211 203/262/203 202/261/202
f 211/270/211 204/263/204 203/262/203
f 211/270/211 205/264/205 204/263/204
f 211/270/211 206/265/206 205/264/205
f 211/270/211 207/266/207 206/265/206
f 211/270/211 208/267/208 207/266/207
f 211/270/211 209/268/209 208/267/208
f 211/270/211 210/269/210 209/268/209
f 211/270/211 196/254/196 210/269/210
f 148/207/148 147/206/147 212/271/212
f 212/271/212 213/272/213 148/207/148
f 213/272/213 214/273/214 149/208/149
f 149/208/149 148/207/148 213/272/213
f 215/274/215 150/209/150 149/208/149
f 149/208/149 214/273/214 215/274/215
f 212/271/212 147/206/147 161/220/161
f 161/220/161 216/275/216 212/271/212
f 215/274/215 217/276/217 171/230/171
f 171/230/171 150/209/150 215/274/215
f 218/277/218 216/275/216 161/220/161
f 161/220/161 181/240/181 218/277/218
f 218/277/218 181/240/181 199/258/199
f 199/258/199 219/278/219 218/277/218
f 219/278/219 199/258/199 201/260/201
f 201/260/201 220/279/220 219/278/219
f 221/280/221 220/279/220 201/260/201
f 201/260/201 187/245/187 221/280/221
f 221/280/221 187/245/187 171/230/171
f 171/230/171 217/276/217 221/280/221
f 164/223/164 212/271/212 216/275/216
f 216/275/216 165/224/165 164/223/164
f 164/223/164 163/222/163 213/272/213
f 213/272/213 212/271/212 164/223/164
f 163/222/163 167/226/167 214/273/214
f 214/273/214 213/272/213 163/222/163
f 168/228/168 217/276/217 215/274/215
f 215/274/215 169/227/169 168/228/168
f 169/227/169 215/274/215 214/273/214
f 214/273/214 167/226/167 169/227/169
f 183/241/183 165/224/165 216/275/216
f 216/275/216 218/277/218 183/241/183
f 183/241/183 218/277/218 219/278/219
f 219/278/219 182/242/182 183/241/183
f 182/242/182 219/278/219 220/279/220
f 220/279/220 184/243/184 182/242/182
f 185/244/185 184/243/184 220/279/220
f 220/279/220 221/280/221 185/244/185
f 185/244/185 221/280/221 217/276/217
f 217/276/217 168/228/168 185/244/185
f 222/281/222 223/282/223 119/177/119
f 119/177/119 118/176/118 222/281/222
f 222/281/222 118/176/118 122/181/122
f 122/181/122 224/283/224 222/281/222
f 224/283/224 122/181/122 124/183/124
f 124/183/124 225/284/225 224/283/224
f 225/284/225 124/183/124 126/185/126
f 126/185/126 226/285/226 225/284/225
f 227/286/227 226/285/226 126/185/126
f 126/185/126 128/186/128 227/286/227
f 228/287/228 227/286/227 128/186/128
f 128/186/128 130/188/130 228/287/228
f 228/287/228 130/188/130 132/191/132
f 132/191/132 229/288/229 228/287/228
f 230/289/230 229/288/229 132/191/132
f 132/191/132 134/192/134 230/289/230
f 230/289/230 134/192/134 136/195/136
f 136/195/136 231/290/231 230/289/230
f 231/290/231 136/195/136 138/197/138
f 138/197/138 232/291/232 231/290/231
f 233/292/233 232/291/232 138/197/138
f 138/197/138 140/198/140 233/292/233
f 234/293/234 233/292/233 140/198/140
f 140/198/140 142/200/142 234/293/234
f 235/294/235 234/293/234 142/200/142
f 142/200/142 144/202/144 235/294/235
f 144/202/144 119/177/119 223/282/223
f 223/282/223 235/294/235 144/202/144
f 104/163/104 103/162/103 223/282/223
f 223/282/223 222/281/222 104/163/104
f 105/164/105 104/163/104 222/281/222
f 222/281/222 224/283/224 105/164/105
f 106/165/106 105/164/105 224/283/224
f 224/283/224 225/284/225 106/165/106
f 106/165/106 225/284/225 226/285/226
f 226/285/226 107/166/107 106/165/106
f 107/166/107 226/285/226 227/286/227
f 227/286/227 108/167/108 107/166/107
f 108/167/108 227/286/227 228/287/228
f 228/287/228 109/168/109 108/167/108
f 109/168/109 228/287/228 229/288/229
f 229/288/229 110/169/110 109/168/109
f 111/170/111 110/169/110 229/288/229
f 229/288/229 230/289/230 111/170/111
f 112/171/112 111/170/111 230/289/230
f 230/289/230 231/290/231 112/171/112
f 113/172/113 112/171/112 231/290/231
f 231/290/231 232/291/232 113/172/113
f 114/173/114 113/172/113 232/291/232
f 232/291/232 233/292/233 114/173/114
f 114/173/114 233/292/233 234/293/234
f 234/293/234 115/174/115 114/173/114
f 115/174/115 234/293/234 235/294/235
f 235/294/235 116/175/116 115/174/115
f 235/294/235 223/282/223 103/162/103
f 103/162/103 116/175/116 235/294/235
