# Blender 4.5.2 LTS
# www.blender.org
mtllib brazoDer.mtl
o brazoder
v -0.484700 1.513862 -0.415833
v -0.474500 1.625730 0.081494
v -0.431900 1.516053 0.161573
v -1.038700 1.529112 -0.368187
v -0.984500 1.629055 -0.319404
v -0.617500 1.512733 -0.509062
v -0.519300 1.376064 -0.410706
v -0.484600 1.196150 0.121221
v -0.594600 1.113858 -0.006693
v -0.606200 1.540687 -0.486919
v -0.600200 1.696858 0.023209
v -0.515700 1.539536 -0.420329
v -0.928800 1.703323 -0.190016
v -1.415000 1.582917 0.126324
v -1.041400 1.437742 -0.427835
v -1.468600 1.408096 0.037555
v -1.035000 1.334999 -0.394252
v -0.987500 1.228873 -0.374424
v -1.448900 1.311121 0.054227
v -0.916500 1.128307 -0.275898
v -0.735800 1.094466 -0.311637
v -1.139400 1.100674 0.271034
v -0.990600 1.145031 0.388248
v -0.442300 1.293520 0.174564
v -0.393700 1.403234 0.193597
v -0.786800 1.394830 0.542408
v -0.866400 1.594045 0.447939
v -0.744100 1.726540 -0.102139
v -1.026500 1.654340 0.378982
v -1.441500 1.578643 0.783838
v -1.566300 1.516458 0.757054
v -1.566500 1.518957 0.934615
v -1.604800 1.443011 0.727792
v -1.622600 1.370694 0.702947
v -1.612700 1.380073 0.881818
v -1.608700 1.295967 0.710369
v -1.578500 1.222186 0.721307
v -1.601800 1.307351 0.888971
v -1.431100 1.169108 0.738472
v -1.286000 1.146323 0.762715
v -1.335400 1.165628 0.940042
v -1.159100 1.177887 0.796917
v -1.035300 1.249013 0.840245
v -1.227500 1.208151 0.976917
v -1.004100 1.327974 0.843291
v -0.972800 1.406938 0.846237
v -1.077600 1.414104 1.019572
v -1.012400 1.484565 0.819758
v -1.068200 1.561349 0.789666
v -1.157600 1.559057 0.979354
v -1.192300 1.598896 0.799660
v -1.314400 1.611533 0.803760
v -1.263700 1.593212 0.988794
v -1.588800 1.455629 1.088035
v -1.599700 1.389667 1.066092
v -1.497700 1.287046 1.091976
v -0.476800 1.406297 -0.393527
v -0.635700 1.415128 -0.534906
v -0.616800 1.382287 -0.500819
v -0.547600 1.354358 -0.423150
v -0.598800 1.357862 -0.474101
v -1.293100 1.656888 0.236505
v -1.451600 1.498903 0.075892
v -1.433500 1.220667 0.069602
v -1.314300 1.152348 0.159035
v -0.868300 1.205222 0.490710
v -0.830600 1.296772 0.513558
v -0.809400 1.490708 0.506516
v -1.160300 1.677579 0.319641
v -1.459300 1.573964 0.959986
v -1.565900 1.522334 1.113591
v -1.490200 1.576099 1.135242
v -1.602700 1.450212 0.905227
v -1.576400 1.238259 0.900583
v -1.573000 1.254075 1.083555
v -1.595400 1.321265 1.072014
v -1.459500 1.186021 0.915260
v -1.395700 1.184425 1.117860
v -1.492000 1.207877 1.095728
v -1.129000 1.263359 1.014893
v -1.244100 1.277584 1.184538
v -1.319000 1.214762 1.147443
v -1.104400 1.337242 1.016559
v -1.206300 1.421651 1.187812
v -1.225200 1.349667 1.186176
v -1.111300 1.484278 1.009077
v -1.266300 1.557911 1.166059
v -1.231700 1.490108 1.178391
v -1.359100 1.609472 0.978749
v -1.413400 1.608738 1.152059
v -1.340300 1.591695 1.160991
v -1.480800 1.353379 1.115726
v -1.404600 1.396581 1.135010
v -1.328800 1.443162 1.168249
v -0.473400 1.483426 -0.413813
v -0.607200 1.488337 -0.534851
v -0.544600 1.559347 -0.427217
v -0.461400 1.445973 -0.404403
v -0.622600 1.452410 -0.546119
v -0.587000 1.563301 -0.462259
v -1.255200 1.417748 1.175249
v -1.275500 1.371983 1.749498
v -1.340800 1.367795 1.799438
v -1.359600 1.502799 1.787567
v -1.340200 1.611006 1.787974
v -1.313500 1.670640 1.798916
v -1.272900 1.670846 1.804920
v -1.240700 1.611151 1.810479
v -1.254600 1.502538 1.816766
v -1.208100 1.368863 1.814157
v -1.250200 1.234576 1.799537
v -1.228700 1.127621 1.789548
v -1.261400 1.068520 1.770113
v -1.302000 1.068315 1.764109
v -1.328100 1.127576 1.767044
v -1.399500 1.233592 1.779518
v -1.451600 1.363884 1.838081
v -1.540000 1.365930 1.790808
v -1.557100 1.501278 1.801544
v -1.478300 1.497586 1.845392
v -1.498400 1.611379 1.795981
v -1.497100 1.602028 1.894245
v -1.530700 1.671321 1.781125
v -1.540800 1.660553 1.905770
v -1.622800 1.670570 1.790714
v -1.578100 1.657725 1.939230
v -1.699100 1.606767 1.822111
v -1.601500 1.594344 1.988236
v -1.751700 1.495869 1.833763
v -1.622700 1.485999 1.990227
v -1.769400 1.359647 1.827713
v -1.624900 1.349950 2.011283
v -1.747200 1.224411 1.816278
v -1.618300 1.218038 1.972997
v -1.689600 1.116931 1.801481
v -1.589400 1.110914 1.967306
v -1.612200 1.060448 1.755584
v -1.566600 1.055399 1.904423
v -1.567000 1.062229 1.744111
v -1.529300 1.058229 1.870863
v -1.526900 1.121669 1.773752
v -1.485000 1.118596 1.873416
v -1.552600 1.229820 1.784060
v -1.473900 1.229624 1.828162
v -1.452100 1.375484 1.667043
v -1.419900 1.521763 1.675852
v -1.419800 1.599021 1.679171
v -1.436700 1.687788 1.707275
v -1.520900 1.650468 1.657580
v -1.581100 1.701767 1.638987
v -1.717100 1.520951 1.613231
v -1.739300 1.374659 1.598922
v -1.712300 1.228413 1.594314
v -1.641400 1.111303 1.600367
v -1.540600 1.046449 1.615946
v -1.511900 1.046659 1.634351
v -1.401900 1.111995 1.651584
v -1.414200 1.229224 1.657034
v -1.262300 1.325538 1.466730
v -1.321600 1.536155 1.473654
v -1.408800 1.502477 1.472022
v -1.203200 1.628300 1.655330
v -1.205200 1.619252 1.639285
v -1.167600 1.650099 1.636572
v -1.220100 1.682674 1.670090
v -1.153600 1.692987 1.631348
v -1.195600 1.719823 1.660975
v -1.177900 1.739404 1.624279
v -1.187400 1.737728 1.641755
v -1.559100 1.714789 1.447569
v -1.674500 1.534081 1.427615
v -1.697400 1.387662 1.415004
v -1.670500 1.241548 1.408398
v -1.599100 1.124619 1.409353
v -1.497400 1.060083 1.417436
v -1.385400 1.060667 1.431147
v -1.326000 1.126408 1.448086
v -1.315400 1.243620 1.454536
v -1.249100 1.402448 1.282921
v -1.270800 1.530869 1.288947
v -1.331300 1.608195 1.313270
v -1.211300 1.629811 1.578645
v -1.179900 1.650494 1.560869
v -1.168700 1.684863 1.556710
v -1.180700 1.724607 1.566939
v -1.555300 1.630721 1.286422
v -1.606800 1.529019 1.247713
v -1.625000 1.400375 1.236782
v -1.603300 1.271855 1.230754
v -1.545900 1.169139 1.230933
v -1.464200 1.112335 1.237038
v -1.374400 1.112860 1.248148
v -1.321900 1.170305 1.258455
v -1.267300 1.273703 1.272088
v -1.260800 1.410814 1.152036
v -1.279300 1.500565 1.155853
v -1.328700 1.572294 1.154584
v -1.371600 1.585147 1.151287
v -1.382500 1.673048 1.297692
v -1.449200 1.611589 1.142503
v -1.472100 1.690108 1.275058
v -1.518600 1.571261 1.131265
v -1.566000 1.499020 1.120624
v -1.582100 1.409136 1.112605
v -1.563600 1.319385 1.108789
v -1.514200 1.247656 1.110057
v -1.443700 1.208056 1.116033
v -1.366100 1.208507 1.125541
v -1.324300 1.248688 1.133376
v -1.276900 1.320929 1.144017
v -1.402100 1.413117 1.088465
v -1.351800 1.658994 1.624311
v -1.329900 1.705349 1.671848
v -1.346400 1.773762 1.646224
v -1.401900 1.813293 1.600242
v -1.278000 1.613674 1.536485
v -1.404400 1.817270 1.500292
v -1.305900 1.639524 1.444781
v -1.320300 1.680419 1.413722
v -1.334000 1.722806 1.402190
v -1.416500 1.761184 1.403895
v -1.440800 1.497808 1.850296
v -1.420300 1.364253 1.840087
v -1.411200 1.602795 1.902659
v -1.410000 1.661109 1.927582
v -1.385700 1.658619 1.971348
v -1.356900 1.596575 2.011674
v -1.367700 1.488856 2.005674
v -1.326500 1.353223 2.032037
v -1.363400 1.220996 1.988346
v -1.344900 1.113145 1.990745
v -1.374200 1.056293 1.936541
v -1.398500 1.058785 1.892675
v -1.399100 1.119365 1.881729
v -1.436400 1.229847 1.833066
vn 0.8245 0.5492 -0.1361
vn 0.7021 0.6907 0.1730
vn 0.8149 0.4672 0.3430
vn -0.4942 0.5269 -0.6915
vn -0.3242 0.7477 -0.5795
vn -0.2018 0.6520 -0.7309
vn 0.6575 -0.6924 -0.2973
vn 0.7016 -0.6865 0.1911
vn 0.4523 -0.8918 -0.0125
vn -0.1513 0.7331 -0.6630
vn 0.3387 0.9377 0.0775
vn 0.6086 0.7736 -0.1766
vn -0.1626 0.9478 -0.2744
vn -0.6421 0.7216 -0.2588
vn -0.5026 0.0999 -0.8587
vn -0.8727 0.0472 -0.4859
vn -0.5114 -0.3294 -0.7937
vn -0.3464 -0.5923 -0.7274
vn -0.8477 -0.2446 -0.4707
vn -0.2620 -0.8480 -0.4608
vn 0.1461 -0.8399 -0.5227
vn -0.0768 -0.9964 0.0362
vn 0.2053 -0.9569 0.2056
vn 0.8162 -0.4750 0.3289
vn 0.9278 -0.0246 0.3723
vn 0.7581 -0.0430 0.6507
vn 0.4036 0.8110 0.4235
vn 0.1204 0.9855 -0.1199
vn 0.1485 0.9627 0.2261
vn -0.3561 0.9344 0.0104
vn -0.7083 0.7046 -0.0420
vn -0.7121 0.7021 0.0033
vn -0.9285 0.3631 -0.0774
vn -0.9945 0.0306 -0.1005
vn -0.9988 -0.0010 0.0490
vn -0.9553 -0.2841 -0.0816
vn -0.7032 -0.7097 -0.0423
vn -0.9694 -0.2390 0.0553
vn -0.2558 -0.9667 0.0049
vn 0.0096 -0.9955 0.0941
vn 0.0559 -0.9887 0.1390
vn 0.2977 -0.9262 0.2316
vn 0.6534 -0.6394 0.4054
vn 0.3440 -0.9049 0.2504
vn 0.8130 -0.3417 0.4714
vn 0.8618 0.0895 0.4994
vn 0.8330 0.0684 0.5491
vn 0.7129 0.5721 0.4056
vn 0.4956 0.8124 0.3071
vn 0.5329 0.7958 0.2876
vn 0.2048 0.9659 0.1582
vn -0.0807 0.9949 0.0613
vn 0.2414 0.9627 0.1223
vn -0.8420 0.0512 0.5370
vn -0.8571 -0.0492 0.5129
vn -0.3162 -0.0859 0.9448
vn 0.8136 -0.5447 -0.2033
vn -0.1790 -0.3944 -0.9013
vn 0.0584 -0.7049 -0.7069
vn 0.6283 -0.6597 -0.4123
vn 0.2284 -0.6753 -0.7013
vn -0.3240 0.9448 -0.0481
vn -0.8087 0.4376 -0.3931
vn -0.6983 -0.6022 -0.3870
vn -0.3301 -0.9337 -0.1388
vn 0.5084 -0.7550 0.4141
vn 0.6898 -0.4498 0.5673
vn 0.6404 0.5146 0.5702
vn -0.0628 0.9936 0.0942
vn -0.3890 0.9201 -0.0448
vn -0.7071 0.4057 0.5792
vn -0.4825 0.6079 0.6306
vn -0.9537 0.2993 0.0293
vn -0.7413 -0.6681 0.0639
vn -0.6239 -0.3991 0.6719
vn -0.7688 -0.0845 0.6339
vn -0.2919 -0.9549 0.0555
vn -0.1442 -0.7576 0.6366
vn -0.3834 -0.6350 0.6706
vn 0.6579 -0.6114 0.4397
vn 0.2769 -0.4036 0.8720
vn 0.0460 -0.6641 0.7462
vn 0.7966 -0.2875 0.5317
vn 0.4115 0.0670 0.9089
vn 0.3285 -0.1117 0.9379
vn 0.7359 0.5125 0.4425
vn 0.3443 0.5680 0.7475
vn 0.3092 0.2907 0.9055
vn -0.0784 0.9969 -0.0034
vn -0.2082 0.7417 0.6376
vn 0.1331 0.6762 0.7246
vn -0.3139 -0.1496 0.9376
vn -0.2708 -0.0930 0.9581
vn -0.2212 -0.0244 0.9749
vn 0.9447 0.3161 -0.0872
vn -0.2453 0.5232 -0.8161
vn 0.4451 0.8664 -0.2262
vn 0.9936 0.0122 -0.1122
vn -0.2837 0.1719 -0.9434
vn 0.0518 0.8826 -0.4673
vn -0.1649 0.0492 0.9851
vn 0.1797 0.0737 -0.9810
vn -0.5656 0.0775 -0.8211
vn -0.5418 0.0859 -0.8361
vn -0.4940 0.2644 -0.8283
vn -0.2269 0.7410 -0.6320
vn 0.5693 0.7488 -0.3395
vn 0.9512 0.2435 -0.1896
vn 0.9832 0.0290 0.1804
vn 0.9921 0.0240 -0.1232
vn 0.9790 0.0158 0.2032
vn 0.9733 -0.1809 -0.1411
vn 0.5741 -0.6873 -0.4450
vn -0.2161 -0.6496 -0.7289
vn -0.5031 -0.1912 -0.8428
vn -0.6509 -0.0116 -0.7591
vn 0.2533 0.0711 -0.9648
vn 0.9728 0.0310 -0.2295
vn 0.9679 -0.1858 -0.1691
vn 0.4270 0.1464 -0.8923
vn 0.9261 0.1743 0.3348
vn 0.5837 0.4966 -0.6424
vn 0.2812 0.9461 0.1607
vn 0.2234 0.9715 -0.0795
vn -0.3439 0.9360 0.0751
vn -0.3059 0.8478 0.4332
vn -0.7934 0.5774 0.1926
vn -0.4668 0.3516 0.8115
vn -0.9210 0.2660 0.2844
vn -0.4935 0.1515 0.8565
vn -0.9636 -0.0329 0.2653
vn -0.4493 -0.0648 0.8910
vn -0.9151 -0.3247 0.2393
vn -0.4974 -0.2503 0.8307
vn -0.7715 -0.6183 0.1501
vn -0.4376 -0.4495 0.7788
vn -0.3572 -0.9338 -0.0198
vn -0.2741 -0.9128 0.3026
vn 0.3753 -0.9196 0.1165
vn 0.2889 -0.9098 -0.2980
vn 0.9198 -0.3850 0.0759
vn 0.4704 -0.3336 -0.8170
vn 0.9833 0.1154 -0.1409
vn 0.4024 -0.0981 -0.9102
vn 0.7701 0.0024 0.6379
vn 0.8841 -0.0823 0.4601
vn 0.8292 -0.1593 0.5358
vn 0.2011 0.6306 0.7496
vn -0.0247 0.8831 0.4685
vn -0.4284 0.8645 0.2629
vn -0.9100 0.3812 -0.1632
vn -0.9833 -0.0045 -0.1822
vn -0.9175 -0.3446 -0.1986
vn -0.6967 -0.6917 -0.1903
vn -0.2399 -0.9680 -0.0739
vn 0.2294 -0.9522 0.2016
vn 0.7613 -0.4214 0.4927
vn 0.7816 0.0479 0.6219
vn 0.9441 -0.1731 0.2807
vn 0.5075 0.7358 0.4484
vn 0.7099 0.6134 0.3460
vn 0.1873 -0.6324 0.7517
vn 0.0905 -0.9619 0.2581
vn 0.8052 -0.4613 0.3726
vn 0.1291 -0.1201 0.9843
vn 0.9420 0.0693 0.3284
vn 0.4045 0.3185 0.8573
vn 0.6721 0.7284 0.1330
vn 0.5790 0.6139 0.5366
vn -0.6404 0.7357 -0.2204
vn -0.8937 0.3761 -0.2447
vn -0.9549 0.0047 -0.2969
vn -0.8929 -0.3334 -0.3025
vn -0.6762 -0.6830 -0.2761
vn -0.2417 -0.9467 -0.2127
vn 0.4324 -0.9001 -0.0535
vn 0.9073 -0.3981 0.1356
vn 0.9183 -0.3345 0.2119
vn 0.9988 0.0215 0.0435
vn 0.9165 0.3976 0.0433
vn 0.8538 0.5049 -0.1269
vn 0.4301 -0.8750 -0.2224
vn 0.7097 -0.5981 -0.3723
vn 0.8811 -0.0001 -0.4730
vn 0.7034 0.6022 -0.3777
vn -0.6632 0.6517 -0.3681
vn -0.8600 0.3650 -0.3566
vn -0.9340 0.0093 -0.3570
vn -0.8602 -0.3120 -0.4034
vn -0.6286 -0.6238 -0.4645
vn -0.2064 -0.8578 -0.4708
vn 0.4145 -0.8277 -0.3783
vn 0.8311 -0.5247 -0.1843
vn 0.9468 -0.3217 -0.0026
vn 0.8339 0.0530 -0.5493
vn 0.7646 0.3147 -0.5624
vn 0.4958 0.6391 -0.5880
vn 0.3226 0.6351 -0.7018
vn 0.5330 0.7088 -0.4620
vn -0.0086 0.6787 -0.7344
vn -0.2278 0.8704 -0.4364
vn -0.3984 0.5376 -0.7432
vn -0.5976 0.3019 -0.7428
vn -0.6652 0.0403 -0.7456
vn -0.5904 -0.2182 -0.7770
vn -0.3828 -0.4244 -0.8206
vn -0.0715 -0.5352 -0.8417
vn 0.3611 -0.5254 -0.7704
vn 0.6216 -0.3711 -0.6898
vn 0.7661 -0.2218 -0.6033
vn 0.1447 0.0705 -0.9870
vn 0.3648 -0.5588 0.7448
vn 0.1219 -0.1690 0.9781
vn 0.0268 0.6749 0.7374
vn -0.1527 0.9116 0.3817
vn 0.4323 -0.9011 -0.0324
vn -0.0434 0.9700 -0.2392
vn 0.8004 -0.4366 -0.4109
vn 0.8347 0.0906 -0.5431
vn 0.6037 0.5740 -0.5533
vn 0.0105 0.8679 -0.4967
vn -0.2280 0.2813 -0.9321
vn -0.2425 0.0353 -0.9695
vn -0.4038 0.4003 -0.8226
vn -0.1682 0.9265 -0.3366
vn 0.2074 0.8233 0.5283
vn 0.4539 0.2490 0.8555
vn 0.4123 0.1151 0.9037
vn 0.5022 -0.0477 0.8634
vn 0.4199 -0.1661 0.8922
vn 0.4627 -0.3196 0.8269
vn 0.2224 -0.8938 0.3894
vn -0.1633 -0.8664 -0.4718
vn -0.4355 -0.3022 -0.8480
vn -0.3217 -0.1789 -0.9298
vt 0.997300 0.445500
vt 0.815600 0.681700
vt 0.787100 0.563500
vt 0.211200 0.540100
vt 0.201200 0.662400
vt 0.011700 0.440500
vt 0.968900 0.453800
vt 0.751200 0.854100
vt 0.755200 0.681600
vt 0.013600 0.477000
vt 0.197200 0.673800
vt 0.184400 0.817300
vt 0.008900 0.443300
vt 0.225500 0.264100
vt 0.201200 0.133800
vt 0.531300 0.097200
vt 0.198100 0.419500
vt 0.533000 0.533600
vt 0.220000 0.304000
vt 0.222600 0.176700
vt 0.543000 0.419800
vt 0.752300 0.238600
vt 0.825200 0.360100
vt 0.455800 0.436900
vt 0.465400 0.634600
vt 0.754900 0.303600
vt 0.775700 0.431900
vt 0.501000 0.542500
vt 0.531900 0.768300
vt 0.194100 0.471300
vt 0.489700 0.578600
vt 0.801300 0.527600
vt 0.840300 0.411900
vt 0.910400 0.533400
vt 0.849700 0.736700
vt 0.853700 0.647800
vt 0.920100 0.695500
vt 0.859600 0.559200
vt 0.861300 0.470300
vt 0.926800 0.609500
vt 0.177200 0.521600
vt 0.215300 0.655300
vt 0.130100 0.736700
vt 0.248900 0.779000
vt 0.281900 0.904900
vt 0.157100 0.846600
vt 0.299800 0.552700
vt 0.317700 0.643200
vt 0.213700 0.700600
vt 0.322700 0.734400
vt 0.323500 0.825800
vt 0.217200 0.873600
vt 0.719400 0.737000
vt 0.761800 0.641600
vt 0.819500 0.809900
vt 0.623600 0.825500
vt 0.602500 0.744100
vt 0.706100 0.615700
vt 0.751200 0.182100
vt 0.979900 0.321800
vt 0.018000 0.321600
vt 0.971600 0.313600
vt 0.777400 0.110100
vt 0.982000 0.273800
vt 0.961700 0.423400
vt 0.964600 0.347400
vt 0.013600 0.325100
vt 0.525000 0.267300
vt 0.532700 0.647300
vt 0.553300 0.314000
vt 0.445200 0.217900
vt 0.473400 0.800300
vt 0.487000 0.425500
vt 0.517500 0.651300
vt 0.509900 0.429900
vt 0.877700 0.634500
vt 0.980700 0.656700
vt 0.957500 0.729900
vt 0.918500 0.782300
vt 0.987500 0.744100
vt 0.985500 0.825500
vt 0.929900 0.526900
vt 0.999500 0.583800
vt 0.995600 0.663700
vt 0.099100 0.619500
vt 0.040700 0.809800
vt 0.018700 0.716500
vt 0.181900 0.527100
vt 0.076500 0.593600
vt 0.058700 0.520200
vt 0.197500 0.612100
vt 0.103400 0.760500
vt 0.090000 0.677100
vt 0.213600 0.785700
vt 0.105600 0.924600
vt 0.105600 0.842700
vt 0.846800 0.726000
vt 0.934200 0.801600
vt 0.914300 0.866900
vt 0.004400 0.663700
vt 0.000500 0.583800
vt 0.018700 0.521900
vt 0.030000 0.697300
vt 0.040700 0.487300
vt 0.053300 0.743400
vt 0.085700 0.972500
vt 0.065800 0.999500
vt 0.071100 0.796500
vt 0.805700 0.743400
vt 0.809800 0.487300
vt 0.890200 0.520200
vt 0.997200 0.408500
vt 0.000500 0.405000
vt 0.002700 0.472300
vt 0.014100 0.414600
vt 0.676500 0.831000
vt 0.468100 0.756500
vt 0.840300 0.825300
vt 0.138700 0.389700
vt 0.281900 0.462100
vt 0.894400 0.931000
vt 0.782800 0.889800
vt 0.733200 0.697300
vt 0.656700 0.907300
vt 0.993700 0.364700
vt 0.005100 0.361800
vt 0.979900 0.498300
vt 0.035400 0.262100
vt 0.174800 0.000500
vt 0.247700 0.069700
vt 0.014400 0.356400
vt 0.531300 0.753100
vt 0.446700 0.058300
vt 0.473400 0.316600
vt 0.980700 0.907300
vt 0.910400 0.865700
vt 0.000500 0.641400
vt 0.070100 0.513800
vt 0.058700 0.890200
vt 0.181900 0.949200
vt 0.026600 0.615700
vt 0.012500 0.744100
vt 0.042500 0.966500
vt 0.019300 0.907300
vt 0.091100 0.759100
vt 0.973000 0.593600
vt 0.887300 0.796500
vt 0.801600 0.999500
vt -0.042900 18.945299
vt -0.036900 13.541300
vt -9.302200 11.762300
vt -16.737600 13.593700
vt -20.866699 16.178499
vt -20.872499 19.953800
vt -16.752300 22.925900
vt -9.318000 21.677299
vt -0.055700 25.828800
vt 9.219400 21.750700
vt 16.649799 23.551201
vt 20.780199 20.311399
vt 20.785999 16.536200
vt 16.664499 14.219000
vt 9.240600 7.894300
vt -0.055100 -4.747400
vt -9.441200 -6.115200
vt -9.312700 1.573100
vt -0.047400 3.860000
vt -16.948000 -0.760800
vt -16.745701 0.455100
vt -21.035200 -3.847400
vt -20.865299 -3.380700
vt -21.115900 -12.151000
vt -20.862200 -6.408700
vt -16.929399 -18.802299
vt -16.737000 -8.029400
vt -9.394500 -23.525801
vt -9.301500 -9.999300
vt -0.003900 -25.278400
vt -0.033900 -10.032000
vt 9.381600 -23.451500
vt 9.235900 -9.925800
vt 16.903099 -18.406900
vt 16.665100 -7.404100
vt 21.073299 -11.881800
vt 20.790501 -6.051100
vt 21.045500 -7.878300
vt 20.787399 -3.023000
vt 16.860399 -3.858600
vt 16.656401 1.080400
vt 9.334800 -6.040800
vt 9.224700 1.646600
vt -0.072000 1.900100
vt -10.158800 5.010600
vt -15.491500 5.097000
vt -21.747700 3.907400
vt -19.034300 -4.353300
vt -22.539600 -10.030100
vt -10.095800 -22.826900
vt 0.026800 -25.090300
vt 10.142100 -22.746799
vt 18.246700 -16.260700
vt 22.735500 -6.916500
vt 22.667400 -4.092900
vt 18.192801 6.175100
vt 10.079600 5.172800
vt 4.448000 16.955900
vt -10.139600 11.722600
vt -7.899400 3.732600
vt -17.201599 24.617300
vt -16.504499 24.252300
vt -18.582500 27.666100
vt -21.025999 23.273701
vt -21.500601 28.911900
vt -23.521900 25.418800
vt -24.688400 26.636499
vt -24.659599 25.962799
vt -22.551500 -10.162900
vt -10.119000 -21.012199
vt -0.000000 -23.321800
vt 10.119000 -21.012199
vt 18.233700 -14.540900
vt 22.737101 -5.189600
vt 22.737101 5.189600
vt 18.192801 10.836500
vt 10.099800 11.934400
vt -0.000000 16.144300
vt -8.894700 14.292200
vt -14.390700 9.080700
vt -16.966900 23.019300
vt -18.280300 25.697201
vt -20.620501 26.696199
vt -23.409500 25.728500
vt -16.027599 -11.660900
vt -8.894700 -16.850500
vt -0.000000 -18.702600
vt 8.894700 -16.850500
vt 16.027599 -11.660900
vt 19.986099 -4.161700
vt 19.986099 4.161700
vt 16.027599 9.102600
vt 8.894600 14.292200
vt -0.000000 13.608800
vt -6.212900 12.007800
vt -11.195200 7.521700
vt -12.101600 3.572700
vt -18.828400 4.262100
vt -13.960200 -3.597500
vt -19.986099 -4.161700
vt -11.195200 -10.080000
vt -6.212900 -14.566100
vt -0.000000 -16.167101
vt 6.212900 -14.566100
vt 11.195200 -10.080000
vt 13.960200 -3.597500
vt 13.960200 3.597500
vt 11.195200 7.521700
vt 6.212900 12.007800
vt -0.000000 0.000000
vt -19.311899 10.718400
vt -22.699800 13.273200
vt -27.308201 11.519300
vt -29.875401 5.947700
vt -15.721500 16.447201
vt -29.697800 4.603500
vt -17.119200 12.889700
vt -19.806700 11.248700
vt -22.683300 9.889100
vt -25.410801 2.392700
vt -9.318000 5.048600
vt -0.051700 6.737400
vt -16.757799 8.390400
vt -20.884199 8.809800
vt -20.889999 11.517400
vt -16.771299 14.564400
vt -9.336800 13.455200
vt -0.075300 17.447399
vt 9.200600 13.528700
vt 16.630800 15.189600
vt 20.762699 11.875000
vt 20.768499 9.167500
vt 16.644300 9.015700
vt 9.219400 5.122000
s 1
usemtl Orange
f 1/1/1 2/2/2 3/3/3
f 4/4/4 5/5/5 6/6/6
f 7/7/7 8/8/8 9/9/9
f 6/6/6 5/5/5 10/10/10
f 11/11/11 2/12/2 12/13/12
f 13/14/13 5/15/5 14/16/14
f 4/4/4 15/17/15 16/18/16
f 17/19/17 18/20/18 19/21/19
f 20/22/20 21/23/21 22/24/22
f 9/9/9 8/8/8 23/25/23
f 24/26/24 25/27/25 26/28/26
f 3/3/3 2/2/2 27/29/27
f 11/11/11 28/30/28 29/31/29
f 30/32/30 31/33/31 32/34/32
f 33/35/33 34/36/34 35/37/35
f 36/38/36 37/39/37 38/40/38
f 39/41/39 40/42/40 41/43/41
f 42/44/42 43/45/43 44/46/44
f 45/47/45 46/48/46 47/49/47
f 48/50/48 49/51/49 50/52/50
f 51/53/51 52/54/52 53/55/53
f 54/56/54 55/57/55 56/58/56
f 24/26/24 8/59/8 57/60/57
f 58/61/58 18/20/18 17/19/17
f 59/62/59 18/63/18 58/64/58
f 60/65/60 21/23/21 61/66/61
f 20/22/20 18/63/18 59/62/59
f 10/67/10 5/15/5 13/14/13
f 62/68/62 31/33/31 30/32/30
f 63/69/63 34/36/34 33/35/33
f 64/70/64 37/39/37 36/38/36
f 65/71/65 40/42/40 39/41/39
f 66/72/66 43/45/43 42/44/42
f 67/73/67 46/48/46 45/47/45
f 68/74/68 49/51/49 48/50/48
f 69/75/69 52/54/52 51/53/51
f 70/76/70 71/77/71 72/78/72
f 73/79/73 55/80/55 54/81/54
f 74/82/74 75/83/75 76/84/76
f 77/85/77 78/86/78 79/87/79
f 80/88/80 81/89/81 82/90/82
f 83/91/83 84/92/84 85/93/85
f 86/94/86 87/95/87 88/96/88
f 89/97/89 90/98/90 91/99/91
f 76/100/76 75/101/75 79/102/79
f 92/103/92 78/104/78 93/105/93
f 85/93/85 84/92/84 88/96/88
f 91/106/91 90/107/90 94/108/94
f 93/109/93 78/110/78 82/111/82
f 3/3/3 25/27/25 95/112/95
f 1/1/1 3/3/3 95/112/95
f 96/113/96 15/17/15 4/4/4
f 4/4/4 6/6/6 96/113/96
f 9/9/9 21/23/21 60/65/60
f 7/7/7 9/9/9 60/65/60
f 12/13/12 2/12/2 1/114/1
f 97/115/97 28/30/28 11/11/11
f 11/11/11 12/13/12 97/115/97
f 14/16/14 31/33/31 62/68/62
f 62/68/62 28/30/28 13/14/13
f 13/14/13 14/16/14 62/68/62
f 16/18/16 34/36/34 63/69/63
f 63/69/63 5/5/5 4/4/4
f 4/4/4 16/18/16 63/69/63
f 19/21/19 34/36/34 16/18/16
f 16/18/16 15/17/15 17/19/17
f 17/19/17 19/21/19 16/18/16
f 22/24/22 40/42/40 65/71/65
f 65/71/65 18/63/18 20/22/20
f 20/22/20 22/24/22 65/71/65
f 23/25/23 40/42/40 22/24/22
f 22/24/22 21/23/21 9/9/9
f 9/9/9 23/25/23 22/24/22
f 26/28/26 46/48/46 67/73/67
f 67/73/67 8/59/8 24/26/24
f 24/26/24 26/28/26 67/73/67
f 27/29/27 49/51/49 68/74/68
f 68/74/68 25/27/25 3/3/3
f 3/3/3 27/29/27 68/74/68
f 29/31/29 49/116/49 27/117/27
f 27/117/27 2/12/2 11/11/11
f 11/11/11 29/31/29 27/117/27
f 32/34/32 71/77/71 70/76/70
f 70/76/70 52/54/52 30/32/30
f 30/32/30 32/34/32 70/76/70
f 35/37/35 55/80/55 73/79/73
f 73/79/73 31/118/31 33/35/33
f 33/35/33 35/37/35 73/79/73
f 38/40/38 55/80/55 35/37/35
f 35/37/35 34/36/34 36/38/36
f 36/38/36 38/40/38 35/37/35
f 41/43/41 78/86/78 77/85/77
f 77/85/77 37/119/37 39/41/39
f 39/41/39 41/43/41 77/85/77
f 44/46/44 78/86/78 41/43/41
f 41/43/41 40/42/40 42/44/42
f 42/44/42 44/46/44 41/43/41
f 47/49/47 84/92/84 83/91/83
f 83/91/83 43/120/43 45/47/45
f 45/47/45 47/49/47 83/91/83
f 50/52/50 87/95/87 86/94/86
f 86/94/86 46/48/46 48/50/48
f 48/50/48 50/52/50 86/94/86
f 53/55/53 87/121/87 50/122/50
f 50/122/50 49/116/49 51/53/51
f 51/53/51 53/55/53 50/122/50
f 56/58/56 78/110/78 92/123/92
f 92/123/92 71/124/71 54/56/54
f 54/56/54 56/58/56 92/123/92
f 98/125/98 25/27/25 24/26/24
f 24/26/24 57/60/57 98/125/98
f 95/112/95 25/27/25 98/125/98
f 99/126/99 15/17/15 96/113/96
f 17/19/17 15/17/15 99/126/99
f 58/61/58 17/19/17 99/126/99
f 57/127/57 8/8/8 7/7/7
f 61/128/61 21/129/21 20/130/20
f 20/22/20 59/62/59 61/66/61
f 100/131/100 28/30/28 97/115/97
f 13/14/13 28/30/28 100/131/100
f 10/67/10 13/14/13 100/131/100
f 30/32/30 52/54/52 69/75/69
f 69/75/69 28/30/28 62/68/62
f 62/68/62 30/32/30 69/75/69
f 33/35/33 31/118/31 14/132/14
f 14/132/14 5/5/5 63/69/63
f 63/69/63 33/35/33 14/132/14
f 36/38/36 34/36/34 19/21/19
f 19/21/19 18/20/18 64/70/64
f 64/70/64 36/38/36 19/21/19
f 39/41/39 37/119/37 64/133/64
f 64/133/64 18/63/18 65/71/65
f 65/71/65 39/41/39 64/133/64
f 42/44/42 40/42/40 23/25/23
f 23/25/23 8/8/8 66/72/66
f 66/72/66 42/44/42 23/25/23
f 45/47/45 43/120/43 66/134/66
f 66/134/66 8/59/8 67/73/67
f 67/73/67 45/47/45 66/134/66
f 48/50/48 46/48/46 26/28/26
f 26/28/26 25/27/25 68/74/68
f 68/74/68 48/50/48 26/28/26
f 51/53/51 49/116/49 29/31/29
f 29/31/29 28/30/28 69/75/69
f 69/75/69 51/53/51 29/31/29
f 72/78/72 90/98/90 89/97/89
f 89/97/89 52/54/52 70/76/70
f 70/76/70 72/78/72 89/97/89
f 54/81/54 71/135/71 32/136/32
f 32/136/32 31/118/31 73/79/73
f 73/79/73 54/81/54 32/136/32
f 76/84/76 55/80/55 38/40/38
f 38/40/38 37/39/37 74/82/74
f 74/82/74 76/84/76 38/40/38
f 79/87/79 75/137/75 74/138/74
f 74/138/74 37/119/37 77/85/77
f 77/85/77 79/87/79 74/138/74
f 82/139/82 78/86/78 44/46/44
f 44/46/44 43/45/43 80/140/80
f 80/140/80 82/139/82 44/46/44
f 85/93/85 81/89/81 80/88/80
f 80/88/80 43/120/43 83/91/83
f 83/91/83 85/93/85 80/88/80
f 88/96/88 84/92/84 47/49/47
f 47/49/47 46/48/46 86/94/86
f 86/94/86 88/96/88 47/49/47
f 91/99/91 87/121/87 53/55/53
f 53/55/53 52/54/52 89/97/89
f 89/97/89 91/99/91 53/55/53
f 79/102/79 78/104/78 56/141/56
f 56/141/56 55/142/55 76/100/76
f 76/100/76 79/102/79 56/141/56
f 93/105/93 90/107/90 72/143/72
f 72/143/72 71/144/71 92/103/92
f 92/103/92 93/105/93 72/143/72
f 88/96/88 87/95/87 101/145/101
f 101/145/101 81/89/81 85/93/85
f 85/93/85 88/96/88 101/145/101
f 94/108/94 81/89/81 101/145/101
f 101/145/101 87/95/87 91/106/91
f 91/106/91 94/108/94 101/145/101
f 82/111/82 81/146/81 94/147/94
f 94/147/94 90/148/90 93/109/93
f 93/109/93 82/111/82 94/147/94
f 102/149/102 103/150/103 104/151/104
f 102/149/102 104/151/104 105/152/105
f 102/149/102 105/152/105 106/153/106
f 102/149/102 106/153/106 107/154/107
f 102/149/102 107/154/107 108/155/108
f 102/149/102 108/155/108 109/156/109
f 102/149/102 109/156/109 110/157/110
f 102/149/102 110/157/110 111/158/111
f 102/149/102 111/158/111 112/159/112
f 102/149/102 112/159/112 113/160/113
f 102/149/102 113/160/113 114/161/114
f 102/149/102 114/161/114 115/162/115
f 102/149/102 115/162/115 116/163/116
f 102/149/102 116/163/116 103/150/103
f 118/164/118 119/165/119 120/166/120
f 120/166/120 117/167/117 118/164/118
f 120/166/120 119/165/119 121/168/121
f 121/168/121 122/169/122 120/166/120
f 121/168/121 123/170/123 124/171/124
f 124/171/124 122/169/122 121/168/121
f 124/171/124 123/170/123 125/172/125
f 125/172/125 126/173/126 124/171/124
f 126/173/126 125/172/125 127/174/127
f 127/174/127 128/175/128 126/173/126
f 127/174/127 129/176/129 130/177/130
f 130/177/130 128/175/128 127/174/127
f 130/177/130 129/176/129 131/178/131
f 131/178/131 132/179/132 130/177/130
f 131/178/131 133/180/133 134/181/134
f 134/181/134 132/179/132 131/178/131
f 134/181/134 133/180/133 135/182/135
f 135/182/135 136/183/136 134/181/134
f 135/182/135 137/184/137 138/185/138
f 138/185/138 136/183/136 135/182/135
f 137/184/137 139/186/139 140/187/140
f 140/187/140 138/185/138 137/184/137
f 140/187/140 139/186/139 141/188/141
f 141/188/141 142/189/142 140/187/140
f 141/188/141 143/190/143 144/191/144
f 144/191/144 142/189/142 141/188/141
f 144/191/144 143/190/143 118/164/118
f 144/191/144 118/164/118 117/167/117
f 145/192/145 146/193/146 119/165/119
f 119/165/119 118/164/118 145/192/145
f 146/193/146 147/194/147 121/168/121
f 121/168/121 119/165/119 146/193/146
f 121/168/121 147/194/147 148/195/148
f 148/195/148 123/170/123 121/168/121
f 123/170/123 148/195/148 149/196/149
f 149/196/149 125/172/125 123/170/123
f 125/172/125 149/196/149 150/197/150
f 150/197/150 127/174/127 125/172/125
f 127/174/127 150/197/150 151/198/151
f 151/198/151 129/176/129 127/174/127
f 129/176/129 151/198/151 152/199/152
f 152/199/152 131/178/131 129/176/129
f 152/199/152 153/200/153 133/180/133
f 133/180/133 131/178/131 152/199/152
f 153/200/153 154/201/154 135/182/135
f 135/182/135 133/180/133 153/200/153
f 154/201/154 155/202/155 137/184/137
f 137/184/137 135/182/135 154/201/154
f 155/202/155 156/203/156 139/186/139
f 139/186/139 137/184/137 155/202/155
f 156/203/156 157/204/157 141/188/141
f 141/188/141 139/186/139 156/203/156
f 141/188/141 157/204/157 158/205/158
f 158/205/158 143/190/143 141/188/141
f 143/190/143 158/205/158 145/192/145
f 143/190/143 145/192/145 118/164/118
f 145/192/145 159/206/159 160/207/160
f 160/207/160 146/193/146 145/192/145
f 146/193/146 160/207/160 161/208/161
f 161/208/161 147/194/147 146/193/146
f 162/209/162 163/210/163 164/211/164
f 164/211/164 165/212/165 162/209/162
f 165/212/165 164/211/164 166/213/166
f 166/213/166 167/214/167 165/212/165
f 167/214/167 166/213/166 168/215/168
f 168/215/168 169/216/169 167/214/167
f 150/197/150 170/217/170 171/218/171
f 171/218/171 151/198/151 150/197/150
f 151/198/151 171/218/171 172/219/172
f 172/219/172 152/199/152 151/198/151
f 172/219/172 173/220/173 153/200/153
f 153/200/153 152/199/152 172/219/172
f 173/220/173 174/221/174 154/201/154
f 154/201/154 153/200/153 173/220/173
f 174/221/174 175/222/175 155/202/155
f 155/202/155 154/201/154 174/221/174
f 175/222/175 176/223/176 156/203/156
f 156/203/156 155/202/155 175/222/175
f 176/223/176 177/224/177 157/204/157
f 157/204/157 156/203/156 176/223/176
f 177/224/177 178/225/178 158/205/158
f 158/205/158 157/204/157 177/224/177
f 158/205/158 178/225/178 159/206/159
f 158/205/158 159/206/159 145/192/145
f 179/226/179 180/227/180 160/207/160
f 160/207/160 159/206/159 179/226/179
f 160/207/160 180/227/180 181/228/181
f 181/228/181 161/208/161 160/207/160
f 182/229/182 183/230/183 164/211/164
f 164/211/164 163/210/163 182/229/182
f 183/230/183 184/231/184 166/213/166
f 166/213/166 164/211/164 183/230/183
f 166/213/166 184/231/184 185/232/185
f 185/232/185 168/215/168 166/213/166
f 186/233/186 187/234/187 171/218/171
f 171/218/171 170/217/170 186/233/186
f 187/234/187 188/235/188 172/219/172
f 172/219/172 171/218/171 187/234/187
f 188/235/188 189/236/189 173/220/173
f 173/220/173 172/219/172 188/235/188
f 173/220/173 189/236/189 190/237/190
f 190/237/190 174/221/174 173/220/173
f 174/221/174 190/237/190 191/238/191
f 191/238/191 175/222/175 174/221/174
f 191/238/191 192/239/192 176/223/176
f 176/223/176 175/222/175 191/238/191
f 192/239/192 193/240/193 177/224/177
f 177/224/177 176/223/176 192/239/192
f 193/240/193 194/241/194 178/225/178
f 178/225/178 177/224/177 193/240/193
f 178/225/178 194/241/194 179/226/179
f 178/225/178 179/226/179 159/206/159
f 179/226/179 195/242/195 196/243/196
f 196/243/196 180/227/180 179/226/179
f 180/227/180 196/243/196 197/244/197
f 197/244/197 181/228/181 180/227/180
f 181/228/181 197/244/197 198/245/198
f 198/245/198 199/246/199 181/228/181
f 199/246/199 198/245/198 200/247/200
f 200/247/200 201/248/201 199/246/199
f 200/247/200 202/249/202 186/233/186
f 186/233/186 201/248/201 200/247/200
f 202/249/202 203/250/203 187/234/187
f 187/234/187 186/233/186 202/249/202
f 203/250/203 204/251/204 188/235/188
f 188/235/188 187/234/187 203/250/203
f 188/235/188 204/251/204 205/252/205
f 205/252/205 189/236/189 188/235/188
f 189/236/189 205/252/205 206/253/206
f 206/253/206 190/237/190 189/236/189
f 190/237/190 206/253/206 207/254/207
f 207/254/207 191/238/191 190/237/190
f 207/254/207 208/255/208 192/239/192
f 192/239/192 191/238/191 207/254/207
f 208/255/208 209/256/209 193/240/193
f 193/240/193 192/239/192 208/255/208
f 209/256/209 210/257/210 194/241/194
f 194/241/194 193/240/193 209/256/209
f 194/241/194 210/257/210 195/242/195
f 194/241/194 195/242/195 179/226/179
f 211/258/211 196/243/196 195/242/195
f 211/258/211 197/244/197 196/243/196
f 211/258/211 198/245/198 197/244/197
f 211/258/211 200/247/200 198/245/198
f 211/258/211 202/249/202 200/247/200
f 211/258/211 203/250/203 202/249/202
f 211/258/211 204/251/204 203/250/203
f 211/258/211 205/252/205 204/251/204
f 211/258/211 206/253/206 205/252/205
f 211/258/211 207/254/207 206/253/206
f 211/258/211 208/255/208 207/254/207
f 211/258/211 209/256/209 208/255/208
f 211/258/211 210/257/210 209/256/209
f 211/258/211 195/242/195 210/257/210
f 148/195/148 147/194/147 212/259/212
f 212/259/212 213/260/213 148/195/148
f 148/195/148 213/260/213 214/261/214
f 214/261/214 149/196/149 148/195/148
f 149/196/149 214/261/214 215/262/215
f 215/262/215 150/197/150 149/196/149
f 147/194/147 161/208/161 216/263/216
f 216/263/216 212/259/212 147/194/147
f 170/217/170 150/197/150 215/262/215
f 215/262/215 217/264/217 170/217/170
f 161/208/161 181/228/181 218/265/218
f 218/265/218 216/263/216 161/208/161
f 181/228/181 199/246/199 219/266/219
f 219/266/219 218/265/218 181/228/181
f 199/246/199 201/248/201 220/267/220
f 220/267/220 219/266/219 199/246/199
f 201/248/201 186/233/186 221/268/221
f 221/268/221 220/267/220 201/248/201
f 170/217/170 217/264/217 221/268/221
f 221/268/221 186/233/186 170/217/170
f 216/263/216 163/210/163 162/209/162
f 162/209/162 212/259/212 216/263/216
f 212/259/212 162/209/162 165/212/165
f 165/212/165 213/260/213 212/259/212
f 213/260/213 165/212/165 167/214/167
f 167/214/167 214/261/214 213/260/213
f 215/262/215 169/216/169 168/215/168
f 168/215/168 217/264/217 215/262/215
f 214/261/214 167/214/167 169/216/169
f 169/216/169 215/262/215 214/261/214
f 216/263/216 218/265/218 182/229/182
f 182/229/182 163/210/163 216/263/216
f 218/265/218 219/266/219 183/230/183
f 183/230/183 182/229/182 218/265/218
f 219/266/219 220/267/220 184/231/184
f 184/231/184 183/230/183 219/266/219
f 220/267/220 221/268/221 185/232/185
f 185/232/185 184/231/184 220/267/220
f 217/264/217 168/215/168 185/232/185
f 185/232/185 221/268/221 217/264/217
f 117/167/117 120/166/120 222/269/222
f 222/269/222 223/270/223 117/167/117
f 122/169/122 224/271/224 222/269/222
f 222/269/222 120/166/120 122/169/122
f 122/169/122 124/171/124 225/272/225
f 225/272/225 224/271/224 122/169/122
f 126/173/126 226/273/226 225/272/225
f 225/272/225 124/171/124 126/173/126
f 128/175/128 227/274/227 226/273/226
f 226/273/226 126/173/126 128/175/128
f 128/175/128 130/177/130 228/275/228
f 228/275/228 227/274/227 128/175/128
f 132/179/132 229/276/229 228/275/228
f 228/275/228 130/177/130 132/179/132
f 132/179/132 134/181/134 230/277/230
f 230/277/230 229/276/229 132/179/132
f 136/183/136 231/278/231 230/277/230
f 230/277/230 134/181/134 136/183/136
f 136/183/136 138/185/138 232/279/232
f 232/279/232 231/278/231 136/183/136
f 140/187/140 233/280/233 232/279/232
f 232/279/232 138/185/138 140/187/140
f 142/189/142 234/281/234 233/280/233
f 233/280/233 140/187/140 142/189/142
f 142/189/142 144/191/144 235/282/235
f 235/282/235 234/281/234 142/189/142
f 144/191/144 117/167/117 223/270/223
f 223/270/223 235/282/235 144/191/144
f 223/270/223 222/269/222 104/151/104
f 104/151/104 103/150/103 223/270/223
f 224/271/224 105/152/105 104/151/104
f 104/151/104 222/269/222 224/271/224
f 224/271/224 225/272/225 106/153/106
f 106/153/106 105/152/105 224/271/224
f 225/272/225 226/273/226 107/154/107
f 107/154/107 106/153/106 225/272/225
f 226/273/226 227/274/227 108/155/108
f 108/155/108 107/154/107 226/273/226
f 227/274/227 228/275/228 109/156/109
f 109/156/109 108/155/108 227/274/227
f 229/276/229 110/157/110 109/156/109
f 109/156/109 228/275/228 229/276/229
f 229/276/229 230/277/230 111/158/111
f 111/158/111 110/157/110 229/276/229
f 231/278/231 112/159/112 111/158/111
f 111/158/111 230/277/230 231/278/231
f 232/279/232 113/160/113 112/159/112
f 112/159/112 231/278/231 232/279/232
f 233/280/233 114/161/114 113/160/113
f 113/160/113 232/279/232 233/280/233
f 233/280/233 234/281/234 115/162/115
f 115/162/115 114/161/114 233/280/233
f 234/281/234 235/282/235 116/163/116
f 116/163/116 115/162/115 234/281/234
f 235/282/235 223/270/223 103/150/103
f 103/150/103 116/163/116 235/282/235
