# Blender 4.5.2 LTS
# www.blender.org
mtllib piernaIzq.mtl
o piernaizq
v 0.325400 0.299400 0.157800
v 0.624300 0.296400 0.207800
v 0.664700 0.495100 -0.132900
v 0.801000 0.274100 0.102800
v 0.918400 0.273200 -0.037400
v 0.731600 0.488300 -0.173300
v 0.761500 0.299000 -0.502700
v 0.633500 0.450600 -0.440400
v 0.641900 0.487600 -0.438600
v 0.081600 -0.083400 0.300400
v 0.372700 -0.161800 0.524100
v 0.451000 0.036300 0.411900
v 0.578200 -0.899900 0.375800
v 0.607000 -1.339400 -0.106800
v 0.885500 -0.719600 0.319700
v 0.617000 -1.337200 -0.158500
v 0.606500 -1.336800 -0.179200
v 0.863800 -0.699900 -0.214100
v 0.547700 -0.874000 -0.359500
v 0.304000 -0.124300 -0.626500
v 0.731000 0.159700 -0.501300
v 0.038300 -0.291400 0.263900
v 0.073600 -0.324900 0.237800
v 0.069000 -0.167300 0.324600
v 0.126100 -0.977500 0.198100
v 0.500200 -1.337000 -0.114100
v 0.532800 -1.337600 -0.103200
v 0.473000 -1.021300 -0.289500
v 0.132500 -0.403400 -0.434300
v 0.208600 -0.285800 -0.590300
v 0.078800 -0.364200 -0.397200
v 0.121200 -0.378000 -0.373200
v 0.065500 -0.255300 -0.421700
v 0.002000 -0.216200 -0.254000
v 0.027500 -0.403300 -0.260000
v 0.117500 -1.007000 -0.139800
v 0.061600 -0.975600 -0.009800
v 0.493300 -1.335600 -0.168100
v 0.485700 -1.336100 -0.138100
v 0.091500 -0.984800 0.065400
v 0.013300 -0.373900 0.141400
v -0.015500 -0.309800 0.102700
v 0.073500 -0.145200 0.338400
v 0.448000 0.519600 0.056700
v 0.710600 0.478800 -0.403000
v 0.649100 0.524500 -0.435000
v 0.730000 0.526500 -0.405000
v 0.591100 0.507100 -0.445600
v 0.136100 0.038900 0.276200
v 0.752000 -0.009400 0.520900
v 0.961400 0.268600 -0.206200
v 0.932100 -0.714500 0.190600
v 0.620800 -1.338700 -0.119800
v 0.532100 0.193400 -0.590500
v 0.238200 -0.256700 0.481800
v 0.585300 -1.338900 -0.097500
v 0.492400 -0.991500 0.315300
v 0.584300 -1.336500 -0.188400
v 0.557300 -1.336200 -0.193200
v 0.360500 -1.008800 -0.297600
v 0.516600 -1.335700 -0.185600
v 0.552200 0.498900 -0.115200
v 0.783600 0.489100 -0.327700
v 0.895400 0.285700 -0.370800
v 0.771800 0.483400 -0.360400
v 0.922900 -0.705100 -0.110900
v 0.623800 -1.337700 -0.140600
v 0.299400 0.199600 -0.449700
v 0.137900 -0.112900 -0.462500
v 0.563200 -1.338200 -0.099500
v 0.374700 -0.978900 0.284000
v 0.417100 0.474300 -0.444600
v -0.037400 -0.393400 -0.078900
v 0.336500 0.494500 -0.250800
v 0.335000 0.513100 -0.155500
v 0.678000 0.526400 -0.419200
v 0.745600 0.520600 -0.383100
v 0.786500 0.498600 -0.228200
v 0.793300 0.487000 -0.264300
v 0.581500 0.480300 -0.442400
v 0.521200 0.455000 -0.451500
v 0.529800 0.509400 -0.446800
vn -0.1080 0.6364 0.7638
vn 0.2186 0.6461 0.7313
vn 0.2492 0.8023 0.5424
vn 0.4712 0.6972 0.5403
vn 0.8217 0.4485 0.3517
vn 0.4231 0.7437 0.5176
vn 0.4996 0.2295 -0.8353
vn -0.1128 0.1937 -0.9745
vn 0.2044 0.1224 -0.9712
vn -0.4578 0.3852 0.8013
vn -0.2232 0.1871 0.9566
vn -0.2174 0.6451 0.7325
vn 0.1352 -0.4656 0.8746
vn 0.4424 -0.6639 0.6029
vn 0.7202 -0.2844 0.6327
vn 0.8414 -0.3722 -0.3917
vn 0.6001 -0.3000 -0.7416
vn 0.7149 -0.2281 -0.6610
vn 0.2377 -0.3184 -0.9177
vn -0.1994 0.1130 -0.9734
vn 0.5279 -0.1468 -0.8365
vn -0.5428 -0.3841 0.7469
vn -0.5416 -0.4635 0.7013
vn -0.6344 -0.0106 0.7729
vn -0.6387 -0.4564 0.6194
vn -0.3795 -0.7925 0.4774
vn -0.1515 -0.7555 0.6374
vn -0.0531 -0.3316 -0.9419
vn -0.6744 -0.4031 -0.6186
vn -0.4331 -0.1589 -0.8872
vn -0.9271 -0.0896 -0.3639
vn -0.2900 0.7912 -0.5385
vn -0.8254 -0.0214 -0.5642
vn -0.9141 0.2503 -0.3189
vn -0.9002 -0.1879 -0.3929
vn -0.7320 -0.5072 -0.4550
vn -0.8975 -0.4397 0.0340
vn -0.5924 -0.6250 -0.5084
vn -0.6311 -0.7745 0.0428
vn -0.8202 -0.5154 0.2485
vn -0.8983 -0.2142 0.3835
vn -0.9829 0.0981 0.1558
vn -0.9094 0.4122 0.0555
vn -0.8149 0.4739 0.3338
vn 0.5163 0.1765 -0.8380
vn 0.3278 0.0347 -0.9441
vn 0.3672 0.7586 -0.5382
vn 0.0714 -0.0986 -0.9926
vn -0.3173 0.4549 0.8321
vn 0.4316 0.3667 0.8241
vn 0.9576 0.2807 -0.0644
vn 0.9557 -0.2298 0.1839
vn 0.7628 -0.5680 0.3091
vn -0.0351 0.2473 -0.9683
vn -0.5158 -0.0821 0.8527
vn 0.1127 -0.7387 0.6646
vn -0.1011 -0.5952 0.7972
vn 0.2908 -0.1854 -0.9387
vn 0.0537 -0.2739 -0.9602
vn -0.2418 -0.3513 -0.9045
vn -0.3172 -0.4502 -0.8347
vn 0.1279 0.7472 0.6522
vn 0.8005 0.5390 -0.2621
vn 0.8192 0.1995 -0.5377
vn 0.6642 0.3332 -0.6692
vn 0.9387 -0.2360 -0.2514
vn 0.8872 -0.4383 -0.1442
vn -0.4395 0.3526 -0.8262
vn -0.6453 0.2573 -0.7193
vn -0.0879 -0.7481 0.6577
vn -0.2770 -0.4359 0.8563
vn -0.8094 0.3580 -0.4655
vn -0.9989 0.0025 -0.0477
vn -0.8934 0.3919 -0.2196
vn -0.8895 0.4301 0.1543
vn 0.0494 0.9810 -0.1878
vn -0.0885 0.9442 0.3174
vn 0.7267 0.6389 0.2524
vn 0.8201 0.5715 -0.0276
vn 0.0701 -0.0121 -0.9975
vn 0.0960 -0.0565 -0.9938
vn 0.0148 -0.1238 -0.9922
vt -0.106200 0.892100
vt 0.112300 0.890900
vt 0.347400 0.972900
vt 0.207500 0.881700
vt 0.267400 0.881300
vt 0.345800 0.970000
vt 0.416600 0.892000
vt 0.440900 0.954500
vt 0.438200 0.969700
vt -0.139200 0.734200
vt -0.021800 0.701900
vt 0.001400 0.783600
vt 0.052100 0.397400
vt 0.355700 0.216100
vt 0.148200 0.471700
vt 0.379600 0.217000
vt 0.393600 0.217100
vt 0.332800 0.479900
vt 0.460100 0.408100
vt 0.533300 0.717300
vt 0.423300 0.834500
vt 0.842100 0.648400
vt 0.840700 0.634600
vt 0.864500 0.699600
vt 0.837700 0.365400
vt 0.439600 0.217100
vt 0.402200 0.216800
vt 0.487200 0.347300
vt 0.593700 0.602200
vt 0.557100 0.650700
vt 0.612400 0.618300
vt 0.607600 0.612700
vt 0.610600 0.663300
vt 0.660500 0.679400
vt 0.654500 0.602200
vt 0.678200 0.353200
vt 0.740800 0.366100
vt 0.462200 0.217600
vt 0.462100 0.217400
vt 0.775300 0.362300
vt 0.798800 0.614300
vt -0.217300 0.640800
vt -0.131200 0.708700
vt 0.002300 0.982900
vt 0.413900 0.966100
vt 0.435700 0.985000
vt 0.409200 0.985800
vt 0.454000 0.977800
vt -0.133400 0.784600
vt 0.081900 0.764700
vt 0.317000 0.879400
vt 0.190700 0.473900
vt 0.357300 0.216300
vt 0.478900 0.848400
vt 0.936700 0.662700
vt 0.978200 0.701900
vt 0.860800 0.734200
vt 0.360700 0.216300
vt 0.022200 0.359600
vt -0.063300 0.662700
vt 0.408400 0.217300
vt 0.425200 0.217400
vt 0.541300 0.352400
vt 0.448900 0.217600
vt 0.394200 0.974400
vt 0.380100 0.970400
vt 0.366800 0.886500
vt 0.390200 0.968000
vt 0.292200 0.477700
vt 0.367600 0.216800
vt 0.546900 0.851000
vt 0.588000 0.722000
vt 0.376000 0.216600
vt -0.039300 0.364800
vt 0.960700 0.364800
vt 0.510000 0.964300
vt 0.719100 0.606300
vt 0.560500 0.972600
vt 0.868800 0.708700
vt 0.782700 0.640800
vt 0.590200 0.980300
vt -0.409800 0.980300
vt 0.425400 0.985700
vt 0.401200 0.983400
vt 0.352100 0.974300
vt 0.361500 0.969500
vt 0.456600 0.966700
vt 0.476100 0.956300
vt 0.473200 0.978800
vt -0.159300 0.634600
s 1
usemtl lambert2SG
f 1/1/1 2/2/2 3/3/3
f 4/4/4 5/5/5 6/6/6
f 7/7/7 8/8/8 9/9/9
f 10/10/10 11/11/11 12/12/12
f 13/13/13 14/14/14 15/15/15
f 16/16/16 17/17/17 18/18/18
f 19/19/19 20/20/20 21/21/21
f 22/22/22 23/23/23 24/24/24
f 25/25/25 26/26/26 27/27/27
f 28/28/28 29/29/29 30/30/30
f 31/31/31 32/32/32 33/33/33
f 34/34/34 32/32/32 31/31/31
f 35/35/35 29/29/29 36/36/36
f 37/37/37 38/38/38 39/39/39
f 40/40/40 26/26/26 25/25/25
f 41/41/41 23/23/23 22/22/22
f 42/42/42 43/43/43 44/44/44
f 45/45/45 46/46/46 47/47/47
f 48/48/48 46/46/46 9/9/9
f 49/49/49 2/2/2 1/1/1
f 50/50/50 5/5/5 4/4/4
f 51/51/51 5/5/5 52/52/52
f 15/15/15 14/14/14 53/53/53
f 54/54/54 8/8/8 7/7/7
f 55/55/55 11/56/11 10/57/10
f 56/58/56 14/14/14 57/59/57
f 13/13/13 11/11/11 55/60/55
f 58/61/58 59/62/59 60/63/60
f 60/63/60 59/62/59 61/64/61
f 1/1/1 3/3/3 62/65/62
f 3/3/3 2/2/2 4/4/4
f 4/4/4 6/6/6 3/3/3
f 63/66/63 64/67/64 65/68/65
f 9/9/9 46/46/46 45/45/45
f 45/45/45 64/67/64 7/7/7
f 7/7/7 9/9/9 45/45/45
f 12/12/12 2/2/2 49/49/49
f 10/10/10 12/12/12 49/49/49
f 15/15/15 5/5/5 50/50/50
f 50/50/50 11/11/11 13/13/13
f 13/13/13 15/15/15 50/50/50
f 18/18/18 64/67/64 66/69/66
f 66/69/66 67/70/67 16/16/16
f 16/16/16 18/18/18 66/69/66
f 21/21/21 64/67/64 18/18/18
f 18/18/18 17/17/17 19/19/19
f 19/19/19 21/21/21 18/18/18
f 68/71/68 8/8/8 54/54/54
f 54/54/54 20/20/20 69/72/69
f 69/72/69 68/71/68 54/54/54
f 27/27/27 70/73/70 71/74/71
f 71/75/71 23/23/23 25/25/25
f 25/25/25 27/27/27 71/74/71
f 30/30/30 20/20/20 19/19/19
f 19/19/19 17/17/17 28/28/28
f 28/28/28 30/30/30 19/19/19
f 33/33/33 20/20/20 30/30/30
f 30/30/30 29/29/29 31/31/31
f 31/31/31 33/33/33 30/30/30
f 72/76/72 32/32/32 34/34/34
f 34/34/34 73/77/73 74/78/74
f 74/78/74 72/76/72 34/34/34
f 31/31/31 29/29/29 35/35/35
f 35/35/35 73/77/73 34/34/34
f 34/34/34 31/31/31 35/35/35
f 36/36/36 38/38/38 37/37/37
f 37/37/37 73/77/73 35/35/35
f 35/35/35 36/36/36 37/37/37
f 39/39/39 26/26/26 40/40/40
f 40/40/40 73/77/73 37/37/37
f 37/37/37 39/39/39 40/40/40
f 25/25/25 23/23/23 41/41/41
f 41/41/41 73/77/73 40/40/40
f 40/40/40 25/25/25 41/41/41
f 22/22/22 43/79/43 42/80/42
f 42/80/42 73/77/73 41/41/41
f 41/41/41 22/22/22 42/80/42
f 75/81/75 73/77/73 42/80/42
f 42/42/42 44/44/44 75/82/75
f 74/78/74 73/77/73 75/81/75
f 47/47/47 46/46/46 76/83/76
f 77/84/77 47/47/47 76/83/76
f 6/6/6 5/5/5 78/85/78
f 79/86/79 5/5/5 51/51/51
f 51/51/51 64/67/64 63/66/63
f 63/66/63 79/86/79 51/51/51
f 78/85/78 5/5/5 79/86/79
f 65/68/65 64/67/64 45/45/45
f 45/45/45 47/47/47 65/68/65
f 80/87/80 8/8/8 81/88/81
f 9/9/9 8/8/8 80/87/80
f 80/87/80 82/89/82 48/48/48
f 48/48/48 9/9/9 80/87/80
f 4/4/4 2/2/2 12/12/12
f 12/12/12 11/11/11 50/50/50
f 50/50/50 4/4/4 12/12/12
f 52/52/52 67/70/67 66/69/66
f 66/69/66 64/67/64 51/51/51
f 51/51/51 52/52/52 66/69/66
f 53/53/53 67/70/67 52/52/52
f 52/52/52 5/5/5 15/15/15
f 15/15/15 53/53/53 52/52/52
f 7/7/7 64/67/64 21/21/21
f 21/21/21 20/20/20 54/54/54
f 54/54/54 7/7/7 21/21/21
f 81/88/81 8/8/8 68/71/68
f 24/24/24 23/23/23 55/55/55
f 55/55/55 10/57/10 24/24/24
f 57/59/57 23/90/23 71/74/71
f 71/74/71 70/73/70 56/58/56
f 56/58/56 57/59/57 71/74/71
f 55/60/55 23/90/23 57/59/57
f 57/59/57 14/14/14 13/13/13
f 13/13/13 55/60/55 57/59/57
f 60/63/60 29/29/29 28/28/28
f 28/28/28 17/17/17 58/61/58
f 58/61/58 60/63/60 28/28/28
f 61/64/61 38/38/38 36/36/36
f 36/36/36 29/29/29 60/63/60
f 60/63/60 61/64/61 36/36/36
f 69/72/69 20/20/20 33/33/33
o botaIzq
v 0.094800 -1.839200 0.722900
v 0.265500 -1.839800 0.932500
v 0.265900 -1.763800 0.916000
v 0.439500 -1.839800 0.977700
v 0.613400 -1.839800 0.932500
v 0.613000 -1.763800 0.916000
v 0.784100 -1.840300 0.722900
v 0.859200 -1.915400 0.453900
v 0.777600 -1.754200 0.694400
v 0.903900 -1.839600 0.161300
v 0.859400 -1.839800 -0.138400
v 0.851800 -1.765600 -0.129800
v 0.766300 -1.839500 -0.319200
v 0.613400 -1.839800 -0.450600
v 0.610000 -1.766400 -0.446100
v 0.112700 -1.839400 -0.319200
v 0.019500 -1.839800 -0.138400
v 0.115400 -1.760900 -0.310800
v -0.024900 -1.839600 0.161300
v 0.019500 -1.839800 0.460900
v 0.026500 -1.765500 0.452000
v 0.147400 -2.006700 0.667400
v 0.278800 -1.984500 0.877500
v 0.101100 -1.931100 0.691900
v 0.439500 -2.006100 0.896000
v 0.600200 -1.984500 0.877500
v 0.616000 -1.917400 0.921100
v 0.729900 -2.003600 0.666500
v 0.827500 -1.984500 0.438100
v 0.848000 -2.004400 0.161300
v 0.827500 -1.984500 -0.115600
v 0.859100 -1.915700 -0.133400
v 0.725400 -2.000300 -0.285700
v 0.600200 -1.984500 -0.438900
v 0.615400 -1.913900 -0.462500
v 0.439500 -2.001100 -0.454300
v 0.278800 -1.984500 -0.438900
v 0.264600 -1.913600 -0.459700
v 0.150600 -2.001500 -0.287900
v 0.051500 -1.984500 -0.115600
v 0.124800 -1.931000 -0.316500
v 0.034200 -2.002400 0.161300
v 0.051500 -1.984500 0.438100
v 0.017500 -1.915900 0.454800
v 0.136700 -1.676500 0.673200
v 0.278800 -1.695000 0.877500
v 0.291900 -1.622000 0.783300
v 0.439500 -1.674500 0.906700
v 0.600200 -1.695000 0.877500
v 0.587000 -1.621500 0.783600
v 0.743900 -1.676000 0.674100
v 0.827500 -1.695000 0.438100
v 0.716000 -1.612000 0.565500
v 0.827500 -1.695000 -0.115600
v 0.806300 -1.653400 -0.098000
v 0.825100 -1.653400 0.036300
v 0.858400 -1.681200 0.161300
v 0.739800 -1.682000 -0.291900
v 0.600200 -1.695000 -0.428700
v 0.586800 -1.627400 -0.399600
v 0.439500 -1.683300 -0.462200
v 0.278800 -1.695000 -0.428700
v 0.293000 -1.627900 -0.399000
v 0.020500 -1.681200 0.161300
v 0.051500 -1.695000 0.438100
v 0.086900 -1.626500 0.408600
v 0.229400 -1.994200 0.523000
v 0.316500 -1.993100 0.672800
v 0.180400 -2.003300 0.559100
v 0.439500 -1.994200 0.672900
v 0.562500 -1.993100 0.672800
v 0.583700 -2.002100 0.775400
v 0.534000 -1.958800 -0.232500
v 0.562500 -1.957000 -0.350300
v 0.696400 -1.979700 -0.236000
v 0.142400 -1.995200 0.161300
v 0.142500 -1.993100 0.373200
v 0.095900 -1.995800 0.405200
v 0.600000 -2.007300 0.161300
v 0.783300 -2.000300 -0.083600
v 0.668400 -2.014500 0.209700
v 0.439500 -2.006300 0.161300
v 0.102200 -1.753400 0.693500
v 0.432100 -1.751100 0.956500
v 0.852500 -1.765500 0.452100
v 0.889900 -1.758000 0.173100
v 0.763600 -1.760600 -0.310700
v 0.447300 -1.760000 -0.484600
v 0.027200 -1.765600 -0.129900
v 0.051500 -1.695000 -0.115600
v 0.138900 -1.681900 -0.292100
v -0.012700 -1.756100 0.149000
v 0.263900 -1.917100 0.920200
v 0.450100 -1.934200 0.955900
v 0.774700 -1.932100 0.689300
v 0.893300 -1.931600 0.146300
v 0.752200 -1.931200 -0.315300
v 0.423700 -1.931700 -0.490600
v 0.269200 -1.766400 -0.445900
v 0.020100 -1.915500 -0.132700
v -0.014400 -1.930600 0.175900
v 0.163600 -1.612300 0.564900
v 0.316500 -1.572200 0.672800
v 0.225100 -1.562600 0.525700
v 0.418800 -1.603500 0.796400
v 0.562500 -1.572200 0.672800
v 0.439500 -1.559300 0.678200
v 0.792400 -1.626100 0.409000
v 0.736400 -1.572200 0.373200
v 0.654000 -1.562000 0.525800
v 0.294800 -2.005000 0.775500
v 0.456800 -2.014000 0.778900
v 0.700000 -2.006100 0.560600
v 0.580300 -1.979900 -0.391300
v 0.297200 -1.997200 -0.395500
v 0.179200 -2.005200 -0.237800
v 0.091200 -2.003500 0.193000
v 0.506100 -1.987300 0.438100
v 0.257500 -2.000600 -0.083200
v 0.095600 -1.997700 -0.082600
v 0.229400 -1.995400 -0.200500
v 0.827300 -1.653400 0.107200
v 0.747500 -1.653800 -0.234400
v 0.770700 -1.653400 -0.182200
v 0.723900 -1.634800 -0.259500
v 0.639700 -1.622100 -0.337000
v 0.641900 -1.622000 -0.334600
v 0.570700 -1.590900 -0.367000
v 0.306800 -1.595300 -0.370500
v 0.360500 -1.604500 -0.390400
v 0.462100 -1.612500 -0.418800
v 0.403700 -1.596300 -0.391300
v 0.245100 -1.622900 -0.343700
v 0.151700 -1.642500 -0.265700
v 0.226300 -1.632400 -0.333700
v 0.110100 -1.598900 0.348000
v 0.079800 -1.619500 0.284000
v 0.137100 -1.577500 0.376600
v 0.061000 -1.653400 0.003800
v 0.040300 -1.653400 0.147500
v 0.784800 -2.006500 0.406000
v 0.553200 -1.995000 0.357000
v 0.791700 -2.013000 0.192700
v 0.457600 -2.001900 -0.398700
v 0.316500 -1.993100 -0.350300
v 0.278800 -2.002600 0.276000
v 0.325800 -2.000500 0.357100
v 0.472800 -1.997700 0.299800
v 0.406200 -2.002700 0.299800
v 0.152400 -1.571100 0.391400
v 0.502400 -1.596300 -0.391300
v 0.506500 -1.597200 -0.391000
v 0.072300 -1.653400 -0.098400
v 0.338700 -1.530200 0.501900
v 0.242700 -1.542800 0.463600
v 0.539800 -1.529200 0.497600
v 0.509400 -1.528400 0.509400
v 0.439500 -1.520600 0.510000
v 0.460000 -1.588300 -0.392000
v 0.635200 -1.541000 0.459600
v 0.738400 -1.574000 0.369800
v 0.735900 -1.571800 0.372400
v 0.107800 -1.653400 -0.183000
v 0.046800 -1.653000 0.209900
v 0.045700 -1.653200 0.200400
v 0.138200 -1.653700 -0.251200
v 0.217800 -1.553900 0.452700
v 0.357500 -1.529700 0.509200
v 0.650000 -1.546700 0.453200
v 0.830000 -1.653600 0.145000
v 0.822900 -1.639100 0.210300
v 0.786600 -1.617100 0.286000
v 0.758100 -1.592000 0.348300
v 0.844800 -1.653400 0.056000
v 0.820000 -1.653400 -0.097600
v 0.780200 -1.395600 -0.090900
v 0.802000 -1.395600 0.052500
v 0.748500 -1.653400 -0.232600
v 0.717600 -1.395600 -0.217000
v 0.642200 -1.623000 -0.335300
v 0.621600 -1.395600 -0.310700
v 0.747600 -1.653400 -0.233500
v 0.506900 -1.597500 -0.391200
v 0.503900 -1.395600 -0.360500
v 0.639500 -1.621900 -0.337100
v 0.225900 -1.633600 -0.334400
v 0.261000 -1.395600 -0.310700
v 0.378700 -1.395600 -0.360500
v 0.360400 -1.604800 -0.390500
v 0.165000 -1.395600 -0.217000
v 0.118500 -1.653400 -0.232600
v 0.138200 -1.653400 -0.250700
v 0.047100 -1.653400 -0.097600
v 0.102400 -1.395600 -0.090900
v 0.022300 -1.653400 0.056000
v 0.080600 -1.395600 0.052500
v 0.045600 -1.653400 0.200400
v 0.047000 -1.652800 0.209600
v 0.102400 -1.395600 0.196000
v 0.165000 -1.395600 0.322100
v 0.110000 -1.599000 0.347800
v 0.378700 -1.395600 0.465500
v 0.357700 -1.529700 0.509200
v 0.439500 -1.520700 0.510000
v 0.503900 -1.395600 0.465500
v 0.509400 -1.528400 0.509300
v 0.822700 -1.638900 0.210000
v 0.820000 -1.653400 0.209600
v 0.780200 -1.395600 0.196000
v 0.772300 -1.217900 -0.084300
v 0.793600 -1.217900 0.052500
v 0.711100 -1.217900 -0.204600
v 0.617300 -1.217900 -0.294000
v 0.502300 -1.217900 -0.341500
v 0.379800 -1.217900 -0.341500
v 0.264800 -1.217900 -0.294000
v 0.171000 -1.217900 -0.204600
v 0.109800 -1.217900 -0.084300
v 0.088500 -1.217900 0.052500
v 0.109800 -1.217900 0.189400
v 0.171000 -1.217900 0.309700
v 0.261000 -1.395600 0.415700
v 0.264800 -1.217900 0.399000
v 0.379800 -1.217900 0.446500
v 0.502300 -1.217900 0.446500
v 0.621600 -1.395600 0.415700
v 0.617300 -1.217900 0.399000
v 0.717600 -1.395600 0.322100
v 0.711100 -1.217900 0.309700
v 0.772300 -1.217900 0.189400
v 0.864600 -1.015900 -0.105000
v 0.891300 -1.015900 0.050100
v 0.787800 -1.015900 -0.241500
v 0.670100 -1.015900 -0.342700
v 0.525700 -1.015900 -0.396600
v 0.372000 -1.015900 -0.396600
v 0.227600 -1.015900 -0.342700
v 0.109900 -1.015900 -0.241500
v 0.033100 -1.015900 -0.105000
v 0.006400 -1.015900 0.050100
v 0.033100 -1.015900 0.205200
v 0.109900 -1.015900 0.341700
v 0.227600 -1.015900 0.442900
v 0.372000 -1.015900 0.496800
v 0.525700 -1.015900 0.496800
v 0.670100 -1.015900 0.442900
v 0.787800 -1.015900 0.341700
v 0.864600 -1.015900 0.205200
v 0.953600 -0.937600 -0.117200
v 0.986200 -0.937600 0.072600
v 0.859600 -0.937600 -0.284000
v 0.715600 -0.937600 -0.407900
v 0.539000 -0.937600 -0.473800
v 0.351000 -0.937600 -0.473800
v 0.174400 -0.937600 -0.407900
v 0.030400 -0.937600 -0.284000
v -0.063600 -0.937600 -0.117200
v -0.096200 -0.937600 0.072600
v -0.063600 -0.937600 0.262400
v 0.030400 -0.937600 0.429300
v 0.150600 -0.838800 0.531100
v 0.353500 -0.838800 0.606800
v 0.569400 -0.838800 0.606800
v 0.772300 -0.838800 0.531100
v 0.859600 -0.937600 0.429300
v 0.953600 -0.937600 0.262400
v 0.931900 -0.791400 -0.100000
v 0.962100 -0.791400 0.075500
v 0.845000 -0.791400 -0.254300
v 0.711800 -0.791400 -0.368900
v 0.548400 -0.791400 -0.429900
v 0.374500 -0.791400 -0.429900
v 0.211200 -0.791400 -0.368900
v 0.078000 -0.791400 -0.254300
v -0.008900 -0.791400 -0.100000
v -0.039100 -0.791400 0.075500
v -0.008900 -0.791400 0.251100
v 0.078000 -0.773800 0.405400
v 0.199900 -0.749400 0.459500
v 0.359900 -0.749400 0.512600
v 0.530100 -0.749400 0.512600
v 0.690100 -0.749400 0.459500
v 0.845000 -0.773800 0.405400
v 0.931900 -0.791400 0.251100
v 0.069900 -1.653400 -0.077200
v 0.227900 -1.653400 -0.332900
v 0.639100 -1.653400 -0.332900
v 0.504900 -1.653400 -0.386200
v 0.362100 -1.653400 -0.386200
v 0.047100 -1.653400 0.209600
v 0.118500 -1.653400 0.344600
v 0.362100 -1.653400 0.498200
v 0.504900 -1.653400 0.498200
v 0.650100 -1.546700 0.453200
v 0.639100 -1.653400 0.444900
v 0.748500 -1.653400 0.344600
v 0.227900 -1.653400 0.444900
v 0.217700 -1.553900 0.452700
v 0.758200 -1.592000 0.348200
vn -0.8815 0.0111 0.4721
vn -0.5230 0.0297 0.8518
vn -0.5195 0.3368 0.7853
vn 0.0028 0.0077 1.0000
vn 0.5175 0.0323 0.8551
vn 0.5173 0.3357 0.7872
vn 0.8847 -0.0022 0.4662
vn 0.9506 -0.2150 0.2237
vn 0.8582 0.3153 0.4051
vn 0.9994 0.0344 0.0086
vn 0.9517 0.0460 -0.3037
vn 0.9286 0.2448 -0.2789
vn 0.7805 -0.0202 -0.6249
vn 0.4903 0.1002 -0.8658
vn 0.4486 0.1727 -0.8769
vn -0.7692 -0.0191 -0.6387
vn -0.9501 0.0466 -0.3084
vn -0.7780 0.2225 -0.5875
vn -0.9998 0.0179 0.0030
vn -0.9731 0.0509 0.2246
vn -0.9455 0.2446 0.2148
vn -0.4338 -0.8766 0.2083
vn -0.3746 -0.7664 0.5218
vn -0.8344 -0.3807 0.3986
vn 0.0094 -0.8772 0.4800
vn 0.3605 -0.7805 0.5108
vn 0.5120 -0.3341 0.7914
vn 0.4463 -0.8669 0.2219
vn 0.6697 -0.7209 0.1784
vn 0.5617 -0.8273 -0.0042
vn 0.6144 -0.7578 -0.2196
vn 0.9244 -0.2450 -0.2922
vn 0.3042 -0.9292 -0.2101
vn 0.3272 -0.7690 -0.5492
vn 0.4859 -0.1216 -0.8655
vn 0.0024 -0.8338 -0.5520
vn -0.3435 -0.6660 -0.6621
vn -0.4700 -0.1256 -0.8737
vn -0.4585 -0.8247 -0.3311
vn -0.6317 -0.7509 -0.1927
vn -0.7469 -0.2874 -0.5996
vn -0.4951 -0.8688 0.0047
vn -0.6145 -0.7776 0.1333
vn -0.9467 -0.2390 0.2160
vn -0.7044 0.6068 0.3682
vn -0.4402 0.6161 0.6532
vn -0.3501 0.8225 0.4483
vn 0.0004 0.6954 0.7186
vn 0.4437 0.6111 0.6555
vn 0.3432 0.8262 0.4468
vn 0.7061 0.6038 0.3698
vn 0.8683 0.4491 0.2107
vn 0.5883 0.7649 0.2625
vn 0.8652 0.4339 -0.2515
vn 0.8316 0.5134 -0.2118
vn 0.8494 0.5158 -0.1116
vn 0.8549 0.5187 -0.0108
vn 0.7229 0.4505 -0.5239
vn 0.4285 0.3512 -0.8325
vn 0.3987 0.5622 -0.7246
vn -0.0077 0.3925 -0.9197
vn -0.4308 0.3514 -0.8312
vn -0.3881 0.5727 -0.7221
vn -0.8734 0.4869 0.0059
vn -0.8652 0.4529 0.2154
vn -0.7390 0.6442 0.1972
vn 0.0404 -0.9987 -0.0307
vn 0.0471 -0.9962 -0.0731
vn 0.0253 -0.9977 -0.0631
vn 0.0087 -0.9950 -0.0991
vn -0.0590 -0.9971 -0.0482
vn 0.0552 -0.9969 0.0559
vn 0.0320 -0.9977 -0.0602
vn -0.0766 -0.9624 0.2606
vn -0.1937 -0.9774 0.0851
vn 0.0588 -0.9983 0.0045
vn 0.0123 -0.9999 0.0034
vn -0.0951 -0.9953 0.0189
vn -0.0414 -0.9991 -0.0098
vn 0.1040 -0.9870 -0.1222
vn -0.0511 -0.9987 0.0062
vn 0.0021 -1.0000 -0.0081
vn -0.8483 0.3371 0.4083
vn -0.0220 0.3915 0.9199
vn 0.9546 0.2080 0.2132
vn 0.9637 0.2656 0.0264
vn 0.7782 0.2250 -0.5863
vn 0.0135 0.1721 -0.9850
vn -0.9283 0.2452 -0.2794
vn -0.8678 0.4315 -0.2464
vn -0.7236 0.4449 -0.5277
vn -0.9610 0.2757 -0.0213
vn -0.5152 -0.3339 0.7894
vn 0.0345 -0.4364 0.8991
vn 0.8199 -0.4127 0.3969
vn 0.9453 -0.3251 -0.0278
vn 0.7442 -0.3145 -0.5892
vn -0.0549 -0.2245 -0.9729
vn -0.4502 0.1630 -0.8780
vn -0.9232 -0.2448 -0.2964
vn -0.9400 -0.3401 0.0268
vn -0.5898 0.7630 0.2646
vn -0.2481 0.9210 0.3004
vn -0.3952 0.8867 0.2399
vn -0.0441 0.8894 0.4550
vn 0.2481 0.9224 0.2959
vn -0.0007 0.9556 0.2948
vn 0.7391 0.6483 0.1827
vn 0.5742 0.8095 0.1222
vn 0.3919 0.8876 0.2422
vn -0.0639 -0.9965 0.0542
vn 0.0394 -0.9983 -0.0436
vn 0.0278 -0.9996 0.0009
vn -0.0573 -0.9696 0.2378
vn -0.0583 -0.9931 -0.1013
vn 0.0021 -0.9996 0.0283
vn 0.0587 -0.9979 0.0261
vn -0.0371 -0.9990 0.0255
vn -0.0144 -0.9997 -0.0186
vn -0.1213 -0.9918 -0.0390
vn 0.0412 -0.9990 0.0188
vn 0.6912 0.7222 -0.0263
vn 0.7863 0.5065 -0.3537
vn 0.7848 0.5119 -0.3494
vn 0.7375 0.1832 -0.6500
vn 0.5873 0.5958 -0.5478
vn 0.6217 0.5136 -0.5913
vn 0.3963 0.2618 -0.8800
vn -0.3892 0.2659 -0.8819
vn -0.1461 0.6844 -0.7143
vn 0.0442 0.6213 -0.7823
vn -0.1392 0.6953 -0.7051
vn -0.5806 0.5937 -0.5572
vn -0.7233 0.1826 -0.6660
vn -0.5918 0.5484 -0.5907
vn -0.6699 0.7382 0.0797
vn -0.9143 0.2540 0.3154
vn -0.6164 0.7617 0.1994
vn -0.4921 -0.8678 -0.0687
vn -0.5184 -0.8547 -0.0282
vn 0.2149 -0.9743 0.0678
vn -0.0548 -0.9973 0.0487
vn 0.1008 -0.9948 0.0132
vn 0.0852 -0.9696 0.2294
vn 0.0802 -0.9948 0.0622
vn -0.0381 -0.9991 0.0171
vn 0.0012 -0.9993 0.0386
vn 0.0298 -0.9978 0.0600
vn 0.0335 -0.9982 0.0497
vn -0.5603 0.7884 0.2540
vn 0.1894 0.6992 -0.6894
vn 0.1904 0.6993 -0.6890
vn -0.5051 -0.8549 -0.1188
vn -0.1773 0.9594 0.2195
vn -0.3439 0.9185 0.1954
vn 0.1736 0.9599 0.2202
vn 0.1112 0.9684 0.2231
vn 0.0001 0.9745 0.2242
vn 0.0127 0.7426 -0.6696
vn 0.3191 0.9257 0.2030
vn 0.6814 0.7318 0.0135
vn 0.5466 0.8340 0.0754
vn -0.4581 -0.8653 -0.2033
vn -0.7972 0.5977 0.0846
vn -0.7933 0.6036 0.0791
vn -0.7924 0.4958 -0.3554
vn -0.4041 0.9027 0.1480
vn -0.1114 0.9684 0.2232
vn 0.4166 0.8939 0.1655
vn 0.7129 0.6988 -0.0589
vn 0.8626 0.4428 0.2445
vn 0.6994 0.7138 0.0358
vn 0.6862 0.7271 0.0206
vn 0.7889 -0.6144 -0.0111
vn 0.7496 -0.6137 -0.2481
vn 0.9469 0.1024 -0.3047
vn 0.9941 0.1085 -0.0037
vn 0.6315 -0.6239 -0.4605
vn 0.8032 0.1070 -0.5860
vn 0.6186 -0.0008 -0.7857
vn 0.5497 0.1231 -0.8263
vn 0.5397 -0.6726 -0.5063
vn 0.1778 0.0251 -0.9837
vn 0.1945 0.1322 -0.9720
vn 0.4778 0.0043 -0.8785
vn -0.5552 0.0124 -0.8316
vn -0.5478 0.1351 -0.8256
vn -0.1906 0.1363 -0.9722
vn -0.1828 0.0221 -0.9829
vn -0.7988 0.1271 -0.5879
vn -0.6480 -0.6093 -0.4570
vn -0.4350 -0.7657 -0.4737
vn -0.7655 -0.5922 -0.2516
vn -0.9437 0.1291 -0.3046
vn -0.8087 -0.5882 0.0010
vn -0.9911 0.1332 -0.0008
vn -0.7693 -0.6285 0.1143
vn -0.9605 0.0118 0.2780
vn -0.9449 0.1456 0.2933
vn -0.8000 0.1840 0.5710
vn -0.8250 0.0647 0.5614
vn -0.1916 0.2275 0.9547
vn -0.2116 0.1178 0.9702
vn -0.0001 0.1326 0.9912
vn 0.1984 0.2184 0.9555
vn 0.2020 0.1087 0.9733
vn 0.9558 -0.0075 0.2941
vn 0.6398 -0.7372 0.2170
vn 0.9466 0.1182 0.2998
vn 0.9326 -0.1906 -0.3064
vn 0.9794 -0.2019 0.0005
vn 0.7880 -0.1588 -0.5949
vn 0.5365 -0.1195 -0.8354
vn 0.1917 -0.0909 -0.9772
vn -0.1966 -0.0842 -0.9769
vn -0.5408 -0.1014 -0.8350
vn -0.7925 -0.1326 -0.5953
vn -0.9381 -0.1602 -0.3070
vn -0.9854 -0.1702 0.0005
vn -0.9383 -0.1567 0.3083
vn -0.7924 -0.1258 0.5969
vn -0.5373 0.2186 0.8146
vn -0.5404 -0.0918 0.8364
vn -0.1965 -0.0730 0.9778
vn 0.1916 -0.0797 0.9782
vn 0.5498 0.1910 0.8131
vn 0.5361 -0.1100 0.8369
vn 0.8020 0.1470 0.5789
vn 0.7846 -0.1546 0.6004
vn 0.9339 -0.1909 0.3022
vn 0.7471 -0.6077 -0.2693
vn 0.7782 -0.6280 -0.0082
vn 0.6320 -0.5791 -0.5151
vn 0.4307 -0.5478 -0.7172
vn 0.1573 -0.5244 -0.8368
vn -0.1505 -0.5226 -0.8392
vn -0.4275 -0.5434 -0.7225
vn -0.6328 -0.5734 -0.5203
vn -0.7514 -0.6012 -0.2720
vn -0.7843 -0.6203 -0.0077
vn -0.7356 -0.6293 0.2509
vn -0.5937 -0.5828 0.5549
vn -0.4616 -0.4230 0.7797
vn -0.1652 -0.4030 0.9002
vn 0.1614 -0.4173 0.8943
vn 0.4073 -0.4870 0.7726
vn 0.6059 -0.6333 0.4814
vn 0.7324 -0.6355 0.2444
vn 0.8958 -0.3120 -0.3166
vn 0.9420 -0.3355 0.0050
vn 0.7403 -0.2852 -0.6087
vn 0.4874 -0.2592 -0.8338
vn 0.1655 -0.2381 -0.9570
vn -0.1816 -0.2250 -0.9573
vn -0.5040 -0.2212 -0.8349
vn -0.7587 -0.2260 -0.6110
vn -0.9175 -0.2382 -0.3187
vn -0.9669 -0.2552 0.0049
vn -0.9058 -0.2786 0.3191
vn -0.6147 -0.3907 0.6852
vn -0.4847 0.1061 0.8682
vn -0.1725 0.1157 0.9782
vn 0.1853 0.1175 0.9756
vn 0.4924 0.1358 0.8597
vn 0.6885 -0.4085 0.5992
vn 0.8793 -0.3522 0.3205
vn 0.6418 0.7337 -0.2233
vn 0.7113 0.7028 -0.0107
vn 0.5237 0.7352 -0.4303
vn 0.3421 0.7530 -0.5621
vn 0.1227 0.7654 -0.6318
vn -0.1045 0.7774 -0.6203
vn -0.3088 0.7875 -0.5333
vn -0.4676 0.7945 -0.3875
vn -0.5675 0.7980 -0.2028
vn -0.6029 0.7978 0.0012
vn -0.5968 0.7840 0.1706
vn -0.5633 0.7449 0.3574
vn -0.1708 0.9489 0.2655
vn -0.0738 0.9135 0.4001
vn 0.0525 0.9365 0.3467
vn -0.0520 0.9371 -0.3452
vn 0.5705 0.7361 0.3641
vn 0.7446 0.6243 0.2363
vn -0.0000 -1.0000 -0.0000
vn -0.3679 -0.7109 -0.5995
vn 0.3668 -0.7140 -0.5964
vn 0.1311 -0.7019 -0.7001
vn -0.1316 -0.7014 -0.7005
vn -0.6482 -0.7294 0.2187
vn -0.5394 -0.7261 0.4265
vn -0.1324 -0.7012 0.7006
vn 0.1301 -0.7021 0.7001
vn 0.5641 0.1019 0.8194
vn 0.3674 -0.7126 0.5976
vn 0.5402 -0.7277 0.4226
vn -0.3684 -0.7107 0.5993
vn -0.5621 0.1029 0.8207
vn 0.8219 0.0494 0.5675
vt 0.826100 0.138900
vt 0.968700 0.138500
vt 0.957500 0.198500
vt 0.494900 0.138500
vt 0.655500 0.138500
vt 0.655000 0.198500
vt 0.173900 0.138100
vt 0.356900 0.078700
vt 0.193300 0.206100
vt 0.556000 0.138600
vt 0.759900 0.138500
vt 0.754100 0.197100
vt 0.882900 0.138700
vt 0.972300 0.138500
vt 0.969200 0.196400
vt 0.117100 0.138700
vt 0.240100 0.138500
vt 0.122800 0.200800
vt 0.444000 0.138600
vt 0.647900 0.138500
vt 0.641800 0.197100
vt 0.788400 0.006600
vt 0.931300 0.024200
vt 0.805000 0.066300
vt 0.494900 0.007100
vt 0.643200 0.024200
vt 0.657800 0.077200
vt 0.212300 0.009100
vt 0.367600 0.024200
vt 0.556000 0.008500
vt 0.744400 0.024200
vt 0.756500 0.078600
vt 0.860100 0.011700
vt 0.964300 0.024200
vt 0.980400 0.080000
vt 0.505100 0.011100
vt 0.653400 0.024200
vt 0.666500 0.080200
vt 0.138400 0.010700
vt 0.255600 0.024200
vt 0.118900 0.066400
vt 0.444000 0.010000
vt 0.632400 0.024200
vt 0.643700 0.078300
vt 0.792300 0.267400
vt 0.931300 0.252800
vt 0.867200 0.310400
vt 0.505100 0.951200
vt 0.356800 0.931300
vt 0.368900 0.867400
vt 0.207100 0.267800
vt 0.367600 0.252800
vt 0.281000 0.318300
vt 0.744400 0.252800
vt 0.732400 0.285700
vt 0.641100 0.285700
vt 0.556000 0.263700
vt 0.864300 0.263000
vt 0.957400 0.252800
vt 0.937600 0.306200
vt 0.505100 0.262100
vt 0.653400 0.252800
vt 0.640300 0.305800
vt 0.444000 0.263700
vt 0.632400 0.252800
vt 0.612200 0.306900
vt 0.301100 0.690100
vt 0.381400 0.792100
vt 0.255800 0.714600
vt 0.494900 0.792100
vt 0.608400 0.792100
vt 0.628000 0.861800
vt 0.582100 0.176100
vt 0.608400 0.095900
vt 0.732000 0.173700
vt 0.220700 0.444000
vt 0.220900 0.588200
vt 0.177800 0.609900
vt 0.643100 0.444000
vt 0.812300 0.277400
vt 0.706200 0.476900
vt 0.494900 0.444000
vt 0.806100 0.206700
vt 0.488100 0.208500
vt 0.643200 0.252800
vt 0.494900 0.269000
vt 0.358200 0.197100
vt 0.548000 0.203000
vt 0.877100 0.201000
vt 0.497900 0.201500
vt 0.245900 0.197100
vt 0.255600 0.252800
vt 0.135500 0.263100
vt 0.435600 0.204500
vt 0.960300 0.077400
vt 0.504700 0.063900
vt 0.196700 0.065600
vt 0.566200 0.065900
vt 0.880300 0.066300
vt 0.519600 0.065800
vt 0.662300 0.196400
vt 0.244000 0.078700
vt 0.454000 0.066800
vt 0.759700 0.718600
vt 0.618600 0.792100
vt 0.703000 0.691900
vt 0.524100 0.876100
vt 0.391600 0.792100
vt 0.505100 0.795700
vt 0.387500 0.307200
vt 0.411800 0.349700
vt 0.308000 0.357800
vt 0.361400 0.861900
vt 0.346600 0.931300
vt 0.225400 0.788400
vt 0.510900 0.864200
vt 0.643200 0.931300
vt 0.494900 0.943900
vt 0.735300 0.715700
vt 0.853000 0.632400
vt 0.762900 0.787700
vt 0.853000 0.255600
vt 0.872000 0.444000
vt 0.624900 0.068000
vt 0.643200 0.035700
vt 0.758800 0.139900
vt 0.363600 0.065200
vt 0.346600 0.035700
vt 0.494900 0.025200
vt 0.254700 0.172500
vt 0.136800 0.255600
vt 0.228300 0.138400
vt 0.173400 0.465500
vt 0.136800 0.632400
vt 0.120900 0.444000
vt 0.556400 0.632400
vt 0.327000 0.277600
vt 0.177500 0.278100
vt 0.301100 0.197900
vt 0.334400 0.138500
vt 0.068700 0.252800
vt 0.042500 0.198500
vt 0.031300 0.138500
vt 0.042600 0.252800
vt 0.030900 0.196400
vt 0.346600 0.024200
vt 0.068700 0.024200
vt 0.356800 0.024200
vt 0.021500 0.080200
vt 0.035700 0.024200
vt 0.641300 0.867200
vt 0.718600 0.318100
vt 0.653400 0.931300
vt 0.249900 0.719000
vt 0.132600 0.310800
vt 0.592800 0.285700
vt 0.789700 0.285700
vt 0.825200 0.285300
vt 0.842300 0.300300
vt 0.895000 0.310400
vt 0.893400 0.310400
vt 0.915400 0.335000
vt 0.578000 0.324200
vt 0.484200 0.317900
vt 0.627600 0.331500
vt 0.538100 0.330700
vt 0.356800 0.252800
vt 0.082200 0.331500
vt 0.062800 0.305800
vt 0.100400 0.309700
vt 0.107200 0.302200
vt 0.153500 0.294200
vt 0.590500 0.345500
vt 0.571000 0.328700
vt 0.527500 0.312400
vt 0.336800 0.285700
vt 0.434600 0.285700
vt 0.813700 0.610500
vt 0.599800 0.577100
vt 0.820000 0.465400
vt 0.511700 0.063000
vt 0.381400 0.095900
vt 0.346600 0.522000
vt 0.390000 0.577200
vt 0.525700 0.538200
vt 0.464200 0.538200
vt 0.346600 0.252800
vt 0.334700 0.198500
vt 0.347700 0.196400
vt 0.344500 0.138500
vt 0.332900 0.077400
vt 0.039100 0.077200
vt 0.342700 0.080000
vt 0.806700 0.138700
vt 0.795500 0.066400
vt 0.600500 0.350600
vt 0.691900 0.357400
vt 0.307100 0.692000
vt 0.447000 0.330700
vt 0.443300 0.330000
vt 0.384000 0.335000
vt 0.369100 0.306200
vt 0.267300 0.285700
vt 0.598100 0.675800
vt 0.686700 0.649700
vt 0.412500 0.672800
vt 0.440600 0.680800
vt 0.505100 0.681300
vt 0.486200 0.337000
vt 0.324400 0.647000
vt 0.414100 0.348400
vt 0.412400 0.350000
vt 0.209800 0.285700
vt 0.477100 0.285900
vt 0.470600 0.285800
vt 0.163400 0.285400
vt 0.709700 0.642300
vt 0.770100 0.600500
vt 0.580700 0.680700
vt 0.231000 0.588200
vt 0.310700 0.642600
vt 0.231500 0.587600
vt 0.567100 0.285500
vt 0.522700 0.296900
vt 0.471100 0.314300
vt 0.428800 0.334100
vt 0.732100 0.285700
vt 0.727600 0.489200
vt 0.630000 0.489200
vt 0.627600 0.285700
vt 0.824000 0.285700
vt 0.813400 0.489200
vt 0.893800 0.309600
vt 0.877100 0.489200
vt 0.824600 0.285700
vt 0.442800 0.329800
vt 0.445600 0.489200
vt 0.337000 0.489200
vt 0.320500 0.310500
vt 0.317900 0.309600
vt 0.702200 0.301300
vt 0.669800 0.489200
vt 0.561200 0.489200
vt 0.578100 0.324100
vt 0.106700 0.301300
vt 0.186600 0.489200
vt 0.122900 0.489200
vt 0.176000 0.285700
vt 0.163700 0.285700
vt 0.267900 0.285700
vt 0.272400 0.489200
vt 0.372400 0.285700
vt 0.370000 0.489200
vt 0.470600 0.285700
vt 0.476900 0.286100
vt 0.467600 0.489200
vt 0.553400 0.489200
vt 0.570900 0.328600
vt 0.438800 0.489200
vt 0.419400 0.383300
vt 0.494900 0.390400
vt 0.554400 0.489200
vt 0.559400 0.384300
vt 0.522800 0.297100
vt 0.523100 0.285700
vt 0.532400 0.489200
vt 0.723100 0.629500
vt 0.630000 0.629500
vt 0.805000 0.629500
vt 0.865700 0.629500
vt 0.447100 0.629500
vt 0.341000 0.629500
vt 0.560100 0.629500
vt 0.666300 0.629500
vt 0.195000 0.629500
vt 0.134300 0.629500
vt 0.276900 0.629500
vt 0.370000 0.629500
vt 0.463100 0.629500
vt 0.545000 0.629500
vt 0.617100 0.489200
vt 0.605700 0.629500
vt 0.330200 0.489200
vt 0.439900 0.629500
vt 0.333700 0.629500
vt 0.552900 0.629500
vt 0.663000 0.489200
vt 0.659000 0.629500
vt 0.446600 0.489200
vt 0.455000 0.629500
vt 0.394300 0.629500
vt 0.382900 0.489200
vt 0.536900 0.629500
vt 0.737200 0.789000
vt 0.631600 0.789000
vt 0.830000 0.789000
vt 0.898900 0.789000
vt 0.425500 0.789000
vt 0.292300 0.789000
vt 0.567300 0.789000
vt 0.700600 0.789000
vt 0.170000 0.789000
vt 0.101100 0.789000
vt 0.262800 0.789000
vt 0.368400 0.789000
vt 0.473900 0.789000
vt 0.566700 0.789000
vt 0.635600 0.789000
vt 0.432700 0.789000
vt 0.299400 0.789000
vt 0.574500 0.789000
vt 0.707700 0.789000
vt 0.433300 0.789000
vt 0.364400 0.789000
vt 0.526100 0.789000
vt 0.745400 0.850900
vt 0.616300 0.850900
vt 0.859000 0.850900
vt 0.943300 0.850900
vt 0.413300 0.850900
vt 0.250200 0.850900
vt 0.586700 0.850900
vt 0.749700 0.850900
vt 0.299400 0.101100
vt 0.190800 0.170000
vt 0.117400 0.141000
vt 0.250300 0.056700
vt 0.254600 0.850900
vt 0.141000 0.850900
vt 0.383700 0.850900
vt 0.512800 0.850900
vt 0.119900 0.473900
vt 0.190800 0.566700
vt 0.117400 0.626300
vt 0.030600 0.512800
vt 0.695600 0.928900
vt 0.228300 0.928900
vt 0.117400 0.850900
vt 0.190800 0.789000
vt 0.415600 0.928900
vt 0.614800 0.928900
vt 0.802100 0.928900
vt 0.829000 0.773500
vt 0.882600 0.850900
vt 0.487200 0.850900
vt 0.373700 0.850900
vt 0.733800 0.966300
vt 0.614300 0.966300
vt 0.838800 0.966300
vt 0.916700 0.966300
vt 0.404600 0.966300
vt 0.253800 0.966300
vt 0.565000 0.966300
vt 0.715800 0.966300
vt 0.056700 0.850900
vt 0.161200 0.966300
vt 0.083300 0.966300
vt 0.266200 0.966300
vt 0.385700 0.966300
vt 0.505100 0.966300
vt 0.626300 0.850900
vt 0.610100 0.980200
vt 0.252200 0.920100
vt 0.273800 0.999500
vt 0.161300 0.980200
vt 0.421400 0.999500
vt 0.578600 0.999500
vt 0.726200 0.999500
vt 0.304400 0.928900
vt 0.389900 0.980200
vt 0.316600 1.007800
vt 0.494900 0.966300
vt 0.022800 0.385700
vt 0.050600 0.266200
vt 0.130900 0.161200
vt 0.253800 0.083300
vt 0.404600 0.041800
vt 0.565000 0.041800
vt 0.715800 0.083300
vt 0.838700 0.161200
vt 0.919000 0.266200
vt 0.946800 0.385700
vt 0.919000 0.505100
vt 0.838700 0.610100
vt 0.726200 0.646900
vt 0.578600 0.683000
vt 0.421400 0.683000
vt 0.130900 0.980200
vt 0.130900 0.610100
vt 0.050600 0.505100
vt 0.132800 0.267900
vt 0.198700 0.176000
vt 0.216900 0.163700
vt 0.188800 0.209800
vt 0.156000 0.267300
vt 0.126500 0.434600
vt 0.131400 0.470600
vt 0.109900 0.372400
vt 0.145600 0.336800
vt 0.153900 0.281800
vt 0.107800 0.285700
vt 0.320800 0.285700
vt 0.444700 0.285700
vt 0.892200 0.285700
vt 0.576500 0.285700
vt 0.700400 0.285700
vt 0.476900 0.285700
vt 0.568700 0.285700
vt 0.423500 0.285700
vt 0.555300 0.285700
vt 0.689300 0.369900
vt 0.679200 0.285700
vt 0.779300 0.175400
vt 0.780200 0.176000
vt 0.846100 0.267900
vt 0.869000 0.372400
vt 0.846100 0.476900
vt 0.780200 0.568700
vt 0.679200 0.636900
vt 0.555300 0.673200
vt 0.423500 0.673200
vt 0.299600 0.636900
vt 0.198700 0.568700
vt 0.132800 0.476900
vt 0.299600 0.107800
vt 0.423500 0.071500
vt 0.555300 0.071500
vt 0.679200 0.107800
vt 0.642200 0.364200
vt 0.636900 0.285700
vt 0.290200 0.364200
vt 0.299600 0.285700
vt 0.431300 0.285700
vt 0.357400 0.369900
vt 0.363100 0.285700
s 1
usemtl Green
f 83/91/83 84/92/84 85/93/85
f 86/94/86 87/95/87 88/96/88
f 89/97/89 90/98/90 91/99/91
f 92/100/92 93/101/93 94/102/94
f 95/103/95 96/104/96 97/105/97
f 98/106/98 99/107/99 100/108/100
f 101/109/101 102/110/102 103/111/103
f 104/112/104 105/113/105 106/114/106
f 107/115/107 108/116/108 109/117/109
f 110/118/110 111/119/111 90/98/90
f 112/120/112 113/121/113 114/122/114
f 115/123/115 116/124/116 117/125/117
f 118/126/118 119/127/119 120/128/120
f 121/129/121 122/130/122 123/131/123
f 124/132/124 125/133/125 126/134/126
f 127/135/127 128/136/128 129/137/129
f 130/138/130 131/139/131 132/140/132
f 133/141/133 134/142/134 135/143/135
f 136/144/136 137/145/137 138/146/138
f 138/146/138 139/147/139 136/144/136
f 140/148/140 141/149/141 142/150/142
f 143/151/143 144/152/144 145/153/145
f 146/154/146 147/155/147 148/156/148
f 149/157/149 150/158/150 151/159/151
f 152/160/152 153/161/153 154/162/154
f 155/163/155 156/164/156 157/165/157
f 158/166/158 159/167/159 160/168/160
f 161/169/161 162/170/162 163/171/163
f 164/172/164 162/170/162 161/169/161
f 165/173/165 128/136/128 127/135/127
f 166/174/166 131/175/131 130/176/130
f 167/177/167 134/142/134 133/141/133
f 168/178/168 136/144/136 139/147/139
f 169/179/169 141/149/141 140/148/140
f 170/180/170 144/152/144 143/151/143
f 171/181/171 172/182/172 173/183/173
f 174/184/174 147/155/147 146/154/146
f 175/185/175 84/92/84 83/91/83
f 176/186/176 87/95/87 86/94/86
f 177/187/177 90/98/90 89/97/89
f 178/188/178 93/101/93 92/100/92
f 179/189/179 96/104/96 95/103/95
f 180/190/180 181/191/181 170/180/170
f 182/192/182 99/107/99 98/106/98
f 183/193/183 102/110/102 101/109/101
f 184/194/184 185/195/185 186/196/186
f 187/197/187 188/198/188 189/199/189
f 190/200/190 191/201/191 192/202/192
f 193/203/193 105/204/105 104/205/104
f 194/206/194 108/207/108 107/208/107
f 195/209/195 111/210/111 110/211/110
f 162/170/162 113/212/113 112/213/112
f 196/214/196 116/215/116 115/216/115
f 197/217/197 119/218/119 118/219/118
f 198/220/198 122/221/122 121/222/121
f 199/223/199 125/224/125 124/225/124
f 200/226/200 153/161/153 152/160/152
f 201/227/201 202/228/202 203/229/203
f 85/93/85 128/136/128 165/173/165
f 165/173/165 102/110/102 83/91/83
f 83/91/83 85/93/85 165/173/165
f 88/96/88 131/175/131 166/174/166
f 166/174/166 84/230/84 86/94/86
f 86/94/86 88/96/88 166/174/166
f 91/99/91 131/231/131 88/232/88
f 88/232/88 87/233/87 89/97/89
f 89/97/89 91/99/91 88/232/88
f 94/102/94 136/144/136 168/178/168
f 168/178/168 90/98/90 92/100/92
f 92/100/92 94/102/94 168/178/168
f 97/105/97 141/149/141 169/179/169
f 169/179/169 93/101/93 95/103/95
f 95/103/95 97/105/97 169/179/169
f 181/191/181 144/152/144 170/180/170
f 100/108/100 144/234/144 181/235/181
f 98/106/98 100/108/100 181/235/181
f 103/111/103 147/155/147 174/184/174
f 174/184/174 99/107/99 101/109/101
f 101/109/101 103/111/103 174/184/174
f 106/114/106 102/110/102 126/134/126
f 126/134/126 125/133/125 104/112/104
f 104/112/104 106/114/106 126/134/126
f 109/117/109 87/95/87 176/186/176
f 176/186/176 105/236/105 107/115/107
f 107/115/107 109/117/109 176/186/176
f 177/187/177 108/237/108 110/118/110
f 110/118/110 90/98/90 177/187/177
f 114/122/114 93/101/93 178/188/178
f 178/188/178 111/119/111 112/120/112
f 112/120/112 114/122/114 178/188/178
f 117/125/117 96/104/96 179/189/179
f 179/189/179 113/121/113 115/123/115
f 115/123/115 117/125/117 179/189/179
f 120/128/120 181/191/181 180/190/180
f 180/190/180 116/238/116 118/126/118
f 118/126/118 120/128/120 180/190/180
f 123/131/123 181/235/181 120/239/120
f 120/239/120 119/240/119 121/129/121
f 121/129/121 123/131/123 120/239/120
f 126/134/126 102/110/102 183/193/183
f 183/193/183 122/130/122 124/132/124
f 124/132/124 126/134/126 183/193/183
f 129/241/129 185/195/185 184/194/184
f 184/242/184 147/155/147 127/135/127
f 127/135/127 129/137/129 184/242/184
f 132/140/132 188/198/188 187/197/187
f 187/197/187 128/243/128 130/138/130
f 130/138/130 132/140/132 187/197/187
f 135/244/135 188/198/188 132/140/132
f 132/245/132 131/231/131 133/141/133
f 133/141/133 135/143/135 132/245/132
f 204/246/204 139/147/139 138/146/138
f 206/247/206 136/144/136 140/148/140
f 140/148/140 205/248/205 206/247/206
f 205/248/205 140/148/140 207/249/207
f 207/249/207 142/150/142 208/250/208
f 208/250/208 209/251/209 207/249/207
f 207/249/207 140/148/140 142/150/142
f 208/250/208 142/150/142 210/252/210
f 212/253/212 213/254/213 145/153/145
f 145/153/145 211/255/211 212/253/212
f 212/253/212 214/256/214 213/254/213
f 213/254/213 141/257/141 143/151/143
f 143/151/143 145/153/145 213/254/213
f 211/258/211 145/259/145 215/260/215
f 145/259/145 144/234/144 173/183/173
f 217/261/217 215/260/215 173/183/173
f 173/183/173 216/262/216 217/261/217
f 173/183/173 215/260/215 145/259/145
f 148/156/148 220/263/220 218/264/218
f 218/264/218 219/265/219 148/156/148
f 221/266/221 172/182/172 146/154/146
f 146/154/146 222/267/222 221/266/221
f 151/159/151 125/224/125 160/168/160
f 160/168/160 159/167/159 149/157/149
f 149/157/149 151/159/151 160/168/160
f 154/162/154 108/207/108 194/206/194
f 194/206/194 150/158/150 152/160/152
f 152/160/152 154/162/154 194/206/194
f 223/268/223 111/210/111 195/209/195
f 195/209/195 153/161/153 224/269/224
f 224/269/224 223/268/223 195/209/195
f 225/270/225 111/210/111 223/268/223
f 157/165/157 113/212/113 162/170/162
f 155/163/155 157/165/157 162/170/162
f 226/271/226 116/215/116 196/214/196
f 196/214/196 156/164/156 227/272/227
f 227/272/227 226/271/226 196/214/196
f 202/228/202 122/221/122 198/220/198
f 198/220/198 227/272/227 203/229/203
f 203/229/203 202/228/202 198/220/198
f 160/168/160 125/224/125 199/223/199
f 199/223/199 202/228/202 158/166/158
f 158/166/158 160/168/160 199/223/199
f 159/167/159 228/273/228 229/274/229
f 163/171/163 223/268/223 224/269/224
f 161/169/161 163/171/163 224/269/224
f 159/167/159 201/227/201 228/273/228
f 227/272/227 164/172/164 201/227/201
f 155/163/155 164/172/164 227/272/227
f 155/163/155 162/170/162 164/172/164
f 164/172/164 161/169/161 224/269/224
f 224/269/224 200/226/200 230/275/230
f 230/275/230 164/172/164 224/269/224
f 200/226/200 229/274/229 231/276/231
f 231/276/231 164/172/164 230/275/230
f 230/275/230 200/226/200 231/276/231
f 228/273/228 164/172/164 231/276/231
f 231/276/231 229/274/229 228/273/228
f 201/227/201 164/172/164 228/273/228
f 127/135/127 147/155/147 103/111/103
f 103/111/103 102/110/102 165/173/165
f 165/173/165 127/135/127 103/111/103
f 130/176/130 128/277/128 85/278/85
f 85/278/85 84/230/84 166/174/166
f 166/174/166 130/176/130 85/278/85
f 133/141/133 131/231/131 91/99/91
f 91/99/91 90/98/90 167/177/167
f 167/177/167 133/141/133 91/99/91
f 139/147/139 134/142/134 167/177/167
f 167/177/167 90/98/90 168/178/168
f 168/178/168 139/147/139 167/177/167
f 140/148/140 136/144/136 94/102/94
f 94/102/94 93/101/93 169/179/169
f 169/179/169 140/148/140 94/102/94
f 143/151/143 141/257/141 97/279/97
f 97/279/97 96/280/96 170/180/170
f 170/180/170 143/151/143 97/279/97
f 173/183/173 144/234/144 100/108/100
f 100/108/100 99/107/99 171/181/171
f 171/181/171 173/183/173 100/108/100
f 146/154/146 172/182/172 171/181/171
f 171/181/171 99/107/99 174/184/174
f 174/184/174 146/154/146 171/181/171
f 83/91/83 102/110/102 106/114/106
f 106/114/106 105/113/105 175/185/175
f 175/185/175 83/91/83 106/114/106
f 86/94/86 84/230/84 175/281/175
f 175/281/175 105/236/105 176/186/176
f 176/186/176 86/94/86 175/281/175
f 89/97/89 87/233/87 109/282/109
f 109/282/109 108/237/108 177/187/177
f 177/187/177 89/97/89 109/282/109
f 90/98/90 111/119/111 178/188/178
f 178/188/178 92/100/92 90/98/90
f 95/103/95 93/101/93 114/122/114
f 114/122/114 113/121/113 179/189/179
f 179/189/179 95/103/95 114/122/114
f 170/180/170 96/280/96 117/283/117
f 117/283/117 116/238/116 180/190/180
f 180/190/180 170/180/170 117/283/117
f 98/284/98 181/191/181 123/285/123
f 123/131/123 122/130/122 182/192/182
f 182/192/182 98/106/98 123/131/123
f 101/109/101 99/107/99 182/192/182
f 182/192/182 122/130/122 183/193/183
f 183/193/183 101/109/101 182/192/182
f 232/286/232 220/263/220 148/156/148
f 148/156/148 186/287/186 232/286/232
f 148/156/148 147/155/147 184/242/184
f 184/242/184 186/287/186 148/156/148
f 189/199/189 185/195/185 129/241/129
f 129/241/129 128/243/128 187/197/187
f 187/197/187 189/199/189 129/241/129
f 192/288/192 188/198/188 135/244/135
f 135/143/135 134/142/134 190/200/190
f 190/200/190 192/202/192 135/143/135
f 190/200/190 134/142/134 139/147/139
f 213/254/213 233/289/233 234/290/234
f 213/254/213 234/290/234 210/291/210
f 213/254/213 210/291/210 142/292/142
f 142/292/142 141/257/141 213/254/213
f 235/293/235 172/182/172 221/266/221
f 104/205/104 125/224/125 151/159/151
f 151/159/151 150/158/150 193/203/193
f 193/203/193 104/205/104 151/159/151
f 107/208/107 105/204/105 193/203/193
f 193/203/193 150/158/150 194/206/194
f 194/206/194 107/208/107 193/203/193
f 110/211/110 108/207/108 154/162/154
f 154/162/154 153/161/153 195/209/195
f 195/209/195 110/211/110 154/162/154
f 112/213/112 111/210/111 225/270/225
f 162/170/162 112/213/112 225/270/225
f 115/216/115 113/212/113 157/165/157
f 157/165/157 156/164/156 196/214/196
f 196/214/196 115/216/115 157/165/157
f 118/219/118 116/215/116 226/271/226
f 226/271/226 227/272/227 197/217/197
f 197/217/197 118/219/118 226/271/226
f 121/222/121 119/218/119 197/217/197
f 197/217/197 227/272/227 198/220/198
f 198/220/198 121/222/121 197/217/197
f 124/225/124 122/221/122 202/228/202
f 199/223/199 124/225/124 202/228/202
f 149/157/149 159/167/159 229/274/229
f 150/158/150 149/157/149 229/274/229
f 150/158/150 229/274/229 200/226/200
f 200/226/200 152/160/152 150/158/150
f 224/269/224 153/161/153 200/226/200
f 225/270/225 223/268/223 163/171/163
f 162/170/162 225/270/225 163/171/163
f 227/272/227 156/164/156 155/163/155
f 201/227/201 203/229/203 227/272/227
f 158/166/158 202/228/202 201/227/201
f 159/167/159 158/166/158 201/227/201
f 186/196/186 185/195/185 236/294/236
f 236/294/236 237/295/237 186/196/186
f 188/198/188 238/296/238 239/297/239
f 239/297/239 189/199/189 188/198/188
f 189/199/189 239/297/239 240/298/240
f 213/254/213 214/256/214 241/299/241
f 238/296/238 188/198/188 192/288/192
f 192/288/192 242/300/242 238/296/238
f 191/201/191 243/301/243 244/302/244
f 233/289/233 213/254/213 241/299/241
f 137/145/137 136/144/136 206/247/206
f 245/303/245 172/182/172 235/293/235
f 146/154/146 148/156/148 219/265/219
f 219/265/219 246/304/246 146/154/146
f 247/305/247 222/267/222 146/154/146
f 146/154/146 246/304/246 247/305/247
f 173/183/173 172/182/172 248/306/248
f 248/306/248 216/262/216 173/183/173
f 248/306/248 172/182/172 245/303/245
f 249/307/249 232/308/232 186/196/186
f 186/196/186 237/295/237 249/307/249
f 250/309/250 236/294/236 185/195/185
f 185/195/185 189/199/189 250/309/250
f 250/309/250 189/199/189 240/298/240
f 192/288/192 191/310/191 251/311/251
f 251/311/251 242/300/242 192/288/192
f 251/311/251 191/310/191 244/312/244
f 139/147/139 252/313/252 253/314/253
f 253/314/253 254/315/254 139/147/139
f 191/201/191 190/200/190 255/316/255
f 255/316/255 243/301/243 191/201/191
f 255/316/255 190/200/190 139/147/139
f 255/316/255 139/147/139 254/315/254
f 252/313/252 139/147/139 204/246/204
f 257/317/257 258/318/258 259/319/259
f 259/319/259 256/320/256 257/317/257
f 260/321/260 261/322/261 258/318/258
f 258/318/258 257/317/257 260/321/260
f 207/249/207 262/323/262 263/324/263
f 263/324/263 261/322/261 207/249/207
f 261/322/261 260/321/260 264/325/264
f 264/325/264 207/249/207 261/322/261
f 210/291/210 265/326/265 266/327/266
f 266/327/266 263/328/263 210/291/210
f 267/329/267 210/291/210 263/328/263
f 263/328/263 262/330/262 267/329/267
f 268/331/268 269/332/269 211/255/211
f 211/255/211 269/332/269 270/333/270
f 270/333/270 271/334/271 211/255/211
f 268/335/268 216/262/216 272/336/272
f 272/336/272 269/337/269 268/335/268
f 273/338/273 272/336/272 216/262/216
f 216/262/216 274/339/274 273/338/273
f 273/338/273 275/340/275 276/341/276
f 276/341/276 272/336/272 273/338/273
f 275/340/275 277/342/277 278/343/278
f 278/343/278 276/341/276 275/340/275
f 279/344/279 280/345/280 281/346/281
f 281/346/281 278/343/278 279/344/279
f 277/342/277 279/344/279 278/343/278
f 281/346/281 280/345/280 219/265/219
f 219/265/219 282/347/282 281/346/281
f 283/348/283 282/347/282 219/265/219
f 284/349/284 285/350/285 286/351/286
f 286/351/286 287/352/287 284/349/284
f 288/353/288 287/352/287 286/351/286
f 289/354/289 290/355/290 256/320/256
f 256/320/256 259/319/259 289/354/289
f 289/354/289 259/319/259 291/356/291
f 259/319/259 258/318/258 292/357/292
f 292/357/292 293/358/293 259/319/259
f 258/318/258 261/322/261 294/359/294
f 294/359/294 292/357/292 258/318/258
f 261/322/261 263/324/263 295/360/295
f 295/360/295 294/359/294 261/322/261
f 263/328/263 266/327/266 296/361/296
f 296/361/296 295/362/295 263/328/263
f 266/327/266 270/333/270 297/363/297
f 297/363/297 296/361/296 266/327/266
f 269/332/269 298/364/298 297/363/297
f 297/363/297 270/333/270 269/332/269
f 272/336/272 299/365/299 298/366/298
f 298/366/298 269/337/269 272/336/272
f 276/341/276 300/367/300 299/365/299
f 299/365/299 272/336/272 276/341/276
f 278/343/278 301/368/301 300/367/300
f 300/367/300 276/341/276 278/343/278
f 278/343/278 281/346/281 302/369/302
f 302/369/302 301/368/301 278/343/278
f 281/346/281 282/347/282 303/370/303
f 303/370/303 302/369/302 281/346/281
f 282/347/282 304/371/304 305/372/305
f 305/372/305 303/370/303 282/347/282
f 304/373/304 284/349/284 306/374/306
f 306/374/306 305/375/305 304/373/304
f 287/352/287 307/376/307 306/374/306
f 306/374/306 284/349/284 287/352/287
f 308/377/308 309/378/309 307/376/307
f 307/376/307 287/352/287 308/377/308
f 310/379/310 311/380/311 309/381/309
f 309/381/309 308/382/308 310/379/310
f 310/379/310 291/356/291 312/383/312
f 312/383/312 311/380/311 310/379/310
f 259/319/259 293/358/293 312/383/312
f 312/383/312 291/356/291 259/319/259
f 293/358/293 292/357/292 313/384/313
f 313/384/313 314/385/314 293/358/293
f 292/357/292 294/359/294 315/386/315
f 315/386/315 313/384/313 292/357/292
f 294/359/294 295/360/295 316/387/316
f 316/387/316 315/386/315 294/359/294
f 295/362/295 296/361/296 317/388/317
f 317/388/317 316/389/316 295/362/295
f 296/361/296 297/363/297 318/390/318
f 318/390/318 317/388/317 296/361/296
f 298/364/298 319/391/319 318/390/318
f 318/390/318 297/363/297 298/364/298
f 299/365/299 320/392/320 319/393/319
f 319/393/319 298/366/298 299/365/299
f 300/367/300 321/394/321 320/392/320
f 320/392/320 299/365/299 300/367/300
f 301/368/301 322/395/322 321/394/321
f 321/394/321 300/367/300 301/368/301
f 301/368/301 302/369/302 323/396/323
f 323/396/323 322/395/322 301/368/301
f 302/369/302 303/370/303 324/397/324
f 324/397/324 323/396/323 302/369/302
f 303/370/303 305/372/305 325/398/325
f 325/398/325 324/397/324 303/370/303
f 305/375/305 306/374/306 326/399/326
f 326/399/326 325/400/325 305/375/305
f 307/376/307 327/401/327 326/399/326
f 326/399/326 306/374/306 307/376/307
f 309/378/309 328/402/328 327/401/327
f 327/401/327 307/376/307 309/378/309
f 311/380/311 329/403/329 328/404/328
f 328/404/328 309/381/309 311/380/311
f 311/380/311 312/383/312 330/405/330
f 330/405/330 329/403/329 311/380/311
f 293/358/293 314/385/314 330/405/330
f 330/405/330 312/383/312 293/358/293
f 314/385/314 313/384/313 331/406/331
f 331/406/331 332/407/332 314/385/314
f 313/384/313 315/386/315 333/408/333
f 333/408/333 331/406/331 313/384/313
f 315/386/315 316/387/316 334/409/334
f 334/409/334 333/408/333 315/386/315
f 316/389/316 317/388/317 335/410/335
f 335/410/335 334/411/334 316/389/316
f 317/388/317 318/390/318 336/412/336
f 336/412/336 335/410/335 317/388/317
f 318/390/318 319/391/319 337/413/337
f 337/413/337 336/412/336 318/390/318
f 319/414/319 320/415/320 338/416/338
f 338/416/338 337/417/337 319/414/319
f 320/392/320 321/394/321 339/418/339
f 339/418/339 338/419/338 320/392/320
f 321/394/321 322/395/322 340/420/340
f 340/420/340 339/418/339 321/394/321
f 322/395/322 323/396/323 341/421/341
f 341/421/341 340/420/340 322/395/322
f 323/422/323 324/423/324 342/424/342
f 342/424/342 341/425/341 323/422/323
f 324/397/324 325/398/325 343/426/343
f 343/427/343 342/428/342 324/429/324
f 325/400/325 326/399/326 344/430/344
f 344/430/344 343/427/343 325/400/325
f 327/401/327 345/431/345 344/430/344
f 344/430/344 326/399/326 327/401/327
f 328/402/328 346/432/346 345/431/345
f 345/431/345 327/401/327 328/402/328
f 328/402/328 329/433/329 347/434/347
f 347/434/347 346/432/346 328/402/328
f 329/403/329 330/405/330 348/435/348
f 348/435/348 347/436/347 329/403/329
f 330/405/330 314/385/314 332/407/332
f 332/407/332 348/435/348 330/405/330
f 332/407/332 331/406/331 349/437/349
f 349/437/349 350/438/350 332/407/332
f 331/406/331 333/408/333 351/439/351
f 351/439/351 349/437/349 331/406/331
f 333/408/333 334/409/334 352/440/352
f 352/440/352 351/439/351 333/408/333
f 334/411/334 335/410/335 353/441/353
f 353/441/353 352/442/352 334/411/334
f 335/410/335 336/412/336 354/443/354
f 354/443/354 353/441/353 335/410/335
f 336/412/336 337/413/337 355/444/355
f 355/444/355 354/443/354 336/412/336
f 337/445/337 338/419/338 356/446/356
f 356/446/356 355/447/355 337/445/337
f 338/419/338 339/418/339 357/448/357
f 357/448/357 356/446/356 338/419/338
f 340/420/340 358/449/358 357/448/357
f 357/448/357 339/418/339 340/420/340
f 341/421/341 359/450/359 358/449/358
f 358/449/358 340/420/340 341/421/341
f 341/421/341 342/451/342 360/452/360
f 360/452/360 359/450/359 341/421/341
f 343/453/343 361/454/361 360/455/360
f 360/455/360 342/428/342 343/453/343
f 343/427/343 344/430/344 362/456/362
f 362/456/362 361/454/361 343/427/343
f 344/430/344 345/431/345 363/457/363
f 363/457/363 362/456/362 344/430/344
f 345/431/345 346/432/346 364/458/364
f 364/458/364 363/457/363 345/431/345
f 346/459/346 347/436/347 365/460/365
f 365/460/365 364/461/364 346/459/346
f 347/436/347 348/435/348 366/462/366
f 366/462/366 365/460/365 347/436/347
f 348/435/348 332/407/332 350/438/350
f 350/438/350 366/462/366 348/435/348
f 350/463/350 349/464/349 351/465/351
f 351/465/351 352/466/352 353/467/353
f 353/467/353 354/468/354 355/469/355
f 351/465/351 353/467/353 355/469/355
f 355/469/355 356/470/356 357/471/357
f 357/471/357 358/472/358 359/473/359
f 355/469/355 357/471/357 359/473/359
f 351/465/351 355/469/355 359/473/359
f 359/473/359 360/474/360 361/475/361
f 361/475/361 362/476/362 363/477/363
f 359/473/359 361/475/361 363/477/363
f 351/465/351 359/473/359 363/477/363
f 363/456/363 364/454/364 365/478/365
f 351/465/351 363/477/363 365/479/365
f 350/463/350 351/465/351 365/479/365
f 366/480/366 350/463/350 365/479/365
f 275/481/275 273/482/273 274/483/274
f 275/481/275 274/483/274 245/484/245
f 275/481/275 245/484/245 235/485/235
f 222/486/222 279/487/279 277/488/277
f 221/489/221 222/486/222 277/488/277
f 367/490/367 221/489/221 277/488/277
f 235/485/235 367/490/367 277/488/277
f 275/481/275 235/485/235 277/488/277
f 216/262/216 268/335/268 368/491/368
f 368/491/368 274/339/274 216/262/216
f 369/492/369 210/291/210 267/329/267
f 267/329/267 262/330/262 369/492/369
f 370/493/370 265/326/265 210/291/210
f 210/291/210 369/492/369 370/493/370
f 369/494/369 262/323/262 207/249/207
f 207/249/207 264/325/264 369/494/369
f 371/495/371 368/496/368 211/255/211
f 211/255/211 271/334/271 371/495/371
f 368/496/368 268/331/268 211/255/211
f 372/497/372 373/498/373 219/265/219
f 219/265/219 280/345/280 372/497/372
f 219/265/219 373/498/373 283/348/283
f 279/344/279 372/497/372 280/345/280
f 286/351/286 285/350/285 374/499/374
f 374/499/374 375/500/375 286/351/286
f 286/351/286 375/500/375 288/353/288
f 308/377/308 287/352/287 288/353/288
f 288/353/288 376/501/376 308/377/308
f 376/501/376 288/353/288 375/500/375
f 375/500/375 377/502/377 376/501/376
f 264/503/264 260/504/260 257/505/257
f 257/505/257 256/506/256 290/507/290
f 290/507/290 378/508/378 377/509/377
f 257/505/257 290/507/290 377/509/377
f 377/509/377 375/510/375 374/511/374
f 374/511/374 379/512/379 373/513/373
f 377/509/377 374/511/374 373/513/373
f 373/513/373 372/514/372 279/487/279
f 279/487/279 222/486/222 221/489/221
f 373/513/373 279/487/279 221/489/221
f 377/509/377 373/513/373 221/489/221
f 367/490/367 235/485/235 245/484/245
f 221/489/221 367/490/367 245/484/245
f 245/484/245 274/483/274 368/515/368
f 368/515/368 371/516/371 370/517/370
f 245/484/245 368/515/368 370/517/370
f 221/489/221 245/484/245 370/517/370
f 377/509/377 221/489/221 370/517/370
f 257/505/257 377/509/377 370/517/370
f 264/503/264 257/505/257 370/517/370
f 264/503/264 370/517/370 369/518/369
f 265/326/265 370/493/370 371/495/371
f 265/326/265 371/495/371 271/334/271
f 265/326/265 271/334/271 270/333/270
f 265/326/265 270/333/270 266/327/266
f 380/519/380 304/371/304 282/347/282
f 380/519/380 282/347/282 283/348/283
f 380/519/380 283/348/283 373/498/373
f 380/519/380 373/498/373 379/520/379
f 285/350/285 284/349/284 304/373/304
f 304/373/304 380/521/380 285/350/285
f 285/350/285 380/521/380 379/522/379
f 285/350/285 379/522/379 374/499/374
f 289/354/289 291/356/291 310/379/310
f 289/354/289 310/379/310 381/316/381
f 381/316/381 378/523/378 289/354/289
f 289/354/289 378/523/378 290/355/290
f 381/316/381 310/379/310 308/382/308
f 381/316/381 308/382/308 376/524/376
f 381/316/381 376/524/376 377/525/377
f 381/316/381 377/525/377 378/523/378
