# Blender 4.5.2 LTS
# www.blender.org
mtllib torso.mtl
o torso
v -0.001400 1.999700 -0.076200
v -0.001400 1.968500 0.251900
v 0.222400 1.968500 0.233800
v 0.419200 1.968500 0.181800
v 0.565300 1.968500 0.102200
v 0.643000 1.968500 0.004400
v 0.643000 1.968500 -0.128200
v 0.565300 1.968500 -0.225900
v 0.419200 1.968500 -0.357400
v 0.222400 1.968500 -0.375300
v -0.001400 1.968500 -0.393300
v -0.225200 1.968500 -0.375300
v -0.422000 1.968500 -0.357400
v -0.568000 1.968500 -0.225900
v -0.645700 1.968500 -0.128200
v -0.645700 1.968500 0.004500
v -0.568000 1.968500 0.102200
v -0.422000 1.968500 0.181800
v -0.225200 1.968500 0.233800
v -0.001400 1.827500 0.515200
v 0.302400 1.827500 0.481300
v 0.569600 1.827500 0.383600
v 0.767800 1.827500 0.233800
v 0.873300 1.827500 0.050200
v 0.873300 1.827500 -0.173900
v 0.767800 1.827500 -0.375300
v 0.569600 1.827500 -0.525000
v 0.302400 1.827500 -0.603900
v -0.001400 1.827500 -0.637900
v -0.305200 1.827500 -0.603900
v -0.572300 1.827500 -0.525000
v -0.770600 1.827500 -0.375300
v -0.876100 1.827500 -0.173900
v -0.876100 1.827500 0.050200
v -0.770600 1.827500 0.233800
v -0.572300 1.827500 0.383600
v -0.305200 1.827500 0.481300
v -0.001400 1.601500 0.710700
v 0.343200 1.601500 0.664900
v 0.646200 1.601500 0.533300
v 0.871100 1.601500 0.331600
v 0.990700 1.601500 0.084100
v 0.990700 1.601500 -0.207800
v 0.871100 1.601500 -0.473000
v 0.646200 1.601500 -0.655900
v 0.343200 1.601500 -0.787600
v -0.001400 1.601500 -0.833300
v -0.345900 1.601500 -0.787600
v -0.648900 1.601500 -0.655900
v -0.873800 1.601500 -0.473000
v -0.993500 1.601500 -0.207800
v -0.993500 1.601500 0.084100
v -0.873800 1.601500 0.331600
v -0.648900 1.601500 0.533300
v -0.345900 1.601500 0.664900
v -0.001400 1.139000 0.814300
v 0.359900 1.139000 0.762300
v 0.677500 1.139000 0.612600
v 0.913300 1.139000 0.383200
v 1.038800 1.139000 0.101800
v 1.038800 1.139000 -0.225900
v 0.913300 1.139000 -0.527800
v 0.677500 1.139000 -0.757200
v 0.359900 1.139000 -0.906900
v -0.001400 1.139000 -0.958900
v -0.362600 1.139000 -0.906900
v -0.680300 1.139000 -0.757200
v -0.916100 1.139000 -0.527800
v -1.041600 1.139000 -0.225900
v -1.041600 1.139000 0.101800
v -0.916100 1.139000 0.383200
v -0.680300 1.139000 0.612600
v -0.362600 1.139000 0.762300
v -0.001400 0.481600 0.937800
v 0.364500 0.522400 0.853600
v 0.686200 0.523300 0.716300
v 0.925000 0.523300 0.446200
v 1.026000 0.523300 0.153800
v 1.026000 0.523300 -0.231700
v 0.925000 0.523300 -0.524100
v 0.686200 0.523300 -0.762400
v 0.364500 0.523300 -0.918000
v -0.001400 0.523300 -0.972000
v -0.367200 0.523300 -0.918000
v -0.689000 0.523300 -0.762400
v -0.927800 0.523300 -0.524100
v -1.028800 0.523300 -0.231700
v -1.028800 0.523300 0.153800
v -0.927800 0.523300 0.446200
v -0.689000 0.523300 0.716300
v -0.367200 0.522400 0.853600
v 0.613500 0.409400 0.687400
v 0.827100 0.409400 0.437900
v 0.989200 0.409400 0.164500
v 0.989200 0.409400 -0.242400
v 0.915400 0.409400 -0.554800
v 0.679100 0.409400 -0.792400
v 0.360700 0.409400 -0.931500
v -0.001400 0.409400 -0.989300
v -0.363500 0.409400 -0.931500
v -0.681900 0.409400 -0.809400
v -0.918200 0.409400 -0.554800
v -0.992000 0.409400 -0.242400
v -0.992000 0.409400 0.164500
v -0.829900 0.409400 0.437900
v -0.616300 0.409400 0.687400
v 0.801800 0.146300 0.468400
v 0.866400 0.146300 0.161500
v 0.866400 0.146300 -0.239400
v 0.801800 0.146300 -0.546300
v 0.594700 0.146300 -0.728100
v 0.315800 0.146300 -0.836400
v -0.001400 0.146300 -0.893100
v -0.318600 0.146300 -0.836400
v -0.597500 0.146300 -0.728100
v -0.804500 0.146300 -0.546300
v -0.869200 0.146300 -0.239400
v -0.869200 0.146300 0.161500
v -0.804500 0.146300 0.468400
v -0.788800 0.300000 0.622600
v -0.445000 0.279500 0.831100
v -0.487300 0.525700 0.889100
v 0.008100 0.222900 0.894400
v 0.492000 0.218100 0.798100
v 0.537400 0.460700 0.855900
v 0.778200 0.182000 0.564500
v 0.968300 0.180400 0.252400
v 0.828100 0.430800 0.614800
v 1.002800 0.409800 -0.502800
v 0.953300 0.618400 -0.517400
v 1.031000 0.642800 -0.320800
v 0.714200 0.222300 -0.783000
v 0.402200 0.267000 -0.980600
v 0.438400 0.427700 -0.969500
v -0.844500 0.338400 -0.726900
v -1.028000 0.366200 -0.414200
v -0.950000 0.613900 -0.555600
v -1.104300 0.346000 -0.040000
v -1.004000 0.346000 0.327600
v -1.094400 0.529700 0.151500
v -0.635300 -0.360600 0.193900
v -0.622800 -0.360600 0.190300
v -0.399800 -0.143000 0.467700
v -0.769800 0.073800 0.542000
v -0.029000 -0.175400 0.615800
v 0.342200 -0.190000 0.442500
v 0.420400 0.008100 0.704100
v 0.414900 -0.422600 -0.007400
v 0.402900 -0.422600 -0.014000
v 0.273500 -0.152500 -0.898100
v 0.664800 -0.003300 -0.779800
v -0.099600 -0.141100 -0.876600
v -0.468500 -0.105500 -0.882900
v -0.034100 0.061300 -1.021300
v -0.677700 -0.360600 0.088300
v -0.678300 -0.348400 0.091500
v -0.663100 -0.360600 0.081400
v -0.326300 -0.258400 0.420500
v -0.609100 -0.360600 0.184900
v -0.600100 -0.360600 0.177300
v -0.234000 -0.337800 0.345400
v -0.065800 -0.319600 0.249700
v 0.133600 -0.353100 0.331700
v -0.133300 -0.247600 0.438500
v 0.387900 -0.422600 -0.013800
v 0.379000 -0.422600 -0.003400
v 0.101900 -0.431600 -0.467100
v 0.178000 -0.314000 -0.687100
v -0.095500 -0.392400 -0.431900
v -0.240800 -0.406200 -0.453400
v -0.013500 -0.283500 -0.661300
v -0.190800 -0.432800 -0.296000
v 0.367300 -0.422600 0.004000
v 0.360000 -0.422600 0.015500
v -0.003000 -0.431500 -0.301700
v 0.012800 -0.402100 0.079300
v -0.571700 -0.360600 0.137500
v -0.174600 -0.398800 0.086000
v -0.576600 -0.360600 0.159300
v 0.851800 0.608600 -0.638300
v 0.757500 0.597100 -0.727100
v -0.774100 0.552100 0.674700
v -0.615000 0.668800 0.798100
v -0.793400 0.668800 0.679900
v 0.048900 0.476900 0.953700
v 0.452800 0.668800 0.891500
v 0.040800 0.668800 0.951800
v 1.066700 0.475700 0.286600
v 1.030600 0.668800 0.299500
v 0.882000 0.668800 0.580500
v 1.054200 0.434500 -0.307500
v 1.080300 0.668800 -0.121500
v 1.081600 0.668800 -0.110600
v 1.096200 0.425500 0.071000
v 0.736900 0.389600 -0.828000
v 0.448500 0.619000 -0.948200
v -0.308300 0.426800 -1.005700
v -0.050000 0.630600 -1.018600
v 0.176300 0.396200 -0.992300
v 0.206300 0.620500 -1.011400
v -1.029600 0.597000 0.369500
v -1.024600 0.668800 0.370200
v -1.051700 0.668800 0.290900
v -1.044800 0.650000 -0.381300
v -1.050800 0.527100 -0.399500
v -1.089900 0.668800 -0.210800
v -1.087400 0.668800 -0.225000
v -0.442600 0.061400 0.736500
v 0.048700 0.010700 0.757300
v 0.721400 -0.037600 0.487100
v 0.451600 -0.422600 0.071400
v 1.037900 0.173000 -0.123100
v 0.451200 -0.422600 0.073600
v 0.342700 0.051300 -0.978200
v -0.523200 0.107400 -0.909400
v -0.566100 0.329100 -0.950300
v -0.085800 0.286500 -1.046300
v -0.785700 0.108700 -0.691500
v -0.691200 -0.349400 0.116400
v -0.679200 -0.360600 0.091000
v 0.229700 -0.284900 0.402400
v 0.400000 -0.422600 0.094600
v 0.406300 -0.422600 0.097700
v -0.379600 -0.279700 -0.669500
v -0.625100 -0.360600 0.048700
v -0.631400 -0.360600 0.046200
v -0.469600 0.668800 0.902200
v 0.536300 0.668800 0.873000
v 0.578100 0.668800 0.837800
v 1.073300 0.668800 -0.159800
v 0.931100 0.200700 -0.489500
v -0.319800 0.631400 -0.985200
v -0.557300 0.614900 -0.952000
v -0.729000 0.597400 -0.838600
v -1.066400 0.668800 0.013700
v -1.069800 0.668800 -0.085000
v -1.086100 0.540200 -0.225600
v -0.674800 -0.351000 0.184200
v -0.674800 -0.360600 0.180700
v -0.662200 -0.360600 0.187700
v 0.445700 -0.422600 0.090400
v 0.447600 -0.422600 0.088900
v 0.419400 -0.422600 0.100400
v 0.444100 -0.422600 0.021600
v 0.450300 -0.422600 0.034700
v 0.442800 -0.422600 0.019600
v -0.641800 -0.360600 0.055400
v -0.685800 -0.350800 0.168500
v -0.685500 -0.360600 0.165600
v -0.617400 -0.360600 0.186700
v 0.380700 -0.422600 0.082300
v 0.369400 -0.422600 0.076800
v 0.396000 -0.422600 -0.010900
v -0.592900 -0.360600 0.055400
v -0.578800 -0.360600 0.063200
v -0.574000 -0.360600 0.076100
v -0.572100 -0.360600 0.085600
v -0.093400 -0.421600 -0.129800
v -0.563500 -0.360600 0.101200
v 0.358100 -0.422600 0.022700
v 0.352200 -0.422600 0.034600
v 0.353200 -0.422600 0.038400
v 0.361900 -0.422600 0.060300
v 0.360500 -0.422600 0.052700
v -0.571200 -0.360600 0.125700
v -0.563900 -0.360600 0.106500
v 0.569200 0.596300 -0.853600
v 0.678200 0.605500 -0.790400
v -0.956900 0.668800 0.477500
v -0.130200 0.668800 0.925900
v 0.826500 0.668800 0.664400
v 1.066500 0.668800 0.085100
v 1.060000 0.668800 0.128300
v -1.071600 0.668800 0.166300
v -1.099100 0.668800 -0.208400
v -0.954100 0.628700 -0.559200
v -0.691000 -0.360600 0.116200
v -0.685800 -0.360600 0.164900
v -0.690800 -0.360600 0.113600
v -0.589100 -0.360600 0.172400
v 0.385700 -0.422600 0.084100
v 0.392900 -0.422600 0.089400
v 0.375500 -0.422600 -0.003600
v -0.594900 -0.360600 0.058800
v -0.610100 -0.360600 0.048900
v -0.547500 0.517000 0.930400
v -0.547500 0.754500 0.896400
v -1.174600 0.754500 0.441100
v -1.189000 0.517000 0.441100
v -0.547500 0.994700 0.859100
v -1.145300 0.991900 0.441100
v -0.547500 1.284000 0.792200
v -1.131100 1.228500 0.421700
v -0.640100 1.481200 0.706400
v -1.131100 1.469900 0.351300
v -0.706700 1.716600 0.506500
v -1.065400 1.843400 0.288100
v -0.777400 1.965500 -0.009700
v -1.244800 0.754500 -0.233000
v -1.260000 0.517000 -0.233000
v -1.147300 1.311000 0.243900
v -1.149700 1.228700 0.241600
v -1.146200 1.469200 0.220800
v -1.145500 1.448000 0.240000
v -1.107200 1.848500 -0.062600
v -1.209500 1.657800 0.121900
v -1.179800 1.568400 0.188800
v -0.823100 1.965300 -0.207200
v -1.111000 1.855500 -0.243700
v -1.090000 1.877200 -0.205900
v -0.959900 0.754500 -0.763800
v -0.959900 0.517000 -0.804100
v -1.231300 0.857400 -0.233000
v -1.185400 0.916500 -0.312000
v -1.127300 0.991900 -0.410300
v -0.959900 0.991900 -0.754000
v -1.097900 1.034500 -0.465800
v -1.087000 1.174000 -0.473000
v -1.071800 1.229300 -0.498800
v -0.959900 1.229300 -0.733200
v -1.048100 1.311000 -0.536800
v -1.053600 1.448000 -0.512000
v -1.060100 1.466700 -0.495100
v -0.959900 1.466700 -0.684600
v -1.111800 1.568400 -0.461500
v -1.153300 1.657800 -0.408800
v -0.959900 1.704200 -0.557200
v -0.603000 2.036400 -0.462800
v -0.413600 0.754500 -1.032700
v -0.413600 0.517000 -1.073000
v -0.413600 0.991900 -1.022900
v -0.413600 1.229300 -1.002200
v -0.413600 1.466700 -0.953600
v -0.413600 1.704200 -0.826100
v -0.272100 1.895700 -0.605200
v 0.290000 0.754500 -1.032700
v 0.290000 0.517000 -1.073000
v 0.290000 0.991900 -1.022900
v 0.290000 1.229300 -1.002200
v 0.290000 1.466700 -0.953600
v 0.290000 1.704200 -0.826100
v 0.154100 1.895700 -0.605200
v 0.836200 0.754500 -0.763800
v 0.836200 0.517000 -0.804100
v 0.836200 0.991900 -0.754000
v 0.836200 1.229300 -0.733200
v 0.836200 1.466700 -0.684600
v 0.836200 1.704200 -0.557200
v 0.485000 2.036400 -0.462800
v 1.132100 0.754500 -0.233000
v 1.147100 0.517000 -0.233000
v 1.011200 0.991900 -0.410300
v 1.071300 0.916500 -0.312000
v 1.118800 0.857400 -0.233000
v 0.980500 1.034500 -0.465800
v 0.969500 1.174000 -0.473000
v 0.953600 1.229300 -0.498800
v 0.928800 1.311000 -0.536800
v 0.934500 1.448000 -0.512000
v 0.941300 1.466700 -0.495100
v 0.994600 1.568400 -0.461500
v 1.037100 1.657800 -0.408800
v 1.024300 1.855500 -0.243700
v 1.128186 0.754500 0.441100
v 1.142786 0.517000 0.441100
v 1.097000 0.916500 0.039300
v 1.081700 0.991900 0.150100
v 1.066700 0.991900 0.441100
v 1.113900 0.830700 -0.075300
v 1.120300 0.830700 -0.197300
v 1.075700 1.034500 0.212600
v 1.052400 1.228500 0.421700
v 1.065400 1.174000 0.240000
v 1.061800 1.228700 0.241600
v 1.060600 1.311000 0.243900
v 1.052400 1.469900 0.351300
v 1.059700 1.448000 0.240000
v 1.060000 1.469200 0.220800
v 1.089700 1.568400 0.188800
v 1.010600 1.843400 0.288100
v 1.015100 1.802500 0.063900
v 1.032000 1.848500 -0.062600
v 0.710500 1.965300 -0.207200
v 1.008600 1.877200 -0.205900
v 0.688100 1.951300 -0.009700
v 0.501286 0.754500 0.896400
v 0.501286 0.517000 0.930400
v 0.469600 0.994700 0.859100
v 0.469600 1.284000 0.792200
v 0.562200 1.481200 0.706400
v 0.667700 1.720500 0.506500
v 0.730400 1.893600 0.322500
v -1.230900 0.830700 -0.197300
v -1.218400 0.830700 -0.075300
v -1.174800 0.991900 0.150100
v -1.195700 0.916500 0.039300
v -1.165500 1.034500 0.212600
v -1.153600 1.174000 0.240000
vn -0.0000 1.0000 -0.0011
vn 0.0021 0.9539 0.3001
vn 0.0566 0.9519 0.3010
vn 0.1230 0.9478 0.2944
vn 0.2044 0.9441 0.2585
vn 0.3110 0.9447 0.1041
vn 0.3094 0.9458 -0.0990
vn 0.2136 0.9539 -0.2108
vn 0.1433 0.9378 -0.3161
vn 0.0290 0.9500 -0.3108
vn -0.0024 0.9483 -0.3172
vn -0.0268 0.9491 -0.3137
vn -0.1434 0.9378 -0.3161
vn -0.2136 0.9539 -0.2107
vn -0.3093 0.9458 -0.0989
vn -0.3109 0.9447 0.1041
vn -0.2056 0.9492 0.2383
vn -0.1165 0.9525 0.2815
vn -0.0519 0.9541 0.2950
vn 0.0013 0.7710 0.6369
vn 0.1553 0.7627 0.6278
vn 0.3330 0.7364 0.5889
vn 0.5426 0.6954 0.4711
vn 0.7183 0.6696 0.1889
vn 0.7205 0.6711 -0.1744
vn 0.5518 0.6969 -0.4580
vn 0.3309 0.7034 -0.6291
vn 0.1388 0.7406 -0.6574
vn -0.0015 0.7614 -0.6483
vn -0.1208 0.7500 -0.6503
vn -0.3359 0.7164 -0.6115
vn -0.5528 0.6997 -0.4525
vn -0.7205 0.6712 -0.1744
vn -0.7182 0.6697 0.1888
vn -0.5510 0.6982 0.4571
vn -0.3222 0.7350 0.5967
vn -0.1538 0.7586 0.6332
vn -0.0000 0.4398 0.8981
vn 0.2434 0.4269 0.8709
vn 0.4961 0.3901 0.7757
vn 0.7488 0.3391 0.5695
vn 0.9293 0.2970 0.2194
vn 0.9325 0.2963 -0.2065
vn 0.7468 0.3351 -0.5745
vn 0.4787 0.3897 -0.7867
vn 0.2414 0.4467 -0.8615
vn -0.0000 0.4601 -0.8879
vn -0.2324 0.4370 -0.8689
vn -0.4887 0.3754 -0.7876
vn -0.7496 0.3315 -0.5728
vn -0.9325 0.2963 -0.2067
vn -0.9293 0.2969 0.2195
vn -0.7570 0.3347 0.5612
vn -0.4870 0.3878 0.7826
vn -0.2434 0.4268 0.8709
vn -0.0000 0.1890 0.9820
vn 0.2794 0.1794 0.9433
vn 0.5679 0.1553 0.8083
vn 0.8189 0.1007 0.5650
vn 0.9770 0.0554 0.2057
vn 0.9790 0.0480 -0.1983
vn 0.8213 0.0814 -0.5647
vn 0.5603 0.1173 -0.8199
vn 0.2831 0.1341 -0.9497
vn -0.0000 0.1405 -0.9901
vn -0.2822 0.1351 -0.9498
vn -0.5609 0.1183 -0.8194
vn -0.8183 0.0868 -0.5682
vn -0.9796 0.0534 -0.1938
vn -0.9770 0.0554 0.2057
vn -0.8243 0.1030 0.5567
vn -0.5591 0.1599 0.8135
vn -0.2794 0.1794 0.9433
vn -0.0000 0.1846 0.9828
vn 0.2812 0.1558 0.9469
vn 0.6378 -0.1258 0.7599
vn 0.8207 -0.2420 0.5175
vn 0.9758 -0.1395 0.1686
vn 0.9754 -0.1490 -0.1626
vn 0.8699 0.0130 -0.4930
vn 0.5846 0.0934 -0.8059
vn 0.2885 0.0683 -0.9550
vn -0.0000 0.0828 -0.9966
vn -0.2783 0.0752 -0.9575
vn -0.5921 0.1407 -0.7935
vn -0.8676 0.0071 -0.4973
vn -0.9753 -0.1547 -0.1576
vn -0.9758 -0.1395 0.1686
vn -0.8226 -0.2495 0.5111
vn -0.6314 -0.1333 0.7639
vn -0.2812 0.1558 0.9469
vn 0.6370 -0.5449 0.5453
vn 0.7597 -0.4700 0.4493
vn 0.9026 -0.3766 0.2088
vn 0.9307 -0.3403 -0.1339
vn 0.8592 -0.1510 -0.4888
vn 0.5588 -0.0869 -0.8247
vn 0.2712 -0.1259 -0.9543
vn -0.0000 -0.1018 -0.9948
vn -0.2550 -0.1307 -0.9581
vn -0.5547 -0.0549 -0.8302
vn -0.8642 -0.1473 -0.4811
vn -0.9307 -0.3403 -0.1339
vn -0.9026 -0.3766 0.2088
vn -0.7597 -0.4701 0.4493
vn -0.6370 -0.5449 0.5453
vn 0.9762 -0.0700 0.2055
vn 0.9213 -0.3396 0.1896
vn 0.9034 -0.4163 -0.1026
vn 0.7917 -0.3781 -0.4799
vn 0.4816 -0.3617 -0.7982
vn 0.2431 -0.3616 -0.9001
vn -0.0000 -0.3434 -0.9392
vn -0.2431 -0.3616 -0.9001
vn -0.4663 -0.3932 -0.7924
vn -0.7936 -0.3893 -0.4676
vn -0.9034 -0.4164 -0.1026
vn -0.9212 -0.3396 0.1897
vn -0.9761 -0.0704 0.2058
vn -0.6828 -0.2184 0.6972
vn -0.3270 -0.3161 0.8906
vn -0.3670 -0.1343 0.9205
vn 0.0027 -0.3766 0.9264
vn 0.3711 -0.3799 0.8473
vn 0.4230 -0.1728 0.8895
vn 0.6875 -0.3460 0.6385
vn 0.8300 -0.4707 0.2992
vn 0.7204 -0.2039 0.6629
vn 0.8876 -0.0881 -0.4520
vn 0.8232 0.1396 -0.5504
vn 0.9515 0.1106 -0.2869
vn 0.6478 -0.2053 -0.7336
vn 0.3234 -0.0457 -0.9452
vn 0.3160 -0.0019 -0.9488
vn -0.7612 -0.1378 -0.6337
vn -0.9010 -0.2772 -0.3339
vn -0.7836 -0.1485 -0.6032
vn -0.9603 -0.2788 -0.0058
vn -0.8720 -0.2838 0.3989
vn -0.9882 -0.0091 0.1528
vn -0.1459 -0.7023 0.6968
vn 0.1023 -0.8817 0.4605
vn -0.2577 -0.6716 0.6946
vn -0.6274 -0.4937 0.6022
vn -0.1139 -0.7274 0.6767
vn 0.2818 -0.7636 0.5809
vn 0.2790 -0.6136 0.7386
vn 0.2966 -0.8763 -0.3797
vn 0.1541 -0.9440 -0.2916
vn 0.1961 -0.6684 -0.7175
vn 0.6296 -0.5208 -0.5764
vn -0.0254 -0.7054 -0.7084
vn -0.4096 -0.5649 -0.7163
vn -0.0138 -0.3292 -0.9442
vn -0.6457 0.1639 -0.7458
vn -0.7811 -0.3604 -0.5099
vn -0.6818 -0.2953 -0.6693
vn -0.1425 -0.6316 0.7621
vn 0.1114 -0.9535 0.2799
vn 0.0866 -0.9723 0.2170
vn 0.2215 -0.7253 0.6518
vn -0.0477 -0.9333 0.3559
vn -0.0224 -0.8865 0.4621
vn -0.1219 -0.8749 0.4686
vn 0.0722 -0.9917 -0.1061
vn 0.0070 -0.9999 0.0152
vn 0.0654 -0.9495 -0.3070
vn 0.1769 -0.8496 -0.4968
vn -0.0205 -0.9468 -0.3212
vn -0.1291 -0.9474 -0.2929
vn -0.0848 -0.8471 -0.5247
vn -0.0802 -0.9946 -0.0656
vn 0.0141 -0.9998 0.0110
vn 0.0182 -0.9998 0.0072
vn -0.0398 -0.9980 -0.0487
vn -0.0668 -0.9740 0.2165
vn -0.0324 -0.9983 0.0482
vn -0.0141 -0.9811 0.1928
vn 0.0515 -0.9983 0.0275
vn 0.2279 -0.9663 -0.1198
vn 0.5267 0.6016 -0.6006
vn -0.6815 -0.1224 0.7215
vn -0.5877 -0.0383 0.8082
vn -0.6724 -0.1436 0.7261
vn 0.0236 -0.1197 0.9925
vn 0.1947 -0.0705 0.9783
vn -0.0065 0.0096 0.9999
vn 0.9333 -0.0936 0.3466
vn 0.9316 0.1521 0.3303
vn 0.8334 -0.0664 0.5486
vn 0.9723 -0.0847 -0.2179
vn 0.9881 -0.0089 -0.1537
vn 0.9981 0.0203 -0.0575
vn 0.9899 -0.1212 0.0738
vn 0.6211 -0.0363 -0.7829
vn 0.3726 0.1511 -0.9156
vn -0.1364 0.0344 -0.9901
vn -0.0088 -0.0506 -0.9987
vn 0.0880 0.0422 -0.9952
vn 0.0975 -0.0522 -0.9939
vn -0.8845 -0.0694 0.4613
vn -0.8994 0.0584 0.4333
vn -0.9637 0.0563 0.2610
vn -0.9318 0.0948 -0.3503
vn -0.9262 -0.0261 -0.3762
vn -0.6944 0.0475 -0.7181
vn -0.7728 -0.6199 -0.1361
vn -0.2934 -0.5934 0.7495
vn 0.0027 -0.5858 0.8105
vn 0.5920 -0.6272 0.5061
vn 0.7244 -0.6859 0.0697
vn 0.8719 -0.4832 -0.0795
vn 0.7279 -0.6689 0.1506
vn 0.2677 -0.2670 -0.9258
vn -0.4360 -0.2313 -0.8697
vn -0.4266 -0.1278 -0.8954
vn -0.0314 0.0609 -0.9976
vn -0.7378 -0.4672 -0.4872
vn -0.9448 -0.2940 -0.1446
vn -0.8789 0.0841 -0.4696
vn 0.2375 -0.7634 0.6006
vn -0.1897 -0.9311 0.3116
vn -0.0187 -0.8421 0.5390
vn -0.3309 -0.8342 -0.4411
vn 0.0221 -0.9943 -0.1044
vn -0.2828 -0.9095 -0.3047
vn -0.3147 -0.0479 0.9480
vn 0.4331 -0.0680 0.8988
vn 0.6291 -0.0650 0.7746
vn 0.8844 -0.4379 -0.1616
vn 0.8079 -0.4596 -0.3689
vn -0.1333 0.0914 -0.9869
vn -0.3618 0.0269 -0.9319
vn -0.6609 0.0107 -0.7504
vn -0.9866 0.1628 -0.0129
vn -0.9960 0.0376 0.0811
vn -0.9929 -0.0265 -0.1158
vn -0.6058 -0.4258 0.6721
vn -0.6726 -0.2513 0.6960
vn -0.2794 -0.0167 0.9600
vn 0.3041 -0.7805 0.5462
vn 0.6006 -0.7375 0.3088
vn -0.0124 -0.7037 0.7104
vn 0.5934 -0.7547 -0.2798
vn 0.6758 -0.7209 -0.1538
vn 0.4283 -0.8437 -0.3236
vn -0.5352 -0.7437 -0.4006
vn -0.8771 -0.3221 0.3562
vn -0.8007 -0.1924 0.5674
vn 0.1260 -0.9570 0.2614
vn -0.0789 -0.9778 0.1943
vn -0.0726 -0.9870 0.1437
vn -0.0135 -0.9879 -0.1543
vn 0.7968 0.3003 0.5244
vn -0.1017 -0.9936 0.0483
vn -0.1492 -0.9881 0.0381
vn -0.1172 -0.9916 0.0544
vn -0.0396 -0.9958 0.0823
vn -0.1196 -0.9926 0.0187
vn 0.0040 -1.0000 0.0081
vn -0.0022 -1.0000 -0.0000
vn -0.0397 -0.9987 0.0334
vn -0.0576 -0.9982 0.0195
vn -0.0575 -0.9982 0.0182
vn -0.0976 -0.9951 -0.0174
vn -0.1092 -0.9939 -0.0166
vn -0.5041 0.4256 0.7515
vn 0.2049 -0.9550 -0.2145
vn -0.7837 -0.1224 0.6089
vn -0.1195 0.0127 0.9928
vn 0.6964 -0.1419 0.7035
vn 0.9870 0.1139 0.1138
vn 0.9812 0.1314 0.1413
vn -0.9857 0.1543 0.0684
vn -0.8917 -0.0297 -0.4517
vn -0.7848 -0.1835 -0.5920
vn -0.9997 -0.0181 0.0138
vn -0.9941 -0.0354 0.1025
vn -0.9526 0.0416 -0.3014
vn 0.0353 -0.9976 0.0590
vn -0.1042 -0.9522 0.2870
vn -0.2173 -0.9302 0.2959
vn 0.0046 -0.9999 0.0167
vn -0.0004 -0.9961 0.0884
vn -0.0584 -0.9968 -0.0547
vn -0.6026 0.1131 0.7900
vn -0.5921 0.1114 0.7981
vn -0.8634 0.0822 0.4979
vn -0.8692 0.0607 0.4907
vn -0.5733 0.1481 0.8059
vn -0.8471 0.1057 0.5208
vn -0.5519 0.1452 0.8212
vn -0.8397 0.1153 0.5306
vn -0.5483 0.2414 0.8007
vn -0.8337 0.1587 0.5289
vn -0.3853 0.5575 0.7354
vn -0.5152 0.6855 0.5144
vn -0.2348 0.9558 0.1767
vn -0.9788 0.0892 -0.1842
vn -0.9797 0.0651 -0.1894
vn -0.9938 0.0262 0.1080
vn -0.9936 0.0474 0.1027
vn -0.9772 -0.1790 0.1140
vn -0.9918 0.0463 0.1192
vn -0.4699 0.8771 0.0991
vn -0.8647 0.3416 0.3682
vn -0.9074 0.1000 0.4083
vn -0.4171 0.8876 -0.1957
vn -0.3448 0.8021 -0.4877
vn -0.3114 0.9416 -0.1277
vn -0.7006 0.0732 -0.7098
vn -0.6764 0.1232 -0.7262
vn -0.9519 0.1249 -0.2799
vn -0.8912 0.1124 -0.4395
vn -0.8939 0.1040 -0.4360
vn -0.7005 0.0529 -0.7116
vn -0.8980 0.0490 -0.4372
vn -0.9000 0.0448 -0.4336
vn -0.9012 0.0519 -0.4302
vn -0.6998 0.0991 -0.7074
vn -0.9032 0.0497 -0.4263
vn -0.8836 0.0973 -0.4580
vn -0.8707 -0.1730 -0.4604
vn -0.6420 0.2296 -0.7316
vn -0.8451 -0.1190 -0.5212
vn -0.6463 0.4528 -0.6143
vn -0.4956 0.5602 -0.6638
vn -0.3796 0.7110 -0.5920
vn -0.2276 0.1026 -0.9683
vn -0.2186 0.1632 -0.9621
vn -0.2256 0.0622 -0.9722
vn -0.2230 0.1393 -0.9648
vn -0.2119 0.3270 -0.9210
vn -0.1676 0.5847 -0.7938
vn 0.0138 0.7511 -0.6600
vn 0.2277 0.1026 -0.9683
vn 0.2186 0.1632 -0.9621
vn 0.2256 0.0622 -0.9722
vn 0.2231 0.1393 -0.9648
vn 0.2119 0.3270 -0.9210
vn 0.1672 0.5844 -0.7940
vn -0.0140 0.7512 -0.6599
vn 0.6989 0.0790 -0.7108
vn 0.6715 0.1240 -0.7306
vn 0.7000 0.0466 -0.7126
vn 0.6931 0.0998 -0.7138
vn 0.6343 0.2314 -0.7377
vn 0.4853 0.5568 -0.6741
vn 0.3807 0.7056 -0.5977
vn 0.9662 0.0929 -0.2405
vn 0.9675 0.0641 -0.2446
vn 0.8804 0.0581 -0.4707
vn 0.8738 0.0881 -0.4783
vn 0.9438 0.1220 -0.3071
vn 0.8902 0.0493 -0.4530
vn 0.8919 0.0453 -0.4500
vn 0.8929 0.0532 -0.4472
vn 0.8948 0.0516 -0.4434
vn 0.8740 0.1014 -0.4752
vn 0.8611 -0.1743 -0.4776
vn 0.8338 -0.1132 -0.5404
vn 0.6357 0.4276 -0.6426
vn 0.3238 0.7934 -0.5154
vn 0.8851 0.1374 0.4447
vn 0.8923 0.0630 0.4470
vn 0.9897 0.1362 0.0440
vn 0.9921 0.1149 0.0511
vn 0.8543 0.1618 0.4939
vn 0.9061 0.4209 0.0424
vn 0.9879 0.1519 0.0299
vn 0.9966 0.0646 0.0515
vn 0.8526 0.1126 0.5102
vn 0.9966 0.0636 0.0522
vn 0.9979 0.0391 0.0521
vn 0.9984 0.0133 0.0549
vn 0.8560 0.1346 0.4992
vn 0.9979 0.0248 0.0606
vn 0.9827 -0.1761 0.0582
vn 0.9794 0.1005 0.1751
vn 0.6571 0.6239 0.4230
vn 0.9987 -0.0428 0.0279
vn 0.3972 0.9135 0.0877
vn 0.3953 0.8934 -0.2134
vn 0.2808 0.9480 -0.1500
vn 0.2716 0.9581 0.0907
vn 0.5843 0.1435 0.7987
vn 0.6026 0.1131 0.7900
vn 0.5634 0.1927 0.8034
vn 0.5524 0.1451 0.8209
vn 0.5521 0.2094 0.8071
vn 0.4642 0.4086 0.7859
vn 0.2111 0.8604 0.4638
vn -0.9859 0.1302 0.1050
vn -0.9877 0.1194 0.1011
vn -0.9882 0.1162 0.1001
vn -0.9862 0.1367 0.0930
vn -0.9926 0.0680 0.1010
vn -0.9925 0.0656 0.1032
vt 1.000000 0.975300
vt 0.500000 0.937900
vt 0.628000 0.918200
vt 0.691000 0.883900
vt 0.726600 0.856400
vt 0.753400 0.841100
vt 0.785600 0.837800
vt 0.814800 0.846900
vt 0.866000 0.858300
vt 0.917700 0.883600
vt 1.000000 0.893300
vt -0.000000 0.975300
vt -0.000000 0.893300
vt 0.082300 0.883600
vt 0.134000 0.858300
vt 0.185200 0.846900
vt 0.214400 0.837800
vt 0.246600 0.841100
vt 0.273400 0.856400
vt 0.309000 0.883900
vt 0.372000 0.918200
vt 0.500000 0.980900
vt 0.500000 0.917400
vt 0.582800 0.918500
vt 0.560500 0.986700
vt 0.657400 0.937500
vt 0.615400 0.990400
vt 0.714800 0.955700
vt 0.655900 0.995600
vt 0.706500 0.791700
vt 0.744200 0.777500
vt 0.784400 0.773900
vt 0.825300 0.779500
vt 0.871000 0.793800
vt 0.927700 0.813200
vt 1.000000 0.821000
vt -0.000000 0.821000
vt 0.072300 0.813200
vt 0.129000 0.793800
vt 0.174700 0.779500
vt 0.215600 0.773900
vt 0.255800 0.777500
vt 0.293500 0.791700
vt 0.339600 0.995700
vt 0.285300 0.955800
vt 0.338600 0.937500
vt 0.380600 0.990400
vt 0.413200 0.918500
vt 0.435500 0.986700
vt 0.500000 0.798100
vt 0.596200 0.807800
vt 0.680800 0.847800
vt 0.743600 0.919500
vt 0.695100 0.737200
vt 0.739500 0.726100
vt 0.785700 0.722500
vt 0.831600 0.725000
vt 0.878200 0.735900
vt 0.935700 0.746100
vt 1.000000 0.750700
vt -0.000000 0.750700
vt 0.064300 0.746100
vt 0.121800 0.735900
vt 0.168400 0.725000
vt 0.214300 0.722500
vt 0.260500 0.726100
vt 0.304900 0.737200
vt 0.256500 0.919600
vt 0.319200 0.847900
vt 0.403800 0.807800
vt 0.500000 0.368100
vt 0.600800 0.382000
vt 0.689500 0.428400
vt 0.755400 0.510000
vt 0.689600 0.657800
vt 0.737200 0.650200
vt 0.786700 0.647200
vt 0.835700 0.647600
vt 0.885500 0.651800
vt 0.940800 0.656700
vt 1.000000 0.658900
vt -0.000000 0.658900
vt 0.059200 0.656700
vt 0.114500 0.651800
vt 0.164300 0.647600
vt 0.213300 0.647200
vt 0.262800 0.650200
vt 0.310400 0.657800
vt 0.244600 0.510100
vt 0.310500 0.428500
vt 0.399100 0.382100
vt 0.500000 0.029300
vt 0.609100 0.072900
vt 0.705000 0.115400
vt 0.776200 0.211400
vt 0.685000 0.551900
vt 0.730900 0.549400
vt 0.784800 0.548600
vt 0.829800 0.549600
vt 0.879900 0.552200
vt 0.937100 0.555100
vt 1.000000 0.556400
vt -0.000000 0.556400
vt 0.062900 0.555100
vt 0.120100 0.552200
vt 0.170200 0.549600
vt 0.215200 0.548600
vt 0.269100 0.549400
vt 0.315000 0.551900
vt 0.223800 0.211500
vt 0.294900 0.115500
vt 0.390900 0.073000
vt 0.629000 0.555200
vt 0.619900 0.447200
vt 0.677900 0.448500
vt 0.728400 0.450000
vt 0.788000 0.451000
vt 0.837000 0.451000
vt 0.888400 0.450100
vt 0.939100 0.445800
vt 1.000000 0.445100
vt -0.000000 0.445100
vt 0.060900 0.445800
vt 0.111600 0.450100
vt 0.163000 0.451000
vt 0.212000 0.451000
vt 0.271600 0.450000
vt 0.322100 0.448500
vt 0.380100 0.447200
vt 0.371000 0.555200
vt 0.668700 0.359700
vt 0.725200 0.360200
vt 0.793800 0.363400
vt 0.847500 0.367500
vt 0.899500 0.370700
vt 0.947300 0.366800
vt 1.000000 0.367200
vt -0.000000 0.367200
vt 0.052700 0.366800
vt 0.100500 0.370700
vt 0.152500 0.367500
vt 0.206200 0.363400
vt 0.274800 0.360200
vt 0.331300 0.359700
vt 0.024600 0.667400
vt 0.226300 0.721100
vt 0.196500 0.887600
vt 0.495100 0.712800
vt 0.783500 0.690700
vt 0.805800 0.856500
vt 0.785500 0.033900
vt 0.766200 0.047700
vt 0.783900 0.035800
vt 0.744400 0.096900
vt 0.744500 0.103000
vt 0.744900 0.090100
vt 0.754200 0.115500
vt 0.767400 0.135500
vt 0.765600 0.137900
vt 0.847600 0.151500
vt 0.866500 0.138100
vt 0.860300 0.151400
vt 0.880800 0.117400
vt 0.884500 0.093400
vt 0.885200 0.110400
vt 0.131700 0.142700
vt 0.139200 0.141800
vt 0.264400 0.358900
vt 0.040500 0.506200
vt 0.483100 0.388400
vt 0.705600 0.336000
vt 0.745600 0.534000
vt 0.792600 0.062000
vt 0.777200 0.123500
vt 0.757200 0.111000
vt 0.792000 0.061300
vt 0.799700 0.131200
vt 0.821300 0.141100
vt 0.792100 0.143100
vt 0.859000 0.082700
vt 0.859100 0.082800
vt 0.857900 0.082800
vt 0.846900 0.057500
vt 0.857400 0.075400
vt 0.856700 0.075700
vt 0.839500 0.057800
vt 0.827100 0.059900
vt 0.817500 0.049600
vt 0.836000 0.052200
vt 0.793500 0.062300
vt 0.794300 0.061900
vt 0.798500 0.095400
vt 0.788300 0.109400
vt 0.811100 0.098900
vt 0.819100 0.103200
vt 0.800300 0.113100
vt 0.820200 0.092100
vt 0.795100 0.061700
vt 0.795900 0.061200
vt 0.809000 0.088100
vt 0.818000 0.066100
vt 0.854000 0.077300
vt 0.829200 0.070200
vt 0.854900 0.076200
vt 0.747600 0.112300
vt 0.751100 0.119500
vt 0.012200 0.836300
vt 0.106900 0.946200
vt -0.001700 0.908800
vt 0.514600 0.885900
vt 0.764600 0.992800
vt 0.509600 1.002600
vt 0.761200 0.050600
vt 0.761100 0.054400
vt 0.777500 0.041500
vt 0.746500 0.084800
vt 0.747100 0.077900
vt 0.747300 0.077200
vt 0.753900 0.061400
vt 0.751700 0.121700
vt 0.764300 0.140600
vt 0.808700 0.157500
vt 0.793000 0.157100
vt 0.780400 0.144600
vt 0.777500 0.150200
vt 0.889300 0.098600
vt 0.889000 0.100200
vt 0.888600 0.105500
vt 0.870700 0.144300
vt 0.868300 0.141600
vt 0.877900 0.135900
vt 0.877400 0.136600
vt 0.232400 0.560500
vt 0.524400 0.544300
vt 0.786800 0.034400
vt 0.791900 0.055800
vt 0.752300 0.068000
vt 0.792000 0.055700
vt 0.771000 0.131500
vt 0.823900 0.149100
vt 0.825300 0.157900
vt 0.794500 0.151200
vt 0.845000 0.142400
vt 0.860500 0.081600
vt 0.859100 0.082600
vt 0.640900 0.264400
vt 0.748000 0.094500
vt 0.751800 0.095500
vt 0.821600 0.122200
vt 0.854800 0.083800
vt 0.855200 0.084100
vt 0.195300 0.978900
vt 0.881600 0.073300
vt 0.879500 0.070000
vt 0.816300 0.989000
vt 0.981800 0.773800
vt 0.842500 0.979600
vt 0.956800 0.606300
vt 0.746500 0.080300
vt 0.749000 0.092700
vt 0.810500 0.161700
vt 0.825900 0.165100
vt 0.839400 0.162200
vt 0.882300 0.122100
vt 0.879900 0.128000
vt 0.874900 0.132600
vt 0.876200 0.068800
vt 0.861300 0.077200
vt 0.861200 0.077200
vt 0.860700 0.076500
vt 0.859200 0.075500
vt 0.792800 0.054800
vt 0.792600 0.054900
vt 0.927600 0.448800
vt 0.759500 0.096500
vt 0.791100 0.058900
vt 0.791000 0.058000
vt 0.791100 0.059000
vt 0.856000 0.083800
vt 0.861500 0.078400
vt 0.861500 0.078300
vt 0.310500 0.276000
vt 0.142400 0.140900
vt 0.424600 0.291200
vt 0.796400 0.056800
vt 0.796900 0.057400
vt 0.793100 0.061900
vt 0.853100 0.082700
vt 0.852500 0.081900
vt 0.852500 0.081000
vt 0.852700 0.080400
vt 0.818800 0.080400
vt 0.852600 0.079300
vt 0.796200 0.060800
vt 0.796800 0.060300
vt 0.796900 0.060000
vt 0.796900 0.058600
vt 0.796800 0.059000
vt 0.853700 0.078000
vt 0.852700 0.079000
vt 0.759300 0.131500
vt 0.754300 0.125400
vt 0.882900 0.076300
vt 0.887700 0.092200
vt 0.404400 0.992000
vt 0.783100 0.037900
vt 0.753300 0.066100
vt 0.754800 0.063700
vt 0.886600 0.113300
vt 0.878500 0.135900
vt 0.860500 0.152000
vt 0.860500 0.081400
vt 0.860400 0.081500
vt 0.855900 0.075700
vt 0.813600 0.044900
vt 0.796100 0.056600
vt 0.795900 0.056100
vt 0.794500 0.062000
vt 0.853300 0.082500
vt 0.854000 0.083400
vt 0.858000 0.075500
vt 0.795600 0.055600
vt 0.794600 0.054900
vt 0.998000 0.934200
vt 0.731700 0.175900
vt 0.585800 0.202900
vt 0.584200 0.053700
vt 0.724600 0.048700
vt 0.724000 0.326200
vt 0.593100 0.335600
vt 0.727700 0.481800
vt 0.592600 0.468800
vt 0.711100 0.598100
vt 0.596300 0.607300
vt 0.680100 0.765900
vt 0.585000 0.759300
vt 0.575000 0.946300
vt 0.392300 0.191500
vt 0.395300 0.054100
vt 0.524000 0.524300
vt 0.514100 0.478500
vt 0.525100 0.593900
vt 0.531800 0.616200
vt 0.532200 0.764200
vt 0.530900 0.715300
vt 0.536100 0.673800
vt 0.517000 0.883100
vt 0.540900 0.932900
vt 0.481200 0.896700
vt 0.472800 0.058700
vt 0.459100 0.217400
vt 0.386700 0.167200
vt 0.384800 0.059200
vt 0.455000 0.275000
vt 0.453700 0.314600
vt 0.450300 0.353100
vt 0.383700 0.300000
vt 0.447900 0.379600
vt 0.443000 0.457200
vt 0.443400 0.487100
vt 0.381600 0.468900
vt 0.445000 0.531300
vt 0.445900 0.608700
vt 0.448200 0.619800
vt 0.367600 0.612800
vt 0.444900 0.682200
vt 0.448200 0.727300
vt 0.447600 0.764700
vt 0.379600 0.745800
vt 0.368800 0.947800
vt 0.346700 0.867400
vt 0.267300 0.161300
vt 0.255800 0.060500
vt 0.264200 0.294100
vt 0.247800 0.436900
vt 0.252300 0.578500
vt 0.260100 0.740000
vt 0.261800 0.857500
vt 0.143600 0.168300
vt 0.136900 0.065000
vt 0.140500 0.301100
vt 0.150300 0.460500
vt 0.150600 0.594900
vt 0.162600 0.763500
vt 0.176500 0.861700
vt 0.061600 0.225300
vt 0.059600 0.065000
vt 0.058500 0.358100
vt 0.082500 0.508000
vt 0.082800 0.642400
vt 0.090000 0.780200
vt 0.128400 0.949400
vt 0.055900 0.250400
vt 0.057200 0.118100
vt 0.057800 0.374200
vt 0.057000 0.336800
vt 0.056500 0.307700
vt 0.082700 0.489300
vt 0.057600 0.395300
vt 0.082400 0.519000
vt 0.081000 0.640200
vt 0.082000 0.562700
vt 0.080900 0.651400
vt 0.074800 0.765500
vt 0.077900 0.712500
vt 0.078800 0.778500
vt 1.073700 0.079500
vt 1.063900 0.213600
vt 0.901900 0.197000
vt 0.918800 0.053500
vt 0.984200 0.334700
vt 0.886400 0.331200
vt 1.025100 0.266500
vt 1.003900 0.299900
vt 1.051400 0.255700
vt 1.059300 0.271800
vt 0.976000 0.359300
vt 0.876900 0.470100
vt 0.963300 0.437300
vt 0.960700 0.468200
vt 0.947400 0.516900
vt 0.885600 0.603500
vt 0.946200 0.580900
vt 0.947200 0.602000
vt 0.956300 0.662600
vt 0.899100 0.736100
vt 0.976900 0.709100
vt 1.000900 0.738500
vt 1.107600 0.761600
vt 0.994400 0.952400
vt 0.950000 0.952800
vt 1.047400 0.753200
vt 1.032300 0.749900
vt 0.894900 0.951400
vt 0.752100 0.190800
vt 0.754700 0.046500
vt 0.754900 0.324900
vt 0.756200 0.492400
vt 0.774000 0.602700
vt 0.784100 0.758800
vt 0.849200 0.856200
vt 0.419600 0.293900
vt 0.401700 0.298900
vt 0.439100 0.292100
vt 0.481200 0.358300
vt 0.462300 0.319700
vt 0.495100 0.383500
vt 0.509000 0.448100
s 1
usemtl lambert4SG
f 1/1/1 2/2/2 3/3/3
f 1/1/1 3/3/3 4/4/4
f 1/1/1 4/4/4 5/5/5
f 1/1/1 5/5/5 6/6/6
f 1/1/1 6/6/6 7/7/7
f 1/1/1 7/7/7 8/8/8
f 1/1/1 8/8/8 9/9/9
f 1/1/1 9/9/9 10/10/10
f 1/1/1 10/10/10 11/11/11
f 1/12/1 11/13/11 12/14/12
f 1/12/1 12/14/12 13/15/13
f 1/12/1 13/15/13 14/16/14
f 1/12/1 14/16/14 15/17/15
f 1/12/1 15/17/15 16/18/16
f 1/12/1 16/18/16 17/19/17
f 1/12/1 17/19/17 18/20/18
f 1/12/1 18/20/18 19/21/19
f 1/12/1 19/21/19 2/2/2
f 2/22/2 20/23/20 21/24/21
f 2/22/2 21/24/21 3/25/3
f 3/25/3 21/24/21 22/26/22
f 3/25/3 22/26/22 4/27/4
f 4/27/4 22/26/22 23/28/23
f 4/27/4 23/28/23 5/29/5
f 23/30/23 24/31/24 6/6/6
f 6/6/6 5/5/5 23/30/23
f 24/31/24 25/32/25 7/7/7
f 7/7/7 6/6/6 24/31/24
f 7/7/7 25/32/25 26/33/26
f 26/33/26 8/8/8 7/7/7
f 8/8/8 26/33/26 27/34/27
f 27/34/27 9/9/9 8/8/8
f 9/9/9 27/34/27 28/35/28
f 28/35/28 10/10/10 9/9/9
f 10/10/10 28/35/28 29/36/29
f 29/36/29 11/11/11 10/10/10
f 11/13/11 29/37/29 30/38/30
f 11/13/11 30/38/30 12/14/12
f 30/38/30 31/39/31 13/15/13
f 13/15/13 12/14/12 30/38/30
f 31/39/31 32/40/32 14/16/14
f 14/16/14 13/15/13 31/39/31
f 32/40/32 33/41/33 15/17/15
f 15/17/15 14/16/14 32/40/32
f 33/41/33 34/42/34 16/18/16
f 16/18/16 15/17/15 33/41/33
f 16/18/16 34/42/34 35/43/35
f 35/43/35 17/19/17 16/18/16
f 17/44/17 35/45/35 36/46/36
f 17/44/17 36/46/36 18/47/18
f 18/47/18 36/46/36 37/48/37
f 18/47/18 37/48/37 19/49/19
f 19/49/19 37/48/37 20/23/20
f 19/49/19 20/23/20 2/22/2
f 20/23/20 38/50/38 39/51/39
f 39/51/39 21/24/21 20/23/20
f 21/24/21 39/51/39 40/52/40
f 40/52/40 22/26/22 21/24/21
f 22/26/22 40/52/40 41/53/41
f 41/53/41 23/28/23 22/26/22
f 23/30/23 41/54/41 42/55/42
f 23/30/23 42/55/42 24/31/24
f 42/55/42 43/56/43 25/32/25
f 25/32/25 24/31/24 42/55/42
f 43/56/43 44/57/44 26/33/26
f 26/33/26 25/32/25 43/56/43
f 44/57/44 45/58/45 27/34/27
f 27/34/27 26/33/26 44/57/44
f 45/58/45 46/59/46 28/35/28
f 28/35/28 27/34/27 45/58/45
f 46/59/46 47/60/47 29/36/29
f 29/36/29 28/35/28 46/59/46
f 49/63/49 50/64/50 32/40/32
f 32/40/32 31/39/31 49/63/49
f 32/40/32 50/64/50 51/65/51
f 51/65/51 33/41/33 32/40/32
f 51/65/51 52/66/52 34/42/34
f 34/42/34 33/41/33 51/65/51
f 52/66/52 53/67/53 35/43/35
f 35/43/35 34/42/34 52/66/52
f 35/45/35 53/68/53 54/69/54
f 35/45/35 54/69/54 36/46/36
f 54/69/54 55/70/55 37/48/37
f 37/48/37 36/46/36 54/69/54
f 55/70/55 38/50/38 20/23/20
f 20/23/20 37/48/37 55/70/55
f 38/50/38 56/71/56 57/72/57
f 57/72/57 39/51/39 38/50/38
f 39/51/39 57/72/57 58/73/58
f 58/73/58 40/52/40 39/51/39
f 40/52/40 58/73/58 59/74/59
f 59/74/59 41/53/41 40/52/40
f 41/54/41 59/75/59 60/76/60
f 41/54/41 60/76/60 42/55/42
f 60/76/60 61/77/61 43/56/43
f 43/56/43 42/55/42 60/76/60
f 61/77/61 62/78/62 44/57/44
f 44/57/44 43/56/43 61/77/61
f 62/78/62 63/79/63 45/58/45
f 45/58/45 44/57/44 62/78/62
f 63/79/63 64/80/64 46/59/46
f 46/59/46 45/58/45 63/79/63
f 64/80/64 65/81/65 47/60/47
f 47/60/47 46/59/46 64/80/64
f 47/61/47 65/82/65 66/83/66
f 48/62/48 66/83/66 67/84/67
f 67/84/67 49/63/49 48/62/48
f 49/63/49 67/84/67 68/85/68
f 68/85/68 50/64/50 49/63/49
f 50/64/50 68/85/68 69/86/69
f 69/86/69 51/65/51 50/64/50
f 69/86/69 70/87/70 52/66/52
f 52/66/52 51/65/51 69/86/69
f 70/87/70 71/88/71 53/67/53
f 53/67/53 52/66/52 70/87/70
f 53/68/53 71/89/71 72/90/72
f 53/68/53 72/90/72 54/69/54
f 72/90/72 73/91/73 55/70/55
f 55/70/55 54/69/54 72/90/72
f 73/91/73 56/71/56 38/50/38
f 38/50/38 55/70/55 73/91/73
f 56/71/56 74/92/74 75/93/75
f 75/93/75 57/72/57 56/71/56
f 57/72/57 75/93/75 76/94/76
f 76/94/76 58/73/58 57/72/57
f 58/73/58 76/94/76 77/95/77
f 77/95/77 59/74/59 58/73/58
f 59/75/59 77/96/77 78/97/78
f 59/75/59 78/97/78 60/76/60
f 60/76/60 78/97/78 79/98/79
f 79/98/79 61/77/61 60/76/60
f 79/98/79 80/99/80 62/78/62
f 62/78/62 61/77/61 79/98/79
f 81/100/81 82/101/82 64/80/64
f 64/80/64 63/79/63 81/100/81
f 82/101/82 83/102/83 65/81/65
f 65/81/65 64/80/64 82/101/82
f 65/82/65 83/103/83 84/104/84
f 65/82/65 84/104/84 66/83/66
f 84/104/84 85/105/85 67/84/67
f 67/84/67 66/83/66 84/104/84
f 85/105/85 86/106/86 68/85/68
f 68/85/68 67/84/67 85/105/85
f 86/106/86 87/107/87 69/86/69
f 69/86/69 68/85/68 86/106/86
f 87/107/87 88/108/88 70/87/70
f 70/87/70 69/86/69 87/107/87
f 88/108/88 89/109/89 71/88/71
f 71/88/71 70/87/70 88/108/88
f 71/89/71 89/110/89 90/111/90
f 71/89/71 90/111/90 72/90/72
f 90/111/90 91/112/91 73/91/73
f 73/91/73 72/90/72 90/111/90
f 91/112/91 74/92/74 56/71/56
f 56/71/56 73/91/73 91/112/91
f 76/113/76 92/114/92 93/115/93
f 76/113/76 93/115/93 77/96/77
f 77/96/77 93/115/93 94/116/94
f 77/96/77 94/116/94 78/97/78
f 94/116/94 95/117/95 79/98/79
f 79/98/79 78/97/78 94/116/94
f 95/117/95 96/118/96 80/99/80
f 80/99/80 79/98/79 95/117/95
f 96/118/96 97/119/97 81/100/81
f 81/100/81 80/99/80 96/118/96
f 97/119/97 98/120/98 82/101/82
f 82/101/82 81/100/81 97/119/97
f 98/120/98 99/121/99 83/102/83
f 83/102/83 82/101/82 98/120/98
f 83/103/83 99/122/99 100/123/100
f 83/103/83 100/123/100 84/104/84
f 84/104/84 100/123/100 101/124/101
f 101/124/101 85/105/85 84/104/84
f 85/105/85 101/124/101 102/125/102
f 102/125/102 86/106/86 85/105/85
f 86/106/86 102/125/102 103/126/103
f 103/126/103 87/107/87 86/106/86
f 103/126/103 104/127/104 88/108/88
f 88/108/88 87/107/87 103/126/103
f 104/127/104 105/128/105 89/109/89
f 89/109/89 88/108/88 104/127/104
f 105/128/105 106/129/106 90/130/90
f 90/130/90 89/109/89 105/128/105
f 93/115/93 107/131/107 108/132/108
f 108/132/108 94/116/94 93/115/93
f 108/132/108 109/133/109 95/117/95
f 95/117/95 94/116/94 108/132/108
f 109/133/109 110/134/110 96/118/96
f 96/118/96 95/117/95 109/133/109
f 110/134/110 111/135/111 97/119/97
f 97/119/97 96/118/96 110/134/110
f 111/135/111 112/136/112 98/120/98
f 98/120/98 97/119/97 111/135/111
f 112/136/112 113/137/113 99/121/99
f 99/121/99 98/120/98 112/136/112
f 99/122/99 113/138/113 114/139/114
f 99/122/99 114/139/114 100/123/100
f 100/123/100 114/139/114 115/140/115
f 115/140/115 101/124/101 100/123/100
f 101/124/101 115/140/115 116/141/116
f 116/141/116 102/125/102 101/124/101
f 102/125/102 116/141/116 117/142/117
f 117/142/117 103/126/103 102/125/102
f 117/142/117 118/143/118 104/127/104
f 104/127/104 103/126/103 117/142/117
f 118/143/118 119/144/119 105/128/105
f 105/128/105 104/127/104 118/143/118
f 180/205/180 130/155/130 181/206/181
f 182/207/182 183/208/183 184/209/184
f 201/226/201 202/227/202 203/228/203
f 204/229/204 205/230/205 206/231/206
f 206/231/206 207/232/207 204/229/204
f 125/150/125 228/255/228 186/211/186
f 131/156/131 230/259/230 192/217/192
f 235/264/235 236/265/236 237/266/237
f 181/206/181 196/221/196 267/301/267
f 267/301/267 268/302/268 180/205/180
f 180/205/180 181/206/181 267/301/267
f 194/219/194 272/307/272 273/308/273
f 203/228/203 274/309/274 140/165/140
f 140/165/140 201/226/201 203/228/203
f 206/231/206 205/230/205 237/266/237
f 237/266/237 275/310/275 206/231/206
f 205/230/205 204/229/204 276/311/276
f 276/311/276 137/162/137 205/230/205
f 284/319/284 170/195/170 254/288/254
f 277/312/277 219/244/219 279/313/279
f 189/214/189 188/213/188 273/308/273
f 202/227/202 201/226/201 269/304/269
f 235/264/235 140/165/140 274/309/274
f 287/325/287 288/326/288 289/327/289
f 290/329/290 291/330/291 288/326/288
f 288/326/288 287/325/287 290/329/290
f 292/331/292 293/332/293 291/330/291
f 291/330/291 290/329/290 292/331/292
f 294/333/294 295/334/295 293/332/293
f 293/332/293 292/331/292 294/333/294
f 296/335/296 297/336/297 295/334/295
f 295/334/295 294/333/294 296/335/296
f 297/336/297 296/335/296 298/337/298
f 288/326/288 299/338/299 300/339/300
f 300/339/300 289/327/289 288/326/288
f 301/340/301 302/341/302 293/332/293
f 293/332/293 295/334/295 301/340/301
f 304/342/304 301/340/301 295/334/295
f 295/334/295 303/343/303 304/342/304
f 297/336/297 305/344/305 306/345/306
f 306/345/306 307/346/307 297/336/297
f 295/334/295 297/336/297 307/346/307
f 307/346/307 303/343/303 295/334/295
f 310/347/310 305/344/305 308/348/308
f 308/348/308 309/349/309 310/347/310
f 298/337/298 308/348/308 305/344/305
f 305/344/305 297/336/297 298/337/298
f 300/350/300 299/351/299 311/352/311
f 311/352/311 312/353/312 300/350/300
f 299/351/299 313/354/313 314/355/314
f 315/356/315 316/357/316 299/351/299
f 299/351/299 314/355/314 315/356/315
f 311/352/311 299/351/299 316/357/316
f 317/358/317 318/359/318 316/357/316
f 316/357/316 315/356/315 317/358/317
f 318/359/318 319/360/319 320/361/320
f 320/361/320 316/357/316 318/359/318
f 321/362/321 322/363/322 320/361/320
f 320/361/320 319/360/319 321/362/321
f 322/363/322 323/364/323 324/365/324
f 324/365/324 320/361/320 322/363/322
f 325/366/325 326/367/326 324/365/324
f 324/365/324 323/364/323 325/366/325
f 326/367/326 309/368/309 327/369/327
f 327/369/327 324/365/324 326/367/326
f 327/369/327 309/368/309 308/370/308
f 308/370/308 328/371/328 327/369/327
f 312/353/312 311/352/311 329/372/329
f 329/372/329 330/373/330 312/353/312
f 311/352/311 316/357/316 331/374/331
f 331/374/331 329/372/329 311/352/311
f 316/357/316 320/361/320 332/375/332
f 332/375/332 331/374/331 316/357/316
f 320/361/320 324/365/324 333/376/333
f 333/376/333 332/375/332 320/361/320
f 324/365/324 327/369/327 334/377/334
f 334/377/334 333/376/333 324/365/324
f 328/371/328 335/378/335 334/377/334
f 334/377/334 327/369/327 328/371/328
f 329/372/329 336/379/336 337/380/337
f 337/380/337 330/373/330 329/372/329
f 331/374/331 338/381/338 336/379/336
f 336/379/336 329/372/329 331/374/331
f 332/375/332 339/382/339 338/381/338
f 338/381/338 331/374/331 332/375/332
f 333/376/333 340/383/340 339/382/339
f 339/382/339 332/375/332 333/376/333
f 334/377/334 341/384/341 340/383/340
f 340/383/340 333/376/333 334/377/334
f 335/378/335 342/385/342 341/384/341
f 341/384/341 334/377/334 335/378/335
f 336/379/336 343/386/343 344/387/344
f 344/387/344 337/380/337 336/379/336
f 338/381/338 345/388/345 343/386/343
f 343/386/343 336/379/336 338/381/338
f 339/382/339 346/389/346 345/388/345
f 345/388/345 338/381/338 339/382/339
f 340/383/340 347/390/347 346/389/346
f 346/389/346 339/382/339 340/383/340
f 341/384/341 348/391/348 347/390/347
f 347/390/347 340/383/340 341/384/341
f 341/384/341 342/385/342 349/392/349
f 349/392/349 348/391/348 341/384/341
f 343/386/343 350/393/350 351/394/351
f 352/395/352 353/396/353 343/386/343
f 343/386/343 345/388/345 352/395/352
f 350/393/350 343/386/343 353/396/353
f 353/396/353 354/397/354 350/393/350
f 345/388/345 356/398/356 355/399/355
f 355/399/355 352/395/352 345/388/345
f 356/398/356 345/388/345 346/389/346
f 346/389/346 357/400/357 356/398/356
f 346/389/346 359/401/359 358/402/358
f 358/402/358 357/400/357 346/389/346
f 359/401/359 346/389/346 347/390/347
f 347/390/347 360/403/360 359/401/359
f 347/390/347 362/404/362 361/405/361
f 361/405/361 360/403/360 347/390/347
f 362/404/362 347/390/347 348/391/348
f 348/391/348 363/406/363 362/404/362
f 351/407/351 350/408/350 364/409/364
f 364/409/364 365/410/365 351/407/351
f 367/411/367 368/412/368 369/413/369
f 369/413/369 366/414/366 367/411/367
f 364/409/364 370/415/370 369/413/369
f 369/413/369 368/412/368 364/409/364
f 370/415/370 364/409/364 350/408/350
f 370/415/370 350/408/350 354/416/354
f 371/417/371 372/418/372 368/412/368
f 368/412/368 367/411/367 371/417/371
f 372/418/372 371/417/371 373/419/373
f 373/419/373 374/420/374 372/418/372
f 372/418/372 374/420/374 375/421/375
f 375/421/375 376/422/376 372/418/372
f 376/422/376 375/421/375 377/423/377
f 377/423/377 378/424/378 376/422/376
f 376/422/376 378/424/378 379/425/379
f 379/425/379 380/426/380 376/422/376
f 380/426/380 379/425/379 381/427/381
f 381/427/381 382/428/382 380/426/380
f 348/429/348 349/430/349 383/431/383
f 363/432/363 348/429/348 383/431/383
f 383/431/383 382/428/382 384/433/384
f 384/433/384 363/432/363 383/431/383
f 382/428/382 383/431/383 385/434/385
f 385/434/385 380/426/380 382/428/382
f 365/410/365 364/409/364 386/435/386
f 368/412/368 388/437/388 386/435/386
f 386/435/386 364/409/364 368/412/368
f 368/412/368 372/418/372 389/438/389
f 389/438/389 388/437/388 368/412/368
f 372/418/372 376/422/376 390/439/390
f 390/439/390 389/438/389 372/418/372
f 376/422/376 380/426/380 391/440/391
f 391/440/391 390/439/390 376/422/376
f 392/441/392 391/440/391 380/426/380
f 380/426/380 385/434/385 392/441/392
f 299/338/299 288/326/288 393/442/393
f 393/442/393 313/443/313 299/338/299
f 288/326/288 291/330/291 394/444/394
f 394/444/394 393/442/393 288/326/288
f 395/445/395 396/446/396 394/444/394
f 394/444/394 291/330/291 395/445/395
f 291/330/291 293/332/293 397/447/397
f 397/447/397 395/445/395 291/330/291
f 398/448/398 397/447/397 293/332/293
f 293/332/293 302/341/302 398/448/398
usemtl lambert3SG
f 29/37/29 47/61/47 48/62/48
f 29/37/29 48/62/48 30/38/30
f 48/62/48 49/63/49 31/39/31
f 31/39/31 30/38/30 48/62/48
f 47/61/47 66/83/66 48/62/48
f 62/78/62 80/99/80 81/100/81
f 81/100/81 63/79/63 62/78/62
f 120/145/120 121/146/121 122/147/122
f 123/148/123 124/149/124 125/150/125
f 126/151/126 127/152/127 128/153/128
f 129/154/129 130/155/130 131/156/131
f 132/157/132 133/158/133 134/159/134
f 135/160/135 136/161/136 137/162/137
f 138/163/138 139/164/139 140/165/140
f 141/166/141 142/167/142 143/168/143
f 143/168/143 144/169/144 141/166/141
f 145/170/145 146/171/146 147/172/147
f 149/173/149 150/174/150 151/175/151
f 151/175/151 148/176/148 149/173/149
f 152/177/152 153/178/153 154/179/154
f 155/180/155 156/181/156 157/182/157
f 158/183/158 159/184/159 160/185/160
f 160/185/160 161/186/161 158/183/158
f 162/187/162 163/188/163 164/189/164
f 165/190/165 166/191/166 167/192/167
f 167/192/167 168/193/168 165/190/165
f 169/194/169 170/195/170 171/196/171
f 172/197/172 170/195/170 169/194/169
f 173/198/173 174/199/174 175/200/175
f 175/200/175 167/192/167 173/198/173
f 176/201/176 163/188/163 162/187/162
f 177/202/177 178/203/178 161/186/161
f 161/186/161 179/204/179 177/202/177
f 185/210/185 186/211/186 187/212/187
f 188/213/188 189/214/189 190/215/190
f 191/216/191 192/217/192 193/218/193
f 193/218/193 194/219/194 191/216/191
f 195/220/195 196/221/196 181/206/181
f 197/222/197 198/223/198 199/224/199
f 200/225/200 196/221/196 134/159/134
f 208/233/208 121/146/121 120/145/120
f 209/234/209 124/149/124 123/148/123
f 210/235/210 127/152/127 126/151/126
f 211/236/211 212/237/212 127/152/127
f 127/152/127 213/238/213 211/236/211
f 214/239/214 133/158/133 132/157/132
f 215/240/215 216/241/216 217/242/217
f 218/243/218 136/161/136 135/160/135
f 138/163/138 136/161/136 219/244/219
f 156/181/156 155/180/155 220/245/220
f 221/246/221 146/171/146 145/170/145
f 221/246/221 222/247/222 223/248/223
f 223/248/223 146/171/146 221/246/221
f 224/249/224 153/178/153 152/177/152
f 224/249/224 225/250/225 226/251/226
f 226/251/226 153/178/153 224/249/224
f 183/208/183 182/207/182 122/147/122
f 122/147/122 227/252/227 183/208/183
f 182/253/182 139/164/139 120/254/120
f 120/145/120 122/147/122 182/207/182
f 186/211/186 185/210/185 125/150/125
f 185/210/185 121/146/121 123/148/123
f 123/148/123 125/150/125 185/210/185
f 228/255/228 125/150/125 128/256/128
f 128/256/128 229/257/229 228/255/228
f 125/150/125 124/149/124 126/258/126
f 126/258/126 128/256/128 125/150/125
f 192/217/192 191/216/191 131/156/131
f 191/216/191 231/260/231 129/154/129
f 129/154/129 131/156/131 191/216/191
f 134/159/134 196/221/196 195/220/195
f 195/220/195 231/260/231 132/157/132
f 132/157/132 134/159/134 195/220/195
f 232/261/232 198/223/198 197/222/197
f 197/222/197 216/241/216 233/262/233
f 233/262/233 232/261/232 197/222/197
f 234/263/234 216/241/216 135/160/135
f 135/160/135 137/162/137 234/263/234
f 237/266/237 140/165/140 235/264/235
f 237/266/237 136/161/136 138/163/138
f 138/163/138 140/165/140 237/266/237
f 144/267/144 139/164/139 238/268/238
f 238/268/238 239/269/239 240/270/240
f 238/268/238 240/270/240 141/271/141
f 141/271/141 144/267/144 238/268/238
f 147/172/147 124/149/124 209/234/209
f 209/234/209 143/168/143 145/170/145
f 145/170/145 147/172/147 209/234/209
f 210/235/210 241/272/241 242/273/242
f 242/273/242 127/152/127 210/235/210
f 210/274/210 146/171/146 223/248/223
f 223/248/223 243/275/243 210/274/210
f 244/276/244 231/260/231 245/277/245
f 151/175/151 231/260/231 244/276/244
f 244/276/244 246/278/246 151/175/151
f 154/179/154 133/158/133 214/239/214
f 214/239/214 150/174/150 152/177/152
f 152/177/152 154/179/154 214/239/214
f 156/181/156 136/161/136 218/243/218
f 218/243/218 153/178/153 226/251/226
f 226/251/226 247/279/247 218/243/218
f 247/279/247 157/182/157 156/181/156
f 156/181/156 218/243/218 247/279/247
f 238/268/238 139/164/139 248/280/248
f 248/280/248 249/281/249 239/269/239
f 239/269/239 238/268/238 248/280/248
f 158/282/158 143/168/143 142/167/142
f 142/167/142 250/283/250 158/282/158
f 164/284/164 143/168/143 158/282/158
f 158/183/158 161/186/161 162/187/162
f 162/187/162 164/189/164 158/183/158
f 251/285/251 163/188/163 252/286/252
f 168/193/168 150/174/150 149/173/149
f 149/173/149 253/287/253 168/193/168
f 171/196/171 150/174/150 168/193/168
f 168/193/168 167/192/167 169/194/169
f 169/194/169 171/196/171 168/193/168
f 254/288/254 170/195/170 255/289/255
f 172/197/172 256/290/256 255/289/255
f 255/289/255 170/195/170 172/197/172
f 257/291/257 172/197/172 258/292/258
f 258/292/258 259/293/259 257/291/257
f 169/194/169 167/192/167 175/200/175
f 175/200/175 258/292/258 172/197/172
f 172/197/172 169/194/169 175/200/175
f 260/294/260 261/295/261 258/292/258
f 258/292/258 175/200/175 260/294/260
f 262/296/262 258/292/258 261/295/261
f 176/201/176 263/297/263 252/286/252
f 252/286/252 163/188/163 176/201/176
f 176/201/176 258/292/258 262/296/262
f 262/296/262 264/298/264 176/201/176
f 162/187/162 161/186/161 178/203/178
f 178/203/178 258/292/258 176/201/176
f 176/201/176 162/187/162 178/203/178
f 178/203/178 265/299/265 266/300/266
f 266/300/266 258/292/258 178/203/178
f 259/293/259 258/292/258 266/300/266
f 201/226/201 139/164/139 182/253/182
f 184/303/184 269/304/269 201/226/201
f 201/226/201 182/253/182 184/303/184
f 122/147/122 121/146/121 185/210/185
f 270/305/270 122/147/122 185/210/185
f 185/210/185 187/212/187 270/305/270
f 128/153/128 127/152/127 188/213/188
f 190/215/190 271/306/271 128/153/128
f 128/153/128 188/213/188 190/215/190
f 194/219/194 127/152/127 212/237/212
f 212/237/212 231/260/231 191/216/191
f 191/216/191 194/219/194 212/237/212
f 188/213/188 127/152/127 194/219/194
f 194/219/194 193/218/193 272/307/272
f 273/308/273 188/213/188 194/219/194
f 181/206/181 130/155/130 129/154/129
f 129/154/129 231/260/231 195/220/195
f 195/220/195 181/206/181 129/154/129
f 199/224/199 133/158/133 217/242/217
f 217/242/217 216/241/216 197/222/197
f 197/222/197 199/224/199 217/242/217
f 134/159/134 133/158/133 199/224/199
f 199/224/199 198/223/198 200/225/200
f 200/225/200 134/159/134 199/224/199
f 233/262/233 216/241/216 234/263/234
f 140/165/140 139/164/139 201/226/201
f 205/230/205 136/161/136 237/266/237
f 237/266/237 236/265/236 275/310/275
f 137/162/137 136/161/136 205/230/205
f 120/254/120 139/164/139 144/267/144
f 144/169/144 143/168/143 208/233/208
f 208/233/208 120/145/120 144/169/144
f 123/148/123 121/146/121 208/233/208
f 208/233/208 143/168/143 209/234/209
f 209/234/209 123/148/123 208/233/208
f 126/258/126 124/149/124 147/172/147
f 147/172/147 146/171/146 210/274/210
f 210/274/210 126/258/126 147/172/147
f 231/260/231 212/237/212 245/277/245
f 132/157/132 231/260/231 151/175/151
f 151/175/151 150/174/150 214/239/214
f 214/239/214 132/157/132 151/175/151
f 217/242/217 133/158/133 154/179/154
f 154/179/154 153/178/153 215/240/215
f 215/240/215 217/242/217 154/179/154
f 135/160/135 216/241/216 215/240/215
f 215/240/215 153/178/153 218/243/218
f 218/243/218 135/160/135 215/240/215
f 219/244/219 277/312/277 278/280/278
f 278/280/278 248/280/248 219/244/219
f 248/280/248 139/164/139 138/163/138
f 138/163/138 219/244/219 248/280/248
f 219/244/219 136/161/136 156/181/156
f 156/181/156 220/245/220 279/313/279
f 279/313/279 219/244/219 156/181/156
f 280/314/280 161/186/161 160/185/160
f 145/170/145 143/168/143 164/284/164
f 164/189/164 163/188/163 221/315/221
f 221/246/221 145/170/145 164/284/164
f 281/316/281 163/188/163 251/285/251
f 221/315/221 163/188/163 281/316/281
f 281/316/281 282/317/282 221/315/221
f 283/318/283 167/192/167 166/191/166
f 152/177/152 150/174/150 171/196/171
f 171/196/171 170/195/170 224/249/224
f 224/249/224 152/177/152 171/196/171
f 170/195/170 284/319/284 285/320/285
f 285/320/285 224/249/224 170/195/170
f 148/176/148 151/175/151 246/278/246
f 159/184/159 158/183/158 250/321/250
f 165/190/165 168/193/168 253/287/253
f 173/198/173 167/192/167 283/318/283
f 179/204/179 161/186/161 280/314/280
f 213/238/213 127/152/127 242/273/242
f 222/322/222 221/315/221 282/317/282
f 225/250/225 224/249/224 285/320/285
f 241/272/241 210/235/210 243/323/243
f 256/290/256 172/197/172 257/291/257
f 260/294/260 175/200/175 174/199/174
f 263/297/263 176/201/176 264/298/264
f 265/299/265 178/203/178 177/202/177
f 245/277/245 212/237/212 211/236/211
f 227/252/227 122/147/122 270/305/270
f 229/257/229 128/256/128 271/324/271
f 289/327/289 286/328/286 287/325/287
f 351/394/351 344/387/344 343/386/343
f 386/435/386 387/436/387 365/410/365
