# Blender 4.5.2 LTS
# www.blender.org
mtllib r2d2.mtl
o brazo_der
v -3.564501 3.968947 -1.328855
v -3.564501 4.406279 -1.211673
v -3.020283 4.406278 -1.211673
v -3.020283 3.968947 -1.328855
v -3.564501 4.726427 -0.891525
v -3.020283 4.726427 -0.891524
v -3.564501 4.843609 -0.454194
v -3.020283 4.843609 -0.454194
v -3.564502 4.726427 -0.016863
v -3.020283 4.726427 -0.016863
v -3.564502 4.406279 0.303285
v -3.020283 4.406278 0.303286
v -3.564502 3.968947 0.420468
v -3.020283 3.968947 0.420468
v -3.564502 2.969021 0.415863
v -3.020283 2.969020 0.415863
v -3.020283 2.969020 -1.324249
v -3.564501 2.969020 -1.324250
v -3.564502 2.681606 0.023447
v -3.020283 2.681606 0.023447
v -3.020283 2.681606 -0.931834
v -3.564502 2.681606 -0.931835
v -3.564503 0.452923 0.023448
v -3.020284 0.452922 0.023448
v -3.020283 0.452922 -0.931833
v -3.564502 0.452922 -0.931834
v -3.564503 0.236141 -0.157453
v -3.020284 0.236141 -0.157453
v -3.020284 0.236141 -0.750935
v -3.564502 0.236141 -0.750935
vn -0.0000 0.1282 -0.9917
vn -0.0000 0.5000 -0.8660
vn -0.0000 0.8660 -0.5000
vn -0.0000 1.0000 -0.0000
vn -0.0000 0.8660 0.5000
vn -0.0000 0.5000 0.8660
vn -0.0000 0.1282 0.9917
vn -0.0000 -0.0046 1.0000
vn 1.0000 -0.0000 -0.0000
vn -0.0000 -0.0046 -1.0000
vn -1.0000 -0.0000 -0.0000
vn -0.0000 -0.8068 0.5909
vn -0.0000 -0.8068 -0.5909
vn -0.0000 -0.0000 1.0000
vn -0.0000 -0.0000 -1.0000
vn -0.0000 -0.6407 0.7678
vn -0.0000 -0.6407 -0.7678
vn -0.0000 -1.0000 -0.0000
vt 0.371099 0.017176
vt 0.415491 0.017176
vt 0.415491 0.072418
vt 0.371099 0.072418
vt 0.336287 0.368834
vt 0.303789 0.368834
vt 0.303789 0.313592
vt 0.336287 0.313592
vt 0.259397 0.368834
vt 0.259397 0.313592
vt 0.215005 0.368834
vt 0.215005 0.313592
vt 0.182508 0.368834
vt 0.182508 0.313592
vt 0.183247 0.075473
vt 0.138855 0.075473
vt 0.138855 0.020231
vt 0.183247 0.020231
vt 0.037355 0.075473
vt 0.037355 0.020231
vt 0.853855 0.953856
vt 0.825556 0.982155
vt 0.786899 0.992513
vt 0.719943 0.953856
vt 0.748242 0.982155
vt 0.709585 0.915199
vt 0.709992 0.826813
vt 0.863806 0.826813
vt 0.864214 0.915199
vt 0.269600 0.072418
vt 0.269600 0.017176
vt 0.984062 0.765023
vt 0.975392 0.797382
vt 0.951703 0.821070
vt 0.854627 0.765023
vt 0.919345 0.829741
vt 0.886986 0.821070
vt 0.863298 0.797382
vt 0.854968 0.691038
vt 0.983721 0.691038
vt 0.187158 0.020231
vt 0.242400 0.020231
vt 0.242400 0.060064
vt 0.187158 0.060064
vt 0.474645 0.057009
vt 0.419403 0.057009
vt 0.419403 0.017176
vt 0.474645 0.017176
vt 0.884003 0.669772
vt 0.954686 0.669772
vt 0.744679 0.801408
vt 0.829119 0.801408
vt 0.745929 0.078181
vt 0.745929 0.133423
vt 0.519702 0.133423
vt 0.519702 0.078181
vt 0.745929 0.019028
vt 0.745929 0.074269
vt 0.519702 0.074269
vt 0.519702 0.019027
vt 0.884003 0.504869
vt 0.954686 0.504869
vt 0.744679 0.604407
vt 0.829119 0.604407
vt 0.497697 0.133423
vt 0.497697 0.078181
vt 0.497697 0.074269
vt 0.497697 0.019027
vt 0.897388 0.488829
vt 0.941301 0.488829
vt 0.760670 0.585245
vt 0.813129 0.585245
vt 0.340198 0.368834
vt 0.340198 0.313592
vt 0.400441 0.313592
vt 0.400441 0.368834
s 1
usemtl MaterialGrisAzuladoR2D2.001
f 1/1/1 2/2/2 3/3/2 4/4/1
f 2/5/2 5/6/3 6/7/3 3/8/2
f 5/6/3 7/9/4 8/10/4 6/7/3
f 7/9/4 9/11/5 10/12/5 8/10/4
f 9/11/5 11/13/6 12/14/6 10/12/5
f 11/15/6 13/16/7 14/17/7 12/18/6
f 15/19/8 16/20/8 14/17/7 13/16/7
f 3/21/9 6/22/9 8/23/9 12/24/9
f 8/23/9 10/25/9 12/24/9
f 12/24/9 14/26/9 16/27/9 3/21/9
f 3/21/9 16/27/9 17/28/9 4/29/9
f 1/1/1 4/4/1 17/30/10 18/31/10
f 13/32/11 11/33/11 9/34/11 1/35/11
f 9/34/11 7/36/11 5/37/11 1/35/11
f 5/37/11 2/38/11 1/35/11
f 13/32/11 1/35/11 18/39/11 15/40/11
f 16/41/12 15/42/12 19/43/12 20/44/12
f 18/45/13 17/46/13 21/47/13 22/48/13
f 15/40/11 18/39/11 22/49/11 19/50/11
f 17/28/9 16/27/9 20/51/9 21/52/9
f 20/53/14 19/54/14 23/55/14 24/56/14
f 22/57/15 21/58/15 25/59/15 26/60/15
f 19/50/11 22/49/11 26/61/11 23/62/11
f 21/52/9 20/51/9 24/63/9 25/64/9
f 24/56/16 23/55/16 27/65/16 28/66/16
f 26/60/17 25/59/17 29/67/17 30/68/17
f 23/62/11 26/61/11 30/69/11 27/70/11
f 25/64/9 24/63/9 28/71/9 29/72/9
f 30/73/18 29/74/18 28/75/18 27/76/18
o r2d2
v -5.318578 6.995954 -0.451661
v -6.096305 6.818442 -0.451661
v -6.019285 6.818442 -0.114218
v -5.803483 6.818442 0.156390
v -5.491638 6.818442 0.306566
v -5.145517 6.818442 0.306567
v -4.833673 6.818442 0.156390
v -4.617870 6.818442 -0.114218
v -4.540851 6.818442 -0.451661
v -4.617870 6.818442 -0.789104
v -4.833673 6.818442 -1.059713
v -5.145517 6.818442 -1.209889
v -5.491639 6.818442 -1.209889
v -5.803483 6.818442 -1.059712
v -6.019285 6.818442 -0.789104
v -6.581210 6.274098 0.156390
v -6.719993 6.274097 -0.451662
v -6.192346 6.274097 0.644009
v -5.630422 6.274097 0.914618
v -5.006734 6.274097 0.914618
v -4.444810 6.274097 0.644010
v -4.055946 6.274097 0.156391
v -3.917162 6.274097 -0.451661
v -4.055946 6.274097 -1.059713
v -4.444810 6.274097 -1.547333
v -5.006734 6.274097 -1.817941
v -5.630423 6.274097 -1.817940
v -6.192347 6.274097 -1.547332
v -6.581210 6.274098 -1.059712
v -6.863167 5.453502 0.292173
v -7.032942 5.453502 -0.451662
v -6.387467 5.453502 0.888682
v -5.700060 5.453501 1.219720
v -4.937097 5.453501 1.219720
v -4.249690 5.453501 0.888683
v -3.773990 5.453501 0.292174
v -3.604214 5.453501 -0.451661
v -3.773989 5.453501 -1.195496
v -4.249690 5.453501 -1.792005
v -4.937097 5.453501 -2.123043
v -5.700061 5.453501 -2.123042
v -6.387467 5.453502 -1.792004
v -6.863168 5.453502 -1.195495
v -7.066115 4.795301 -0.451662
v -6.893054 4.795301 0.306566
v -6.408150 4.795301 0.914618
v -5.707442 4.795301 1.252061
v -4.929715 4.795301 1.252061
v -4.229007 4.795301 0.914618
v -3.744102 4.795301 0.306567
v -3.571041 4.795301 -0.451661
v -3.744102 4.795301 -1.209889
v -4.229007 4.795301 -1.817941
v -4.929715 4.795301 -2.155384
v -5.707443 4.795301 -2.155384
v -6.408150 4.795301 -1.817940
v -6.893055 4.795301 -1.209888
v -6.289890 0.503208 0.016098
v -6.893056 1.070108 0.306567
v -7.066116 1.070107 -0.451661
v -6.396653 0.503208 -0.451661
v -5.990747 0.503208 0.391212
v -6.408151 1.070107 0.914619
v -5.558473 0.503208 0.599384
v -5.707443 1.070107 1.252062
v -5.078685 0.503208 0.599384
v -4.929716 1.070107 1.252062
v -4.646410 0.503207 0.391212
v -4.229008 1.070106 0.914619
v -4.347267 0.503207 0.016099
v -3.744103 1.070106 0.306567
v -4.240504 0.503208 -0.451661
v -3.571042 1.070106 -0.451660
v -4.347267 0.503207 -0.919420
v -3.744103 1.070106 -1.209888
v -4.646410 0.503207 -1.294533
v -4.229008 1.070106 -1.817940
v -5.078685 0.503208 -1.502706
v -4.929716 1.070107 -2.155384
v -5.558473 0.503208 -1.502705
v -5.707443 1.070107 -2.155384
v -5.990748 0.503208 -1.294533
v -6.408151 1.070107 -1.817939
v -6.289890 0.503208 -0.919419
v -6.893056 1.070108 -1.209888
v -4.646497 5.447839 0.950156
v -4.709123 5.601368 0.961200
v -4.654936 5.586601 1.353560
v -4.598331 5.447839 1.343578
v -4.860321 5.664962 0.987860
v -4.791588 5.644078 1.377655
v -5.011518 5.601368 1.014520
v -4.928242 5.586601 1.401750
v -5.074145 5.447839 1.025562
v -4.984845 5.447839 1.411732
v -5.011518 5.294310 1.014520
v -4.928243 5.309077 1.401750
v -4.860321 5.230715 0.987860
v -4.791588 5.251600 1.377655
v -4.709124 5.294310 0.961200
v -4.654936 5.309077 1.353560
vn -0.0000 1.0000 -0.0000
vn -0.4805 0.8770 -0.0000
vn -0.4330 0.8770 0.2085
vn -0.2996 0.8770 0.3757
vn -0.1069 0.8770 0.4685
vn 0.1069 0.8770 0.4685
vn 0.2996 0.8770 0.3757
vn 0.4330 0.8770 0.2085
vn 0.4805 0.8770 -0.0000
vn 0.4330 0.8770 -0.2085
vn 0.2996 0.8770 -0.3757
vn 0.1069 0.8770 -0.4685
vn -0.1069 0.8770 -0.4685
vn -0.2996 0.8770 -0.3757
vn -0.4330 0.8770 -0.2085
vn -0.7487 0.5563 0.3606
vn -0.8310 0.5563 -0.0000
vn -0.5181 0.5563 0.6497
vn -0.1849 0.5563 0.8102
vn 0.1849 0.5563 0.8102
vn 0.5181 0.5563 0.6497
vn 0.7487 0.5563 0.3606
vn 0.8310 0.5563 -0.0000
vn 0.7487 0.5563 -0.3606
vn 0.5181 0.5563 -0.6497
vn 0.1849 0.5563 -0.8102
vn -0.1849 0.5563 -0.8102
vn -0.5181 0.5563 -0.6497
vn -0.7487 0.5563 -0.3606
vn -0.8825 0.2015 0.4250
vn -0.9795 0.2015 -0.0000
vn -0.6107 0.2015 0.7658
vn -0.2180 0.2015 0.9549
vn 0.2180 0.2015 0.9549
vn 0.6107 0.2015 0.7658
vn 0.8825 0.2015 0.4250
vn 0.9795 0.2015 -0.0000
vn 0.8825 0.2015 -0.4250
vn 0.6107 0.2015 -0.7658
vn 0.2180 0.2015 -0.9549
vn -0.2180 0.2015 -0.9549
vn -0.6107 0.2015 -0.7658
vn -0.8825 0.2015 -0.4250
vn -0.9997 0.0251 -0.0000
vn -0.9007 0.0251 0.4337
vn -0.6233 0.0251 0.7816
vn -0.2225 0.0251 0.9746
vn 0.2225 0.0251 0.9746
vn 0.6233 0.0251 0.7816
vn 0.9007 0.0251 0.4337
vn 0.9997 0.0251 -0.0000
vn 0.9007 0.0251 -0.4337
vn 0.6233 0.0251 -0.7816
vn 0.2225 0.0251 -0.9746
vn -0.2225 0.0251 -0.9746
vn -0.6233 0.0251 -0.7816
vn -0.9007 0.0251 -0.4337
vn -0.5822 -0.7631 0.2804
vn -0.6393 -0.7550 0.1459
vn -0.4029 -0.7631 0.5052
vn -0.1438 -0.7631 0.6300
vn 0.1438 -0.7631 0.6300
vn 0.4029 -0.7631 0.5052
vn 0.5822 -0.7631 0.2804
vn 0.6462 -0.7631 -0.0000
vn 0.6393 -0.7550 -0.1459
vn 0.4029 -0.7631 -0.5052
vn 0.5716 -0.3994 -0.7168
vn 0.8478 -0.2577 -0.4635
vn 0.5127 -0.7550 -0.4089
vn 0.1438 -0.7631 -0.6300
vn 0.2040 -0.3994 -0.8938
vn -0.1438 -0.7631 -0.6300
vn -0.2040 -0.3994 -0.8938
vn -0.4029 -0.7631 -0.5052
vn -0.5716 -0.3994 -0.7168
vn -0.5822 -0.7631 -0.2804
vn -0.8260 -0.3994 -0.3978
vn -0.6393 -0.7550 -0.1459
vn -0.9649 -0.2577 -0.0498
vn -0.9010 -0.0000 0.4339
vn -0.6235 -0.0000 0.7818
vn -0.2225 -0.0000 0.9749
vn 0.2225 -0.0000 0.9749
vn 0.6235 -0.0000 0.7818
vn 0.9010 -0.0000 0.4339
vn 1.0000 -0.0000 -0.0000
vn 0.9926 -0.0000 -0.1215
vn 0.7045 0.7061 -0.0707
vn 0.0091 0.9986 0.0519
vn 0.0092 0.9986 0.0519
vn -0.6862 0.7061 0.1745
vn -0.9743 -0.0000 0.2253
vn -0.6863 -0.7061 0.1745
vn 0.0092 -0.9986 0.0519
vn 0.7045 -0.7061 -0.0707
vn -0.1736 -0.0000 -0.9848
vn 0.1736 -0.0000 0.9848
vn 0.1737 -0.0000 0.9848
vn -0.0000 -1.0000 -0.0000
vt 0.374447 0.884581
vt 0.353025 0.934936
vt 0.333299 0.920654
vt 0.321722 0.899228
vt 0.320589 0.874901
vt 0.330123 0.852491
vt 0.348436 0.836437
vt 0.371901 0.829919
vt 0.395870 0.834227
vt 0.415597 0.848509
vt 0.427173 0.869935
vt 0.428306 0.894262
vt 0.418772 0.916672
vt 0.400459 0.932726
vt 0.376994 0.939244
vt 0.289688 0.958884
vt 0.330321 0.988302
vt 0.265843 0.914750
vt 0.263509 0.864641
vt 0.283147 0.818481
vt 0.320868 0.785413
vt 0.370485 0.775614
vt 0.418574 0.780861
vt 0.459207 0.810278
vt 0.483052 0.854412
vt 0.485386 0.904522
vt 0.465748 0.950682
vt 0.428027 0.983750
vt 0.379693 0.997176
vt 0.531523 0.723421
vt 0.531523 0.663960
vt 0.581758 0.663960
vt 0.581758 0.723421
vt 0.482173 0.723421
vt 0.482173 0.663960
vt 0.433188 0.723421
vt 0.433188 0.663960
vt 0.383791 0.723421
vt 0.383791 0.663960
vt 0.333493 0.723421
vt 0.333493 0.663960
vt 0.282475 0.723421
vt 0.282475 0.663960
vt 0.231484 0.723421
vt 0.231484 0.663960
vt 0.181249 0.723421
vt 0.181249 0.663960
vt 0.131900 0.723421
vt 0.131900 0.663960
vt 0.082915 0.723421
vt 0.082915 0.663960
vt 0.033517 0.723421
vt 0.033517 0.663960
vt 0.683766 0.723421
vt 0.683766 0.663960
vt 0.734064 0.663960
vt 0.734064 0.723421
vt 0.632748 0.723421
vt 0.632748 0.663960
vt 0.581758 0.771115
vt 0.531523 0.771115
vt 0.482173 0.771115
vt 0.433188 0.771115
vt 0.383791 0.771115
vt 0.333493 0.771115
vt 0.282475 0.771115
vt 0.231484 0.771115
vt 0.181249 0.771115
vt 0.131900 0.771115
vt 0.082915 0.771115
vt 0.033517 0.771115
vt 0.734064 0.771115
vt 0.683766 0.771115
vt 0.632748 0.771115
vt 0.147553 0.954585
vt 0.154682 0.996492
vt 0.105376 0.993733
vt 0.117136 0.952883
vt 0.175697 0.942921
vt 0.200303 0.977585
vt 0.195993 0.920201
vt 0.233202 0.940756
vt 0.204421 0.890925
vt 0.246863 0.893300
vt 0.199312 0.860891
vt 0.238581 0.844616
vt 0.181677 0.836049
vt 0.209997 0.804347
vt 0.155011 0.821317
vt 0.166770 0.780468
vt 0.124593 0.819615
vt 0.117464 0.777708
vt 0.096449 0.831279
vt 0.071844 0.796616
vt 0.076154 0.853999
vt 0.038945 0.833445
vt 0.067726 0.883276
vt 0.025283 0.880901
vt 0.072835 0.913309
vt 0.033565 0.929585
vt 0.090469 0.938152
vt 0.062150 0.969854
vt 0.178166 0.411911
vt 0.228257 0.411911
vt 0.228257 0.651844
vt 0.178166 0.651844
vt 0.278348 0.411911
vt 0.278348 0.651844
vt 0.328440 0.411911
vt 0.328440 0.651844
vt 0.378531 0.411911
vt 0.378531 0.651844
vt 0.428621 0.411911
vt 0.428621 0.651844
vt 0.478712 0.411911
vt 0.478712 0.651844
vt 0.528802 0.411911
vt 0.528802 0.651844
vt 0.578891 0.411911
vt 0.578891 0.651844
vt 0.628981 0.411911
vt 0.628981 0.651844
vt 0.679072 0.411911
vt 0.679072 0.651844
vt 0.729164 0.411911
vt 0.729164 0.651844
vt 0.027891 0.411911
vt 0.077983 0.411911
vt 0.077983 0.651844
vt 0.027891 0.651844
vt 0.128074 0.411911
vt 0.128074 0.651844
vt 0.519797 0.916752
vt 0.542639 0.913507
vt 0.549279 0.968132
vt 0.528634 0.971065
vt 0.565593 0.911185
vt 0.570025 0.966034
vt 0.588622 0.909791
vt 0.590839 0.964774
vt 0.611688 0.909326
vt 0.611687 0.964354
vt 0.634754 0.909792
vt 0.632536 0.964775
vt 0.657782 0.911186
vt 0.653350 0.966035
vt 0.680736 0.913508
vt 0.674096 0.968133
vt 0.703578 0.916753
vt 0.694741 0.971066
vt 4.510853 2.423783
vt 4.526998 2.380779
vt 4.533714 2.276958
vt 4.488703 2.276958
vt 4.526998 2.173139
vt 4.510853 2.130135
vt 4.495068 2.173139
vt 4.495068 2.380779
vt 0.558906 0.880288
vt 0.533075 0.890987
vt 0.507245 0.880288
vt 0.558906 0.828627
vt 0.496546 0.854457
vt 0.507245 0.828627
vt 0.533075 0.817927
vt 0.569605 0.854457
vt 0.943944 0.994940
vt 0.916605 0.994940
vt 0.891973 0.983078
vt 0.985622 0.961703
vt 0.874927 0.961703
vt 0.868844 0.935049
vt 0.891973 0.887021
vt 0.874927 0.908396
vt 0.916605 0.875159
vt 0.943944 0.875159
vt 0.985622 0.908396
vt 0.968576 0.887021
vt 0.991705 0.935050
vt 0.968576 0.983078
s 1
usemtl MaterialGrisAzuladoR2D2.001
f 31/77/19 32/78/20 33/79/21
f 31/77/19 33/79/21 34/80/22
f 31/77/19 34/80/22 35/81/23
f 31/77/19 35/81/23 36/82/24
f 31/77/19 36/82/24 37/83/25
f 31/77/19 37/83/25 38/84/26
f 31/77/19 38/84/26 39/85/27
f 31/77/19 39/85/27 40/86/28
f 31/77/19 40/86/28 41/87/29
f 31/77/19 41/87/29 42/88/30
f 31/77/19 42/88/30 43/89/31
f 31/77/19 43/89/31 44/90/32
f 31/77/19 44/90/32 45/91/33
f 31/77/19 45/91/33 32/78/20
f 46/92/34 33/79/21 32/78/20 47/93/35
f 48/94/36 34/80/22 33/79/21 46/92/34
f 49/95/37 35/81/23 34/80/22 48/94/36
f 50/96/38 36/82/24 35/81/23 49/95/37
f 51/97/39 37/83/25 36/82/24 50/96/38
f 52/98/40 38/84/26 37/83/25 51/97/39
f 53/99/41 39/85/27 38/84/26 52/98/40
f 54/100/42 40/86/28 39/85/27 53/99/41
f 55/101/43 41/87/29 40/86/28 54/100/42
f 56/102/44 42/88/30 41/87/29 55/101/43
f 57/103/45 43/89/31 42/88/30 56/102/44
f 58/104/46 44/90/32 43/89/31 57/103/45
f 59/105/47 45/91/33 44/90/32 58/104/46
f 47/93/35 32/78/20 45/91/33 59/105/47
f 60/106/48 46/107/34 47/108/35 61/109/49
f 62/110/50 48/111/36 46/107/34 60/106/48
f 63/112/51 49/113/37 48/111/36 62/110/50
f 64/114/52 50/115/38 49/113/37 63/112/51
f 65/116/53 51/117/39 50/115/38 64/114/52
f 66/118/54 52/119/40 51/117/39 65/116/53
f 67/120/55 53/121/41 52/119/40 66/118/54
f 68/122/56 54/123/42 53/121/41 67/120/55
f 69/124/57 55/125/43 54/123/42 68/122/56
f 70/126/58 56/127/44 55/125/43 69/124/57
f 71/128/59 57/129/45 56/127/44 70/126/58
f 72/130/60 58/131/46 57/132/45 71/133/59
f 73/134/61 59/135/47 58/131/46 72/130/60
f 61/109/49 47/108/35 59/135/47 73/134/61
f 74/136/62 75/137/63 60/106/48 61/109/49
f 75/137/63 76/138/64 62/110/50 60/106/48
f 76/138/64 77/139/65 63/112/51 62/110/50
f 77/139/65 78/140/66 64/114/52 63/112/51
f 78/140/66 79/141/67 65/116/53 64/114/52
f 79/141/67 80/142/68 66/118/54 65/116/53
f 80/142/68 81/143/69 67/120/55 66/118/54
f 81/143/69 82/144/70 68/122/56 67/120/55
f 82/144/70 83/145/71 69/124/57 68/122/56
f 83/145/71 84/146/72 70/126/58 69/124/57
f 84/146/72 85/147/73 71/128/59 70/126/58
f 85/148/73 86/149/74 72/130/60 71/133/59
f 86/149/74 87/150/75 73/134/61 72/130/60
f 87/150/75 74/136/62 61/109/49 73/134/61
f 88/151/76 89/152/76 90/153/77 91/154/77
f 92/155/78 93/156/78 89/152/76 88/151/76
f 94/157/79 95/158/79 93/156/78 92/155/78
f 96/159/80 97/160/80 95/158/79 94/157/79
f 98/161/81 99/162/81 97/160/80 96/159/80
f 100/163/82 101/164/82 99/162/81 98/161/81
f 102/165/83 103/166/83 101/164/82 100/163/82
f 104/167/84 105/168/84 103/166/83 102/165/83
f 106/169/85 107/170/86 105/168/87 104/167/88
f 108/171/89 109/172/90 107/170/86 106/169/85
f 110/173/91 111/174/92 109/172/90 108/171/89
f 112/175/93 113/176/94 111/174/92 110/173/91
f 114/177/95 115/178/96 113/176/94 112/175/93
f 91/154/97 90/153/98 115/178/96 114/177/95
f 90/179/98 89/180/99 75/181/63 74/182/62
f 89/180/99 93/183/100 76/184/64 75/181/63
f 93/183/100 95/185/101 77/186/65 76/184/64
f 95/185/101 97/187/102 78/188/66 77/186/65
f 97/187/102 99/189/103 79/190/67 78/188/66
f 99/189/103 101/191/104 80/192/68 79/190/67
f 101/191/104 103/193/105 81/194/69 80/192/68
f 103/193/105 105/195/87 82/196/70 81/194/69
f 105/195/87 107/197/86 83/198/71 82/196/70
f 107/197/86 109/199/90 84/200/72 83/198/71
f 109/199/90 111/201/92 85/202/73 84/200/72
f 111/203/92 113/204/94 86/205/74 85/206/73
f 113/204/94 115/207/96 87/208/75 86/205/74
f 115/207/96 90/179/98 74/182/62 87/208/75
f 116/209/106 117/210/107 118/211/107 119/212/106
f 117/210/107 120/213/108 121/214/109 118/211/107
f 120/213/108 122/215/110 123/216/110 121/214/109
f 122/215/110 124/217/111 125/218/111 123/216/110
f 124/217/111 126/219/112 127/220/112 125/218/111
f 126/219/112 128/221/113 129/222/113 127/220/112
f 128/221/113 130/223/114 131/224/114 129/222/113
f 130/223/114 116/225/106 119/226/106 131/224/114
f 128/227/115 126/228/115 124/229/115 116/230/115
f 124/229/115 122/231/115 120/232/115 116/230/115
f 120/232/115 117/233/115 116/230/115
f 130/234/115 128/227/115 116/230/115
f 118/235/116 121/236/116 123/237/116 131/238/116
f 123/237/116 125/239/116 127/240/116 131/238/116
f 127/240/116 129/241/116 131/238/116
f 119/242/117 118/235/116 131/238/116
f 114/243/118 112/244/118 110/245/118 88/246/118
f 110/245/118 108/247/118 106/248/118 102/249/118
f 106/248/118 104/250/118 102/249/118
f 102/249/118 100/251/118 98/252/118 94/253/118
f 98/252/118 96/254/118 94/253/118
f 94/253/118 92/255/118 88/246/118 102/249/118
f 110/245/118 102/249/118 88/246/118
f 91/256/118 114/243/118 88/246/118
o brazo_izq
v -7.096455 3.968947 -1.328856
v -7.640675 3.968947 -1.328855
v -7.640675 4.406278 -1.211673
v -7.096455 4.406279 -1.211673
v -7.640675 4.726427 -0.891525
v -7.096455 4.726427 -0.891525
v -7.640675 4.843609 -0.454194
v -7.096455 4.843609 -0.454194
v -7.640673 4.726427 -0.016863
v -7.096455 4.726427 -0.016863
v -7.640673 4.406278 0.303285
v -7.096455 4.406279 0.303285
v -7.640673 3.968947 0.420468
v -7.096454 3.968947 0.420468
v -7.096454 2.969021 0.415862
v -7.640673 2.969020 0.415863
v -7.640673 2.969020 -1.324250
v -7.096455 2.969020 -1.324250
v -7.640673 2.681606 0.023447
v -7.096454 2.681606 0.023447
v -7.096455 2.681606 -0.931835
v -7.640673 2.681606 -0.931834
v -7.640672 0.452922 0.023449
v -7.096454 0.452923 0.023448
v -7.096454 0.452922 -0.931833
v -7.640673 0.452922 -0.931833
v -7.640672 0.236141 -0.157453
v -7.096454 0.236141 -0.157453
v -7.096454 0.236141 -0.750935
v -7.640672 0.236141 -0.750935
vn -0.0000 0.1282 -0.9917
vn -0.0000 0.5000 -0.8660
vn -0.0000 0.8660 -0.5000
vn -0.0000 1.0000 -0.0000
vn -0.0000 0.8660 0.5000
vn -0.0000 0.5000 0.8660
vn -0.0000 0.1282 0.9917
vn -0.0000 -0.0046 1.0000
vn -1.0000 -0.0000 -0.0000
vn -0.0000 -0.0046 -1.0000
vn 1.0000 -0.0000 -0.0000
vn -0.0000 -0.8068 0.5909
vn -0.0000 -0.8068 -0.5909
vn -0.0000 -0.0000 1.0000
vn -0.0000 -0.0000 -1.0000
vn -0.0000 -0.6407 0.7678
vn -0.0000 -0.6407 -0.7678
vn -0.0000 -1.0000 -0.0000
vt 0.371099 0.017176
vt 0.371099 0.072418
vt 0.415491 0.072418
vt 0.415491 0.017176
vt 0.336287 0.368834
vt 0.336287 0.313592
vt 0.303789 0.313592
vt 0.303789 0.368834
vt 0.259397 0.313592
vt 0.259397 0.368834
vt 0.215005 0.313592
vt 0.215005 0.368834
vt 0.182508 0.313592
vt 0.182508 0.368834
vt 0.183247 0.075473
vt 0.183247 0.020231
vt 0.138855 0.020231
vt 0.138855 0.075473
vt 0.037355 0.075473
vt 0.037355 0.020231
vt 0.709992 0.826813
vt 0.709585 0.915199
vt 0.719943 0.953856
vt 0.853855 0.953856
vt 0.748242 0.982155
vt 0.786899 0.992513
vt 0.825556 0.982155
vt 0.863806 0.826813
vt 0.864214 0.915199
vt 0.269600 0.017176
vt 0.269600 0.072418
vt 0.854627 0.765023
vt 0.863298 0.797382
vt 0.886986 0.821070
vt 0.951703 0.821070
vt 0.919345 0.829741
vt 0.975392 0.797382
vt 0.984062 0.765023
vt 0.854968 0.691038
vt 0.983721 0.691038
vt 0.187158 0.020231
vt 0.187158 0.060064
vt 0.242400 0.060064
vt 0.242400 0.020231
vt 0.474645 0.057009
vt 0.474645 0.017176
vt 0.419403 0.017176
vt 0.419403 0.057009
vt 0.954686 0.669772
vt 0.884003 0.669772
vt 0.829119 0.801408
vt 0.744679 0.801408
vt 0.745929 0.078181
vt 0.519702 0.078181
vt 0.519702 0.133423
vt 0.745929 0.133423
vt 0.745929 0.019028
vt 0.519702 0.019027
vt 0.519702 0.074269
vt 0.745929 0.074269
vt 0.954686 0.504869
vt 0.884003 0.504869
vt 0.829119 0.604407
vt 0.744679 0.604407
vt 0.497697 0.078181
vt 0.497697 0.133423
vt 0.497697 0.019027
vt 0.497697 0.074269
vt 0.941301 0.488829
vt 0.897388 0.488829
vt 0.813129 0.585245
vt 0.760670 0.585245
vt 0.340198 0.368834
vt 0.400441 0.368834
vt 0.400441 0.313592
vt 0.340198 0.313592
s 1
usemtl MaterialGrisAzuladoR2D2.001
f 132/257/119 133/258/119 134/259/120 135/260/120
f 135/261/120 134/262/120 136/263/121 137/264/121
f 137/264/121 136/263/121 138/265/122 139/266/122
f 139/266/122 138/265/122 140/267/123 141/268/123
f 141/268/123 140/267/123 142/269/124 143/270/124
f 143/271/124 142/272/124 144/273/125 145/274/125
f 146/275/126 145/274/125 144/273/125 147/276/126
f 147/277/127 144/278/127 142/279/127 134/280/127
f 142/279/127 140/281/127 138/282/127 134/280/127
f 138/282/127 136/283/127 134/280/127
f 148/284/127 147/277/127 134/280/127 133/285/127
f 132/257/119 149/286/128 148/287/128 133/258/119
f 132/288/129 135/289/129 137/290/129 141/291/129
f 137/290/129 139/292/129 141/291/129
f 141/291/129 143/293/129 145/294/129 132/288/129
f 149/295/129 132/288/129 145/294/129 146/296/129
f 147/297/130 150/298/130 151/299/130 146/300/130
f 149/301/131 152/302/131 153/303/131 148/304/131
f 146/296/129 151/305/129 152/306/129 149/295/129
f 148/284/127 153/307/127 150/308/127 147/277/127
f 150/309/132 154/310/132 155/311/132 151/312/132
f 152/313/133 156/314/133 157/315/133 153/316/133
f 151/305/129 155/317/129 156/318/129 152/306/129
f 153/307/127 157/319/127 154/320/127 150/308/127
f 154/310/134 158/321/134 159/322/134 155/311/134
f 156/314/135 160/323/135 161/324/135 157/315/135
f 155/317/129 159/325/129 160/326/129 156/318/129
f 157/319/127 161/327/127 158/328/127 154/320/127
f 160/329/136 159/330/136 158/331/136 161/332/136
o dedo_der
v -4.243728 -0.502463 -1.041130
v -4.243728 0.446997 -1.041130
v -4.095243 0.595483 -1.041130
v -3.574477 0.446997 -1.041130
v -3.722963 0.595483 -1.041130
v -3.574478 -0.502463 -1.041130
v -3.722963 -0.650948 -1.041130
v -4.095243 -0.650948 -1.041130
v -4.095243 -0.650948 0.148737
v -3.722963 -0.650948 0.148738
v -3.574478 -0.502463 0.148738
v -3.722963 0.595483 0.148738
v -3.574477 0.446997 0.148738
v -4.095243 0.595483 0.148738
v -4.243728 0.446997 0.148737
v -4.243728 -0.502463 0.148737
vn -0.0000 -0.0000 -1.0000
vn -0.0000 -0.0000 1.0000
vn -0.0000 -1.0000 -0.0000
vn 1.0000 -0.0000 -0.0000
vn -0.0000 1.0000 -0.0000
vn -1.0000 -0.0000 -0.0000
vn 0.7071 -0.7071 -0.0000
vn -0.7071 -0.7071 -0.0000
vn 0.7071 0.7071 -0.0000
vn -0.7071 0.7071 -0.0000
vt 0.430240 0.171471
vt 0.430239 0.282650
vt 0.412851 0.300035
vt 0.351872 0.282647
vt 0.369259 0.300034
vt 0.351875 0.171469
vt 0.369262 0.154083
vt 0.412854 0.154084
vt 0.586953 0.154084
vt 0.630545 0.154083
vt 0.647932 0.171469
vt 0.630548 0.300034
vt 0.647934 0.282647
vt 0.586956 0.300035
vt 0.569568 0.282649
vt 0.569567 0.171471
vt 0.154165 0.305363
vt 0.154165 0.266346
vt 0.278870 0.266346
vt 0.278870 0.305363
vt 0.026319 0.365855
vt 0.026319 0.266346
vt 0.151024 0.266346
vt 0.151024 0.365855
vt 0.430239 0.350833
vt 0.430239 0.307240
vt 0.569567 0.307240
vt 0.569567 0.350833
vt 0.026319 0.381417
vt 0.151024 0.381417
vt 0.569567 0.146882
vt 0.430239 0.146882
vt 0.430239 0.375422
vt 0.569567 0.375422
s 1
usemtl MaterialGrisAzuladoR2D2.001
f 162/333/137 163/334/137 164/335/137 165/336/137
f 164/335/137 166/337/137 165/336/137
f 165/336/137 167/338/137 168/339/137 162/333/137
f 169/340/137 162/333/137 168/339/137
f 170/341/138 171/342/138 172/343/138 173/344/138
f 172/343/138 174/345/138 173/344/138
f 173/344/138 175/346/138 176/347/138 170/341/138
f 177/348/138 170/341/138 176/347/138
f 169/349/139 168/350/139 171/351/139 170/352/139
f 167/353/140 165/354/140 174/355/140 172/356/140
f 166/357/141 164/358/141 175/359/141 173/360/141
f 163/334/142 162/333/142 177/348/142 176/347/142
f 168/361/143 167/353/143 172/356/143 171/362/143
f 170/363/144 177/348/144 162/333/144 169/364/144
f 165/365/145 166/357/145 173/360/145 174/366/145
f 164/358/146 163/334/146 176/347/146 175/359/146
o mano_der
v -4.119702 -0.957818 0.908457
v -4.119702 -0.750459 0.908457
v -4.119701 -0.750459 -1.816828
v -4.119701 -0.957818 -1.816828
v -2.472870 -0.957818 0.908457
v -2.472869 -0.957818 -1.816827
v -2.472869 -0.750459 -1.816827
v -2.472870 -0.750459 0.908457
v -3.682531 0.303505 -1.086782
v -3.682531 0.303505 0.178411
v -2.910039 0.303505 0.178412
v -2.910039 0.303505 -1.086782
vn -1.0000 -0.0000 -0.0000
vn 1.0000 -0.0000 -0.0000
vn -0.0000 -1.0000 -0.0000
vn -0.0000 -0.0000 -1.0000
vn -0.0000 1.0000 -0.0000
vn -0.0000 -0.0000 1.0000
vn -0.9237 0.3831 -0.0000
vn -0.0000 0.5694 0.8221
vn 0.9237 0.3831 -0.0000
vn -0.0000 0.5694 -0.8221
vt 0.678087 0.149722
vt 0.696535 0.149721
vt 0.696548 0.392167
vt 0.678101 0.392168
vt 0.986719 0.149701
vt 0.986736 0.392147
vt 0.968288 0.392148
vt 0.968272 0.149702
vt 0.311944 0.262158
vt 0.026319 0.262158
vt 0.026319 0.089560
vt 0.311944 0.089561
vt 0.759183 0.459730
vt 0.759179 0.441283
vt 0.905685 0.441259
vt 0.905688 0.459706
vt 0.798052 0.327215
vt 0.798048 0.214661
vt 0.866770 0.214655
vt 0.866774 0.327209
vt 0.759136 0.100612
vt 0.759133 0.082165
vt 0.905637 0.082139
vt 0.905641 0.100587
s 1
usemtl MaterialGrisAzuladoR2D2.001
f 178/367/147 179/368/147 180/369/147 181/370/147
f 182/371/148 183/372/148 184/373/148 185/374/148
f 178/375/149 181/376/149 183/377/149 182/378/149
f 181/379/150 180/380/150 184/381/150 183/382/150
f 186/383/151 187/384/151 188/385/151 189/386/151
f 179/387/152 178/388/152 182/389/152 185/390/152
f 180/369/153 179/368/153 187/384/153 186/383/153
f 179/387/154 185/390/154 188/385/154 187/384/154
f 185/374/155 184/373/155 189/386/155 188/385/155
f 184/381/156 180/380/156 186/383/156 189/386/156
o dedo_izq
v -6.937993 -0.650948 -1.041130
v -7.086479 -0.502463 -1.041129
v -7.086479 0.446997 -1.041129
v -6.417228 -0.502463 -1.041130
v -6.937994 0.595483 -1.041130
v -6.565714 0.595483 -1.041130
v -6.417228 0.446997 -1.041130
v -6.565714 -0.650948 -1.041130
v -6.417228 0.446997 0.148738
v -6.565714 0.595483 0.148738
v -6.937994 0.595483 0.148738
v -6.565714 -0.650948 0.148738
v -7.086479 0.446997 0.148738
v -7.086479 -0.502463 0.148738
v -6.937993 -0.650948 0.148738
v -6.417228 -0.502463 0.148737
vn -0.0000 -0.0000 -1.0000
vn -0.0000 -0.0000 1.0000
vn -0.0000 -1.0000 -0.0000
vn -1.0000 -0.0000 -0.0000
vn -0.0000 1.0000 -0.0000
vn 1.0000 -0.0000 -0.0000
vn -0.7071 -0.7071 -0.0000
vn 0.7071 -0.7071 -0.0000
vn -0.7071 0.7071 -0.0000
vn 0.7071 0.7071 -0.0000
vt 0.369262 0.154083
vt 0.351875 0.171469
vt 0.351872 0.282647
vt 0.430240 0.171471
vt 0.369259 0.300034
vt 0.412851 0.300035
vt 0.430239 0.282650
vt 0.412854 0.154084
vt 0.569568 0.282649
vt 0.586956 0.300035
vt 0.630548 0.300034
vt 0.586953 0.154084
vt 0.647934 0.282647
vt 0.647932 0.171469
vt 0.630545 0.154083
vt 0.569567 0.171471
vt 0.154165 0.305363
vt 0.278870 0.305363
vt 0.278870 0.266346
vt 0.154165 0.266346
vt 0.026319 0.365855
vt 0.151024 0.365855
vt 0.151024 0.266346
vt 0.026319 0.266346
vt 0.430239 0.350833
vt 0.569567 0.350833
vt 0.569567 0.307240
vt 0.430239 0.307240
vt 0.026319 0.381417
vt 0.151024 0.381417
vt 0.569567 0.146882
vt 0.430239 0.146882
vt 0.430239 0.375422
vt 0.569567 0.375422
s 1
usemtl MaterialGrisAzuladoR2D2.001
f 190/391/157 191/392/157 192/393/157 193/394/157
f 192/393/157 194/395/157 195/396/157 193/394/157
f 195/396/157 196/397/157 193/394/157
f 197/398/157 190/391/157 193/394/157
f 198/399/158 199/400/158 200/401/158 201/402/158
f 200/401/158 202/403/158 203/404/158 201/402/158
f 203/404/158 204/405/158 201/402/158
f 205/406/158 198/399/158 201/402/158
f 197/407/159 201/408/159 204/409/159 190/410/159
f 191/411/160 203/412/160 202/413/160 192/414/160
f 194/415/161 200/416/161 199/417/161 195/418/161
f 196/397/162 198/399/162 205/406/162 193/394/162
f 190/419/163 204/420/163 203/412/163 191/411/163
f 201/421/164 197/422/164 193/394/164 205/406/164
f 192/423/165 202/424/165 200/416/165 194/415/165
f 195/418/166 199/417/166 198/399/166 196/397/166
o mano_izq
v -6.541255 -0.957818 0.908457
v -6.541255 -0.957818 -1.816827
v -6.541255 -0.750459 -1.816827
v -6.541255 -0.750459 0.908457
v -8.188087 -0.957818 0.908458
v -8.188087 -0.750459 0.908458
v -8.188087 -0.750459 -1.816827
v -8.188087 -0.957818 -1.816827
v -6.978426 0.303505 -1.086782
v -7.750918 0.303505 -1.086782
v -7.750917 0.303505 0.178412
v -6.978425 0.303505 0.178412
vn 1.0000 -0.0000 -0.0000
vn -1.0000 -0.0000 -0.0000
vn -0.0000 -1.0000 -0.0000
vn -0.0000 -0.0000 -1.0000
vn -0.0000 1.0000 -0.0000
vn -0.0000 -0.0000 1.0000
vn 0.9237 0.3831 -0.0000
vn -0.0000 0.5694 0.8221
vn -0.9237 0.3831 -0.0000
vn -0.0000 0.5694 -0.8221
vt 0.678087 0.149722
vt 0.678101 0.392168
vt 0.696548 0.392167
vt 0.696535 0.149721
vt 0.986719 0.149701
vt 0.968272 0.149702
vt 0.968288 0.392148
vt 0.986736 0.392147
vt 0.311944 0.262158
vt 0.311944 0.089561
vt 0.026319 0.089560
vt 0.026319 0.262158
vt 0.759183 0.459730
vt 0.905688 0.459706
vt 0.905685 0.441259
vt 0.759179 0.441283
vt 0.798052 0.327215
vt 0.866774 0.327209
vt 0.866770 0.214655
vt 0.798048 0.214661
vt 0.759136 0.100612
vt 0.905641 0.100587
vt 0.905637 0.082139
vt 0.759133 0.082165
s 1
usemtl MaterialGrisAzuladoR2D2.001
f 206/425/167 207/426/167 208/427/167 209/428/167
f 210/429/168 211/430/168 212/431/168 213/432/168
f 206/433/169 210/434/169 213/435/169 207/436/169
f 207/437/170 213/438/170 212/439/170 208/440/170
f 214/441/171 215/442/171 216/443/171 217/444/171
f 209/445/172 211/446/172 210/447/172 206/448/172
f 208/427/173 214/441/173 217/444/173 209/428/173
f 209/445/174 217/444/174 216/443/174 211/446/174
f 211/430/175 216/443/175 215/442/175 212/431/175
f 212/439/176 215/442/176 214/441/176 208/440/176
o piernas
v -5.270467 1.767715 -0.097376
v -5.270467 0.102810 -0.097376
v -5.064284 0.102810 -0.097376
v -5.064284 1.767715 -0.097376
v -5.064284 1.767715 -0.811005
v -5.064284 0.102810 -0.811005
v -5.270467 -0.059133 -0.232516
v -5.064284 -0.059133 -0.232516
v -5.064284 -0.059133 -0.675868
v -5.270467 0.102810 -0.811005
v -5.270467 1.767715 -0.811005
v -5.270467 -0.059133 -0.675868
v -5.476650 1.767715 -0.097376
v -5.476650 0.102810 -0.097376
v -5.476651 1.767715 -0.811005
v -5.476650 0.102810 -0.811005
v -5.476650 -0.059133 -0.232516
v -5.476650 -0.059133 -0.675868
vn -0.0000 -0.0000 1.0000
vn 1.0000 -0.0000 -0.0000
vn -0.0000 -0.6407 0.7678
vn -0.0000 -0.0000 -1.0000
vn -0.0000 -0.6407 -0.7678
vn -0.0000 -1.0000 -0.0000
vn -1.0000 -0.0000 -0.0000
vt 0.745929 0.106197
vt 0.519702 0.106197
vt 0.519702 0.078181
vt 0.745929 0.078181
vt 0.829119 0.801408
vt 0.744679 0.801408
vt 0.744679 0.604407
vt 0.829119 0.604407
vt 0.497697 0.106197
vt 0.497697 0.078181
vt 0.760670 0.585245
vt 0.813129 0.585245
vt 0.745929 0.074269
vt 0.519702 0.074269
vt 0.519702 0.046253
vt 0.745929 0.046253
vt 0.497697 0.074269
vt 0.497697 0.046253
vt 0.340198 0.313592
vt 0.400441 0.313592
vt 0.400441 0.341608
vt 0.340198 0.341608
s 1
usemtl MaterialGrisAzuladoR2D2.001
f 218/449/177 219/450/177 220/451/177 221/452/177
f 222/453/178 221/454/178 220/455/178 223/456/178
f 219/450/179 224/457/179 225/458/179 220/451/179
f 223/456/178 220/455/178 225/459/178 226/460/178
f 222/461/180 223/462/180 227/463/180 228/464/180
f 223/462/181 226/465/181 229/466/181 227/463/181
f 226/467/182 225/468/182 224/469/182 229/470/182
f 218/449/177 230/452/177 231/451/177 219/450/177
f 232/453/183 233/456/183 231/455/183 230/454/183
f 219/450/179 231/451/179 234/458/179 224/457/179
f 233/456/183 235/460/183 234/459/183 231/455/183
f 232/461/180 228/464/180 227/463/180 233/462/180
f 233/462/181 227/463/181 229/466/181 235/465/181
f 235/467/182 229/470/182 224/469/182 234/468/182
o pies
v -4.655347 -0.951063 0.563757
v -4.655346 -0.951063 -1.472127
v -4.655346 -0.796158 -1.472127
v -4.655347 -0.796158 0.563757
v -4.981927 -0.008810 -0.926757
v -4.981928 -0.008810 0.018387
v -5.270467 -0.796158 -1.472127
v -5.270467 -0.008810 -0.926757
v -5.270467 -0.951063 0.563757
v -5.270467 -0.951063 -1.472127
v -5.270467 -0.008810 0.018387
v -5.270467 -0.796158 0.563757
v -5.885587 -0.951063 0.563757
v -5.885588 -0.796158 0.563757
v -5.885588 -0.796158 -1.472127
v -5.885588 -0.951063 -1.472127
v -5.559007 -0.008810 0.018387
v -5.559007 -0.008810 -0.926757
vn 1.0000 -0.0000 -0.0000
vn 0.9237 0.3831 -0.0000
vn -0.0000 0.5694 -0.8221
vn -0.0000 -1.0000 -0.0000
vn -0.0000 -0.0000 -1.0000
vn -0.0000 1.0000 -0.0000
vn -0.0000 -0.0000 1.0000
vn -0.0000 0.5694 0.8221
vn -1.0000 -0.0000 -0.0000
vn -0.9237 0.3831 -0.0000
vt 0.986719 0.149701
vt 0.986736 0.392147
vt 0.968288 0.392148
vt 0.968272 0.149702
vt 0.866774 0.327209
vt 0.866770 0.214655
vt 0.832432 0.441271
vt 0.832413 0.327212
vt 0.905685 0.441259
vt 0.026319 0.089560
vt 0.311944 0.089561
vt 0.311944 0.175859
vt 0.026319 0.175859
vt 0.905688 0.459706
vt 0.832435 0.459718
vt 0.832409 0.214658
vt 0.905637 0.082139
vt 0.905641 0.100587
vt 0.832389 0.100599
vt 0.832385 0.082152
s 1
usemtl MaterialGrisAzuladoR2D2.001
f 236/471/184 237/472/184 238/473/184 239/474/184
f 239/474/185 238/473/185 240/475/185 241/476/185
f 242/477/186 243/478/186 240/475/186 238/479/186
f 237/480/187 236/481/187 244/482/187 245/483/187
f 238/479/188 237/484/188 245/485/188 242/477/188
f 241/476/189 240/475/189 243/478/189 246/486/189
f 236/487/190 239/488/190 247/489/190 244/490/190
f 247/489/191 239/488/191 241/476/191 246/486/191
f 248/471/192 249/474/192 250/473/192 251/472/192
f 249/474/193 252/476/193 253/475/193 250/473/193
f 242/477/186 250/479/186 253/475/186 243/478/186
f 251/480/187 245/483/187 244/482/187 248/481/187
f 250/479/188 242/477/188 245/485/188 251/484/188
f 252/476/189 246/486/189 243/478/189 253/475/189
f 248/487/190 244/490/190 247/489/190 249/488/190
f 247/489/191 246/486/191 252/476/191 249/488/191
