# Blender 4.5.2 LTS
# www.blender.org
mtllib cola.mtl
o cola
v -0.175450 5.477540 -2.589861
v -0.250983 5.443100 -2.664931
v 0.059648 5.510320 -2.429481
v -0.019601 5.505130 -2.511701
v -0.099058 5.493980 -2.591751
v -0.178969 5.475630 -2.669081
v -0.316373 5.385030 -2.736301
v -0.255007 5.438830 -2.744161
v -0.368362 5.304300 -2.799281
v -0.404263 5.213860 -2.853431
v 0.294349 5.449410 -2.408111
v 0.216291 5.478140 -2.417651
v 0.138353 5.498640 -2.424711
v 0.058518 5.502410 -2.508801
v -0.020925 5.499330 -2.591611
v -0.101334 5.491000 -2.671371
v -0.183570 5.475440 -2.748581
v -0.260160 5.436240 -2.823961
v -0.321455 5.370420 -2.814051
v -0.372580 5.281580 -2.875261
v -0.401674 5.182920 -2.929051
v -0.424462 5.113940 -2.897941
v -0.450068 5.047560 -2.865011
v 0.289287 5.436090 -2.484721
v 0.212466 5.468340 -2.496161
v 0.136601 5.490610 -2.503811
v 0.057396 5.495750 -2.588861
v -0.023068 5.494630 -2.671861
v -0.105348 5.489750 -2.751561
v -0.189129 5.479990 -2.828731
v -0.270727 5.432730 -2.904831
v -0.335011 5.350350 -2.891761
v -0.377517 5.253960 -2.953441
v -0.409468 5.073370 -2.966871
v -0.393835 5.139460 -3.007501
v -0.427914 5.008290 -2.927351
v -0.447192 4.943670 -2.888501
v -0.426820 4.840220 -2.897781
v 0.374049 5.388570 -2.467021
v 0.275562 5.430320 -2.565261
v 0.208228 5.462350 -2.576161
v 0.134766 5.484400 -2.583881
v 0.055584 5.491710 -2.669981
v -0.026193 5.491980 -2.752351
v -0.110325 5.492190 -2.831601
v -0.195192 5.485970 -2.909191
v -0.311673 5.392680 -2.982391
v -0.348456 5.325190 -2.970781
v -0.378998 5.215270 -3.035091
v -0.379339 5.025830 -3.027091
v -0.367423 5.085900 -3.077611
v -0.393186 4.963490 -2.981881
v -0.409166 4.901490 -2.939141
v -0.370782 4.802810 -2.929991
v 0.501328 5.275720 -2.489641
v 0.440434 5.317950 -2.514861
v 0.382822 5.359540 -2.536231
v 0.327808 5.397790 -2.552521
v 0.274288 5.422360 -2.645001
v 0.208579 5.458530 -2.656761
v 0.133662 5.481690 -2.665311
v 0.054732 5.491040 -2.750921
v -0.029577 5.492560 -2.832731
v -0.116436 5.498420 -2.910591
v -0.202348 5.489130 -2.989481
v -0.265657 5.448340 -2.988811
v -0.356876 5.293370 -3.056281
v -0.324546 5.377500 -3.056951
v -0.320114 5.036440 -3.126441
v -0.329440 4.979260 -3.072841
v -0.340395 4.921371 -3.021401
v -0.354534 4.862330 -2.974181
v -0.304286 4.770770 -2.947221
v 0.553502 5.192950 -2.533281
v 0.495521 5.240140 -2.558731
v 0.438694 5.287130 -2.584261
v 0.383673 5.334370 -2.607661
v 0.330818 5.379490 -2.628501
v 0.279865 5.412930 -2.724681
v 0.215423 5.459340 -2.737521
v 0.135113 5.484090 -2.746931
v 0.052025 5.494490 -2.832621
v -0.035271 5.500740 -2.911871
v -0.124073 5.508250 -2.988341
v -0.214449 5.497770 -3.067571
v -0.280738 5.446170 -3.070931
v -0.366764 5.179050 -3.084321
v -0.353788 5.249140 -3.131241
v -0.312616 5.092670 -3.182531
v -0.354529 5.142840 -3.133541
v -0.266878 4.938950 -3.102681
v -0.259459 4.994260 -3.159831
v -0.276331 4.884510 -3.046301
v -0.288269 4.828890 -2.993511
v -0.233661 4.743650 -2.952691
v 0.596781 5.101070 -2.573641
v 0.541206 5.151360 -2.599391
v 0.487564 5.202740 -2.626431
v 0.435199 5.254660 -2.653911
v 0.384523 5.307600 -2.680941
v 0.333953 5.360810 -2.705351
v 0.294015 5.397530 -2.803751
v 0.239586 5.449480 -2.818641
v 0.132703 5.491310 -2.830861
v 0.047884 5.503480 -2.911821
v -0.042645 5.515150 -2.988411
v -0.133308 5.522760 -3.063691
v -0.222274 5.512520 -3.145311
v -0.287849 5.449060 -3.166921
v -0.332092 5.358990 -3.117311
v -0.335717 5.317400 -3.175421
v -0.337405 5.202400 -3.185371
v -0.251648 5.049720 -3.216441
v -0.297070 5.151830 -3.232261
v -0.196940 4.907520 -3.120191
v -0.189909 4.961120 -3.181641
v -0.216969 4.801120 -3.001221
v -0.205137 4.854580 -3.058721
v 0.577971 5.054720 -2.635231
v 0.526779 5.108090 -2.663031
v 0.478060 5.163000 -2.692351
v 0.431497 5.219640 -2.723081
v 0.386731 5.278320 -2.753501
v 0.342416 5.337820 -2.781971
v 0.316466 5.372650 -2.888581
v 0.264656 5.436470 -2.903201
v 0.130947 5.501250 -2.912581
v 0.041040 5.518140 -2.990031
v -0.051452 5.534250 -3.062761
v -0.141950 5.543800 -3.136801
v -0.220856 5.539650 -3.221151
v -0.272493 5.487990 -3.247041
v -0.313964 5.382990 -3.222161
v -0.319754 5.263010 -3.233341
v -0.241376 5.106390 -3.269721
v -0.183655 5.014440 -3.241701
v -0.284992 5.208690 -3.283701
v -0.115219 4.939440 -3.195761
v -0.122111 4.883580 -3.128101
v -0.143314 4.776620 -3.001091
v -0.131112 4.829850 -3.061341
v 0.630900 5.002570 -2.608821
v 0.556000 5.006590 -2.693731
v 0.509694 5.062500 -2.724021
v 0.466664 5.120650 -2.756091
v 0.427186 5.181060 -2.790141
v 0.391453 5.244170 -2.824421
v 0.355961 5.308150 -2.857881
v 0.186144 5.470390 -2.824751
v 0.207376 5.480720 -2.911481
v 0.126095 5.515120 -2.993941
v 0.031828 5.538690 -3.064871
v -0.060664 5.559860 -3.134641
v -0.148372 5.572870 -3.207591
v -0.264291 5.534410 -3.317411
v -0.222866 5.574920 -3.294721
v -0.293913 5.432830 -3.288941
v -0.303589 5.321560 -3.282841
v -0.231310 5.161880 -3.322831
v -0.175106 5.070170 -3.296801
v -0.109415 4.990820 -3.258021
v -0.271748 5.264660 -3.334921
v -0.068270 4.755510 -2.994511
v -0.055399 4.810300 -3.053941
v 0.605259 4.952540 -2.665611
v 0.530994 4.956900 -2.750021
v 0.490420 5.015140 -2.783211
v 0.454594 5.075880 -2.818431
v 0.423018 5.139320 -2.855041
v 0.396499 5.205450 -2.893231
v 0.370053 5.270460 -2.932271
v 0.344460 5.329870 -2.971321
v 0.216089 5.492230 -3.006541
v 0.115692 5.536260 -3.071021
v 0.021054 5.566360 -3.136461
v -0.068881 5.590020 -3.204661
v -0.154483 5.609730 -3.277041
v -0.285262 5.487080 -3.351221
v -0.289551 5.374680 -3.338731
v -0.045723 4.863560 -3.119581
v -0.221427 5.216150 -3.376161
v -0.166206 5.124760 -3.350871
v -0.101918 5.046300 -3.312581
v -0.033103 4.979120 -3.265121
v -0.037637 4.931201 -3.204331
v -0.262686 5.317590 -3.390041
v 0.007335 4.738280 -2.982181
v 0.020649 4.794820 -3.039781
v 0.065327 4.652300 -2.919031
v 0.576587 4.901380 -2.719891
v 0.501970 4.905430 -2.804231
v 0.468930 4.966010 -2.841131
v 0.441617 5.029750 -2.878811
v 0.417730 5.095830 -2.917501
v 0.398180 5.163380 -2.958911
v 0.379006 5.230260 -3.002631
v 0.361112 5.293420 -3.047571
v 0.320391 5.381760 -3.013851
v 0.288334 5.419150 -2.962751
v 0.198626 5.521940 -3.087641
v 0.102241 5.565250 -3.143941
v 0.011021 5.598150 -3.206841
v -0.076920 5.627220 -3.272711
v -0.160882 5.651470 -3.345031
v -0.230512 5.613330 -3.365851
v -0.280990 5.550160 -3.406401
v -0.285385 5.427520 -3.398591
v 0.030188 4.845420 -3.098471
v -0.212754 5.268440 -3.431631
v -0.157017 5.177410 -3.406571
v -0.093204 5.100140 -3.367501
v -0.029199 5.031530 -3.321601
v 0.042885 4.981220 -3.261221
v 0.039575 4.933350 -3.203081
v -0.257010 5.369560 -3.447451
v 0.097322 4.788330 -3.026411
v 0.083502 4.726140 -2.969941
v 0.149963 4.615670 -2.895671
v 0.625845 4.847640 -2.692011
v 0.543232 4.848480 -2.770821
v 0.466989 4.852070 -2.855541
v 0.440980 4.915440 -2.895011
v 0.421600 4.981900 -2.935401
v 0.404646 5.049380 -2.976451
v 0.389719 5.117040 -3.020411
v 0.374816 5.183360 -3.067311
v 0.361422 5.252230 -3.120801
v 0.353016 5.318570 -3.067011
v 0.294161 5.437110 -3.061221
v 0.252211 5.455690 -2.984641
v 0.271623 5.486340 -3.123611
v 0.181033 5.553420 -3.160901
v 0.089571 5.598370 -3.214751
v 0.001783 5.635540 -3.274651
v -0.083255 5.668350 -3.339571
v -0.233537 5.660450 -3.434491
v -0.164821 5.696590 -3.414441
v -0.282472 5.602340 -3.468371
v -0.284950 5.481030 -3.457321
v 0.106687 4.841160 -3.082691
v -0.041680 4.897380 -3.161951
v 0.035628 4.888950 -3.149861
v -0.208804 5.318500 -3.489541
v -0.148749 5.229010 -3.462951
v -0.083238 5.145480 -3.429541
v -0.023573 5.085560 -3.376591
v 0.043767 5.032110 -3.318771
v 0.116693 4.992870 -3.249371
v 0.115490 4.942020 -3.192351
v -0.254280 5.421320 -3.505521
v 0.175040 4.790890 -3.013391
v 0.158952 4.723200 -2.960141
v 0.591155 4.794250 -2.740871
v 0.503963 4.793350 -2.817681
v 0.414561 4.796420 -2.899941
v 0.397079 4.866220 -2.942191
v 0.385880 4.933120 -2.985611
v 0.373730 5.001410 -3.028111
v 0.363338 5.067920 -3.074681
v 0.352931 5.132070 -3.123301
v 0.343671 5.194900 -3.175151
v 0.331891 5.378980 -3.119031
v 0.250129 5.524870 -3.192191
v 0.314407 5.430530 -3.175621
v 0.165579 5.590030 -3.230871
v 0.079305 5.636270 -3.282561
v -0.005437 5.675620 -3.341801
v -0.088043 5.711850 -3.407071
v -0.163459 5.743220 -3.486631
v -0.231764 5.716150 -3.510581
v -0.286566 5.533430 -3.516211
v -0.276827 5.648340 -3.530311
v 0.112286 4.890940 -3.137111
v 0.183672 4.848560 -3.066981
v -0.206605 5.368580 -3.548251
v -0.146122 5.277110 -3.522661
v -0.077514 5.193800 -3.489911
v 0.011568 5.133950 -3.435871
v 0.039649 5.085400 -3.374601
v 0.115895 5.044130 -3.306651
v 0.187720 4.960780 -3.173651
v 0.187328 5.015120 -3.229061
v -0.250710 5.472860 -3.563101
v 0.242577 4.736440 -2.953601
v 0.256223 4.802400 -2.999211
v 0.230683 4.710930 -2.939751
v 0.198793 4.656550 -2.912471
v 0.267631 4.637321 -2.891381
v 0.550322 4.738980 -2.783931
v 0.451910 4.734930 -2.854621
v 0.333842 4.825840 -2.977791
v 0.339998 4.753140 -2.930331
v 0.328714 4.892220 -3.022641
v 0.322863 4.959060 -3.068161
v 0.316251 5.023490 -3.116841
v 0.309319 5.085270 -3.167191
v 0.303150 5.143750 -3.220471
v 0.329982 5.254570 -3.228671
v 0.344122 5.315150 -3.174721
v 0.296088 5.477660 -3.236941
v 0.233451 5.565910 -3.259551
v 0.329764 5.369360 -3.231241
v 0.153749 5.629320 -3.298281
v 0.071185 5.677400 -3.348811
v -0.011220 5.716690 -3.408521
v -0.089186 5.755000 -3.475621
v -0.161576 5.792740 -3.555081
v -0.224294 5.770310 -3.585571
v -0.276708 5.582220 -3.573471
v 0.187528 4.904090 -3.120751
v 0.259026 4.865191 -3.047681
v -0.204252 5.419540 -3.606521
v -0.147152 5.323650 -3.584491
v -0.075141 5.242990 -3.549791
v 0.007801 5.181820 -3.497471
v 0.111326 5.096930 -3.363481
v 0.185388 5.067930 -3.285511
v 0.252294 5.046250 -3.201691
v 0.255011 4.988290 -3.148201
v -0.244544 5.523550 -3.619911
v 0.313442 4.699121 -2.910161
v 0.340071 4.605860 -2.866691
v 0.503293 4.682120 -2.816571
v 0.393256 4.671880 -2.870581
v 0.258675 4.927520 -3.097791
v 0.295081 5.200580 -3.275221
v 0.248288 5.101840 -3.256481
v 0.319418 5.309160 -3.284801
v 0.313537 5.419890 -3.289971
v 0.279906 5.522240 -3.301231
v 0.219752 5.606310 -3.326491
v 0.145552 5.671620 -3.363391
v 0.064134 5.717370 -3.415381
v -0.013453 5.758480 -3.475111
v -0.087734 5.801680 -3.542371
v -0.162895 5.842500 -3.621751
v -0.201113 5.812560 -3.656431
v -0.267515 5.679750 -3.572261
v -0.254443 5.729210 -3.634331
v -0.265768 5.628490 -3.628811
v -0.144375 5.375170 -3.643131
v -0.200188 5.471150 -3.664031
v -0.074347 5.292890 -3.610141
v 0.007189 5.233140 -3.556711
v 0.092949 5.197540 -3.482651
v 0.101408 5.148060 -3.422321
v 0.181566 5.119700 -3.343611
v -0.238119 5.573300 -3.677101
v 0.404676 4.561590 -2.842181
v 0.453218 4.623050 -2.835881
v 0.288110 5.253430 -3.332611
v 0.243288 5.155590 -3.312931
v 0.305379 5.361070 -3.341951
v 0.299781 5.467650 -3.350791
v 0.270922 5.567850 -3.365361
v 0.212238 5.649710 -3.390581
v 0.137467 5.712220 -3.428981
v 0.059118 5.757920 -3.481371
v -0.011719 5.803050 -3.540511
v -0.085052 5.850910 -3.604471
v -0.239332 5.782610 -3.691111
v -0.254988 5.677710 -3.685271
v -0.141989 5.427420 -3.701101
v -0.072325 5.346490 -3.667581
v -0.196904 5.521930 -3.722061
v 0.006992 5.285270 -3.615341
v 0.088932 5.246970 -3.543501
v 0.169225 5.219810 -3.463291
v 0.175587 5.170050 -3.403191
v -0.232300 5.623570 -3.734151
v 0.238487 5.206400 -3.372181
v 0.277100 5.305880 -3.389841
v 0.293942 5.410880 -3.401181
v 0.293233 5.515750 -3.412961
v 0.263903 5.614310 -3.428861
v 0.205049 5.695030 -3.453491
v 0.127335 5.751730 -3.494441
v 0.071883 5.800170 -3.547571
v -0.007963 5.850990 -3.601851
v -0.081021 5.900780 -3.664131
v -0.159214 5.889150 -3.687071
v -0.246205 5.731380 -3.740371
v -0.140369 5.478590 -3.760291
v -0.070396 5.400290 -3.725101
v 0.006949 5.337540 -3.674671
v -0.193203 5.573790 -3.779321
v 0.086997 5.296510 -3.604421
v 0.163823 5.269660 -3.523371
v 0.230683 5.257550 -3.430921
v -0.226494 5.677180 -3.790001
v 0.268460 5.356330 -3.449071
v 0.287501 5.460130 -3.462071
v 0.288960 5.563920 -3.475551
v 0.254100 5.657710 -3.493251
v 0.192363 5.735030 -3.518361
v 0.076250 5.846890 -3.609341
v -0.003714 5.901930 -3.658961
v -0.146372 5.935700 -3.747691
v -0.075042 5.951620 -3.721711
v -0.217035 5.846190 -3.736431
v -0.233209 5.788910 -3.793071
v -0.137048 5.531940 -3.818391
v -0.066665 5.454660 -3.782551
v 0.006875 5.393870 -3.730421
v 0.084068 5.349050 -3.663641
v -0.191238 5.627070 -3.836881
v 0.160017 5.320410 -3.583731
v 0.224704 5.307670 -3.490741
v -0.219874 5.734140 -3.844401
v 0.263484 5.406190 -3.509421
v 0.283026 5.510000 -3.523071
v 0.276379 5.608790 -3.539301
v 0.239022 5.697160 -3.559801
v 0.175350 5.780460 -3.578291
v 0.161635 5.830370 -3.634651
v 0.075107 5.897320 -3.666301
v -0.001204 5.955160 -3.713791
v -0.197370 5.896900 -3.793701
v -0.133790 5.986017 -3.805031
v -0.066649 6.004919 -3.776381
v -0.218747 5.844380 -3.847581
v -0.060978 5.509930 -3.840411
v -0.133908 5.588420 -3.874581
v 0.009801 5.448060 -3.788981
v 0.080978 5.402400 -3.722321
v 0.155859 5.372210 -3.643271
v -0.188332 5.683450 -3.892751
v 0.221620 5.357030 -3.551781
v -0.210471 5.790730 -3.899421
v 0.259912 5.456090 -3.569761
v 0.274436 5.560450 -3.582621
v 0.261045 5.631240 -3.623451
v 0.226582 5.740290 -3.623041
v 0.215888 5.791230 -3.679341
v 0.152612 5.883200 -3.687581
v 0.072533 5.951390 -3.719091
v 0.001801 6.010117 -3.766771
v -0.181377 5.947650 -3.851091
v -0.121595 6.039460 -3.859731
v -0.056089 6.061549 -3.828371
v -0.202038 5.896740 -3.904671
v -0.056605 5.570040 -3.893521
v 0.031649 5.507420 -3.843081
v -0.130361 5.647640 -3.928391
v 0.076145 5.456230 -3.781271
v 0.149389 5.425730 -3.701701
v 0.216394 5.408940 -3.611451
v -0.182498 5.742660 -3.946671
v -0.199239 5.846320 -3.955651
v 0.253108 5.508740 -3.627951
v 0.246932 5.683210 -3.679631
v 0.235700 5.736720 -3.735271
v 0.205256 5.844900 -3.732711
v 0.142855 5.935860 -3.741591
v 0.066954 6.006679 -3.771141
v 0.017645 6.066703 -3.819341
v -0.167978 5.999414 -3.908041
v -0.047522 6.122732 -3.876801
v -0.112399 6.096864 -3.912421
v -0.192046 5.948490 -3.962981
v -0.054259 5.631340 -3.945181
v 0.030531 5.566150 -3.898751
v -0.126750 5.709120 -3.980371
v 0.141592 5.478400 -3.761161
v 0.208132 5.463630 -3.668721
v -0.174160 5.803970 -3.997811
v -0.187585 5.900360 -4.013331
v 0.244989 5.565530 -3.682741
v 0.233636 5.623210 -3.736901
v 0.226740 5.792280 -3.788991
v 0.226138 5.678920 -3.792671
v 0.194207 5.899330 -3.785661
v 0.131464 5.989625 -3.794141
v 0.068120 6.056453 -3.832651
v 0.035269 6.124687 -3.871591
v -0.158844 6.055952 -3.963361
v -0.042238 6.182618 -3.928401
v -0.105598 6.158227 -3.964041
v -0.183877 5.999872 -4.021791
v -0.053943 5.693170 -3.997111
v 0.028967 5.630140 -3.948951
v 0.115644 5.587370 -3.879341
v 0.125118 5.531590 -3.821861
v -0.122817 5.772430 -4.030791
v 0.200194 5.516990 -3.726691
v -0.170833 5.870340 -4.045161
v -0.168547 5.937040 -4.089851
v 0.190094 5.571370 -3.785201
v 0.213333 5.848760 -3.841061
v 0.217140 5.736040 -3.846961
v 0.181190 5.627430 -3.841981
v 0.180985 5.954200 -3.837471
v 0.118596 6.046203 -3.845971
v 0.036421 6.185904 -3.921711
v -0.150756 6.119836 -4.016041
v -0.039194 6.243728 -3.978891
v -0.097059 6.221595 -4.016801
v -0.177211 6.063107 -4.072191
v 0.025468 5.694950 -3.997211
v -0.055024 5.758350 -4.046111
v 0.109437 5.646860 -3.933891
v -0.109401 5.833820 -4.084931
v -0.160582 6.000415 -4.133131
v 0.204331 5.795640 -3.897401
v 0.202144 5.907630 -3.890171
v 0.172708 5.686040 -3.895621
v 0.169998 6.012205 -3.888191
v 0.113209 6.104940 -3.897301
v 0.110958 6.167894 -3.947681
v 0.035560 6.249572 -3.969421
v -0.136796 6.192796 -4.067441
v -0.042714 6.305969 -4.027851
v -0.111830 6.271853 -4.091971
v 0.021460 5.759220 -4.047041
v 0.103697 5.711300 -3.982611
v -0.060339 5.825260 -4.093331
v -0.084275 5.895730 -4.135942
v -0.166434 6.112973 -4.105621
v -0.155557 6.063823 -4.172791
v -0.088199 5.966060 -4.173811
v 0.166519 5.746700 -3.947461
v 0.195235 5.856350 -3.946431
v 0.188562 5.969370 -3.936581
v 0.163016 6.066729 -3.944731
v 0.156817 6.122162 -4.004662
v 0.106721 6.234109 -3.997571
v 0.030600 6.313977 -4.015541
v -0.045723 6.369247 -4.073861
v -0.098426 6.340067 -4.128191
v 0.099134 5.773490 -4.033991
v 0.014969 5.825890 -4.092911
v -0.155843 6.166150 -4.135681
v -0.146930 6.129421 -4.207391
v -0.086731 6.034440 -4.210881
v -0.000154 5.961010 -4.178721
v 0.006014 5.893200 -4.137441
v 0.162164 5.808250 -3.998171
v 0.185132 5.920780 -3.991141
v 0.177274 6.037789 -3.975501
v 0.145088 6.203220 -4.059072
v 0.099387 6.302034 -4.041541
v 0.025550 6.379628 -4.058201
v -0.044611 6.431067 -4.119842
v -0.086262 6.407584 -4.161621
v -0.140079 6.234445 -4.167761
v -0.123051 6.304866 -4.197551
v 0.093080 5.839380 -4.080681
v -0.130268 6.200932 -4.237261
v -0.082667 6.102660 -4.248631
v -0.002694 6.029304 -4.216281
v 0.082978 5.971210 -4.168021
v 0.087498 5.905560 -4.125411
v 0.155628 5.873090 -4.044321
v 0.176572 5.987147 -4.030681
v 0.135899 6.271894 -4.100241
v 0.160104 6.108970 -4.095531
v 0.150367 6.169981 -4.129981
v 0.092099 6.369276 -4.082921
v 0.019894 6.441337 -4.104941
v -0.109584 6.375420 -4.227701
v -0.115308 6.272349 -4.266461
v -0.076519 6.172680 -4.285522
v -0.002476 6.097720 -4.252861
v 0.077961 6.040377 -4.202941
v 0.143082 6.004967 -4.125841
v 0.148519 5.939380 -4.086802
v 0.169322 6.053446 -4.065111
v 0.140704 6.237029 -4.167311
v 0.126092 6.338603 -4.140501
v 0.130266 6.135460 -4.195181
v 0.138311 6.069196 -4.162081
v 0.073559 6.433383 -4.125121
v -0.069998 6.477731 -4.191141
v 0.023629 6.497876 -4.158671
v -0.099784 6.444563 -4.257832
v -0.105746 6.345419 -4.295012
v -0.068047 6.246523 -4.317031
v 0.001215 6.167276 -4.290511
v 0.073321 6.108939 -4.237021
v 0.121515 6.204125 -4.228211
v 0.130077 6.303074 -4.207851
v 0.111142 6.403418 -4.181531
v 0.015978 6.556181 -4.204041
v -0.062353 6.542068 -4.230871
v -0.092492 6.511580 -4.298621
v -0.095392 6.417687 -4.323291
v -0.062532 6.320116 -4.350871
v 0.006595 6.238791 -4.327801
v 0.071955 6.178543 -4.271461
v 0.102498 6.277436 -4.255891
v 0.115779 6.367222 -4.252321
v 0.088943 6.468268 -4.216381
v 0.021545 6.614582 -4.248081
v -0.053454 6.604374 -4.271691
v 0.073808 6.533698 -4.250141
v -0.075016 6.575076 -4.354561
v -0.085496 6.495332 -4.340251
v -0.056007 6.397390 -4.378631
v 0.012638 6.313793 -4.363041
v 0.074919 6.251797 -4.303931
v 0.096289 6.433488 -4.289671
v 0.061196 6.599810 -4.280371
v 0.045152 6.668892 -4.305371
v -0.048257 6.666770 -4.311041
v 0.075130 6.500351 -4.330351
v -0.053938 6.652399 -4.366521
v -0.043579 6.488094 -4.367251
v 0.015280 6.393812 -4.388031
v 0.080226 6.329877 -4.330231
v 0.072571 6.408634 -4.353211
v 0.062042 6.575059 -4.345891
v 0.028802 6.724526 -4.362611
v -0.029848 6.726678 -4.340461
v -0.004696 6.641909 -4.395921
v -0.006785 6.563195 -4.396971
v -0.001662 6.480857 -4.394241
v 0.054816 6.652413 -4.351301
vn -0.2764 0.9610 -0.0077
vn -0.2028 0.9790 -0.0227
vn -0.1294 0.9910 -0.0348
vn -0.1210 0.9924 -0.0227
vn -0.3229 0.9461 0.0247
vn -0.5478 0.8366 0.0041
vn -0.4343 0.9008 -0.0017
vn -0.6993 0.7141 -0.0325
vn -0.6315 0.7750 0.0263
vn -0.7734 0.6337 -0.0157
vn 0.3801 0.9113 -0.1583
vn 0.4592 0.8744 -0.1567
vn 0.3437 0.9316 -0.1180
vn 0.3325 0.9328 -0.1393
vn 0.2183 0.9696 -0.1103
vn 0.2192 0.9709 -0.0962
vn 0.1170 0.9893 -0.0872
vn 0.1535 0.9829 -0.1017
vn 0.0101 0.9982 -0.0598
vn 0.0429 0.9960 -0.0782
vn 0.0943 0.9934 -0.0645
vn -0.0069 0.9993 -0.0361
vn -0.1012 0.9948 0.0132
vn -0.3447 0.9364 0.0655
vn -0.6889 0.7222 0.0627
vn -0.8397 0.5431 0.0020
vn -0.9012 0.4285 -0.0650
vn -0.8513 0.5226 -0.0470
vn -0.9342 0.3379 -0.1144
vn -0.9436 0.3183 -0.0915
vn -0.9591 0.2317 -0.1626
vn -0.9377 0.0379 -0.3453
vn -0.9478 0.1388 -0.2870
vn -0.9622 0.0704 -0.2630
vn 0.5031 0.8565 -0.1152
vn 0.3689 0.9264 -0.0755
vn 0.2202 0.9735 -0.0622
vn 0.0778 0.9966 -0.0269
vn -0.0089 1.0000 0.0031
vn -0.0868 0.9942 0.0637
vn -0.3701 0.9245 0.0912
vn -0.8352 0.5475 0.0511
vn -0.9033 0.4289 -0.0106
vn -0.9706 0.1612 -0.1789
vn -0.9318 0.1260 -0.3403
vn -0.9004 -0.0111 -0.4348
vn -0.8578 -0.1870 -0.4787
vn -0.8979 -0.1634 -0.4088
vn -0.8076 -0.2004 -0.5547
vn -0.7385 -0.2428 -0.6290
vn -0.8530 -0.0926 -0.5136
vn 0.6228 0.7473 -0.2317
vn 0.5819 0.7942 -0.1751
vn 0.5484 0.8089 -0.2121
vn 0.5644 0.8222 -0.0736
vn 0.3994 0.9166 -0.0189
vn 0.2084 0.9780 -0.0090
vn 0.0462 0.9987 0.0198
vn -0.0151 0.9978 0.0640
vn -0.1044 0.9884 0.1105
vn -0.4069 0.9040 0.1313
vn -0.6725 0.7332 0.1012
vn -0.9561 0.2801 -0.0862
vn -0.8848 0.4651 0.0284
vn -0.7408 -0.4010 -0.5388
vn -0.7001 -0.4080 -0.5860
vn -0.6399 -0.4116 -0.6490
vn -0.5759 -0.4025 -0.7116
vn -0.5469 -0.3944 -0.7385
vn -0.6424 -0.3147 -0.6988
vn 0.6926 0.6090 -0.3865
vn 0.6919 0.6477 -0.3191
vn 0.6597 0.6801 -0.3197
vn 0.6570 0.6650 -0.3552
vn 0.6887 0.6860 -0.2349
vn 0.6561 0.7395 -0.1507
vn 0.6469 0.7620 -0.0295
vn 0.4441 0.8956 0.0250
vn 0.2007 0.9791 0.0335
vn 0.0145 0.9968 0.0783
vn -0.0322 0.9900 0.1377
vn -0.1574 0.9731 0.1681
vn -0.4775 0.8606 0.1770
vn -0.7452 0.6595 0.0985
vn -0.9634 0.0475 -0.2638
vn -0.9686 0.0965 -0.2293
vn -0.7618 -0.3508 -0.5446
vn -0.9115 -0.1261 -0.3915
vn -0.5276 -0.5691 -0.6307
vn -0.5703 -0.5534 -0.6070
vn -0.4676 -0.5715 -0.6744
vn -0.3997 -0.5412 -0.7398
vn -0.3654 -0.5151 -0.7754
vn 0.7381 0.5407 -0.4035
vn 0.7564 0.5736 -0.3144
vn 0.7604 0.6125 -0.2160
vn 0.7328 0.6699 -0.1192
vn 0.7339 0.6792 0.0064
vn 0.5564 0.8281 0.0676
vn 0.1773 0.9798 0.0922
vn 0.0023 0.9892 0.1464
vn -0.0577 0.9760 0.2100
vn -0.2209 0.9435 0.2471
vn -0.5567 0.7978 0.2312
vn -0.8407 0.5372 0.0685
vn -0.9333 0.3566 -0.0422
vn -0.9653 0.1672 -0.2007
vn -0.9138 -0.0850 -0.3973
vn -0.5999 -0.5082 -0.6179
vn -0.7839 -0.2947 -0.5464
vn -0.3688 -0.6755 -0.6385
vn -0.4081 -0.6597 -0.6310
vn -0.2940 -0.6290 -0.7196
vn -0.3232 -0.6731 -0.6652
vn -0.2879 -0.5574 -0.7788
vn 0.7020 0.5617 -0.4378
vn 0.7230 0.5053 -0.4711
vn 0.7239 0.4056 -0.5580
vn 0.7539 0.4323 -0.4947
vn 0.7142 0.4655 -0.5227
vn 0.7920 0.4542 -0.4080
vn 0.8215 0.4835 -0.3024
vn 0.8306 0.5248 -0.1866
vn 0.8068 0.5856 -0.0789
vn 0.8147 0.5789 0.0341
vn 0.6606 0.7434 0.1049
vn 0.1564 0.9766 0.1475
vn 0.0038 0.9754 0.2204
vn -0.0908 0.9521 0.2921
vn -0.2799 0.9021 0.3286
vn -0.6007 0.7325 0.3201
vn -0.8581 0.4904 0.1520
vn -0.9638 0.2285 -0.1376
vn -0.9253 -0.0525 -0.3757
vn -0.6300 -0.4643 -0.6226
vn -0.4382 -0.6196 -0.6512
vn -0.8176 -0.2706 -0.5083
vn -0.2390 -0.7356 -0.6338
vn -0.2145 -0.7396 -0.6380
vn -0.1847 -0.7097 -0.6798
vn -0.1961 -0.7270 -0.6580
vn 0.7423 0.3350 -0.5803
vn 0.7945 0.3439 -0.5005
vn 0.8427 0.3603 -0.4000
vn 0.8813 0.3810 -0.2795
vn 0.8939 0.4207 -0.1548
vn 0.8728 0.4857 -0.0488
vn 0.3712 0.9248 0.0829
vn 0.4419 0.8867 0.1361
vn 0.1497 0.9664 0.2089
vn 0.0020 0.9513 0.3083
vn -0.1223 0.9204 0.3713
vn -0.3252 0.8512 0.4120
vn -0.8519 0.4579 0.2542
vn -0.6261 0.6708 0.3976
vn -0.9795 0.1958 -0.0483
vn -0.9477 -0.0374 -0.3169
vn -0.6617 -0.4527 -0.5976
vn -0.4569 -0.5843 -0.6707
vn -0.2648 -0.6993 -0.6640
vn -0.8488 -0.2650 -0.4575
vn -0.0800 -0.7219 -0.6873
vn -0.0787 -0.7442 -0.6633
vn 0.7058 0.3684 -0.6051
vn 0.7155 0.3333 -0.6140
vn 0.7690 0.2469 -0.5897
vn 0.8356 0.2480 -0.4902
vn 0.8885 0.2632 -0.3758
vn 0.9276 0.2765 -0.2514
vn 0.9414 0.3083 -0.1365
vn 0.9286 0.3685 -0.0442
vn 0.9006 0.4336 0.0296
vn 0.4686 0.8614 0.1960
vn 0.1416 0.9427 0.3022
vn -0.0078 0.9234 0.3838
vn -0.1401 0.8844 0.4452
vn -0.3564 0.8026 0.4784
vn -0.9803 0.1856 0.0669
vn -0.9709 -0.0689 -0.2295
vn -0.0719 -0.7658 -0.6391
vn -0.6882 -0.4546 -0.5654
vn -0.4864 -0.5896 -0.6448
vn -0.2866 -0.6604 -0.6940
vn -0.0688 -0.7491 -0.6588
vn -0.0599 -0.7728 -0.6319
vn -0.8709 -0.2981 -0.3908
vn 0.0023 -0.7083 -0.7059
vn 0.0140 -0.7330 -0.6801
vn 0.7127 0.2447 -0.6574
vn 0.7864 0.1360 -0.6025
vn 0.8624 0.1262 -0.4902
vn 0.9155 0.1422 -0.3764
vn 0.9512 0.1571 -0.2656
vn 0.9681 0.1801 -0.1744
vn 0.9702 0.2209 -0.0994
vn 0.9594 0.2781 -0.0474
vn 0.8533 0.5124 0.0968
vn 0.7632 0.6345 0.1222
vn 0.3982 0.8731 0.2812
vn 0.1290 0.9172 0.3770
vn -0.0156 0.8938 0.4482
vn -0.1444 0.8508 0.5052
vn -0.3721 0.7736 0.5129
vn -0.6914 0.5903 0.4166
vn -0.9544 0.2411 0.1761
vn -0.9821 -0.1048 -0.1563
vn 0.0420 -0.7602 -0.6483
vn -0.7100 -0.4827 -0.5127
vn -0.5304 -0.5909 -0.6079
vn -0.3030 -0.6841 -0.6635
vn -0.0906 -0.7139 -0.6944
vn 0.1281 -0.7521 -0.6465
vn 0.1038 -0.7644 -0.6363
vn -0.8784 -0.3310 -0.3448
vn 0.0979 -0.7027 -0.7047
vn 0.0595 -0.6306 -0.7738
vn 0.7036 0.1654 -0.6911
vn 0.7560 -0.0238 -0.6542
vn 0.8365 -0.0450 -0.5461
vn 0.8922 -0.0270 -0.4509
vn 0.9303 -0.0060 -0.3669
vn 0.9552 0.0123 -0.2957
vn 0.9717 0.0353 -0.2336
vn 0.9777 0.0823 -0.1935
vn 0.9438 0.3300 -0.0193
vn 0.7836 0.5989 0.1650
vn 0.6780 0.7240 0.1273
vn 0.7034 0.6817 0.2013
vn 0.3504 0.8721 0.3416
vn 0.1190 0.8899 0.4404
vn -0.0178 0.8644 0.5024
vn -0.1394 0.8348 0.5326
vn -0.6811 0.5976 0.4231
vn -0.3661 0.7733 0.5177
vn -0.9475 0.2689 0.1732
vn -0.9843 -0.1245 -0.1253
vn 0.1484 -0.7300 -0.6671
vn -0.0619 -0.7704 -0.6345
vn 0.0727 -0.7632 -0.6421
vn -0.7332 -0.5017 -0.4590
vn -0.5668 -0.5996 -0.5650
vn -0.3144 -0.7144 -0.6252
vn -0.1027 -0.7353 -0.6699
vn 0.1323 -0.7255 -0.6754
vn 0.3006 -0.7096 -0.6373
vn 0.2575 -0.7164 -0.6484
vn -0.8766 -0.3452 -0.3352
vn 0.1846 -0.6540 -0.7336
vn 0.1158 -0.5813 -0.8054
vn 0.0790 -0.5297 -0.8445
vn 0.0412 -0.5387 -0.8415
vn 0.6731 0.2292 -0.7031
vn 0.6650 0.1818 -0.7244
vn 0.6941 0.0423 -0.7186
vn 0.6274 -0.2278 -0.7446
vn 0.7126 -0.2576 -0.6526
vn 0.7741 -0.2365 -0.5872
vn 0.8232 -0.2118 -0.5268
vn 0.8629 -0.1983 -0.4649
vn 0.8944 -0.1836 -0.4079
vn 0.9177 -0.1503 -0.3677
vn 0.9328 0.3595 0.0255
vn 0.6504 0.7200 0.2421
vn 0.9105 0.4106 0.0483
vn 0.3283 0.8530 0.4058
vn 0.1103 0.8622 0.4944
vn -0.0140 0.8520 0.5234
vn -0.1321 0.8343 0.5353
vn -0.3540 0.7755 0.5227
vn -0.6902 0.6148 0.3818
vn -0.9809 -0.1108 -0.1599
vn -0.9510 0.2974 0.0848
vn 0.2017 -0.7237 -0.6600
vn 0.2628 -0.6705 -0.6938
vn -0.7542 -0.4848 -0.4429
vn -0.5850 -0.6228 -0.5195
vn -0.3351 -0.7169 -0.6113
vn 0.0344 -0.7662 -0.6417
vn 0.1311 -0.7297 -0.6711
vn 0.3173 -0.6931 -0.6473
vn 0.4112 -0.6355 -0.6535
vn 0.4627 -0.6324 -0.6213
vn -0.8732 -0.3308 -0.3578
vn 0.2291 -0.5428 -0.8080
vn 0.3017 -0.5821 -0.7551
vn 0.1831 -0.5040 -0.8441
vn 0.1592 -0.5032 -0.8494
vn 0.6545 0.1315 -0.7445
vn 0.5460 -0.1762 -0.8190
vn 0.4973 -0.4537 -0.7395
vn 0.4040 -0.4233 -0.8109
vn 0.5737 -0.4319 -0.6959
vn 0.6428 -0.4056 -0.6498
vn 0.6993 -0.3953 -0.5956
vn 0.7465 -0.3866 -0.5416
vn 0.7867 -0.3637 -0.4989
vn 0.9376 -0.1199 -0.3264
vn 0.9802 0.1222 -0.1559
vn 0.8866 0.4562 0.0767
vn 0.6188 0.7222 0.3091
vn 0.9805 0.1492 -0.1279
vn 0.3176 0.8290 0.4603
vn 0.1010 0.8525 0.5128
vn -0.0049 0.8492 0.5281
vn -0.1245 0.8264 0.5491
vn -0.3810 0.7655 0.5185
vn -0.7168 0.6161 0.3266
vn -0.9728 -0.0748 -0.2190
vn 0.3422 -0.6498 -0.6787
vn 0.3919 -0.5743 -0.7187
vn -0.7652 -0.4574 -0.4531
vn -0.5898 -0.6109 -0.5282
vn -0.3330 -0.7235 -0.6048
vn 0.0391 -0.7693 -0.6377
vn 0.3094 -0.6912 -0.6530
vn 0.4932 -0.6227 -0.6074
vn 0.6013 -0.5297 -0.5982
vn 0.5462 -0.5335 -0.6458
vn -0.8797 -0.3014 -0.3679
vn 0.2398 -0.4358 -0.8675
vn 0.2118 -0.4177 -0.8836
vn 0.3673 -0.2633 -0.8921
vn 0.4784 -0.5462 -0.6876
vn 0.8232 -0.3430 -0.4524
vn 0.6440 -0.5165 -0.5643
vn 0.9519 -0.0930 -0.2920
vn 0.9786 0.1759 -0.1068
vn 0.8729 0.4656 0.1460
vn 0.5949 0.7115 0.3739
vn 0.3015 0.8181 0.4898
vn 0.0989 0.8534 0.5117
vn 0.0074 0.8381 0.5455
vn -0.1185 0.8000 0.5881
vn -0.4740 0.7285 0.4946
vn -0.7369 0.5881 0.3334
vn -0.9552 0.2935 0.0385
vn -0.9465 0.3188 0.0504
vn -0.9747 -0.0496 -0.2177
vn -0.5855 -0.5887 -0.5573
vn -0.7754 -0.4453 -0.4478
vn -0.3132 -0.7156 -0.6244
vn 0.0415 -0.7602 -0.6484
vn 0.2987 -0.7250 -0.6206
vn 0.2969 -0.7121 -0.6363
vn 0.5010 -0.6251 -0.5985
vn -0.8962 -0.2758 -0.3476
vn 0.2632 -0.2872 -0.9210
vn 0.4464 -0.1431 -0.8833
vn 0.3707 -0.1772 -0.9117
vn 0.8507 -0.3140 -0.4216
vn 0.6758 -0.5108 -0.5314
vn 0.9604 -0.0703 -0.2697
vn 0.9857 0.1618 -0.0468
vn 0.8563 0.4662 0.2222
vn 0.5773 0.7058 0.4106
vn 0.2788 0.8311 0.4811
vn 0.1091 0.8384 0.5340
vn 0.0219 0.8081 0.5886
vn -0.1310 0.7778 0.6146
vn -0.9203 0.3779 0.1010
vn -0.9819 -0.0190 -0.1882
vn -0.5802 -0.5921 -0.5593
vn -0.3000 -0.6947 -0.6537
vn -0.7870 -0.4336 -0.4389
vn 0.0385 -0.7508 -0.6594
vn 0.3010 -0.7247 -0.6198
vn 0.5002 -0.6396 -0.5837
vn 0.4968 -0.6340 -0.5927
vn -0.9129 -0.2468 -0.3252
vn 0.2852 -0.2101 -0.9352
vn 0.6987 -0.4966 -0.5150
vn 0.8706 -0.2877 -0.3992
vn 0.9723 -0.0900 -0.2158
vn 0.9896 0.1435 0.0106
vn 0.8412 0.4862 0.2367
vn 0.5639 0.7328 0.3808
vn 0.2728 0.8310 0.4847
vn 0.1850 0.8026 0.5671
vn 0.0300 0.7707 0.6365
vn -0.1761 0.7615 0.6238
vn -0.5430 0.6943 0.4724
vn -0.9863 0.0439 -0.1593
vn -0.5706 -0.5924 -0.5688
vn -0.2860 -0.6946 -0.6601
vn 0.0313 -0.7303 -0.6824
vn -0.7939 -0.4185 -0.4411
vn 0.2989 -0.7172 -0.6295
vn 0.5079 -0.6462 -0.5697
vn 0.7189 -0.4814 -0.5015
vn -0.9305 -0.1997 -0.3070
vn 0.8886 -0.2979 -0.3488
vn 0.9781 -0.1129 -0.1747
vn 0.9844 0.1758 0.0022
vn 0.8390 0.5182 0.1661
vn 0.5572 0.7472 0.3622
vn 0.2089 0.7506 0.6269
vn 0.0199 0.7379 0.6747
vn -0.5713 0.6825 0.4559
vn -0.2400 0.7340 0.6354
vn -0.8723 0.4547 0.1801
vn -0.9841 0.1282 -0.1230
vn -0.5493 -0.5823 -0.5994
vn -0.2571 -0.6918 -0.6747
vn 0.0246 -0.7240 -0.6893
vn 0.2963 -0.6987 -0.6512
vn -0.7972 -0.4000 -0.4521
vn 0.5125 -0.6383 -0.5744
vn 0.7342 -0.4901 -0.4699
vn -0.9471 -0.1349 -0.2914
vn 0.8954 -0.3075 -0.3220
vn 0.9787 -0.0899 -0.1843
vn 0.9694 0.2402 -0.0513
vn 0.8543 0.5032 0.1299
vn 0.5460 0.7162 0.4347
vn 0.5421 0.6654 0.5132
vn 0.2127 0.7148 0.6662
vn -0.0075 0.7123 0.7018
vn -0.8629 0.4744 0.1742
vn -0.6171 0.6363 0.4629
vn -0.2930 0.7010 0.6502
vn -0.9788 0.1870 -0.0837
vn -0.2199 -0.6706 -0.7085
vn -0.5181 -0.5719 -0.6361
vn 0.0263 -0.7144 -0.6992
vn 0.2936 -0.6938 -0.6576
vn 0.5198 -0.6116 -0.5965
vn -0.8001 -0.3680 -0.4738
vn 0.7359 -0.4901 -0.4673
vn -0.9576 -0.0792 -0.2768
vn 0.8943 -0.2889 -0.3416
vn 0.9757 -0.0259 -0.2174
vn 0.9799 0.1473 -0.1346
vn 0.8737 0.4511 0.1818
vn 0.8734 0.4255 0.2370
vn 0.5458 0.6404 0.5403
vn 0.2259 0.6943 0.6833
vn -0.0127 0.7035 0.7106
vn -0.8697 0.4518 0.1988
vn -0.6584 0.5797 0.4800
vn -0.3185 0.6645 0.6760
vn -0.9786 0.2010 -0.0435
vn -0.1943 -0.6441 -0.7398
vn 0.1349 -0.6776 -0.7230
vn -0.4914 -0.5599 -0.6671
vn 0.2900 -0.6729 -0.6806
vn 0.5337 -0.5953 -0.6007
vn 0.7320 -0.4686 -0.4946
vn -0.8022 -0.3345 -0.4946
vn -0.9654 -0.0585 -0.2542
vn 0.8955 -0.2418 -0.3736
vn 0.9868 0.1399 -0.0821
vn 0.9900 0.1328 -0.0467
vn 0.8706 0.4216 0.2534
vn 0.5619 0.6303 0.5358
vn 0.2479 0.6939 0.6760
vn 0.0643 0.6795 0.7308
vn -0.8818 0.4106 0.2320
vn -0.3221 0.6347 0.7024
vn -0.6882 0.5252 0.5006
vn -0.9843 0.1755 -0.0193
vn -0.1712 -0.6253 -0.7614
vn 0.1262 -0.6521 -0.7476
vn -0.4837 -0.5369 -0.6912
vn 0.5310 -0.5752 -0.6222
vn 0.7335 -0.4450 -0.5138
vn -0.8030 -0.3165 -0.5050
vn -0.9690 -0.0637 -0.2387
vn 0.9115 -0.1838 -0.3679
vn 0.9280 -0.1638 -0.3346
vn 0.9873 0.1511 -0.0485
vn 0.9347 -0.1614 -0.3166
vn 0.8695 0.4250 0.2517
vn 0.5657 0.6283 0.5340
vn 0.3066 0.6562 0.6895
vn 0.1563 0.6361 0.7556
vn -0.8915 0.3644 0.2690
vn -0.3427 0.6155 0.7097
vn -0.7017 0.5023 0.5052
vn -0.9915 0.1272 -0.0285
vn -0.1520 -0.6113 -0.7766
vn 0.1228 -0.6143 -0.7794
vn 0.4801 -0.5691 -0.6676
vn 0.4993 -0.5688 -0.6536
vn -0.4873 -0.5148 -0.7053
vn 0.7432 -0.4203 -0.5206
vn -0.8043 -0.3009 -0.5124
vn -0.8444 -0.2327 -0.4825
vn 0.7484 -0.4091 -0.5220
vn 0.9849 0.1660 -0.0482
vn 0.9352 -0.1322 -0.3284
vn 0.7488 -0.4012 -0.5276
vn 0.8651 0.4259 0.2651
vn 0.5562 0.6037 0.5711
vn 0.1546 0.6199 0.7693
vn -0.8943 0.3504 0.2784
vn -0.3944 0.5851 0.7086
vn -0.7174 0.4789 0.5059
vn -0.9920 0.1235 -0.0264
vn 0.1276 -0.6025 -0.7879
vn -0.1399 -0.5923 -0.7935
vn 0.4654 -0.5365 -0.7039
vn -0.4612 -0.4975 -0.7348
vn -0.8363 -0.2309 -0.4972
vn 0.9436 -0.1056 -0.3137
vn 0.9847 0.1714 -0.0308
vn 0.7504 -0.3742 -0.5448
vn 0.8615 0.4113 0.2976
vn 0.5932 0.5497 0.5882
vn 0.6425 0.5038 0.5774
vn 0.1355 0.5983 0.7897
vn -0.8947 0.3557 0.2700
vn -0.4741 0.5303 0.7029
vn -0.8467 0.3805 0.3719
vn 0.1238 -0.5833 -0.8028
vn 0.4519 -0.5317 -0.7163
vn -0.1216 -0.5691 -0.8132
vn -0.3148 -0.4892 -0.8134
vn -0.9872 0.1572 -0.0262
vn -0.8441 -0.1870 -0.5025
vn -0.3422 -0.4607 -0.8190
vn 0.7612 -0.3586 -0.5404
vn 0.9551 -0.0756 -0.2864
vn 0.9842 0.1770 -0.0030
vn 0.8771 0.3772 0.2974
vn 0.9383 0.2875 0.1923
vn 0.6662 0.4709 0.5783
vn 0.0980 0.5728 0.8138
vn -0.5204 0.4989 0.6930
vn -0.8609 0.3464 0.3728
vn 0.4369 -0.5194 -0.7344
vn 0.1092 -0.5485 -0.8290
vn -0.9791 0.2024 -0.0221
vn -0.8611 -0.1061 -0.4973
vn -0.3454 -0.4370 -0.8305
vn 0.0589 -0.4893 -0.8701
vn 0.0824 -0.5230 -0.8483
vn 0.7747 -0.3306 -0.5390
vn 0.9631 -0.0353 -0.2667
vn 0.9796 0.1981 0.0347
vn 0.9485 0.2520 0.1917
vn 0.6649 0.4567 0.5911
vn 0.0657 0.5826 0.8101
vn -0.5184 0.5591 0.6470
vn -0.8630 0.3376 0.3758
vn -0.9735 0.2283 -0.0105
vn -0.9782 0.2069 0.0186
vn 0.4286 -0.4812 -0.7646
vn -0.8819 -0.0325 -0.4704
vn -0.3683 -0.3995 -0.8395
vn 0.0614 -0.4660 -0.8826
vn 0.4283 -0.4285 -0.7956
vn 0.4289 -0.4627 -0.7758
vn 0.7873 -0.2824 -0.5482
vn 0.9731 -0.0011 -0.2302
vn 0.9524 0.2430 0.1843
vn 0.9869 0.0611 -0.1493
vn 0.9875 0.0639 -0.1443
vn 0.6605 0.4894 0.5694
vn 0.0181 0.6593 0.7517
vn -0.9804 0.1901 0.0517
vn -0.9092 -0.0239 -0.4156
vn -0.4231 -0.3394 -0.8401
vn 0.0820 -0.4632 -0.8824
vn 0.4368 -0.3890 -0.8111
vn 0.8209 -0.2238 -0.5253
vn 0.8045 -0.2550 -0.5365
vn 0.9824 0.0430 -0.1818
vn 0.9828 0.0700 -0.1707
vn 0.9471 0.2792 0.1585
vn 0.8434 -0.1603 -0.5128
vn 0.8307 -0.1828 -0.5258
vn 0.6185 0.5814 0.5286
vn -0.7214 0.4597 0.5179
vn 0.1886 0.6851 0.7036
vn -0.9793 0.1854 0.0816
vn -0.9326 -0.0224 -0.3603
vn -0.4870 -0.3081 -0.8172
vn 0.0985 -0.4477 -0.8888
vn 0.4642 -0.3778 -0.8011
vn 0.8558 -0.1206 -0.5030
vn 0.9756 0.0599 -0.2111
vn 0.9149 0.3776 0.1427
vn 0.1553 0.5873 0.7943
vn -0.6980 0.4652 0.5445
vn -0.9786 0.2002 0.0467
vn -0.9158 0.0183 -0.4011
vn -0.5217 -0.2714 -0.8088
vn 0.1153 -0.4185 -0.9009
vn 0.5348 -0.3469 -0.7705
vn 0.8911 -0.1057 -0.4412
vn 0.9696 0.0809 -0.2310
vn 0.8802 0.4251 0.2111
vn 0.1943 0.5857 0.7869
vn -0.6861 0.5072 0.5215
vn 0.8904 0.3513 0.2892
vn -0.8892 0.1286 -0.4390
vn -0.8637 0.0325 -0.5029
vn -0.5202 -0.1200 -0.8456
vn 0.1586 -0.3484 -0.9238
vn 0.6422 -0.2937 -0.7081
vn 0.9642 0.1476 -0.2202
vn 0.8960 0.2976 0.3296
vn 0.5975 0.6329 0.4923
vn -0.6493 0.6739 0.3525
vn 0.8858 0.1290 -0.4458
vn -0.6352 0.6179 -0.4633
vn -0.5369 -0.0386 -0.8428
vn 0.1937 -0.1357 -0.9716
vn 0.7387 -0.1970 -0.6446
vn 0.7459 -0.0073 -0.6660
vn 0.8818 0.0828 -0.4643
vn -0.0016 0.9799 -0.1994
vn -0.6103 0.7795 0.1410
vn 0.0206 0.1397 -0.9900
vn 0.0308 -0.0248 -0.9992
vn 0.0808 0.0054 -0.9967
vn 0.9067 0.1854 -0.3788
vt 0.984117 0.071313
vt 0.983525 0.075798
vt 0.980034 0.076111
vt 0.980533 0.071590
vt 0.381946 0.481030
vt 0.382852 0.485459
vt 0.379363 0.485349
vt 0.378674 0.480872
vt 0.375079 0.485360
vt 0.380129 0.489827
vt 0.375157 0.489903
vt 0.957154 0.086612
vt 0.957479 0.082096
vt 0.962490 0.081775
vt 0.962116 0.086342
vt 0.966817 0.086086
vt 0.967138 0.081518
vt 0.971581 0.081245
vt 0.971288 0.085822
vt 0.976117 0.076373
vt 0.975749 0.080951
vt 0.971915 0.076645
vt 0.976563 0.071790
vt 0.981176 0.067059
vt 0.984818 0.066836
vt 0.384009 0.489848
vt 0.380751 0.494348
vt 0.374766 0.494476
vt 0.370017 0.494362
vt 0.370392 0.489793
vt 0.365374 0.493967
vt 0.369384 0.499123
vt 0.364674 0.498677
vt 0.358949 0.502382
vt 0.360020 0.497832
vt 0.363423 0.503762
vt 0.958498 0.077455
vt 0.963005 0.077183
vt 0.967522 0.076923
vt 0.972367 0.072025
vt 0.977120 0.067223
vt 0.981976 0.062591
vt 0.985710 0.062392
vt 0.385239 0.494230
vt 0.378713 0.499054
vt 0.374112 0.499199
vt 0.368253 0.504263
vt 0.355431 0.496830
vt 0.354490 0.501032
vt 0.357682 0.506633
vt 0.361875 0.508636
vt 0.353392 0.504951
vt 0.349111 0.503389
vt 0.350047 0.499709
vt 0.950673 0.078244
vt 0.954752 0.077790
vt 0.951571 0.082553
vt 0.958800 0.072854
vt 0.963349 0.072599
vt 0.967979 0.072307
vt 0.972867 0.067468
vt 0.977785 0.062711
vt 0.982939 0.058236
vt 0.986672 0.057952
vt 0.386290 0.498638
vt 0.382778 0.498847
vt 0.373272 0.504413
vt 0.378566 0.503382
vt 0.360697 0.512376
vt 0.356675 0.510173
vt 0.266193 0.689673
vt 0.269476 0.691663
vt 0.268510 0.695554
vt 0.265129 0.693683
vt 0.267425 0.699438
vt 0.263969 0.697635
vt 0.941449 0.075410
vt 0.945931 0.074567
vt 0.946332 0.078937
vt 0.941779 0.079845
vt 0.950314 0.073851
vt 0.954507 0.073252
vt 0.958702 0.068248
vt 0.963489 0.068092
vt 0.968452 0.067763
vt 0.973588 0.062927
vt 0.978784 0.058379
vt 0.984080 0.054003
vt 0.987608 0.053476
vt 0.387518 0.502814
vt 0.383401 0.503393
vt 0.367118 0.507629
vt 0.371840 0.509287
vt 0.352609 0.508092
vt 0.364661 0.514723
vt 0.365983 0.510994
vt 0.274106 0.689788
vt 0.270264 0.687791
vt 0.270960 0.683936
vt 0.274698 0.685999
vt 0.273394 0.693517
vt 0.272543 0.697274
vt 0.271466 0.701101
vt 0.941170 0.071021
vt 0.945575 0.070154
vt 0.949918 0.069330
vt 0.954249 0.068659
vt 0.957979 0.063604
vt 0.962418 0.063440
vt 0.969280 0.063155
vt 0.974530 0.058607
vt 0.980038 0.054284
vt 0.988949 0.049195
vt 0.985426 0.049973
vt 0.389163 0.506903
vt 0.384637 0.508684
vt 0.378159 0.506995
vt 0.376527 0.510848
vt 0.370268 0.513107
vt 0.271554 0.680106
vt 0.275312 0.682208
vt 0.368866 0.516716
vt 0.278353 0.691414
vt 0.278935 0.687676
vt 0.276844 0.698799
vt 0.277702 0.695114
vt 0.275721 0.702613
vt 0.936902 0.076248
vt 0.936717 0.071875
vt 0.932193 0.068472
vt 0.936580 0.067611
vt 0.932203 0.072678
vt 0.940893 0.066693
vt 0.945152 0.065728
vt 0.949375 0.064815
vt 0.953587 0.064025
vt 0.956581 0.058512
vt 0.961228 0.058549
vt 0.970141 0.058714
vt 0.975773 0.054423
vt 0.981490 0.050381
vt 0.603409 0.806744
vt 0.604209 0.804083
vt 0.609226 0.804964
vt 0.608451 0.807852
vt 0.391650 0.510754
vt 0.388105 0.512679
vt 0.381172 0.512613
vt 0.374572 0.514992
vt 0.272612 0.676182
vt 0.276064 0.678386
vt 0.279465 0.683969
vt 0.372897 0.518819
vt 0.283456 0.688783
vt 0.282866 0.692719
vt 0.281264 0.700224
vt 0.282152 0.696522
vt 0.932277 0.064405
vt 0.936499 0.063454
vt 0.940625 0.062444
vt 0.944645 0.061365
vt 0.948549 0.060323
vt 0.952461 0.059340
vt 0.965849 0.063297
vt 0.965552 0.058631
vt 0.971276 0.054346
vt 0.977292 0.050514
vt 0.613400 0.808299
vt 0.614169 0.805196
vt 0.607880 0.811100
vt 0.603259 0.809976
vt 0.391723 0.515976
vt 0.394491 0.514338
vt 0.385167 0.515725
vt 0.378753 0.516984
vt 0.371868 0.522013
vt 0.367931 0.519807
vt 0.280119 0.680179
vt 0.283966 0.685163
vt 0.376899 0.520929
vt 0.285749 0.701527
vt 0.286674 0.697745
vt 0.927758 0.069277
vt 0.927968 0.065269
vt 0.932461 0.060432
vt 0.936469 0.059366
vt 0.940314 0.058235
vt 0.944025 0.057076
vt 0.947560 0.055880
vt 0.951063 0.054620
vt 0.954359 0.053276
vt 0.965992 0.053488
vt 0.972886 0.050316
vt 0.619126 0.805120
vt 0.618282 0.808332
vt 0.612736 0.811595
vt 0.607393 0.814729
vt 0.602980 0.813600
vt 0.389123 0.518454
vt 0.382672 0.519403
vt 0.287426 0.693981
vt 0.375736 0.524248
vt 0.276803 0.674632
vt 0.280792 0.676467
vt 0.284556 0.681393
vt 0.288563 0.685778
vt 0.288132 0.689184
vt 0.380700 0.523280
vt 0.290251 0.702671
vt 0.291197 0.698809
vt 0.928289 0.061379
vt 0.932790 0.056540
vt 0.936495 0.055318
vt 0.474618 0.684054
vt 0.470048 0.683421
vt 0.471067 0.680016
vt 0.475533 0.680990
vt 0.472080 0.676354
vt 0.476549 0.677659
vt 0.472974 0.672612
vt 0.477482 0.674331
vt 0.473671 0.668922
vt 0.478184 0.671179
vt 0.957376 0.051625
vt 0.959838 0.054993
vt 0.968244 0.049348
vt 0.974861 0.046634
vt 0.979080 0.046891
vt 0.617520 0.811731
vt 0.612145 0.815216
vt 0.606933 0.818582
vt 0.602404 0.817357
vt 0.397363 0.517706
vt 0.393391 0.520629
vt 0.386432 0.521993
vt 0.291921 0.695274
vt 0.379499 0.526625
vt 0.277533 0.670946
vt 0.281487 0.672847
vt 0.285219 0.677714
vt 0.288943 0.682161
vt 0.293107 0.685724
vt 0.292757 0.689099
vt 0.384410 0.525753
vt 0.295757 0.699351
vt 0.294785 0.703523
vt 0.928783 0.057640
vt 0.939999 0.054113
vt 0.469122 0.686630
vt 0.468355 0.689576
vt 0.463630 0.690037
vt 0.464480 0.686738
vt 0.465490 0.683154
vt 0.466540 0.679455
vt 0.467499 0.675586
vt 0.468282 0.671641
vt 0.468919 0.667301
vt 0.952875 0.048475
vt 0.954145 0.047749
vt 0.960636 0.049750
vt 0.962915 0.054241
vt 0.963612 0.046947
vt 0.970509 0.045675
vt 0.623043 0.808099
vt 0.622132 0.811590
vt 0.616861 0.815362
vt 0.611691 0.819011
vt 0.602181 0.821497
vt 0.606637 0.822638
vt 0.397029 0.523315
vt 0.400776 0.520831
vt 0.390140 0.524487
vt 0.296464 0.695715
vt 0.287779 0.691583
vt 0.292381 0.692222
vt 0.383075 0.529145
vt 0.278196 0.667349
vt 0.282128 0.669279
vt 0.285980 0.674443
vt 0.289422 0.678469
vt 0.293309 0.682182
vt 0.297496 0.685211
vt 0.297276 0.688745
vt 0.388059 0.528250
vt 0.300380 0.699372
vt 0.299281 0.703822
vt 0.298586 0.710677
vt 0.293569 0.708299
vt 0.923990 0.062235
vt 0.924528 0.058601
vt 0.933358 0.052769
vt 0.929496 0.054082
vt 0.458917 0.691234
vt 0.460012 0.687415
vt 0.460998 0.683516
vt 0.462071 0.679628
vt 0.462919 0.675594
vt 0.463582 0.671558
vt 0.464068 0.667409
vt 0.957313 0.045702
vt 0.966259 0.043635
vt 0.960060 0.043271
vt 0.972792 0.042270
vt 0.976902 0.043134
vt 0.621416 0.815253
vt 0.616345 0.819111
vt 0.611343 0.822939
vt 0.606650 0.826817
vt 0.602263 0.826247
vt 0.393748 0.526996
vt 0.404851 0.524273
vt 0.400466 0.526130
vt 0.296941 0.692272
vt 0.301034 0.695488
vt 0.386629 0.531700
vt 0.631774 0.806184
vt 0.631920 0.802999
vt 0.636709 0.803689
vt 0.636634 0.806759
vt 0.286481 0.671018
vt 0.291683 0.675062
vt 0.293206 0.678520
vt 0.297597 0.681650
vt 0.301550 0.687900
vt 0.301669 0.684184
vt 0.391705 0.530728
vt 0.304273 0.703163
vt 0.305204 0.698895
vt 0.303527 0.704770
vt 0.301551 0.708170
vt 0.319552 0.701485
vt 0.321764 0.698860
vt 0.324565 0.702305
vt 0.322249 0.704979
vt 0.317429 0.697700
vt 0.316547 0.704403
vt 0.314421 0.700377
vt 0.309793 0.697814
vt 0.313476 0.695916
vt 0.310045 0.702494
vt 0.457171 0.684607
vt 0.458121 0.680510
vt 0.458831 0.676381
vt 0.459356 0.672282
vt 0.459627 0.668159
vt 0.464306 0.663394
vt 0.469245 0.663232
vt 0.474135 0.663587
vt 0.473877 0.667408
vt 0.962749 0.040505
vt 0.968720 0.040441
vt 0.469120 0.659297
vt 0.473863 0.659807
vt 0.626483 0.811201
vt 0.625687 0.814935
vt 0.620860 0.819040
vt 0.615924 0.822897
vt 0.611202 0.826857
vt 0.606736 0.831057
vt 0.602677 0.830865
vt 0.397363 0.529532
vt 0.301403 0.691723
vt 0.305494 0.694773
vt 0.390228 0.534218
vt 0.636603 0.809922
vt 0.631653 0.809574
vt 0.282442 0.665873
vt 0.286779 0.667548
vt 0.291619 0.671646
vt 0.297470 0.678005
vt 0.301699 0.680543
vt 0.305481 0.682725
vt 0.305507 0.686628
vt 0.395347 0.533190
vt 0.308408 0.705797
vt 0.305623 0.709522
vt 0.313088 0.707814
vt 0.309596 0.693524
vt 0.312911 0.691610
vt 0.305599 0.690658
vt 0.309358 0.689200
vt 0.309083 0.684979
vt 0.455715 0.673409
vt 0.455440 0.677595
vt 0.459749 0.664073
vt 0.455821 0.669278
vt 0.464251 0.659381
vt 0.468729 0.655437
vt 0.473200 0.656002
vt 0.965270 0.037538
vt 0.971005 0.037268
vt 0.974950 0.039057
vt 0.625141 0.818758
vt 0.620357 0.822769
vt 0.615720 0.826701
vt 0.611252 0.830909
vt 0.414599 0.529010
vt 0.412630 0.531180
vt 0.408941 0.527709
vt 0.411032 0.526025
vt 0.402916 0.528065
vt 0.406693 0.530879
vt 0.400836 0.532005
vt 0.636610 0.813065
vt 0.631653 0.812726
vt 0.393888 0.536693
vt 0.626993 0.808398
vt 0.627023 0.805113
vt 0.291736 0.668061
vt 0.296678 0.670937
vt 0.297028 0.674432
vt 0.301620 0.676944
vt 0.305381 0.678943
vt 0.398946 0.535688
vt 0.309903 0.711615
vt 0.319532 0.707856
vt 0.316597 0.711006
vt 0.459603 0.659993
vt 0.455772 0.665164
vt 0.464005 0.655493
vt 0.468159 0.651534
vt 0.472328 0.652117
vt 0.967444 0.034612
vt 0.973038 0.034313
vt 0.976993 0.036027
vt 0.624587 0.822501
vt 0.619982 0.826506
vt 0.615779 0.830608
vt 0.606645 0.835283
vt 0.611420 0.834980
vt 0.410660 0.533350
vt 0.404483 0.534496
vt 0.636596 0.816122
vt 0.631714 0.815862
vt 0.286984 0.664032
vt 0.282542 0.662532
vt 0.282861 0.658943
vt 0.287254 0.660336
vt 0.397493 0.539206
vt 0.291876 0.664436
vt 0.296596 0.667441
vt 0.301192 0.669900
vt 0.301417 0.673408
vt 0.452565 0.670579
vt 0.452375 0.666440
vt 0.402561 0.538168
vt 0.313717 0.714436
vt 0.455484 0.661031
vt 0.459407 0.656018
vt 0.463610 0.651536
vt 0.467618 0.647411
vt 0.471576 0.648050
vt 0.969538 0.031739
vt 0.975104 0.031455
vt 0.978984 0.032944
vt 0.623904 0.826192
vt 0.620672 0.830261
vt 0.616005 0.834588
vt 0.611687 0.839022
vt 0.606834 0.839289
vt 0.408319 0.536832
vt 0.636568 0.819224
vt 0.631730 0.819074
vt 0.283154 0.655319
vt 0.287518 0.656628
vt 0.292028 0.660795
vt 0.401156 0.541661
vt 0.296639 0.663938
vt 0.301025 0.666388
vt 0.451659 0.658236
vt 0.455202 0.656971
vt 0.452042 0.662335
vt 0.406344 0.540531
vt 0.459066 0.651979
vt 0.463172 0.647424
vt 0.470907 0.643939
vt 0.467086 0.643219
vt 0.971692 0.028762
vt 0.977312 0.028394
vt 0.981048 0.029848
vt 0.620924 0.834184
vt 0.616308 0.838625
vt 0.607593 0.843139
vt 0.612088 0.843057
vt 0.415187 0.535069
vt 0.412421 0.539001
vt 0.631789 0.822196
vt 0.636584 0.822282
vt 0.287890 0.652889
vt 0.283405 0.651743
vt 0.292167 0.656961
vt 0.296618 0.660282
vt 0.404867 0.544103
vt 0.300954 0.662821
vt 0.451290 0.654114
vt 0.454850 0.652863
vt 0.410310 0.542767
vt 0.458691 0.647837
vt 0.462776 0.643244
vt 0.967036 0.028404
vt 0.969374 0.025480
vt 0.974019 0.025593
vt 0.979875 0.025683
vt 0.985662 0.027480
vt 0.626483 0.829497
vt 0.625717 0.833539
vt 0.620903 0.838213
vt 0.616537 0.842736
vt 0.419102 0.537633
vt 0.418076 0.531994
vt 0.421669 0.534769
vt 0.608384 0.847112
vt 0.612668 0.847142
vt 0.416462 0.541310
vt 0.283755 0.648055
vt 0.288381 0.649095
vt 0.636709 0.825418
vt 0.632021 0.825251
vt 0.292493 0.653220
vt 0.296584 0.656585
vt 0.300860 0.659204
vt 0.408746 0.546409
vt 0.454443 0.648670
vt 0.450964 0.649916
vt 0.414319 0.545059
vt 0.458332 0.643665
vt 0.462423 0.639191
vt 0.466283 0.639270
vt 0.971322 0.021063
vt 0.976296 0.022672
vt 0.978670 0.020263
vt 0.982377 0.023249
vt 0.625271 0.837634
vt 0.620849 0.842343
vt 0.616819 0.846893
vt 0.422948 0.540182
vt 0.425423 0.537303
vt 0.609189 0.851190
vt 0.613416 0.851332
vt 0.420407 0.543823
vt 0.284087 0.644209
vt 0.288778 0.645076
vt 0.293941 0.649238
vt 0.280856 0.638559
vt 0.284437 0.640233
vt 0.280538 0.642396
vt 0.296447 0.652858
vt 0.300623 0.655499
vt 0.454181 0.644490
vt 0.450713 0.645723
vt 0.412815 0.548580
vt 0.418324 0.547444
vt 0.458146 0.639554
vt 0.463455 0.631462
vt 0.468013 0.632261
vt 0.468868 0.636131
vt 0.463659 0.635311
vt 0.463367 0.627521
vt 0.467793 0.628371
vt 0.984698 0.021061
vt 0.981102 0.018060
vt 0.624773 0.841749
vt 0.620630 0.846532
vt 0.617876 0.851071
vt 0.429309 0.539640
vt 0.426793 0.542677
vt 0.614100 0.855686
vt 0.609858 0.855442
vt 0.424202 0.546375
vt 0.289049 0.641004
vt 0.294017 0.645268
vt 0.281343 0.634583
vt 0.284785 0.636147
vt 0.300310 0.651832
vt 0.450558 0.641566
vt 0.454106 0.640378
vt 0.417014 0.550579
vt 0.422270 0.549936
vt 0.458264 0.635469
vt 0.458414 0.631447
vt 0.463468 0.623541
vt 0.467811 0.624506
vt 0.458452 0.627346
vt 0.987060 0.018809
vt 0.983576 0.015891
vt 0.624196 0.845895
vt 0.620716 0.850625
vt 0.619051 0.855307
vt 0.433329 0.541788
vt 0.430798 0.544985
vt 0.614561 0.860061
vt 0.610421 0.859890
vt 0.427946 0.548950
vt 0.289200 0.636898
vt 0.294049 0.641057
vt 0.299060 0.644294
vt 0.299480 0.648118
vt 0.285148 0.631974
vt 0.281972 0.630517
vt 0.453949 0.636276
vt 0.450312 0.637423
vt 0.421346 0.552261
vt 0.425641 0.553784
vt 0.453792 0.632161
vt 0.463632 0.619692
vt 0.467874 0.620642
vt 0.458596 0.623289
vt 0.453790 0.628035
vt 0.989530 0.016652
vt 0.986170 0.013789
vt 0.623555 0.850179
vt 0.619287 0.859736
vt 0.435153 0.547031
vt 0.437507 0.543804
vt 0.614906 0.864485
vt 0.611094 0.864463
vt 0.432209 0.550869
vt 0.293960 0.636819
vt 0.289258 0.632632
vt 0.298828 0.640291
vt 0.449953 0.633393
vt 0.449904 0.629260
vt 0.282289 0.626203
vt 0.286090 0.627873
vt 0.429847 0.555310
vt 0.458966 0.619386
vt 0.464041 0.615835
vt 0.467981 0.616855
vt 0.454029 0.623942
vt 0.988732 0.011800
vt 0.992155 0.014575
vt 0.623377 0.854533
vt 0.623422 0.859075
vt 0.619434 0.864246
vt 0.441844 0.545864
vt 0.440110 0.548902
vt 0.614878 0.868961
vt 0.610161 0.868975
vt 0.293845 0.632596
vt 0.298605 0.636069
vt 0.289056 0.628285
vt 0.450166 0.625050
vt 0.282537 0.621899
vt 0.287725 0.623780
vt 0.435600 0.552060
vt 0.433951 0.556615
vt 0.283121 0.617802
vt 0.287581 0.619342
vt 0.454453 0.619804
vt 0.459477 0.615424
vt 0.464659 0.612042
vt 0.468289 0.612957
vt 0.991018 0.009440
vt 0.994450 0.012576
vt 0.993309 0.006906
vt 0.996699 0.010701
vt 0.623376 0.863786
vt 0.619353 0.868775
vt 0.614905 0.873419
vt 0.611253 0.873391
vt 0.298462 0.631947
vt 0.293569 0.628277
vt 0.302266 0.634451
vt 0.302506 0.638491
vt 0.439127 0.553012
vt 0.438183 0.557625
vt 0.283519 0.613742
vt 0.287757 0.615025
vt 0.292873 0.619604
vt 0.293142 0.623937
vt 0.454978 0.615644
vt 0.460315 0.611535
vt 0.465893 0.608279
vt 0.468250 0.608854
vt 0.469257 0.599724
vt 0.472716 0.602019
vt 0.471956 0.606311
vt 0.468118 0.604562
vt 0.623193 0.868461
vt 0.619297 0.873288
vt 0.615166 0.877781
vt 0.612284 0.877709
vt 0.443617 0.553882
vt 0.445281 0.549241
vt 0.449772 0.550331
vt 0.448220 0.554599
vt 0.298215 0.627665
vt 0.302133 0.630373
vt 0.442841 0.558329
vt 0.284119 0.609614
vt 0.288092 0.610711
vt 0.292811 0.615285
vt 0.297825 0.619164
vt 0.297991 0.623387
vt 0.455810 0.611604
vt 0.461462 0.607760
vt 0.473761 0.597980
vt 0.470430 0.595815
vt 0.463875 0.601169
vt 0.464989 0.597818
vt 0.623023 0.873038
vt 0.619151 0.877692
vt 0.454165 0.551267
vt 0.452765 0.555313
vt 0.447451 0.558986
vt 0.301856 0.626156
vt 0.285186 0.605202
vt 0.288548 0.606303
vt 0.292912 0.610971
vt 0.297607 0.614824
vt 0.301303 0.617716
vt 0.301534 0.621897
vt 0.456847 0.607680
vt 0.462827 0.604173
vt 0.466244 0.594135
vt 0.471550 0.592025
vt 0.474882 0.594072
vt 0.460649 0.596730
vt 0.459239 0.600244
vt 0.622157 0.877517
vt 0.613599 0.882057
vt 0.619484 0.881947
vt 0.458735 0.551969
vt 0.457160 0.556027
vt 0.452037 0.559551
vt 0.442953 0.561758
vt 0.447599 0.562471
vt 0.293223 0.606582
vt 0.297409 0.610528
vt 0.301105 0.613644
vt 0.458012 0.603887
vt 0.462159 0.593151
vt 0.467316 0.590374
vt 0.480713 0.801499
vt 0.476440 0.802529
vt 0.476016 0.799426
vt 0.480260 0.798211
vt 0.300701 0.609489
vt 0.619203 0.886147
vt 0.614301 0.886376
vt 0.462943 0.553279
vt 0.461522 0.557355
vt 0.456591 0.560118
vt 0.452201 0.563302
vt 0.293634 0.602085
vt 0.289128 0.601738
vt 0.297408 0.606169
vt 0.300253 0.605197
vt 0.463985 0.589849
vt 0.468110 0.586592
vt 0.472507 0.588377
vt 0.476023 0.796110
vt 0.480713 0.793580
vt 0.619713 0.890263
vt 0.615057 0.890608
vt 0.622199 0.885800
vt 0.622805 0.881465
vt 0.466083 0.559642
vt 0.467077 0.554688
vt 0.461290 0.559968
vt 0.456950 0.563744
vt 0.289537 0.597160
vt 0.294079 0.597411
vt 0.297661 0.601624
vt 0.458810 0.593288
vt 0.460653 0.589325
vt 0.469235 0.583144
vt 0.473646 0.585139
vt 0.621769 0.890075
vt 0.621187 0.894399
vt 0.615602 0.894826
vt 0.474924 0.581776
vt 0.470233 0.579570
vt 0.471124 0.555993
vt 0.470922 0.559281
vt 0.462061 0.561827
vt 0.294290 0.592561
vt 0.289990 0.592438
vt 0.298036 0.596873
vt 0.462979 0.585401
vt 0.465342 0.581865
vt 0.472673 0.576600
vt 0.476401 0.578484
vt 0.620302 0.898776
vt 0.616969 0.898619
vt 0.288746 0.582537
vt 0.290027 0.577991
vt 0.293062 0.578283
vt 0.292957 0.582772
vt 0.290684 0.587381
vt 0.293273 0.587511
vt 0.297624 0.592115
vt 0.296938 0.582676
vt 0.297695 0.587123
vt 0.475697 0.573836
vt 0.478184 0.575378
vt 0.744851 0.849647
vt 0.747743 0.846772
vt 0.749847 0.846535
vt 0.749847 0.852025
vt 0.749963 0.850167
vt 0.750089 0.846535
vt 0.752686 0.847957
vt 0.752686 0.852034
vt 0.296503 0.578192
vt 0.480308 0.572159
vt 0.480308 0.577759
vt 0.478633 0.575091
vt 0.288095 0.587251
s 1
usemtl doguinho_texture
f 6/1/1 1/2/2 5/3/3 16/4/4
f 6/5/1 17/6/5 8/7/6 2/8/7
f 7/9/8 8/7/6 18/10/9 19/11/10
f 11/12/11 24/13/12 25/14/13 12/15/14
f 13/16/15 26/17/16 14/18/17 3/19/18
f 15/20/19 4/21/20 14/18/17 27/22/21
f 15/20/19 28/23/22 16/4/4 5/3/3
f 6/1/1 16/4/4 29/24/23 17/25/5
f 17/6/5 30/26/24 18/10/9 8/7/6
f 31/27/25 32/28/26 19/11/10 18/10/9
f 32/28/26 20/29/27 9/30/28 19/11/10
f 10/31/29 20/29/27 33/32/30 21/33/31
f 34/34/32 22/35/33 21/33/31 35/36/34
f 13/16/15 12/15/14 25/14/13 26/17/16
f 24/13/12 40/37/35 41/38/36 25/14/13
f 14/18/17 26/17/16 42/39/37 27/22/21
f 15/20/19 27/22/21 43/40/38 28/23/22
f 44/41/39 29/24/23 16/4/4 28/23/22
f 17/25/5 29/24/23 45/42/40 30/43/24
f 46/44/41 31/27/25 18/10/9 30/26/24
f 31/27/25 47/45/42 48/46/43 32/28/26
f 32/28/26 48/46/43 33/32/30 20/29/27
f 49/47/44 35/36/34 21/33/31 33/32/30
f 23/48/45 22/35/33 34/34/32 36/49/46
f 50/50/47 34/34/32 35/36/34 51/51/48
f 52/52/49 53/53/50 37/54/51 36/49/46
f 41/38/36 42/39/37 26/17/16 25/14/13
f 57/55/52 58/56/53 24/13/12 39/57/54
f 41/38/36 40/37/35 59/58/55 60/59/56
f 43/40/38 27/22/21 42/39/37 61/60/57
f 43/40/38 62/61/58 44/41/39 28/23/22
f 44/41/39 63/62/59 45/42/40 29/24/23
f 64/63/60 46/64/41 30/43/24 45/42/40
f 46/44/41 65/65/61 66/66/62 31/27/25
f 67/67/63 48/46/43 47/45/42 68/68/64
f 67/67/63 49/47/44 33/32/30 48/46/43
f 50/50/47 52/52/49 36/49/46 34/34/32
f 50/50/47 51/51/48 69/69/65 70/70/66
f 52/71/49 71/72/67 72/73/68 53/74/50
f 53/74/50 72/73/68 54/75/69 38/76/70
f 75/77/71 76/78/72 56/79/73 55/80/74
f 76/78/72 77/81/75 57/55/52 56/79/73
f 61/60/57 42/39/37 41/38/36 60/59/56
f 57/55/52 77/81/75 78/82/76 58/56/53
f 58/56/53 78/82/76 59/58/55 40/37/35
f 79/83/77 80/84/78 60/59/56 59/58/55
f 43/40/38 61/60/57 81/85/79 62/61/58
f 44/41/39 62/61/58 82/86/80 63/62/59
f 64/63/60 45/42/40 63/62/59 83/87/81
f 64/63/60 84/88/82 65/89/61 46/64/41
f 85/90/83 86/91/84 66/66/62 65/65/61
f 68/68/64 47/45/42 66/66/62 86/91/84
f 87/92/85 49/47/44 67/67/63 88/93/86
f 50/50/47 70/70/66 71/94/67 52/52/49
f 89/95/87 69/69/65 51/51/48 90/96/88
f 91/97/89 70/98/66 69/99/65 92/100/90
f 71/72/67 93/101/91 94/102/92 72/73/68
f 94/102/92 73/103/93 54/75/69 72/73/68
f 75/77/71 98/104/94 99/105/95 76/78/72
f 99/105/95 100/106/96 77/81/75 76/78/72
f 61/60/57 60/59/56 80/84/78 81/85/79
f 78/82/76 77/81/75 100/106/96 101/107/97
f 79/83/77 59/58/55 78/82/76 101/107/97
f 102/108/98 103/109/99 80/84/78 79/83/77
f 104/110/100 82/86/80 62/61/58 81/85/79
f 82/86/80 105/111/101 83/87/81 63/62/59
f 64/63/60 83/87/81 106/112/102 84/88/82
f 85/113/83 65/89/61 84/88/82 107/114/103
f 108/115/104 109/116/105 86/91/84 85/90/83
f 110/117/106 68/68/64 86/91/84 109/116/105
f 111/118/107 88/93/86 67/67/63 110/117/106
f 87/92/85 88/93/86 112/119/108 90/96/88
f 71/72/67 70/98/66 91/97/89 93/101/91
f 89/120/87 113/121/109 92/100/90 69/99/65
f 89/95/87 90/96/88 112/119/108 114/122/110
f 115/123/111 91/97/89 92/100/90 116/124/112
f 117/125/113 94/102/92 93/101/91 118/126/114
f 95/127/115 73/103/93 94/102/92 117/125/113
f 75/77/71 74/128/116 97/129/117 98/104/94
f 119/130/118 120/131/119 97/129/117 96/132/120
f 99/105/95 98/104/94 121/133/121 122/134/122
f 99/105/95 122/134/122 123/135/123 100/106/96
f 124/136/124 101/107/97 100/106/96 123/135/123
f 102/108/98 79/83/77 101/107/97 124/136/124
f 102/108/98 125/137/125 126/138/126 103/109/99
f 104/110/100 127/139/127 105/111/101 82/86/80
f 128/140/128 106/112/102 83/87/81 105/111/101
f 129/141/129 107/114/103 84/88/82 106/112/102
f 108/142/104 85/143/83 107/144/103 130/145/130
f 108/115/104 131/146/131 132/147/132 109/116/105
f 111/118/107 110/117/106 109/116/105 133/148/133
f 111/118/107 134/149/134 112/119/108 88/93/86
f 115/123/111 118/126/114 93/101/91 91/97/89
f 89/120/87 114/150/110 135/151/135 113/121/109
f 116/124/112 92/100/90 113/121/109 136/152/136
f 114/122/110 112/119/108 134/149/134 137/153/137
f 115/123/111 116/124/112 138/154/138 139/155/139
f 140/156/140 117/125/113 118/126/114 141/157/141
f 121/133/121 98/104/94 97/129/117 120/131/119
f 119/130/118 143/158/142 144/159/143 120/131/119
f 121/133/121 145/160/144 146/161/145 122/134/122
f 122/134/122 146/161/145 147/162/146 123/135/123
f 147/162/146 148/163/147 124/136/124 123/135/123
f 102/108/98 124/136/124 148/163/147 125/137/125
f 149/164/148 103/109/99 126/138/126 150/165/149
f 149/164/148 150/165/149 127/139/127 104/110/100
f 127/139/127 151/166/150 128/140/128 105/111/101
f 152/167/151 129/141/129 106/112/102 128/140/128
f 153/168/152 130/145/130 107/144/103 129/169/129
f 108/142/104 130/145/130 154/170/153 131/171/131
f 155/172/154 132/147/132 131/146/131 156/173/155
f 109/116/105 132/147/132 157/174/156 133/148/133
f 111/118/107 133/148/133 158/175/157 134/149/134
f 115/123/111 139/155/139 141/157/141 118/126/114
f 114/122/110 137/153/137 159/176/158 135/177/135
f 113/121/109 135/151/135 160/178/159 136/152/136
f 116/124/112 136/152/136 161/179/160 138/154/138
f 137/153/137 134/149/134 158/175/157 162/180/161
f 163/181/162 140/156/140 141/157/141 164/182/163
f 119/130/118 142/183/164 165/184/165 143/158/142
f 121/133/121 120/131/119 144/159/143 145/160/144
f 143/158/142 166/185/166 167/186/167 144/159/143
f 168/187/168 169/188/169 146/161/145 145/160/144
f 147/162/146 146/161/145 169/188/169 170/189/170
f 147/162/146 170/189/170 171/190/171 148/163/147
f 125/137/125 148/163/147 171/190/171 172/191/172
f 150/165/149 173/192/173 151/166/150 127/139/127
f 152/167/151 128/140/128 151/166/150 174/193/174
f 153/168/152 129/169/129 152/194/151 175/195/175
f 153/168/152 176/196/176 154/170/153 130/145/130
f 177/197/177 156/198/155 131/171/131 154/170/153
f 157/174/156 132/147/132 155/172/154 178/199/178
f 133/148/133 157/174/156 179/200/179 158/175/157
f 180/201/180 164/182/163 141/157/141 139/155/139
f 137/153/137 162/180/161 181/202/181 159/176/158
f 160/178/159 135/151/135 159/203/158 182/204/182
f 160/178/159 183/205/183 161/179/160 136/152/136
f 184/206/184 185/207/185 138/154/138 161/179/160
f 186/208/186 162/180/161 158/175/157 179/200/179
f 187/209/187 163/181/162 164/182/163 188/210/188
f 143/158/142 165/184/165 190/211/189 166/185/166
f 168/187/168 145/160/144 144/159/143 167/186/167
f 166/185/166 191/212/190 192/213/191 167/186/167
f 168/214/168 193/215/192 194/216/193 169/217/169
f 194/216/193 195/218/194 170/219/170 169/217/169
f 196/220/195 171/221/171 170/219/170 195/218/194
f 196/220/195 197/222/196 172/223/172 171/221/171
f 125/137/125 172/191/172 198/224/197 199/225/198
f 173/192/173 200/226/199 174/193/174 151/166/150
f 152/167/151 174/193/174 201/227/200 175/228/175
f 153/168/152 175/195/175 202/229/201 176/196/176
f 177/197/177 154/170/153 176/196/176 203/230/202
f 177/197/177 204/231/203 205/232/204 156/198/155
f 155/172/154 205/233/204 206/234/205 178/199/178
f 207/235/206 179/200/179 157/174/156 178/199/178
f 208/236/207 188/210/188 164/182/163 180/201/180
f 186/208/186 209/237/208 181/202/181 162/180/161
f 159/203/158 181/238/181 210/239/209 182/204/182
f 160/178/159 182/204/182 211/240/210 183/205/183
f 212/241/211 184/206/184 161/179/160 183/205/183
f 184/206/184 213/242/212 214/243/213 185/207/185
f 207/235/206 215/244/214 186/208/186 179/200/179
f 187/209/187 188/210/188 216/245/215 217/246/216
f 166/185/166 190/211/189 220/247/217 191/212/190
f 168/187/168 167/186/167 192/213/191 193/248/192
f 192/249/191 191/250/190 221/251/218 222/252/219
f 193/215/192 223/253/220 224/254/221 194/216/193
f 224/254/221 225/255/222 195/218/194 194/216/193
f 196/220/195 195/218/194 225/255/222 226/256/223
f 196/220/195 226/256/223 227/257/224 197/222/196
f 197/258/196 228/259/225 198/224/197 172/191/172
f 229/260/226 230/261/227 199/225/198 198/224/197
f 231/262/228 200/226/199 173/192/173 229/260/226
f 232/263/229 201/227/200 174/193/174 200/226/199
f 175/195/175 201/264/200 233/265/230 202/229/201
f 234/266/231 203/230/202 176/196/176 202/229/201
f 177/197/177 203/230/202 235/267/232 204/231/203
f 236/268/233 205/232/204 204/231/203 237/269/234
f 238/270/235 206/234/205 205/233/204 236/271/233
f 207/235/206 178/199/178 206/234/205 239/272/236
f 208/236/207 240/273/237 216/245/215 188/210/188
f 208/236/207 180/201/180 241/274/238 242/275/239
f 186/208/186 215/244/214 243/276/240 209/237/208
f 210/239/209 181/238/181 209/277/208 244/278/241
f 245/279/242 211/240/210 182/204/182 210/239/209
f 212/241/211 183/205/183 211/240/210 246/280/243
f 212/241/211 247/281/244 213/242/212 184/206/184
f 213/242/212 248/282/245 249/283/246 214/243/213
f 242/275/239 241/274/238 185/207/185 214/243/213
f 250/284/247 215/244/214 207/235/206 239/272/236
f 216/245/215 251/285/248 252/286/249 217/246/216
f 218/287/250 189/288/251 217/246/216 252/286/249
f 219/289/252 253/290/253 220/247/217 190/211/189
f 221/291/218 191/212/190 220/247/217 254/292/254
f 193/215/192 192/249/191 222/252/219 223/253/220
f 221/251/218 255/293/255 256/294/256 222/252/219
f 257/295/257 258/296/258 224/254/221 223/253/220
f 259/297/259 225/255/222 224/254/221 258/296/258
f 226/256/223 225/255/222 259/297/259 260/298/260
f 227/257/224 226/256/223 260/298/260 261/299/261
f 229/260/226 198/224/197 228/259/225 262/300/262
f 231/262/228 263/301/263 232/263/229 200/226/199
f 231/262/228 229/260/226 262/300/262 264/302/264
f 232/263/229 265/303/265 233/304/230 201/227/200
f 233/265/230 266/305/266 234/266/231 202/229/201
f 234/266/231 267/306/267 235/267/232 203/230/202
f 237/269/234 204/231/203 235/267/232 268/307/268
f 236/268/233 237/269/234 269/308/269 270/309/270
f 238/270/235 271/310/271 239/272/236 206/234/205
f 238/270/235 236/271/233 270/311/270 272/312/272
f 208/236/207 242/275/239 273/313/273 240/273/237
f 216/245/215 240/273/237 274/314/274 251/285/248
f 250/284/247 275/315/275 243/276/240 215/244/214
f 276/316/276 244/317/241 209/318/208 243/319/240
f 245/279/242 210/239/209 244/278/241 277/320/277
f 246/280/243 211/240/210 245/279/242 278/321/278
f 212/241/211 246/280/243 279/322/279 247/281/244
f 247/281/244 280/323/280 248/282/245 213/242/212
f 281/324/281 249/283/246 248/282/245 282/325/282
f 242/275/239 214/243/213 249/283/246 273/313/273
f 271/310/271 283/326/283 250/284/247 239/272/236
f 284/327/284 252/286/249 251/285/248 285/328/285
f 218/287/250 252/286/249 286/329/286 287/330/287
f 254/331/254 220/332/217 253/333/253 289/334/288
f 221/335/218 254/331/254 290/336/289 255/337/255
f 222/252/219 256/294/256 257/295/257 223/253/220
f 291/338/290 256/339/256 255/337/255 292/340/291
f 293/341/292 294/342/293 258/296/258 257/295/257
f 259/297/259 258/296/258 294/342/293 295/343/294
f 259/297/259 295/343/294 296/344/295 260/298/260
f 297/345/296 261/299/261 260/298/260 296/344/295
f 227/257/224 261/299/261 298/346/297 299/347/298
f 227/257/224 299/347/298 262/348/262 228/349/225
f 231/262/228 264/302/264 300/350/299 263/301/263
f 232/263/229 263/301/263 301/351/300 265/303/265
f 262/348/262 299/347/298 302/352/301 264/353/264
f 233/265/230 265/354/265 303/355/302 266/305/266
f 304/356/303 267/306/267 234/266/231 266/305/266
f 268/307/268 235/267/232 267/306/267 305/357/304
f 237/269/234 268/307/268 306/358/305 269/308/269
f 269/308/269 307/359/306 308/360/307 270/309/270
f 309/361/308 271/310/271 238/270/235 272/312/272
f 310/362/309 274/314/274 240/273/237 273/313/273
f 285/328/285 251/285/248 274/314/274 311/363/310
f 312/364/311 275/315/275 250/284/247 283/326/283
f 276/316/276 243/319/240 275/365/275 313/366/312
f 276/367/276 314/368/313 277/320/277 244/278/241
f 315/369/314 278/321/278 245/279/242 277/320/277
f 316/370/315 280/323/280 247/281/244 279/322/279
f 317/371/316 282/325/282 248/282/245 280/323/280
f 310/362/309 273/313/273 249/283/246 281/324/281
f 318/372/317 319/373/318 281/324/281 282/325/282
f 309/361/308 320/374/319 283/326/283 271/310/271
f 284/327/284 285/328/285 291/338/290 292/340/291
f 321/375/320 288/376/321 287/330/287 286/329/286
f 324/377/322 292/340/291 255/337/255 290/336/289
f 291/338/290 293/378/292 257/379/257 256/339/256
f 293/378/292 311/363/310 325/380/323 294/381/293
f 294/381/293 325/380/323 319/373/318 295/382/294
f 318/383/317 296/344/295 295/343/294 319/384/318
f 326/385/324 298/346/297 261/299/261 297/345/296
f 318/383/317 327/386/325 297/345/296 296/344/295
f 298/346/297 328/387/326 302/352/301 299/347/298
f 329/388/327 300/389/299 264/353/264 302/352/301
f 301/351/300 263/301/263 300/350/299 330/390/328
f 331/391/329 303/392/302 265/303/265 301/351/300
f 332/393/330 304/356/303 266/305/266 303/355/302
f 304/356/303 333/394/331 305/357/304 267/306/267
f 268/307/268 305/357/304 334/395/332 306/358/305
f 269/308/269 306/358/305 335/396/333 307/359/306
f 336/397/334 337/398/335 308/399/307 307/400/306
f 338/401/336 270/311/270 308/399/307 339/402/337
f 309/361/308 272/312/272 338/401/336 340/403/338
f 310/362/309 325/380/323 311/363/310 274/314/274
f 291/338/290 285/328/285 311/363/310 293/378/292
f 312/404/311 341/405/339 313/366/312 275/365/275
f 312/364/311 283/326/283 320/374/319 342/406/340
f 343/407/341 314/408/313 276/316/276 313/366/312
f 315/369/314 277/320/277 314/368/313 344/409/342
f 345/410/343 346/411/344 278/321/278 315/369/314
f 316/370/315 347/412/345 317/371/316 280/323/280
f 316/370/315 279/322/279 278/321/278 346/411/344
f 318/372/317 282/325/282 317/371/316 327/413/325
f 310/362/309 281/324/281 319/373/318 325/380/323
f 348/414/346 320/374/319 309/361/308 340/403/338
f 284/327/284 292/340/291 321/375/320 286/329/286
f 324/377/322 322/415/347 288/376/321 321/375/320
f 324/377/322 290/336/289 323/416/348 350/417/349
f 326/385/324 351/418/350 328/387/326 298/346/297
f 326/385/324 297/345/296 327/386/325 352/419/351
f 328/387/326 353/420/352 329/388/327 302/352/301
f 354/421/353 330/422/328 300/389/299 329/388/327
f 331/391/329 301/351/300 330/390/328 355/423/354
f 356/424/355 332/425/330 303/392/302 331/391/329
f 357/426/356 333/394/331 304/356/303 332/393/330
f 334/395/332 305/357/304 333/394/331 358/427/357
f 335/396/333 306/358/305 334/395/332 359/428/358
f 336/429/334 307/359/306 335/396/333 360/430/359
f 361/431/360 339/402/337 308/399/307 337/398/335
f 340/403/338 338/401/336 339/402/337 362/432/361
f 312/404/311 342/433/340 363/434/362 341/405/339
f 343/435/341 313/436/312 341/437/339 364/438/363
f 348/414/346 365/439/364 342/406/340 320/374/319
f 343/435/341 366/440/365 344/409/342 314/368/313
f 367/441/366 345/410/343 315/369/314 344/409/342
f 345/410/343 368/442/367 369/443/368 346/411/344
f 316/370/315 346/411/344 369/443/368 347/412/345
f 317/444/316 347/445/345 352/419/351 327/386/325
f 348/414/346 340/403/338 362/432/361 370/446/369
f 324/377/322 350/417/349 349/447/370 322/415/347
f 326/385/324 352/419/351 371/448/371 351/418/350
f 372/449/372 353/420/352 328/387/326 351/418/350
f 354/421/353 329/388/327 353/420/352 373/450/373
f 354/421/353 374/451/374 355/452/354 330/422/328
f 356/424/355 331/391/329 355/423/354 375/453/375
f 356/424/355 376/454/376 357/455/356 332/425/330
f 357/426/356 377/456/377 358/427/357 333/394/331
f 378/457/378 359/428/358 334/395/332 358/427/357
f 335/396/333 359/428/358 379/458/379 360/430/359
f 336/429/334 360/430/359 380/459/380 381/460/381
f 361/431/360 382/461/382 362/432/361 339/402/337
f 365/462/364 383/463/383 363/434/362 342/433/340
f 341/437/339 363/464/362 384/465/384 364/438/363
f 343/435/341 364/438/363 385/466/385 366/440/365
f 348/414/346 370/446/369 386/467/386 365/439/364
f 367/441/366 344/409/342 366/440/365 387/468/387
f 367/441/366 388/469/388 368/442/367 345/410/343
f 368/470/367 389/471/389 371/448/371 369/472/368
f 369/472/368 371/448/371 352/419/351 347/445/345
f 370/446/369 362/432/361 382/461/382 390/473/390
f 372/449/372 351/418/350 371/448/371 389/471/389
f 372/449/372 391/474/391 373/450/373 353/420/352
f 392/475/392 374/451/374 354/421/353 373/450/373
f 375/476/375 355/452/354 374/451/374 393/477/393
f 356/424/355 375/453/375 394/478/394 376/454/376
f 357/455/356 376/454/376 395/479/395 377/480/377
f 378/457/378 396/481/396 379/458/379 359/428/358
f 397/482/397 380/459/380 360/430/359 379/458/379
f 398/483/398 381/460/381 380/459/380 399/484/399
f 361/431/360 400/485/400 401/486/401 382/461/382
f 402/487/402 383/463/383 365/462/364 386/488/386
f 403/489/403 384/465/384 363/464/362 383/490/383
f 364/438/363 384/465/384 404/491/404 385/466/385
f 387/468/387 366/440/365 385/466/385 405/492/405
f 406/493/406 386/467/386 370/446/369 390/473/390
f 367/441/366 387/468/387 407/494/407 388/469/388
f 368/470/367 388/495/388 408/496/408 389/471/389
f 382/461/382 401/486/401 409/497/409 390/473/390
f 372/449/372 389/471/389 408/496/408 391/474/391
f 392/475/392 373/450/373 391/474/391 410/498/410
f 392/475/392 411/499/411 393/477/393 374/451/374
f 375/453/375 393/500/393 412/501/412 394/478/394
f 394/478/394 413/502/413 395/479/395 376/454/376
f 414/503/414 378/504/378 377/480/377 395/479/395
f 414/505/414 415/506/415 396/481/396 378/457/378
f 397/482/397 379/458/379 396/481/396 416/507/416
f 397/482/397 417/508/417 399/484/399 380/459/380
f 418/509/418 400/485/400 381/510/381 398/511/398
f 419/512/419 398/483/398 399/484/399 420/513/420
f 418/509/418 421/514/421 401/486/401 400/485/400
f 402/515/402 422/516/422 403/489/403 383/490/383
f 402/487/402 386/488/386 406/517/406 423/518/423
f 424/519/424 404/491/404 384/465/384 403/489/403
f 385/466/385 404/491/404 425/520/425 405/492/405
f 387/468/387 405/492/405 426/521/426 407/494/407
f 427/522/427 406/493/406 390/473/390 409/497/409
f 428/523/428 408/496/408 388/495/388 407/524/407
f 429/525/429 409/497/409 401/486/401 421/514/421
f 428/523/428 410/498/410 391/474/391 408/496/408
f 392/475/392 410/498/410 430/526/430 411/499/411
f 431/527/431 412/528/412 393/477/393 411/499/411
f 432/529/432 413/502/413 394/478/394 412/501/412
f 414/503/414 395/479/395 413/502/413 433/530/433
f 414/503/414 433/530/433 434/531/434 415/532/415
f 435/533/435 416/507/416 396/481/396 415/506/415
f 436/534/436 417/508/417 397/482/397 416/507/416
f 437/535/437 420/513/420 399/484/399 417/508/417
f 438/536/438 418/509/418 398/511/398 419/537/419
f 439/538/439 419/512/419 420/513/420 440/539/440
f 438/536/438 441/540/441 421/514/421 418/509/418
f 402/515/402 423/541/423 442/542/442 422/516/422
f 424/519/424 403/489/403 422/516/422 443/543/443
f 427/544/427 444/545/444 423/541/423 406/546/406
f 424/519/424 445/547/445 425/520/425 404/491/404
f 446/548/446 426/521/426 405/492/405 425/520/425
f 447/549/447 428/523/428 407/524/407 426/550/426
f 429/525/429 448/551/448 427/522/427 409/497/409
f 449/552/449 429/525/429 421/514/421 441/540/441
f 447/549/447 430/526/430 410/498/410 428/523/428
f 431/527/431 411/499/411 430/526/430 450/553/450
f 451/554/451 433/555/433 413/556/413 432/557/432
f 452/558/452 434/559/434 433/555/433 451/554/451
f 435/560/435 415/532/415 434/531/434 453/561/453
f 436/534/436 416/507/416 435/533/435 454/562/454
f 455/563/455 437/535/437 417/508/417 436/534/436
f 456/564/456 440/539/440 420/513/420 437/535/437
f 438/536/438 419/537/419 439/565/439 457/566/457
f 458/567/458 459/568/459 439/538/439 440/539/440
f 438/536/438 457/566/457 460/569/460 441/540/441
f 442/542/442 423/541/423 444/545/444 461/570/461
f 462/571/462 443/543/443 422/516/422 442/542/442
f 427/544/427 448/572/448 463/573/463 444/545/444
f 464/574/464 446/548/446 425/520/425 445/547/445
f 447/549/447 426/550/426 446/575/446 465/576/465
f 449/552/449 466/577/466 448/551/448 429/525/429
f 449/552/449 441/540/441 460/569/460 467/578/467
f 447/549/447 465/576/465 450/553/450 430/526/430
f 431/527/431 450/553/450 468/579/468 432/557/432
f 451/554/451 432/557/432 468/579/468 469/580/469
f 470/581/470 453/582/453 434/559/434 452/558/452
f 452/558/452 451/554/451 469/580/469 471/583/471
f 454/584/454 435/560/435 453/561/453 472/585/472
f 455/563/455 436/534/436 454/562/454 473/586/473
f 455/563/455 474/587/474 456/564/456 437/535/437
f 458/567/458 440/539/440 456/564/456 475/588/475
f 439/565/439 459/589/459 476/590/476 457/566/457
f 477/591/477 478/592/478 459/568/459 458/567/458
f 479/593/479 460/569/460 457/566/457 476/590/476
f 480/594/480 461/570/461 444/545/444 463/573/463
f 462/571/462 442/542/442 461/570/461 481/595/481
f 462/571/462 482/596/482 483/597/483 443/543/443
f 484/598/484 463/573/463 448/572/448 466/599/466
f 485/600/485 465/576/465 446/575/446 464/601/464
f 443/543/443 483/597/483 464/574/464 445/547/445
f 449/552/449 467/578/467 486/602/486 466/577/466
f 479/593/479 487/603/487 467/578/467 460/569/460
f 485/600/485 468/579/468 450/553/450 465/576/465
f 485/600/485 488/604/488 469/580/469 468/579/468
f 470/581/470 489/605/489 472/606/472 453/582/453
f 490/607/490 470/581/470 452/558/452 471/583/471
f 471/583/471 469/580/469 488/604/488 491/608/491
f 473/609/473 454/584/454 472/585/472 492/610/492
f 455/563/455 473/586/473 493/611/493 474/587/474
f 477/591/477 458/567/458 475/588/475 494/612/494
f 495/613/495 476/590/476 459/589/459 478/614/478
f 477/591/477 496/615/496 497/616/497 478/592/478
f 498/617/498 479/593/479 476/590/476 495/613/495
f 480/594/480 499/618/499 481/595/481 461/570/461
f 484/598/484 500/619/500 480/594/480 463/573/463
f 462/571/462 481/595/481 501/620/501 482/596/482
f 483/621/483 482/622/482 491/608/491 488/604/488
f 484/598/484 466/599/466 486/623/486 502/624/502
f 485/600/485 464/601/464 483/621/483 488/604/488
f 498/617/498 503/625/503 487/603/487 479/593/479
f 490/607/490 504/626/504 489/605/489 470/581/470
f 505/627/505 492/628/492 472/606/472 489/605/489
f 490/607/490 471/583/471 491/608/491 506/629/506
f 473/609/473 492/610/492 507/630/507 493/631/493
f 475/588/475 508/632/508 509/633/509 494/612/494
f 477/591/477 494/612/494 510/634/510 496/615/496
f 495/613/495 478/614/478 497/635/497 511/636/511
f 496/615/496 512/637/512 513/638/513 497/616/497
f 514/639/514 499/618/499 480/594/480 500/619/500
f 515/640/515 501/620/501 481/595/481 499/618/499
f 516/641/516 500/619/500 484/598/484 502/624/502
f 501/642/501 506/629/506 491/608/491 482/622/482
f 487/643/487 517/644/517 502/624/502 486/623/486
f 498/617/498 518/645/518 519/646/519 503/625/503
f 487/643/487 503/647/503 520/648/520 517/644/517
f 490/607/490 506/629/506 521/649/521 504/626/504
f 522/650/522 505/627/505 489/605/489 504/626/504
f 505/627/505 523/651/523 507/652/507 492/628/492
f 507/630/507 524/653/524 508/654/508 493/631/493
f 524/653/524 525/655/525 509/656/509 508/654/508
f 510/634/510 494/612/494 509/633/509 526/657/526
f 496/615/496 510/634/510 527/658/527 512/637/512
f 528/659/528 529/660/529 513/638/513 512/637/512
f 515/640/515 499/618/499 514/639/514 530/661/530
f 516/641/516 531/662/531 514/639/514 500/619/500
f 521/663/521 506/664/506 501/620/501 515/640/515
f 532/665/532 533/666/533 519/646/519 518/645/518
f 520/648/520 503/647/503 519/667/519 534/668/534
f 535/669/535 536/670/536 517/644/517 520/648/520
f 522/650/522 504/626/504 521/649/521 537/671/537
f 522/650/522 538/672/538 523/651/523 505/627/505
f 523/651/523 539/673/539 524/674/524 507/652/507
f 540/675/540 526/676/526 509/677/509 525/678/525
f 541/679/541 527/658/527 510/634/510 526/657/526
f 528/659/528 512/637/512 527/658/527 542/680/542
f 528/659/528 543/681/543 544/682/544 529/660/529
f 545/683/545 513/684/513 529/685/529 546/686/546
f 514/639/514 531/662/531 547/687/547 530/661/530
f 537/688/537 521/663/521 515/640/515 530/661/530
f 536/670/536 531/662/531 516/641/516 517/644/517
f 545/683/545 548/689/548 533/666/533 532/665/532
f 533/690/533 549/691/549 534/668/534 519/667/519
f 535/669/535 520/648/520 534/668/534 550/692/550
f 535/669/535 551/693/551 552/694/552 536/670/536
f 522/650/522 537/671/537 553/695/553 538/672/538
f 523/651/523 538/672/538 554/696/554 539/673/539
f 541/697/541 526/676/526 540/675/540 555/698/555
f 540/675/540 525/678/525 556/699/556 557/700/557
f 541/679/541 558/701/558 542/680/542 527/658/527
f 528/659/528 542/680/542 559/702/559 543/681/543
f 545/683/545 532/665/532 511/636/511 513/684/513
f 546/686/546 529/685/529 544/703/544 560/704/560
f 545/683/545 546/686/546 561/705/561 548/689/548
f 536/670/536 552/694/552 547/687/547 531/662/531
f 537/688/537 530/661/530 547/687/547 553/706/553
f 533/690/533 548/707/548 562/708/562 549/691/549
f 549/691/549 563/709/563 550/692/550 534/668/534
f 564/710/564 551/693/551 535/669/535 550/692/550
f 565/711/565 566/712/566 552/694/552 551/693/551
f 566/713/566 554/696/554 538/672/538 553/695/553
f 567/714/567 525/678/525 539/673/539 554/696/554
f 540/675/540 557/700/557 568/715/568 555/698/555
f 541/697/541 555/698/555 569/716/569 558/717/558
f 570/718/570 557/700/557 556/699/556 571/719/571
f 559/702/559 542/680/542 558/701/558 572/720/572
f 573/721/573 543/681/543 559/702/559 574/722/574
f 573/723/573 575/724/575 560/704/560 544/703/544
f 546/686/546 560/704/560 576/725/576 561/705/561
f 562/726/562 548/689/548 561/705/561 577/727/577
f 552/694/552 566/712/566 553/706/553 547/687/547
f 578/728/578 563/709/563 549/691/549 562/708/562
f 564/710/564 550/692/550 563/709/563 579/729/579
f 564/710/564 571/730/571 565/711/565 551/693/551
f 565/731/565 567/714/567 554/696/554 566/713/566
f 570/718/570 580/732/580 568/715/568 557/700/557
f 569/716/569 555/698/555 568/715/568 581/733/581
f 558/734/558 569/735/569 582/736/582 572/737/572
f 556/699/556 567/714/567 565/731/565 571/719/571
f 564/710/564 579/729/579 570/738/570 571/730/571
f 583/739/583 584/740/584 573/721/573 574/722/574
f 573/723/573 584/741/584 585/742/585 575/724/575
f 576/725/576 560/704/560 575/724/575 586/743/586
f 576/725/576 587/744/587 577/727/577 561/705/561
f 588/745/588 578/728/578 562/708/562 577/746/577
f 589/747/589 579/729/579 563/709/563 578/728/578
f 589/747/589 580/748/580 570/738/570 579/729/579
f 568/715/568 580/732/580 590/749/590 581/733/581
f 591/750/591 582/751/582 569/716/569 581/733/581
f 582/736/582 592/752/592 574/753/574 572/737/572
f 583/739/583 593/754/593 594/755/594 584/740/584
f 595/756/595 583/739/583 574/722/574 592/757/592
f 596/758/596 585/742/585 584/741/584 594/759/594
f 597/760/597 586/743/586 575/724/575 585/742/585
f 598/761/598 587/744/587 576/725/576 586/743/586
f 588/745/588 577/746/577 587/762/587 599/763/599
f 589/747/589 578/728/578 588/745/588 600/764/600
f 589/765/589 600/766/600 590/749/590 580/732/580
f 601/767/601 592/768/592 582/751/582 591/750/591
f 595/756/595 602/769/602 593/754/593 583/739/583
f 593/754/593 603/770/603 604/771/604 594/755/594
f 595/772/595 592/768/592 601/767/601 605/773/605
f 596/758/596 594/759/594 604/774/604 606/775/606
f 597/760/597 607/776/607 598/761/598 586/743/586
f 608/777/608 599/763/599 587/762/587 598/778/598
f 588/745/588 599/763/599 609/779/609 600/764/600
f 609/780/609 610/781/610 601/767/601 591/750/591
f 595/772/595 605/773/605 611/782/611 602/783/602
f 612/784/612 613/785/613 604/771/604 603/770/603
f 596/786/596 606/787/606 614/788/614 615/789/615
f 608/777/608 598/778/598 607/790/607 616/791/616
f 609/779/609 599/763/599 608/777/608 610/792/610
f 616/791/616 615/789/615 611/793/611 605/794/605
f 602/783/602 611/782/611 617/795/617 603/796/603
f 604/797/604 613/798/613 612/799/612 614/800/614
f 612/801/612 603/802/603 617/803/617 614/804/614
f 611/793/611 615/789/615 614/788/614 617/805/617
f 608/777/608 616/791/616 605/794/605 610/792/610
f 24/13/12 58/56/53 40/37/35
f 31/27/25 66/66/62 47/45/42
f 35/36/34 49/47/44 87/92/85 90/96/88 51/51/48
f 67/67/63 68/68/64 110/117/106
f 80/84/78 103/109/99 149/164/148 104/110/100 81/85/79
f 125/137/125 199/225/198 126/138/126
f 138/154/138 185/207/185 241/274/238 180/201/180 139/155/139
f 126/138/126 199/225/198 230/261/227 173/192/173 150/165/149
f 155/172/154 156/173/155 205/233/204
f 197/222/196 227/257/224 228/349/225
f 173/192/173 230/261/227 229/260/226
f 270/311/270 338/401/336 272/312/272
f 246/280/243 278/321/278 279/322/279
f 252/286/249 284/327/284 286/329/286
f 292/340/291 324/377/322 321/375/320
f 336/397/334 381/510/381 400/485/400 361/431/360 337/398/335
f 358/427/357 377/456/377 378/457/378
f 412/528/412 431/527/431 432/557/432
f 424/519/424 443/543/443 445/547/445
f 456/564/456 474/587/474 493/611/493 508/632/508 475/588/475
f 467/578/467 487/603/487 486/602/486
f 495/613/495 511/636/511 532/665/532 518/645/518 498/617/498
f 497/635/497 513/684/513 511/636/511
f 502/624/502 517/644/517 516/641/516
f 524/674/524 539/673/539 525/678/525
f 543/681/543 573/721/573 544/682/544
f 525/678/525 567/714/567 556/699/556
f 559/702/559 572/720/572 574/722/574
f 581/733/581 590/749/590 600/766/600 609/780/609 591/750/591
f 585/742/585 596/758/596 597/760/597
f 593/754/593 602/769/602 603/770/603
f 601/767/601 610/781/610 605/773/605
f 604/806/604 614/807/614 606/808/606
f 596/786/596 615/789/615 616/791/616 607/790/607 597/809/597
